<mxfile host="65bd71144e">
    <diagram id="GXnBYwugZBoNjpMU5MrE" name="Page-1">
        <mxGraphModel dx="1257" dy="371" grid="1" gridSize="10" guides="1" tooltips="1" connect="1" arrows="1" fold="1" page="1" pageScale="1" pageWidth="850" pageHeight="1100" math="0" shadow="0">
            <root>
                <mxCell id="0"/>
                <mxCell id="1" parent="0"/>
                <mxCell id="2" value="" style="shape=image;imageAspect=0;aspect=fixed;verticalLabelPosition=bottom;verticalAlign=top;image=data:image/png,iVBORw0KGgoAAAANSUhEUgAAAggAAAD7CAYAAAAPZWz9AAAAAXNSR0IArs4c6QAAIABJREFUeF7snQWcVUXfx7/nnNvbLOwurbSAhYhiga3YYIDAo4KCPiioGCBgYGM8NsaD3QKCiIlKGYQIogjSzXbePvG+M+feZQkVkPQ542dl9945Z+b8Zs7Mb/6pHNv5bAunOAg4CDgIOAg4CDgI7EUEFLwuldtuHkhqSgBQefLZ0WzKL+a0UzpxSqfj+HXxUioqKzjqiMPxetwsXbqM5s2byz5OmPwps2bPpU2b1vS8tBvrN2zi6RfGkOJzM2TwTfg9biojUe576DEMy9yl51IcgrBLuDkXOQg4CDgIOAg4COwyAuJkfkSbQ+hxaVeClRWkpWcy84fZTJr8BacnCMIH4yawYOHPXH3VlTQ5uDHl5eWkp6djoWCqGk899Rw5OXW4/NKurN+QzzMvjuGMkztxcqcTiIaCeFNSmTD5c36YNXuX+ukQhF2CzbnIQcBBwEHAQcBBYFcRUFAskyt6dadl82a8+dZb9OzZE1XVeODhR+nY4WhO7nQc3/0wi5KSEs488yxcLhcrli2jWbOmzPvpJ444sh1Lly5n/vyfuOySi1i7oZDnXniRW2+6gYyMTD4YP57LunUjHNG5b9QodANBK3aqww5B2Cm4nMoOAg4CDgIOAg4CfxcBhazMNAYPvJ6y0mKeefY5evXqSZMmTRj/0SdkZ2RIgoCm2g2ZKtOmTcM0dU45uTNjx46jw7EdqV+/ASuXC9LQmLUbipnw0SRu6HcVS1as4tU33+SGa6+jft0GjHrySQqLyxyC8HeHzbneQcBBwEHAQcBBYE8hYKGiWgbndzmLjscejWma8kdRQNNUqSpYunQpnU46gSnfTOP3pSsIBoNSvXBKp5M49ZROfDD2Q5YtX8ag6wcQCPjktes3FmAYJo0b1MOwLHTDxKVpqIrGL4sX8+Y772OxcyaHjgRhT80C574OAg4CDgIOAg4CWyFgoqFZcW4ffBMZaSn8tOBnuW0rWLRq0YyUlFSWLl9KkybNeH/sROb/skjeQZCAUzqdyOknn8S7Y8ezYMFCOp9wLGefeYbc+EvLK8nIyEA3DBYsWICCiqKqHHnE4ZhYPPr4U5SWV+zUeDgEYafgcio7CDgIOAg4CDgI7DoCQoJwSMtm9L68BytXrOCV117DUlRULM487RROPOEErITXwbvSSPHXRGMKp3U+kdNOPon3xk+UxELD5Jq+V3LQQY2xhI2BovDd3LlMmvQxivjPQqouWrVozoRJk5k198ed6rhDEHYKLqeyg4CDgIOAg4CDwK4goCQussjNy8Pv9VBeXkZZeSWWlPxbeD0u6ublyd8tRaGwsJRQKFjdWFZGBrWyMigoKqaiMigJQVqqn9q1s2Ud07LYlF9INBKrvibF5yc3pw6RWIQNm/J3quMOQdgpuJzKDgIOAg4CDgIOAjuKgPAbENIBo9pAUKgYhEJBfCbcFVWpABBFKBmEUaL4VPwlfrN/7G/tb8SPTTVMFEtBVRKWBZYqK9l+Csl6pvxN/G3IfujVHU/SFZuabL84BGFHx9mp5yDgIOAg4CDgILADCNibuCAFCqc1CnFUoxhZLkNKBYK6ixnr6jBrdRU9Woc5OCuGx6UQs1ysrcrg7YVecrUy+raLsp5snvtWSAagSWolVx0ZYW00lxdn6dIo4aBABX3ax1FNFUvRJXGYU1CbSUsMLmse5NA6Jm63jm5BUSSFd5ekUV/bxPltBT0xcVkaFiaTVuUwe62xzZM5BGEHBtup4iDgIOAg4CDgILDjCNg2BZe1KKZdfQ1DscgP+ohGIzTIUnl+boCLmpbK3yvjPlaVWjTOiJPqtVgTqs03v5Vz1VFRCvVcHpthoWPSMq2Kq9tHWBXJZfQPgjSYNEmp5LoOMcp1jeVFKoplsawilYP9FbRvZBAx3MzL91PHHaRpbYOZ+TnkF+ZzWVuVglgK60p1hOBhzqZ0lhU7BGHHx9ep6SDgIOAg4CDgILALCAjJQX13Edcfb6GrPt78OYPFxRbC2MDnhnYZhVzYVmNDNI3Rc9xEDRWPFeamDiFqpcCvBW7a5EQpMHJ4fIYhZREtUqu4pn2YVdFsRn+vgmXSNKWK/h2iLK/MZvSPtuohVy3jxuN0DM3HfxdksqZU1I1zdD2YV+SiXfoGLj7c4oeC+oz/JalyqKnM2PzAjgRhFwbfucRBwEHAQcBBwEHgzxA4u3ERnZsZzNpQl/G/2Ruw+L+uqgw+tJAGWQafravPlGVxaXkgbBW6NCji5OYGlVEv6V6DfLMOj08XBAGapVbRr32INZEcnvtBkWSjWUoZ/TrohHQ3GytsC4awbnJIjsHiigxemOeilhqnYaaGKY0YFFqklHF8UwhGvRSGdCzLw5dr0lhRutk+IflcDkFw5riDgIOAg4CDgIPAbkXAoGuzSk5oYDJxbR2mLrfNBO3/e7jp8HU0zNIYu6ous1dF5cnftBROyCmhaxsojXtI80TJN3MkQRDeCc3TKrnmqDCro7nVBKF5Sjn9OpjS3FHXhXmiRVlYJTcVFpTl8tb8OIembaR3ex1FCWBZGsG4RcClEFfFNToWbj5Yks2v+Y6KYbdOAedmDgIOAg4CDgIOAlsjIDb8Q3zr+dexfirNdB7/wUswbteyLIVLmxZxXEOYU5LJOz+7Ej4HFv0PL+XgWjqrK700Sg9TaNTlsenCjNCiRWoF1xwVkgTh2R+EcaFF80Ap/TvE+b2qFq/O0yTRaOwp55pjTcp1Pw9/l4IwMvBqIS5oXM6hjVRCIUgN6MwtbMDkX2NYikHMVCUJ2eY5nGyOzuR2EHAQcBBwEHAQ2H0IiK3WR4xbjo2Q5o9QFE1jWZFGPB6lQRZ8slil75FBfF43S4q9rC2GhpkGrWqHCZLOJ79FuKS1TiVZfLHEQDMtfK4YZzePUhhPZ8ZyE5eIyEicLq3CbIgEmLtauE9CUcjFaY3LOChLZ3U4lRkrPNQNROjYKIblCjB/eYTjmposrQqwaJ1wsjRZWRlgU9W2iZwcFcPumxPOnRwEHAQcBBwEHASke6OId1BLC9KjbZCDaonzvn1CF14Dn67IpbisjIsOiZLmtV0iLcuiyszgnUWpGJFSrjk6IsX/mhWTkoGCKj+5adFEQAQhU3CztsyiQYaFCJkoYiKIVmcU5DFrWZjL21aSm6GjKZqwZyRs+fhoeS3c4XVcdLgdb0HFLfM2fLi8NrPWOCqG7U5dO4zEP7nIoJuJCbpzyTr+yajs3LMlQ5fUvGrnUqfuXHtObQcBB4EDFQFTsddb1RKnfIPmGbpUHYg4CGvKVX4vdhNTVLK0GIflmKT7LUrjXn7a5CYS00nX4rSuY3svyKJYhGMaPrcwJBQhlMUGrxCMQcBnB1xSLKFisCgIe1hdgZQuHF47Sv0MNxVRhfn5LspiKrmeEI1reVGIgyJUC7CmykdB1X5jpJiMEbXvh18u8YqIZiWVQ/u+Q7uxB4If2tuaHZPbkhG3nE1t1yAWSCZSr1bfYFvGvWv3dq5yEHAQ+CcjICMgimxL9l6/Rdpl4b0gMzFZYsXevD6binBP3P7hVR5q/3AbteMtyi1NRGNI1BNxGWxPCkVeLLa75MFYSB62V/aCikEKT5DcRvRLbsLix15sN5/e9/7mLMDZuGE99evXxx8IEApHMc1/xqIv0PWaOqplElfc6HKiiDH4uwRBkCkhzrInmmDKfxyoc8de+eSLk4z3uVmas3Ww0R27356oJZ5VpFx1YVE7uzZxVSVaI0b67mxTWjQnyN3mV1iMqJibf3f8dmdPnXs5CDgI/JMR2OMEQZ5ZVYvTO3emXr2GlJZXMfnjj6S7RaOGeRxxWFtyc+sy58d5LFjw89/ebHZmsESii3HvvUWdWunETTirWx+ilYXV7Gtn7rW/1BUbmWbB6iYtye52JWRk4K8Msun1p6m7adXfUqYIP1rFNFldpyFak+bUy83F9fH70j3njxjon+GiJmhw916XEwgESE9PxeN2ywQlM2fOZO7cuaSnpVVnNtuXGAsSc9YZpzHi1kEo/y+Wu/ORl/nq8w+RKdR2cxG6SFXVaNGsBT0uvxSf18eMmbOY/NknKEbcdon6Z+vEdjOizu0cBBwEdgWBPU4QhKjDNKLMnDoFVVX5eto8ht17v/S/vOOmAXQ7/wy52D342DNMnvyZNNTYMj1F8rF2RsKw9eq5/WvFQj9h3DvkZKYRNSzO6Holscqi7eC4M23vyjDsrmsUKTFY1+Es/H2uRXd55Y0NBTKjUaz/jCBl+a8Jd5bt7TB/mLIjIZpSMY0IZSOeQW3WitrBKhjYG8MSmcO2tuT4a8xUS8Ey4syc9jlqQvyWlCqJf4tKynj86ef5+pupcsPcsvz1/f8eqlviI1o7+6zTuOu2m6RobsQj/+WrzyfuAkH4o5198/Noqka/3j3p1fMyVFWwMlv7NXPWXEbccx+xaFyqi5ziIOAg4CCwJxHY4wRBeGsqephpU79G1VSmTJ3PsHvvI2bGGX7jv+l2/plS9SAJwiefgSkUEkKQKq+sfnZxQq02s9tqjZUn0WTmK6nGELr3rXNVbSuaFYRl6B1DpBFJVUWIJ196FSsUTJzOap6JzYSV6J4xZpSUqLq7NUT21rZa72RdW49VsygYikmBKwXXQy+hpGeSXbie4C/zsDqfTVhxU79oE5Uj+uPTDcTmbJMHkePLlPnIhX9uMpNYzTsLtYSaMIrRzTBFI0ajNW1JXlU53HgFphWThi72TiZikJsSQ1Na1v4xZkmC8O30z+V4lVcEWbt2HT6fh6ZND5Y6trhp0f/6W1n025ItM45JVcm2998Sy+2/Otvr0zYn8sTzCsG+LemA9u0O4+ILulBRFWL8Z9NZtPCnLUT+22s7OTc301ypoKkxr5P42LNe/JWeFuDT8e+hqCrLly1nY0EBJx7fUXKwO+4bxdSp32JZCafqPbk6OPd2EHAQ+J9GYK8QBDUeYeq0r6QEYcq0vyIIIi2FvYgqmobX7ZHShng8Jk+ZtpmdRTwWk7tqIODHMsQnFtFYTObH9nr8UhKhWyaxxHU+t2vbgbYUdMMgbpj4vX7iqoLH0OXmpql2Ek6/z0c0FiUajeLS7EAU2yvJbV20L+wY/P4ApmkSE/2sUUS/YtGoPBl6vT4MU5APhXg8LpNviM/kPmtaGIYBhoHb4wbFtlAVwSzcHo98/q374rIsVp59Bd5u3fFjUvep4UQWzmdFt2sJnH0eXizSRz8AP36f2MghYury/pamYUYjaPKmtmlj8jfRR8vrxxLWJOEKSu4SBKEVeVVlkiAICYJNLiBqmigBN5rpgmgYVbENJbdXtiYIM2fN47Yhw9BjIS44twtDh9wmx/yDiZ/wxLMvEI/r9nOLMfZ7JT6amBOGKeeHzyee2jbDNHRdfu9yudA0Tc4H8ZOakkJZWRlej6c6gWo0GpME0Of3YximvE7cS7Stx3Vssw0L04xiRSOYvjR8LheGZcoxi0VjwhgYnz8g55Oux0lNTZVjauiC2G5O3Sr+Etf4vT5UTZPPo4uxxyKnbg6N6uTR58reHNWurczAdsUVV1MZj/Dx229KCJeuXc+//tUX1K0NJv+n1zHn4R0EHAT2AAJ7hSCgR5k+bYrcLKZM+4lh991HzNAZduO/uXgbCYIuT6OHHnk4I+8cRk5WOrGYzosvv8nb770rNOzk5uTywP0jyEhLo7iolCuvvo6UVD9PPjaKunm53P3oE/w8ZwGHHdaGfldcjkiC2W/AjQREloxEkZvW/x/a7r5rGC2bNMHj89G1779RguUYikq7Q9tw313DycxKIxyKMuaV9xg7YTy6seWGn9xExflP+JO2bN6cUQ/cTZ06tWSOzrffHcfzr7yGoosTtUl6SoAnHnmQWtlZjHrkCb6fO1cabN41fBgtWxwsjSUvv2IgVRWFXHFFT84+vTOpKakMGnwHHpfFvXePwOv307VHH4xYZIspUel24b7vBUK161InFKb0+svwq3EWBbLJ/s8beDXI+GQ8qWNfkqf7VYE6pF01EG+bI9E0i8DqVax7diQNykuISKNGk3JfCsZVN5JyeAfSo1FKnx5G5JJrUZsdUk0QTCuOZamsyapHTv9BaE1aIdKOq4vnUvnf/5ARqtiOCkKczG0VQ1KCMPWHOQy7814UQwcjwtSvvpSb+4y5C7l12D24YkFGj36KWllZvPzaG3zx5VeYusltt9zMEYe1JiU1hWtvvJ21qzdw3nnn0Ouy80kJBBgy/C48msb9991FZmY6i35byrWDBmPELcLhIC8+9xT16uaiaG7OOe98br/1ZrpdeL60fRhyx93MmvuTJCVHHt6WG67pQ1adHO4c9RQLfpxDVnoaD99/J9m1a7NhQz7X3TCAx0Y9zPEdjpZGrz36XktRUQGCvOlopKWlMuSWmzj5hGNlVvhQJMYzo1/E43Ez8Pr+VJZVcM+Dj5NXN4da2Tk8/p9HqV2vPtM/GiuJayhm0KrtETRs2Hiv2uvsgbXHuaWDgIPAfo7AXiIIcaZP/UJKEL6aPo8hI+9DtwyGXN+fyy7qslnFMPkzaezW6cQTGXnX7Qh7eXF4EwupOMV9Nv1bho0Yid/r4esvJ+LWRNjIGGecfwnHtDucxx4aKY9q3/7wI4NuGcqQIYPpdu6ZTPt2DkNGPoQWE7pb29dTqiAsi08mjSMjxU9MN+nUrRdmRRE9LruUm669uvokb3ubKMz7+VcGDR5in+y3LopC+yOP4ImH75WqFKH3F+JlcbCes+BX+vUbSCDFR3ZaCpMnvC/vffuQO5k+azYqGh9PHEdGqk/aqXfpehWlxZt4/NH7OalDO4SQ4dsfZnF8x6MlhkI3f2GPvhix8Ba9iLg8VD71NpovQIO1K1l3+9WkBbwUmnDMTXegh+PE5s+j+IcplLr9aKNeIp6Wjc/S0TWVoKWQHY4QGtyXrGg5whyuoOcN+E4+k7iKjOblNgwqg2H8mWk1CEKMNel18I98FlLTcAvCYGgYmkqdjaspubU/GV4PkiXVKNsQhO/nMPyuezGNOKX5m1j0y08Sp6+nf8/dI0ehxyJ8P/1TqWp4+PGn+PiTz+UJfey7b1Evp5bE+rI+17N6+VoGD76BS887TWJXXFIsCZvY5GWx4JHRY/hg7CSqykv4adZ0hIApFtWpCgXJzsywpR4KxEyTM865WEoJupx5KsOFDQIw6O7/MGvGNzTIy2Hs2/+Vtw0GI2gu4avstl2QFNhUVEbXy6/AiOvUqpXJ+Ndfxh/wStXJhk35NKyfl+iTxcxZP/HRJ5/zw/ffS6mZNP00TTJq1+GLD16Xz1cZiXHUsSdRu1at/XxpcbrnIOAgcKAjsMcJgtThxqNMm/al3Dg35hcza848ufAdekhLmjc7SC6kDzz2NJ9N/oyYHmfyhA/Izspg2nezeOCx/3Bsh47cc+sgGYGq11XX8cuS33n/zTG0bHqQVNuec0kvLjrvLPpe0UsuzIVFZVxw+RWMumsoxx9/LP995U1efuOdhKLftkVIOll+8tF4MtL8ROImJ3ftjSdWyZSPP5TqhG+mTOOlV17m1NNP46qrehOJxTmjy0Wy7zWLIA+6HuWd18bQrEljfvl9OYNvu4PGjZvy7GP3SzH4DcPuZP7sn8hKDTB54nvy8tuH3smMWbPRUPl4wlipe7YJQl+Kizfy+KMP0KnDEfaeJsiGCtGowar1G+l33SD0LQiCQlBVCI4eD24PbZb8SuEDt2C6VFRxeo3pEmfVZUtRVpx0DhlX/Zv0WJzaT93JhqJSUoY/SmFKKk1++YmCRwZTmppHxqgXMQKp1ImXExo5mIr0XPyDRhDy+citqkC9sScRxZJEQjn5TPKClZTd2pfy1Fqk3PsUPs1F1lvPYX4zCUPZ0tBQEChBtr6f9pncvJeuWMn4Dz+ibt08zu1yFlkZGZIg3v3gKKZ8NROMON9P25ogGJIg1M/NThCEAaxevp6bb75eEgSxmYfjOmPGvEqdvDwuvaCLVB+t3FjEhd16EI9F+GnWDEkQhORq6YpVvP7GW9xw7TXUy8uR17c/tjO+QCpdzjyNYbfdKMfihnseZ87Mb6hfN4fxb46RmAqVwA+z5zH5k0+5c+itksiKBCoptetyWLujGHbbYC4481SpJjrn/K5UhqLcP/JOOp14rCQtt973MN99M02qa2wJl/BmUBl800AuOu8MWeejr6dx7z0PyPnpFAcBBwEHgT2JwB4nCGJXcsUj1QSh+mG2MsJ+4PGn+OyTT1A1D199OhFNVXjkiWf58OPJqO4UZnzyvjxRvfT62/z3zXfo2fV8Bv77GrlonnPx5dx64/V0OuE4SRAikTgnnnUeE995lby8PPr0H8CSpcLFL9loUjZhYROEgEyRecpFvamb7mXsmy+jmvDzwl8ZMvxuqsIh2rRtw5LflxMMheSiXdP3XxCEUKiced9NkyLx198dy0tjXqe0IszcqR/j83qZ8MU3PProk2SmqEyeMH4rgqDw8YRxsh/ijN2l69UUFW/g8ccepPPRh8uNfcJnX/L+uImsXrmGqsoqqYrY0rVQIe7zUPbk++B20/KXBVQ8egeG2EfsSJxyAxX2HVXCtuPBF6nKzqF+VZCSQT3xo1M26F5Chx5JTrSSzKH9WJXbCPfQh6Un36E/fsWaZx/FJEbRnc+iNmlFbqgCbVBPinQL/dExWFm51F+2ENeDtxBR/ay/9xlc9RpQf+FMPP+5l8rtEQTT4PupNkHY2lhBbMRffDWVkfc/iKG4USSZ2Jog6Ix99+1qgtC9zwBWbUUQrrn+Zn5dtJjaDerz0RsvStXGppJyzjzvogRB+Ba3SyESiXHcyaeTkppKx3aH8+jDD8gZc875l1BRFebsGgRhwMjHmfftVOrl1WH8G2NkvWUr19Gj95V4fH4G9e/LZZdcKCUcgewc2h3dkRee/g9tWjSV0oGmLdvQ8ODmDBzQnx4Xny/nwytjP+KFZ0dLyZmYYXk52QwfehuHH9FWfh+Jxuna80oqSsoS3j57cmlw7v3XCCSta5IePPvSs6SGcfNfd9yp4SCwQwjsFYKgxaNMnfYFLiF6T75DliVP1sly/+NP8tmkyRxxZDue/M9DUjx/67C7+e7/9dJxzcUPn30oJRBzFyzi6gGD6HDkobz45ONSFHDehZfw2qtjsEyTrMxMuSOe1uVCPp84jlA8RqfTzsLnS7XFvrJsSxAiQsVwYS988SBTJo/HLeJXi9NnLManX05h7NjxLF+5Ds2tbTfiYoP6uXzw5ivymseeeZ6x4yYRDMeZ/vlYstLTWbZqHZf2/Bd1a9fZjgThLwgC0KPPAFavXIUhvTmEXeOWJEWG3fS4CD49VhKE5gvnUfn4cDs4kgxUlQyx46LQ7yfw5DtENZWW+QX8dmNv0lPcrDj3ajIuupCMuI7vrkGoedkUDBqJy7A48s1RrJ42Qxr/FYx4Unox1AlV4BnUg58NjfovjUNX3Pg3bSR/hvBKMPCdeh7u7Do03LiC8iH90dzCMHBzkRKEGgShvCrIhvx8DmnWRFaqDIY46+yLcKmKDEsqmMr3Uz/fSsXw1wShz7UDWfz7MtLzcvni3VckEDZB6Eo8FuanWd/idSlUhKIc1/kU0tLSad+2NU8/+ZhNEC64lIrK0J8TBAt+XbKcvtdei6p6uPLyi+l/9VU2QaiVw5Htj2H40FvpclpnOX8u7dGbDQVFPPX4KNofeZiUSgwcehdzZs+VxqjBYIjxb71Ks6YHSWK38Lcl3H7HXZSVV6KYVg2vlx16z51KfxsB8QbZ6Xo3u/Taf2+mCX9kjvtnjdckGTvaya3ffXGdWBeEcbe9wNakCw512FFcnXpbI7BXCAJ6jGnTPsetqnz/4wIGD7kTw1IZOvA6W3QKCILw6aTJdO/enWuv7SOD/dw8ZASzZ89HSfMxfcJ78uS+Yu0Gzr7gYlo0a8qk996Q17719jtcfnkPJk/5muOO6UCttFSeevIZbrjheuYsXCjF8cIbYXPZliBIG4SLemOWF9K/71Vc1bt7In8BmCrohsnrb3/ACy+Owau5tghUI17XM08/WYqVhUj80adHM2Hix0TiKl+Mf53s7CwKi0voeNKptGrelMkTxsqubFYx/LUEQahWVqxcJY0xpDudjE1ZsyhUYlH5/Ie4PF6arlxM0d034tc0YqqFprqIi+xfuk5+Vm0yR71MVFVosXEdvw26gqw0H8vO7Emd7j0IRC2C9wwg++B6rL9mBH7DouNTQ1i+8FeihknB8P/gatqSnARBmO/NouHTrxMX1hSGjsuMS4In+idcL7NLi1lzYx9yAp4tXBW3JggzZs/npluGMnPKRLxej7z+siuuY8OaVRgiTLSUIHy56wQhJ4cv3n91G4Lw4/cz8Ls1ygVBOOVU0lJTOfrQNjz9xM4RhEWLl9Pnuv7S2PGKy7py3TXXSC+VlKw6tDuqA6lpabz/+ktkZmYQixkUlZRSOzsLt1vj199+57LeV5OWniHHOKNWNp++9zoiDMKPP/9CvwE34ZEEa1+eUv93F1CRO0+1RGz8Gt4jio5iuXAlolvuSGyKLUdv17ZxOyCvMNe2EwDJkOqWcFUWvznFQWD3IbBXCIKSIAguYaQ4bS7D7roT09S4/ZaBXHzuadLNTxCEzyd/yhlnnMHQITdvQRAMv4eZkz5A01R+W7aKi7v3JiMzg+++/FgiIVwJ3W4P9zzxDKccfwwnHXM0etTE5VJ5/rXXeeOt97eyG/gjgtALNViGZRp0OulYRgwZis/nTQS9lm4KnHZxd0IVQflCJotQhwgDwofvvVsu35IgTJhMZRy+Gv8GtWtnsamgiDO6nE+jBvWljcVmgjBXvuhJFYOQsJzV7WqKt1Ix9LryOlasWg2KnZgjEbx6i5lQ6fVgjXoTPS2VBiWFLO9zAfVrZVGuuHA/8BJaZjq5337Cmo8nwGOvSSPE5hvW89uN/6JWup/lZ15Oarfu1DL/P6YbbuLBAAAgAElEQVTCPdcTqJtNwYCRuC2Lw54Zyqb5C4mZFgXDnkBr2iJBELqzwJVB3WfexFQ1sn+cyerHhmMJViWd9xS8CuQGvFJwvjneg23EWVOCMHPWzwwddi9nnnk8tw++EbcKz776Nm+89gaqIAhC2jDtS/nMDz3+NB9/8iWGHtvCBqF7n+tZtXzdFjYI1RKEPyAIs2d+Q6rPS1koygmnnCpdFHeFIPy6eDlXX/tvcLnoffEFDLi2XzVBOLJde+maeN6ppzLkjlukca1AJxKNMvmTz3n2+Rdxe3yJeBImxxx/PE/ee4e0VzhUeJDUriO9gJJFeFg4Ze8hEKhaSveTQDhLy8wtdjh7itVDGDtbGAuLINybVZh2zzbTgaQSwv58a2JQs+72vtvyORUlRk5mlNVlWQQsgxyWcn57lQ8XZlMYtSWom6UcW7a8LcF05At7bxYdeC3tcYIgk0boUWZ+M0WqCL6a/hND7xGW6iFuu/kmLhUShBoEoXZOHuPefVUiOeyu+5g+43tMYYPw6XvSLuHzr6Zz530PyVgD7702hiaN6ssXTiyX3a++mZZN8hg57LZqnfv1Q+5k/lzbKHJzSYQGtkw+mfQhGakBorpBp249UYMVuCwVy4ji9nrIzc1lxNDbadO6pXy3Pvx8Kg8+OAqtJlVXFDwaTP1isnz1n3rhJd59fzxlEYPvP/uQjPQUZs9fxPU33UZOmodJE8ZLv/k7ho/kq+/m4jF1Pv7oA9kPYaB22sXXUFa0nsdq2CBcfuUAVqxeWS3QTAaNqt4wRAwCEbthxBOEGjcjKxbDNbQvRmkh4VCE0JjJuAMBUr74kOD49/A99ZZUSTQsK2bTjf8i4FJY13sgqSeeQaqpkzOsPwX18ygZdL9c+tqM+y+FkydgmDEq7n0RvcHBkiBog7qzUtdIfeFdLHcK2St+xnP/rYQVDwWZaWSWFJGqaUQt4Y2ypcxja4IwfdbPDBs2kszaaYx77xVJIIKRKGeceREuTUTkFEaKU+QjP/ifZ/jokynScHHsu69TP8c2Uux+1UBWrViT8GIQBoGQJAipuTlMeW9bCUKSIBSHo3Q6+XRS/9+QdGuCUF4elJEUh99uR1Lcng3Cr7+t5Or+12G5NP51yQUMuK6fjLGRWqsOxxx1DJf36sXVvbvzy++/c9PQ4YRjcRRhv6HbOdu0RHREw1Jo1KwJV/foQSweZcD1A2nQsOGBt7r8Q3os3jXf2ql8+WADDEUYEgtDX1vMv5R29H96Gah21FK7iKBjYllLbtS2AkC8ASo6lnijEh490tNJSgA0UETwK0FBkkGzhApDmnnL6B7iDlGvi0dPWURFRiuGv+cn3YxwMHN56vpW3PRanGVVaQkDV1XmCxGSWFs1kuyLuL+4p2hLRF4V9ewjx9ZBvf4hw+c8xt9AYO8ThBk/MeTue+QGfNvNN25BEL745DPpO/7t1M9l8J5X33qfV159g6xaeUx45yU5r0fc8yBfzfgWw9DpfuH53Dzw3/LxK4IhTupyIYe0aMFbLzwjRbMiLsH5Pa6gpHDr8MnbIwi2m2OqEaVXj8s48qgjuP3W24hEImRnZjJ+7LvypRcR9B5+6GG0Gm+TTORTVcZ333xBWkoKX3wzlQcefozyuMnsLyZJycfz/32Nt94bR0bAy8cTPpBxbiZO+ow77n6A9kccypgXn8YlgixZCmd0u5rS4g1/QBC2PYMkx18xdVafcC7pfW+QNgdZE9+k8IPX2NjmBHJvvxOfiMPw7P0Y8+ZQfvNIYm3bUcuIk3L7NRSXFmI+NAajVh4NK8qJ3N6LVRk5ZNz/PGGPm1brllE+bABrfemkP/UGIa9P2iD4Bl5GqeGiYvij0i4hp7SQ0uu7owTS4K7/4HF5SRn3X4x5322TDXFbFcPPDBt+H3EjzPtvv0L93NpysbvjrvuY+d33xENBfvh2qnzcaT/M5boBN3FY2za88t9n8LvFovs3CILXS3Hk7xKEFVzd/99bEAShmkqpVYejjmjPuPHvkZeVSVh49cz8gfWr11NeVcWvi5ew+LfFCXGxcCdVOOnkzjQ9uIE0Rpzy1XTWrl+byEmxK3ruv7FCOJfKOehb+zVfPtCQkR+7+Lr4IGnsKzZdl6VQFQxj6TE0Lc32Lvl/F+ZwpBC3Kw1VdRNXLLx6MT7NIERtFMUjpUfiYCSCjGXpxZQJ8qBmSzWqZUaI6VF8nlT5zpiWQSxejtedSVgJM7nHShZYrbj59ThpHhc+dAwqMM1auFSXTBEcNSrJUYMUxt14PHVREDFTFKKxEKZp4dFU0tRSysjE5UqVydecmeVM9q0R2OMEQaaY1O04CMK9TMZBuOduqU++7Wbhq36WfKGEiuGL/3cPM02V5558jLaHHkJ5KMxHEz6i00kn0LhBfaoiUS7qfgXByir5HNlZ6Xw07m0pLZj108/0GzCQnLwGfDH2TSn+21RYxBnndiUtJXWr5DbbEgTh5nhit16k6GEmvvc2Gel+SssrmDnjWw4/tC2NGjWU4uIzLrmSUFnJFioG23/Q4q6ht3PWqZ0IR2OMHz+Ro486ihYtmhCOx7m4V1+Ki0pIT0nhs4nvykiKQp1QUlZORno6btVOySy4/llJN8ftShC2TxDs84FJqamhPfoqeu06BPQ4+ro1xOs2wvK4aLxhJSV3DUKcddbkNCAw8hl8ior28xyKqoKkdOwkDUdz3nqW2DcfUyGyQN71BHrDJvhEBMjPx6M3bIa77eHoMmZCGYGBPWX8hIpO56D0vla6VMbmfi+zCbk7HEd6rAr3PTdjFW3cJlPm9gjCHcPvwzJDNGxQnzdefU5YTbDg18X0uebfZGVlMOXj8dLjQcSZKC2vJDUtVRoxuhJeGn8mQUjLzeHLhARhY3EZZ53fTRopbqli+GsJgpjS0s3xuy29GBb9toK+SYJwqa1isAlCDu3bd2TUA/fQsUO7hJHp5ldRjF0wFOPFMa/ywYQJuEyVW265mXO6nILQJAwcOpL5c36wT5pONse9uIrbW6aUIKz7mi/vb8iQdyymFtWXm7A4MLjcPhpkFjPq/Cjfr8zi6RnpdK4znxu6pPHEj42Z9WuIfx+9itPbppLicfPDapPHpmVTEPZTx7WOYSdXcFhjL1HTz4RFJmN+yOG4wCIGdM3jmnfSqdQzaNMkxN0nbuL+CVGGnJdC49QqdEtlY8TP0Bn1iS+azSP96jB8Ul1Wlro5ImcFAzvpNM4OUBaBt+am8t4vGfgihTx/lZeo5UMLr+LgvAC/FwUY8XkWFVXuGiqSvQix09R+jcBeIgi6NFJ0iUiK039k+MiRGLogCNdzyflnSYDuf0wQhM+kSDhuGbz1+ssc1LCBPAknvQluuW0E8xcsrA4zKyzlv/50El6Pi+defp3X33mPFF86Uz56Ry7C4yZO5tEnhDRBpCWuOQ5JgmDx6aTxpKcGCMcNOl9yFVQV0/qQVjw76j78AX9CXCfsHOK8N2Eyz774GooVlZv55iIMhgzilsXLo5+lTatm1SrASEznnvseZvq33yFEx2KxEYZqDRrUs90ODZNp07/jmA5Hk+Lz2nEQuvWhSAZKepDOHWw3x80qhj+SIAg0FGFKRekRx+G9sh+R1CwpSHSZFg3Liwk/ORJj3VI0RSNmKuiX9iF+6rlEXGJxAL+uU2/hbEpeGIXbEEGlVPJbHE7gxrsJe1xSXNkofx2r5s5BOfsiGlRVYN7Ug6hwncTC0/dmYh07EVRcctxqRSN4PxgD33wq8d9ab749G4QhI+5DMYPEY/DJx+/KbI7llVV079WHcCjI6y8+Q5MmB8v7GabF9z/MoUmTpjTIzZaf9ZAqhtUMHjyQS847VS7iV107kCW/LyMtJ4cv338VS4cNxSV0ufBi6eY4a+ZU0oSLaDDCCacKgiBsEFpLI0WhmDr3gksRKoazzjqNEbffJMf2+nseZ64gCLl1ZBwEgd+ixSvp2+86Gbb6iu4X8u/+VxMzLNJq5dKhw3Fkpfp47pknCP+/9Gvx4t9J9QdIT/XTqnkLAkLNZZi0Prwj9XNqc8vgwdUEYdDQkfzkEIR9sJDWIAhrv5EqhpJwgGJDRTVFSHiNp2bX5qdlXm7ruJLTDle45SOTJ88LszR+OH3eitG36SJ6n5TB6PmN2VRcytDjiphbksvw8WEeOK+YYw5K5+lZDWiRup6z2miMnFEf94qpDO9Vj3NfyiVo+jmsVYwXTl5F/w981GrUhDuOmM9aszmvz89m3uo4uWu+4fVbs7ji/WZURDbwVs84iysOYuxCN+1zNnB+6yD3f1OPGT+WMWmQisdXwRsLWuIyy+netoAJqw/mkc9c0tbIKQ4CW+xsx3Y+ew/PCrELmnQ45hg2blpPYVEpkUhYnozaHN5WJmcqzC+gorxCxr2XMfNlLIMw53Q5m44djmZTQSEvvPACmubZ0r1LVTmoSWMpmVi3YRPhqpDk+8LDQewM+QX5VFZVVd9ziwe3pKkRp5x2CqtWraQgvwDhZieXBMuiIhLkql69OaRlcwpKSnntjTfQIzEs3dbnbSuQsxeTWDTMiSedyBmnnCzbHj36Jen3bueQsAmCEYtx7bX9qJWdLT0w1q/bwCmnn8rKVSvZVFBAZSiMETc4ukM7KsuDFBQUEKwQIsQdSS0snsug2OOj4clnEcjNIVZcyIqPJ1FLNexoS4kibAIKMvNodvIJuH1eCmbNwly+VKpnkgxHuEmWZ2TRtMu5Is4v+Z9OBJeG1qgp1vo1aBWlcnMUzxU1LcyDm3JQx44olpu1Uz5DLc6v4Qa2eapJjawM/qTQ/uij2bhhvfT0EJkKxeQQNS/v2YPvvp3JggULSUsV4lpVBqTq26cvdevmMG78RJYsWSrHcN26tXIeiTEUwZfatm2Lqevys9IyETfAxOsPcMwxR7N65UqKi4qpCobQ/z/U8+mnnsrqNWvYlF9AKBhCURWyMtLJycultKSEgoIiGUWpcaNGpNfKoGBTAcUlpegi54bPx2GHHcr6desoKiwiEo3JsW7W9GCpay4tKaKguIRoOMic6V+huDTO6XYJlVVhaZOhWRZXX9GT3v+6XJLD87r1oqSkhPbtjiItPY0N69eybsNGu1/O2rWXEdiKIDzUmNVlORTradJmIK6YvDFPYc5SBSu6hrFXGzRKj1NhwXn/zaWENF67YBE5AT+jvgiSapTR9fAU2hzSmF6jV/N+31Qm5R/FI+MrsJQKMtPilBerdE77jRFX5XH+C3WpsDwc3qqS0aet4+oPcplTnseUi2fxs3ksg99RSTejNAzP5I2bc7nuvTw6Niig10leLnwaKqlH2BVjfPclrLBacuPLFXw3SKdAacq/Xqgi6lJ56rwVeD11uPKDOqSYUcdLZi/PsP29uT0uQdgSgO1ZzP6RH7D9ubDiFr/ZYXK35DLiBLpZ6GpJsXNNK/k/Az+Z0U+a/lRviPYVtuFQor1Ek6L9zRklxXb4R8t14nNBdGS/t9cLIZ5M+Csn4hSIjdjuk32d/RzCiChJCpKylL+aUuJCU95AuD2Jq8XJQOhKDVVL6E6TBABcVlwGZxJICit5cxsRdkL1oehoIjmR6kaxhLOXHdpRVzUpoRCdT3pgC/WDcKpE8djuV9Wpnzb3XXxmSEcHOx6GlMgILGqeYqSaVjxHcogsTGmnYdnGV/K7BM5bWIbb2NlPL4iI7RCWXO7tp685l2xf9u1/ZtdOzj5TVWTI6Wp7ddnnpF16crIkp6om+y6CZ/XofgkD+vSUfy9ZsYo773mA0pJi2h12OENvu4n0zDQZqTO3UXNaH9I68cCb55L4bXve7381G5zv/w4CWxOEhtwxDr4pOkKSWPEjJIfikONSQ9zeYRHnHuVmk34wZ72UinizPui5mnppAX6LNsVvmXKNipLNcx/N5tVLKnhy5Yl88Hk+hsjZpqXgNio4zvMj919Tj/OeSaNErc2pLYu4/9RN9P0gh7kVuUy5eA4LzGO55R1IM+MJgpDDgHfrcPrBhZzfMZPTH67ATGtElc/D2+cvpCytNf2fLub7Gw1WmIdx/YtrKXJnMrrLfNJSc7nk/XrkGuKA5RQHgc0I7BWCkPQfkBt9jQS5yb832/ru/NCI064MQ7yTl27dly0u34qLbD5z/xGZ2cnGd6r6rrcptr1qVUhiI90aJ7uO/anYfLf2jpBbrdyMhaW1vdWLRE+bN/2t+2d/sxnCnR2ZnQJnu5U3czL7ty03/r93/+2RnT++Y2KDURSZwfPTSWOpk5khJ2s1wbC5jPz7zfc/ZPRLY2SWyJrlz1Jm/72nca7+awTsd8K/dipfPFSfZz8z+HqNWBHckryLzb4knslJjRZz9/leZq2ry/F1V/PWogY8OcPLI6evpX1TlV6vmBQXuzj5UJi9MZNIeZDx12tURl30eL6Shp4ybru0Hi/Mb4x74w+MvlLj2nc15q918ch5EU5o7aPv+7WYV1mXT7vNZanain4vVZHhTeXgqjm8PbgOfd6vT93MSh44p5KnZ2Tw1hw/B7uW82r/AK/93oLXP9vE54Ngld6S68aUUKKlMPqcRaSkZXKJuFZ3CMJfz4f/rRp7nCDI05Uts/4HlGTUtL256UlHUblI7Xixt+ckCbKvs7f+bQlC4rCauHnSIapasJIkCDUal/f40yHdVtqz433fuZpb2oJsfW2CIPx5pZ1rcCdrJ5sWM0fYtHTs0F5mGT24aVOZtluotn77bQnff/cDS5ctk8GQhJSiOrFUNf6bWcWW/vY7My92svNO9WoEAmu/4fOH6koJkGVqMmqrWNfW0on+T8/gtSvDbKIpN7ymMPS0Us5sHaPnOymohsrjXSOke2OE4lHSfQGentec8T/E6Vh/LQ+fFyUYBY9msUE/iOve19Cj5bzzryoyPRGCUQ3TlUq2u5R+72eypCiDEaeV0rlViE1VGiO+bUrsp6m8eWst+rx7MMuK49zSOco5rSvZWGmQk6KwJHIQQ8erhPPX8dGNGmviren3Siklmp/R5/5CVkodLny/HvX0oDPiDgJbHk72pA2CEBfXrVuXRk1EatoDv+wPS/HO9GHrPXx71+4Idds6Otv+FKJnSxK0/Tm2L/u7NXZiUxGbf1VVpWRZAa8Pj8eLbgijt80jtK0CxLaNEZ+vWbuejes2bOVJc+C/X/vzE5jBjZzWoRG6VHcJRZywIIkTNLLYUFhKizwPy/JN1hXH0SIbOeHIemwM+VmyoooUVwUd23ip5fezuFBl4cqYtGEQo3lweojDmvkImm5m/hYjEvXjsgzc3iCntPUQNbz8sj5Mkzw/v66IUx4WVDPGya0V/H4v3yzRMErzOe7IHGb/bhKMqrhUnZYNdFrlKhSHfMxcFCaGG5deyTFts9CVNH5cVEpEVTiscRy3FuDH5SZeYb3rFAeBGgjsUQlCNBrlgfvu4diEa5eDvIOAg8C2COyM2kJI5ObO/4Vh99yHYohYmI5lwt6YUyL3iSSaSRsZKSRLKkyFmFSThE1mTpWquoQUyLJzoAjJnLS1MbGjgialeYqwMxK2NSLXiG3GXG2JJNV6wt5H5LARmT1F87Y/r60OFPXtaKWbVYC27NAOu5yQPtaw60la4gjPLnEvcbUm1bQ1lb97A1GnjQMBgT1KEAQAum5RVFz0FyLpAwEqp48OAvsBAhYEUlNJTfWhiuh7TlyEvTwoOyJzk0wiYRBcUy0pt2OZSSFphZLwa6pWCNpbeiK/QnKLT4iTNud6SKrwkv/aYc3tUrN/Nb9PJpqyiYAdlzFBRYQltTT43hn55F6G3WlunyCwxwnCtpN2nzyn06iDwD8MAWcx/+cM6NaGvjtjw7OjdXe03j8HVedJ/j4Ce4kg/P2OOndwEHAQcBBwEHAQcBDYewg4BGHvYe205CDgIOAg4CDgIHDAIOAQhANmqJyOOgg4CDgIOAg4COw9BByCsPewdlpyEHAQcBBwEHAQOGAQcAjCATNUTkcdBBwEHAQcBBwE9h4CDkHYe1g7LTkIOAg4CDgIOAgcMAg4BOGAGSqnow4CDgIOAg4CDgJ7DwGHIOw9rJ2WHAQcBBwEHAQcBA4YBByCcMAMldNRBwEHAQcBBwEHgb2HgEMQ9h7WTksOAg4CDgIOAg4CBwwCDkE4YIbK6aiDgIOAg4CDgIPA3kPAIQh7D2unJQcBBwEHAQcBB4EDBgGHIBwwQ+V01EHAQcBBwEHAQWDvIeAQhL2HtdOSg4CDgIOAg4CDwAGDgEMQDpih2rsdlQloq/PQ7922ndYcBBwEHAQcBPY9Ag5B2Pdj4PTAQcBBwEHAQcBBYL9DwCEI+92Q7KsOqbJhKyE2kBKEPywJ0cK+6qrTroOAg4CDgIPAHkfAIQh7HOL9tQGbAihir1eqtQmAiYKFoAvyOxRU+a9d0VDAUMS1iev/4PHsa8H6E6aRrPN3EarZhKVY8gkSrf/dWzvXOwg4CDgI/M8i4BCEf9DQb70t1jzni9/Fpq8ltnoz8dxi8xefq4IAJH4XG7fbsuQ2K8iCZpmYikZUMdBVFTWx64t64n623EGQCkEgbLYhPpfXW0kqYfdG/N9U7PvaLSSLfYcti6idYDDJ/lb3WzyB/VSmYqGjYShqgsBse5d/0DA7j+Ig4CDgILBXEHAIwl6Bee80Yp/07VO7va2KDXgzTRDfa9V1DLtGghS4LROX3MxN3KaF17TwmOIzexOPqCpxVSem2nRCV0C1VLE9o1py20ezbIIgrvCYNjHY3Lq4uSH/tj8T9bYUL5jbIwg1xQwWso/VEg/Zd0v2Jaq60HER0RRiaqINy6ZDgpA4xUHAQcBBwEFg5xBwCMLO4bVf15Yne7lxJ07vGPJ3uaXXOMnbJ3tLEgmvISQECh5JEAQpiMrfBUHIjOvUNixSDIOlfg8hFYKal7iiSaIh2lOUWELSYOK2bOWEIsiFkA+INhMMQZF/CFICkk9IKiK2b7vPokiCUK3uSNKLzRRD3EIShIRkwyXaEZIOxaDA5aHE7SaiaZS7vPLehpRpOARhv560TuccBBwE9lsEHIKw3w7NznZMQbMMuXF7TAUpEUCXp/uk1ECoClyWraH3JnQMPtNEw5JSA7+83qJpKMIhsRC19AjLNDc5bVrTYvY8xmVns8ntxlAs0nSL2nEdlxXDY4m2LQIJqYFLbuA6aaaCV5AIsVkrtmrBFiFYqKpgAgYx08QUjEFBSids0iAtIJKVtwBCfCqeJ820qIOCxzDIN8KUEuDVxvXI97mp1FKIqIpDEHZ2Cjn1HQQcBBwEaiDgEIR/wHRQEidlv2FIlYDfjOMzDAKmgUeqFWxtvyAIwrZAkAZBENLiFplGlLxYnEYug0AkQkU4BG3b0rRXT3yHtSE2cyZ6owYEwjoFA2/DneIjHIlSJiQHrVuD3wuaLVFwe3243B5qH9EWzZuGlRbA4/GCYWK5VCxNRYnFwRTiBwXL0LHCUcy4jqHHUaIGlq5jGHFJHgRV0LwejGjMloy4NCxVQwv4sXw+rEaN8LZoRkpaJkt69mJ6UQnTU+tQ7HYR0iCmuBwJwj9gfjuP4CDgILBvEHAIwr7Bfbe1Ks7nblMYFZqk6XFSzDjpepxGkRBNYhHqKG4UyxT7MZphYETCqKaFoZik1W9AoG4u6W0PQW3ZFi01ndppaZTP/pb4nDm45s7HHzdYTQyrTWvSmzVHad8B/2FtSHd7UWJhohs3UlZahmXrDVBjccxIGO+mAqKFhRiGbXeQ0AvIf5J2CIIwBGrVQs2ujeL22N9omiQPUtWgKFINIlQW1WYEhgmxKOH8QpSCEtJWrmd8qkmPLmfz4ei3+CQji0K3l7AkCJpDEHbbTHNu5CDgIPC/hoBDEA7wERe2BV5pM2CSFY9RLxrjuIpS2kYq0Y44Cv2otuD1YyketBQfLpdCvWZNCRcUy304ungJsRXLCa9chfXb7xh+PxmZ2cRTUzFbNiXasjn1Tz2DlBQfVeL7Gd9R8eMsipf+ju714kHF5QsQ14SiQmgPbO+EsCV0/0k7gy3dHUU9Ye8gpBmiuNDQpOukTSaSdhPVZpYJFYSoa3tFiHubmIZObtRg6XmnU+/3xUwrquLbQCb5Hp+UIAhbCccG4QCf4E73HQQcBPYZAg5B2GfQ756GxWbqN00ChknTcAXXbFhPWt0c3A+MJKtNa+Y9+zzp69ejVAXRi4ooLSvBral46tXHddRRtOhwHIHcPHAptrrA6wNPgGhpKVbBWiKTPyX43SwqV65CyazLMtNghcdNleoi6BandBMDl7QbkCf+asfHpBui/ZxJt8rkUwvvA2EoaZMAFUURdgd2raRjY003TVuCIKiHQcCwSDXi1IlFOamqkgav/ZcvevdmXk49lvkyKXF7CGrCu8HxYtg9s8y5i4OAg8D/IgIOQTjAR13o/gU5SDVM2gSLGVBQRJ0FM1F8mbBuDUSjkOIHLRWsKBhhCIZQlq6lavYsChf/ii8/n9Jly1EVFy5NIwULX8BPgcfHKsPFOreL/ICHEpeHkKZiWJo0AtQTbgqCIBiJyAeCLsjNXNkyyoEd+8Aum6UEghCIT//YKHHzVbb0wGPppOgWteLQMFpGu1CQY+ZMY8VxnRiTXotVnjTZT0EQDIcgHOCz2+m+g4CDwL5EwCEI+xL93dC2IAh+UyfNiHNwKML1GwrJvf82XE2aEL3wIip96SiaMEAQO7SbkAWVuKhQdAy3QpW7FkFTIaSYhFUwVJOoplKpaYQVhbjmJij+VYW0QCGqijgDwpNBk2J+29dASA4S53upKkg6MdaMg7BlMAI7CJNNEGxKYXtC1IydIKIiJqUIgkK4TBnVgIy4QZau06mskDPq5ZHyyvOsObMbL6Sls86XSolblc9iSzMcN8fdMM2cWzgIOAj8DyLwDyUI/zuhdgVB8Fk66XqMpqEY5xQWEW5Wn1PvHk7BJd35NjOXUpew6lfkqT+a2NxjRozO55xB/fqNWOc10CUAACAASURBVL9sDR9/9SUxn4aiuIlpwt1QRE60wyqLeAIiGFFcUdGl5EAqCORmLX4T3wv1QjISo1QpJGMeVL9USSlB8gNxB1ulUE0dLGEzsLkkwiVUix1EDASfqUuC0CAapkvZJjyHtOKY/lcy5ebhfJpZh/VePxUuTRop8o8LlPS/M6//B9di55H3CQK7I4pa8hizZWi4ffI4u7nRfyhB2M0o7ce3k0aKpkG6EadxJET78nIyPC7Offc1Zp18BnPz6rLRE6DcJdQCbqKKRsw0uKLXxZx1Thd+XbyE1m3bMvbDibw9bgKq5pabf1UkguL12qGRE3EMxIlcqAqS5/qaNgJ7CqLk6yueUxCEgKmTHYtLgtCnOJ/KG66lwexZfLXwd6alZbHR6yWoaTKioiA5m3u7p3q45++rWIKAJSUuSbWMHeR6R4st4UnKenb0KqfevkJAWOYkRytJpPdVX/5p7dpyT5W4cKkmXvOIsguPKuSfbjxuV3W4+t1BOXahI3vkkgOEIOws5Nuat9UUdu8RJPfRTe2gR4Z0bawXDdMiFOLgeIQLZ37Nl62PZGHduiz3Z8gog0FVk69DTI/y1Rcf8d7Er3nqmae4eeC1HH30sVx0yeVM/3oymsdNaUUVl/b8Vw1lgfBESGZ8TD7sn51otx6z7dGJHamTsFKwRPCnpHFihFahIF0K8mnzzZd8fnR7fjmoBb+npLHe6yWkaVIVklQx7KOh2W3NClKmC+irM1/Zm0fNsiNviCrcXRPhqXdb55wb7SEEFNw+H+lpqYQqqwhFwrKdHRnnPdShf8xthVTU669iZL+G+Dy2FHRXiqDqIg9MPObnnjEbqKwU7uYiTNyu3W9X+rCnr9kPCULSXl2EAjZ3HerqN0nkCNCQp7CEzntPg7o3728TBBEDIUb9aIxmoRDtg0V0mj2HH1sdwrS6DVmUVotCl0alS5N5CuJxk08njCcYjnDT4Ju4e9gQQjGdgYOH0OvybqBq9O9zJYNvH8acn+YnsjkmQiHv+oj8LVjscNCGVC/kxCKcVFFMPUw6f/o564/vyOh6jVnv8rDR6yasuuVzCu+IA/1lFUSgeSiFJhFvQoqQeD+2SpMpM1vU2D1EdMpkbAr7NGrLghYGgqwPxKSbqVP2JwTspGPCs0eOl2UwfMhtnNKpE59/9RUPPv6kDHBmW+sc6LN63+Iu7KeyG5p8el8D1m70UREXMVh2rsj3zdJplBMk4NWpII+LbvyRUJkIzra1z9bO3Xt/qr0fEgRNnpTibdeTfYIwhrPj9+9cSQ6QiaVo6L/70L/KxFB0qTW3B3frM9jOtbC/1FbEyRoR+ljEQIjSJByiV8kG6s+YQUnXrrwa0fkts7YMkVzhchNXxQRWcGkuvvp0LKqmEYrG6H1VPzaK4EOGQTBm8NH7rzJj5ve8MOZ1TCM5BvtuUxFWESI/RHZMp14syrnFhRzf+SSCXc+l8PqBvJRTj3yXhwKPR6pS4oqgB/uuv7trfoQ0Nw+WHcEpsSx0KTdw7+StbUG1+HFbUOyOMtA3lyW+CvySZDhn0p0EdA9UV6RnUCDFS3FJCYFACvFoFZ9NHEeqz0/csLi095WUVVbJMOW1M7MoLi+T/bBdhZ2yYwiIuW5iKB7qNIgz+f6D6H/nfOaty9uxyxO1kuHrLaOU54Y04oi2XhmMriyWRfebf6a0UkMV6k3rwCcK+yFBEJu3gqfrBtQ2MVI21UWTYpsdL8K6Xqx9UVcl0dwCVFPFPac+FZ+nYIkwv8L6PpEjYMfvun/WlKmZsaSKITcWpWkoRO/yfOp/O51gn6t5eVMxC1IzyHe5qXS50VWXPH6YikrA58dQDXRdR4/rWCJPgyXcA12MuPVG2rc7kk5nXUDtzLR9fm4RBMFnWOTFdOrGwlxesoFoj560Tk/hy1ffZnpKurQ/KPZ4ZIjluLJt8uj9cwT/vFdCGvJAxRG0UN0M8C7AQN+Fx1BoE9J4MnQiEc2iyB1meOA3fvYWS9JlF2ej2QVgd8slpmlxzFFHcc+w24lGwpSXl5NXLw+35kJNRBM1DJP1Gzbaocxzcrnn4Yf57rtZ1flPxbvrlL9CYGuC0Jhrhs7ml/WCIOzs/Fcx9VJG39GEdm398nLLUthYHqDf3QspKfNWJ6XbNgrMX/Vz//l+PyQIdugcV9d8/A38LH8kSponA0WE/dvBIkQ84oXZmLqStjenYagRhGGK8X0dYlMyUEwdRVq4/zOK0M2nGMIGwSYI/6oooP7MaQSvHcCbqzfwY2om+S4XFW4herfJVjJEkR2XcHNuRXnWVODQQ1rx9BOPcOW/B7N66eJ9ShBE/0Qo6YABObEwTSKV9CssQnnhGWqP/YB3Zs9mVqAOBR6vDJIkUlMLF8kDvYgnsAnCkbRUvfQKzNyFhUyRabnbBj28GOqErtpunxs9MUZ6fmaBvwyvYUrxtlN2LwJ2+nXxPm12191eC6Zp0v6odoy6504Zr0yqEFSRssROyZ78EWuYHalU5eGnn2XKF1MkgZDvs0MQdmDwtpUgXDN0Fr+sz92BazdXsUfEwjAqeWZYM9q39tpfmrYB8YoSjUEPLqeo0CWVDbbl1oFZ9jOCIKAXVqGCIBQSaOhn1SiDTE+Gnf1vB4t4kUxLYV3aYg65yY+pxrAUXb51selZ6DMycekuyfh2njnuYCf2UjXxBIIg+JMEISwIQhH1p39DZOAg3l6+htkpGWxyuSVBiEoVQ7KIFSxJlDZHMRQLWigY5ZsvJjJu4iRefeWNBBved5uIsLNIMaBuLMRhlRWcVZJP82nf8P0pJzOvVm3mBbIodrspdwkJwj+HIAh1yf2SIPjoHZixC/PVJghtJEHojCEIgghtjcEGT4hh/p/51Vsm83k4ZTcjoNh5TcWa9mfiZrHpL1+xlKU//Yjfm9hstiAIiXgeiVDmrv9j7zwAo6i6NvxsTy/03hEsFEFBEVRERREbKF16k15EOkiTJkUQ6QgCIiggSJGmFJEuHUUQhEBIAiE923f+797ZTSNIAkHKv/crQDI7O3Nue+8573mPzodmH3Yj4mJYqvqoFyBkofPSAgQH68cID8LtAgRwOhL4YogACO46Mi7BmxMecBeXYwLoPPJPrl43oNGkV5XNwoPeN5fcpwBBi6FBFH7F/Dg33kaoMZfqasuy2YRD2kVY4Cke7eOHS2NNOSEZXDocv+YlcXsIOqeAEoKTkPU7Z/kR/qMLbwAIwoMQF03eTT+hDB3MktN/c8hPAAQ9sUa9GyCkZh8o4qgilrGUE6QbHysuPurdlUfKlqFTl49wujUP/kt3WVpClgAIwQ4bBWwWXomJw2iJ4829v7HlscocKFmGU74+xOgNJOqMsmz0gw785KkQJJ/iTgCCx1P0RKIPc5NfxK4TalM6GWYTsdQIk42PjSf5wxSNj6QyepFCTkxds9nC6/XewGgycjU6mgMHD0oOSEb7Si+DBh579BGmjh+Hzn3cFCFQwTM4dymMggUKUzBPKHJVE5wDrYnhI0by2/4Dqv6IWkHd225pAUHkFSFUI3mL2lk3qjgdB+3n+KV8t/xkZhc4nfHMGlyWKuUNkAlXLt4WQuN+J4mLfXDTrR8QgBCaTYAgXDtON0DwxaWxSdU/z6JrULQ49xUkflMgRpcACA/uopiZB6H11UgCN21AN24sK46c4EBgLq7o9cQY9e4Qg7qoiLCNxWLHx2TCJcIucrFJJa699mptPu7bnfIVa1KwQF73lnUrW6WCj9uadWk+JJ9ELKoaIZDkJNjhkPUXWkRdJs5g4I1li7n4xjvMKlKEMKOvDC8IUp/wIHgBgmpI9/7DE4m+NwAEVRnBRazBQW+jIC7GYXBrR9xp3/3//Hyqby78Uhinft+PKGEWnWChfpNmmHRCCCz9/BGrT6ECBZg6ZSK5AgIkcBPhggSzk9feeQ+jvx/J8XHMnzGVJ8qXlZ4Il8YgK572/bg/J06dluDAk7Hy/9PuWX3rtADBwbpRRek46ADHL3lCDNlDWS5nPDMHl6FKeb3st/RNlqPFrBSlfuc9mC0aWbwu637wrL7T3b3uIQUIAmtDWOAfPNrHhENrS1MuSA0rGF06lEMFiN0QgFF4AB/QTSVTD0JsFPl2/IJj5BhWHjjE3oAQrugNxBr02HR6nBrBsdWxcvFcgoIDiYiOpX3HLlhs1pTTiNiUHQ4r+7dvZebcRXyzfGXK6UddjFInk/yXjJ2KSSF0FYUCo4qa1Tjs7bW0AEFoPYQ67BSw2mgbeYFHW7XCp8ZzhPfqy5SAAK4a/GQGg9BAEEqPXoCQanO9oqF8kpG5yS9h0wmvmZr2qKaBCks5iTHa6G88zJ8+cRKUeVvWLCDCNUJfwua0S7EclyB4oOPziaOp8Gg51ZYaLVPmzGLtxk1oHC4JxEXdUpfdSXCALz+uXo3L5VQ1KhSR2q2wat16ps9ZIFx7OBR4omQxvpw2WeUauIG8mHMzvvmeNUuXeT0/WequzACC8CCIw0/qwShLt5KfcNC9WWHeqVvkBvtrFD0mJQGXXk/9zsdISNThzFCfJqvfcy+ve0gBgpqzHxb4F4/20WLXCXmg9AhPzFuTwxfjjrJc32F/4JCdZ9BkBAhCB6FZbAR5Nv6E8uVMfvzlV3YHBnPZYCTODRCsTierFi/CNzCA8RMm8mHHNoRdjmDA8JHUqfm8kEEgLDycYydPMuvzKfj4mOjaox8Op/AyuE+maXyacj8RwkRygRP/E5UUxTqmkVkjKpEq+7uOByCI2wc4BUCwUcBqpU3UBcp36YJSpAQRI0cxLSiEcKMf0YKgqFNloR+GllMhBrGUlbX4MD+xtlsCWySAipx7N0DQOGSpjjm6U3wdegkRhfC2rFkgOCiYhbO+5Pyly6zbvIn8+fLz8rM1KF6yCBpJMhS9qMXmUjhx6hS/7tqFTqfjzfr1cbictOnYiZ/WrsXH6CPjBAK6iTm078hRPh46Qu5bopvq1nyOAf36qplG7tOqxeli6pxFbF73YwpZMWtP/f/1qpz1IIjOsWNDZzTKQndpmzgg1X7axriO5Xm98wnik1R5+ttZB+9lb93HACESv2KBnB9vJcQYks0QgzCphmifCB5p54fO70YTC9Jisl8s/n+UI2KZVYB89QT8gLXMAELT2Ahyb9iI/Ztl/Lx6LTuDQgk3mKQHwaLT43A42bPjJ+Z/8yPz5s2hW8fW1Kr5HC+//S5Hd+9Eo1dLML/XrCWPlSrF8GEDqfj08+TPn88dhkgV4ZGWFkWcLFbpKi1eqgQavZbkJAvnz5/nekw0vj6+KILvkVbJJ4t2Fu8nAEeg00Wow0phi43WVy9T/MNOhLsgad4CFuXOS7jJV3IQzDqB1LN48/v8spwECEZFS3ElSI5wcepVty0VtNkxMCPucZZpz7Ao9KIsiuVtt7KABp1ez5oVy/E3SDQs49DCu6aVbAHV0rJ5RK3coFkCAY0gUsOJfy7Sv+/HfNSnD7Wfq+4OqSk4XRrGf/45ew/sp3KFJ+jboyfB/mIhEx4GDTv37mXS1OnExiWh14vKZNkH4Ld6w4fv96kkxXxFnawbXZQOIsQg0hxv03xqyEiUu0/f7Dot1Z5OZmbXitTtfIIEL0DIieEkOtApTzaG967gVzSE8+MshJhuByCoSnrJSqI8NWXsQIfWTJE+dnwulyJyqVlmSTwsAKFJfCT5NvxEwvoNHJg9n6258hBu9CFGAAStHodLYciwodR9sRqbN22jTu0X+G7dRubMnouvwUii3crGH1YzbvJkzp0+wzdfz6dhiw5ERUW43c8qQBAbsTjt1KlVi9atm1OsaDEZwXY6nWj1WlyKi/2Hj7Bk2bccOnAEg0GI/GQXRQsWvqg1oRDqsFDcbKXFtUgCBvQhOTqGmEWL+TYkL1dMKkkxWa9ufg9DywmA4LGDmnHnsb2adieyG8RGFq83sf3qs3yv+4uFIZe8ACELg0fCAK2WmdMmUbZ4kdsCv+JrZn71LStXrcJms7J9wyr0Wr1bUVENTajYQp1vHtyr0+hp17svZ8+cTVmzvGmOWeg0N2hTSYoO1o8uJgHCMZHmqLpBs92PnrVGZAXJnpI/UGQot9rTFr7sVpHXOnkBQlZ6JwvXpAUIEfgVDU4DEDznnawv/x6BWdU3kP5YadEmk6tvNH6XHyFyaZIcGA/iwdPjQfBzivi8VdZiaJp4lfybtxK1eRP/TPyCVfnycNlgkhuoRa8KJdn+N5I/GfQRj5Qty95Dx5g8eQp+JhNOrRaz3c7czyeSkGzm4/5D2Lx+DZHXrtGseSt8fHzkwig2/8CgQBbPn0VwUCBHT51m6dLlHDxySAov6TU66r/xBg3efoOSxYtx4NBhBg4bgdMuhH6yBhLUqKAKEAKcCrntFkqZE2kSG4tm9Ch8Tx7nn2XLWZWnIOEmE7ECIGh1qSULsjDi7udLchIgpH9Pz0hXNRaFwuYvV2vwve4MC0PCvAAhC4NCBVwGSpctzpzPxqIVcblM2r+NdLvdSdUaL5G/QD4uX77Ikf07MenVAmnqKqd1yyurgE6ABRWY6GndrQcXz11wk+NEeM/r9rl1t6V6EDICBNlPioJBf3sKu57S9Q6nTt7HCxBu3Ru3ccW/AQSVc63KTty5yJFFl0iePtH4hpchcolF9RDexhPf64+kDTEIJcXHEpNpFh9Fvt27uLruJy6NncDyfIUJM+qJNRgxuzdQl6y+rEGvNckTv0z1VP+LS6uh7QfNaNa4Ac/Weo0PmjakT68u7N6zn5Vr13Pw4CHy5MrFD8sXYXE4qPPGu9hdCgYhb+xy4nI4U5C4WAQrVarIrBmTSbBaeevtxjjtFrfZVCLjzZooZa3KYqsAIY/dSllzDC1jE0j6dAyFtm/jpx27+S0oD//4GknUijROFSBkHUbe6x68+ff/G0AQv5MenGw/voLOpaY5yk8rGulZ2n61Jt/pzrAoxBtiyKpJBbG5fv16fNS5XaZZBKnriUoJzdhEiKHy0zUlQOjbrw+vvlhDVixVNytV7TRtkwJwgENjYOee/YwaPQatp4CaFyBkodtuDhAcaOnb2p/6zxa+jbVDBkJlp81cdpYftifh0Jl4+mmr14OQhV7JxiVpAELDCPyKpXoQNIItLFxuGWJtssvdZCsJ6t3/Jy7LbNP3bBxmffxDARDE6wqhJOlBcAOEpgnRFPhtF/FbthH9yVhm5M3DFYNRVnQ0a/VyA3VpPSx2kXqVfp8WRGyXw8bOX35i/MTp7N+7iyWLFqHR6pk2azabNvzEkiVfoeg1tGnXFXuSGatip0eXzhTKl49xn45nyuefsWTJMnbv3iv7IThfIVYuncWBQ8fo2bMPRh8Tok/Tb+WeRVT0kgadu3CNAAiBTid5bQ7KJyXRKeYKEZ9PptSmTSzdvYeD/nm56KMj2Q0QJJH8IWiZAwQItuupby0sqzLYM2wiWXltUfgqWmNhmzEKq97lBQhZMVqGrVqEZ7QGDau/XUqArzHduiT9Mhodh07+xcmTf/BCjWoUKVRALk4ZNVf2HTrOkOHDQaNj6qTxHDl2jENHj9G5XWvKliiWAiuuREQxcfqX+Pv60atHV9p37kJcQuJDGGLwKLt6DJ6TUP/mAEF8S8M6uahetUzWVFgzPpbGiVaj47t1pzlyPAGrVstT1bwhhmxPrX//gBsgkCqU9Pd4OyHGUMymGPwaxqDRuze07HyzlDp1YXQGYF4dgj7ZiFmXTN4+11UPwmKLm6SYnZve22ul+909SD1SyyLE8HhSEu/Hx1Bw/2448xdRHbozISiACIORawaT5CCI5tC4MCgaHFpRyUGVWlZd+urxxeZ0MP/LaVyJjKBv//7YbS6CgkOkK7VZk4a0bNWcho1bkZyYiL+PL+++/RavvlqbAD8/tm79hQYN3+LQoaPsO3CQVat/QKPRU6ZMKebMnk7P3h9z9MTJDKdfkSesukm1iggrSDaDPOkKoBDodFDQaqdscgIdY65iW7GM0C9m8c2RE/wWkJtwk45EnRab8CDc267JcgjlVo95I0DYjihV+4grL+PiK0gCiNYd+8x4L7XUdVpPm/QNSdvoXFou+7nob92J2d/rQbhVP9zwe72JIoUK07LRu7z84nMp482DSx0uDb0GDOLgEcG7Mcph3KjhO3Tr2Nad2ZB6R6dd4evvV7B+43auxVxHcZjRiVCZ2czyr+ZRomgBLlyO5IPOXRCpcyIUKqMZIlT3kHjKPGuZEH1yOF00ev8dVq3+MY3SbU6FT24ECGl1EOwOB3anLSVL5GbjQojLKQj1RFnwWS7EikvN4vL1McmMIBFiqO7lIGR7at3iA5kBBBshxlw49cmENkwWlYlSd8Ysf70qWqFz+BO7VofO7EOyLuE+AAgeF2L2J0BGgCA8CIWtVh5NTOKlhKtUOH4M5dQJrrXtyoRAf8IzAQgiLGATQkk+Puh1QrLF495UWdZNGzWkXdsWXLgSISdA9x69uR59nQ3rf+CXHTv5fPpMDP87Ew0fOojq1aoSn5CQsumr4qIKoaGhzJmzgO+++0Fqyy+cP5Mki5X2H3bHR5IW1SZCCULcKigomGtXo/Ex+qqEVQ9AcNgpaHXweFICrRKv4rt5M5ruPVkafo29/qGEG1MBQpaHRY5fqMXldODr54vVKrQ31AXpdtuNAGGnvJVO0WJ0GdwAMXN3SeZeFPVZxBnNrlXUglaKQozB8JCFGDw6GDkPFYU8e+1azzJkYH+pWSC8Y5If4CYRir9fjIikfYcuqqVlyq+WwAA/fvh2MboMoQBByJbKBxo9nQaM5Mzx/WrKogIv1qlNlYoVOHhwL9u27cTg44dGqIS6VDGl+6OlHX+3b2+pZ6vR4OtjYOMP37H30BHGTZxKbGxsDr7rvwMECao1xiwp62oUu9R8UUN1IjbrVkt0m8PLQbgrozNzgBBqyoXqN7hD37FU5VNPysKDkOeueBBEru3NjSPPcQKBKi7Kly/H5bBLWM3J8t+p5KSsG1d4EUzihC03UCtlzMlUTojm+T270YVfIbzBe3yer7D0IFw1GkmSxw8NNgw0bfwWdeu8yE9btvPjuvXYrBZVyjVlc89Fly4d0WmF9RWmTJnOI2XKMHniaJq0aEN4TDw1K1agZ4/O/PFXGF36DpCiO+JFdDhw2R1s27KOy2EX+W7lWvYfOky9uq/wcd9uvPpOM6xJ8XL7FObSaTTkz5eH5csWsn7Dz8ya9xWxcTGSoGh0aQiRIklmnkhKplFSJHl37uHqKy+zyhjIoYBQLhu0JOi12DW34WHKurn/9UohPyWA0uhRQ+nTbxCHjxzLVg2RG70AN0ote4i3MtlNBqszfyQRRlKzTLQILoe6nahKfiqhSoAD4W25tx4ET3hLbA5CuyRty8ivuNmWKCPAinhfhapVK3Lg8FGZCSXmhkrDzLnN1IWeV2s9w+CBH6VkForzpGfeiOf/9chRhg0dIW0vBrf4dpE59Mu679BpVKZ8aqjUrUWh1dF5wBhOH92HNkWpSk/hgoVo1fp96YHbs3c/23/Z4QYkOfdOtzv8JbFbp6F6lSrqO93B+pxyVHI5qFSpMs2bNCDRbKZv/2GcOvVXFlVcb/UmNwMIBWXY9fFiVymQR1QC/ndmj6h4e+F6CH+eM2IQNX5Uv1y6yegFCLfqi9v6/c0BgkCYcsJlsanu6sxWT3VVtWQLIKifEQuYym1IBQEeSkSqgNCtH1B8Pi4+lp/Xr8HgY6BVm05ERkej16qn+Ow0odkuAEKAwyY9CE8mJJPbmUj9H1djtDo482Jtvir9GGEGvRsgaLHZHXw6YTQvVn+Kv/7+h9Ili7FqzXq+mDmPeLsFh5utqD6LSmQTaDmXjx8d2rfh7TdfpeKT1Slctjw/fr2QkBA/Nv+yj5ETp4DL7D43u7CZdfy4chF5cgVyOSKKdh17EHUljFOH99Fz6Hj2/raDeOnSUw/azz5Rgbkzp2I1W9H5GOk/YBj79x/AqAiAIEIMSVSPj6XYlTBeOnGcvZWqcKBoaY74BXHZqCXRraKYPRtqMBoNMif9Tpvc4hQ7kyeOp1Lliixf/iOz5s/DbhdCXdlvNyMpio1db9bKk6YAVpm9r4fEKFOujJLa5ib4eio3CqEkFSzeS5KiulmKp0y/wWR2HMgcQKfpOKeLnVt+IDoukVbtPyQ2LgGdnFM5tZkKAKrw4jPV6N+nF36+vtKd7ElDFH8TbxEXb+adJk3R6FQPmXjC0Fy5+X7R7Bv6SqwpoppjgsVK74GjuHj2pFrwRx4kXHRo04qmDRvITevM+fP07NUHuzPt+/wLSsz+kMvmJzT4+ZpYtWwxBr3utiuCpu9rldApStELI+z7/Sjdew1Arxdj9U778eYAwaHRMLZXfp57XPTZrfYZJ4fCivLh4N8IMHrKr3sBQjYHz+1c7gYIQgehoVsoaZyVEJ9QnNpkkspdQWO6VecJuXIdvqdCMThDboj5eZ4qHUD41ywG1fktWK4FixbFpBdVIN1UY7drPFtv6v6ocO3myxPM4P79CA4O5KtvVrBoyTIhIpCt24nDho9IOXQ4KGaxUCsuDo2/jhcmTCRfoYL8/vwL/FCiLOdNJiKNPiSKGL3Tye4dm5g6ZwnfrVxNr84teabGs7z0+puc2LtLnno9i7FMdnAvcg0bfUCbNq2o+Vx1qlSvQaHij5A7wI8Jo4ZwOSqJ0RM/Q3EkqYuiqAhpMbD++4Xs3vkL8xctIT7JSmTkFc6ePMQnk2Zx8cwJZk7/PGXRVOOrWj5o0ZKhw4by2KPlmDHna35cvpwQcxIFrQp1Y68SbY/jg1272ftkVXYVLcNxX38ijTqSpIx01uGBWJyfePxxPp8wUlWAzJblb7xYkjvdYjgmH6PcGXbs3sOwYWPkYp/ddiNA2CHf7wlXXmZeqyIrM94sn0ftP4VknULbImeITriEMwU0e3pUnLLvHUBwOJ0UL14SvUHlSmzq+wAAIABJREFUxWTsuRt4YP9mQDdoz+9nZPTYT6Wy56gJU9mxY4fM0hFAIaeaRnjhFBflypRkxpTJEqSp/av6w8R/1v64jlGTp+EXGIg9OYElX82jVLGiN+gZJVmdvPXe++gMPmh0JszJ8RIgGPU6LEmJrFr+DXlziUJN4HQ5ad2pJxfDL8tUY0GEVFwu7CKspRPCv3dyhr9968iwh7tMvNzsbxNsyzGrVZj86RiqV63E2s3bGDd+siqSl0He/fae9uYhBnXeCl6W/ZYcBCdinfETTG5ZuTF9E7ZwedMcb6+DbvWpNADhvVQdhFBTKAmm6xTuY0VruLHgSca7ahUDSQtDsF4yqi7vTFp2AIKIM5mdCsuWzqdMYZEGo84AdUHL+oYkN06PMyrNJBJ3sDodPPdCXVk4KTtNTEZfwfJ3OChuTuat69EEV69E4POvUq5Wdfa88BJbipXkrG8AV0StAr0eh93B9999g1Gv5+ulS2nS8F3OCkW3oSOp8sTjbnehO/daZkOq73j6z9N06Nieui8/T6Wq1Slc5nGmjxjMY4+VY9eeY4yZ9BmKXQAEEU90YrYFsG7FXEw6F4eO/8HIT6cSefkv/jp5jAFjpnJ0327K/k+pUYrBaLQUKVKIj/r24NSpP3ji8Uc5cOB3xoyehCX2GrnsFgpZNbSKuER81TI8P3I8h1+uzZqipfnbFEiUSSczNIQDPetpjhr8AgJ5olxJxKTPZlem6ybVze2SG9ELL9Ti9ddfJfraNT7s1Y+oK1EpYyY7fZsZB0H8zM9l5DFHCEbBj7rJDeViqwGrRuGYMQEHQk48o1ft3gKEK1ciOLR/FyGB/tkxy82vFTwAuUerOctR12N4s0ET1YuQDeCYlYfx2HfJV19RNE8utxa/J2CmrgtxcYnExMaQL39eAkyC1CaIuGnvrmHhspUsXLqENi2a0+T99yR59+Qfp6Q+yZNPlMfPxyQ7UvVOiRq1Wo6ePcPhI0cpkjcvzz/7LGfPh9H1o/6yvsOdJ4Bn5e3v1jVqP23fspaPho7h4L79KWWyc4ZzcXOAIDZ1QQIVEskeXsnN39JzgJJVsmSFSJ3i8SR4AcLdGh3uzdajpJgKEILdSopOP6sabLxl06JJMkg2/M1a1gGCh2qmwcffP91JRO5r2cMHbne9CnJerv0cXTq1JTY+gYHDRnLm7/OI+FZ2mjCHr8spY/RFLcm0iIzkkd5dOHIlklqd2/JLtef5tUgJzvoHEGkwkaTX41QgICSQLyaNo3Cxovz1518MHTGOa9HXVUev+6X0ej3VqlZBK9UJFX7bv5+XX3qJAb0/5MW6b6IxBDJ2UB8qVHqC/QdPMmLiJBSn6k4XwExUMPvp+4W4HBYOHjvFxKmzqPRoKWZMncD7bbtz5cI52Z3qoqmhZOmSLJj7BeFXIpkwcTL79xwgwOSDUXGSx26hiBk6XTmH5b16lKvfkEvdujA3KDcXjX5ugGCQFdOyakH1a1VCmyhgdadNnMYrV67A5Amj+PmX7UyeNA2LzXHbJKsbAILvrpSy3GK7F93kuslxTfURiLCcgijWJF34GnVupYbe7i1AcLkUAgICJWv/9psq4S0BmlZLw3p1admyKcdP/smY8ZO5HHElx8GB+qxizBh4ttpTjB/WP0VBL/327xZXEV5D97xOCxCE5Hml6s/zWMXHWTZvNnq390mGXURUTxH6JLI6g/u2noOJx4OphmeE72v11h1MmTJV3uNeqIDkTKBDFLHS4O/vhzlRhCpd6vSUZM/se+BuHFM3AgQptXypgPR4GgzXCQ249Raj+mnUNxZcoGsJfmicai0N1Q/p9SDc/nz+109m7kEQAEGQezzuu6x8uSBoyWUxkxrs4vPZAQipTvZMhly2EYJcykhISGDNmhWc+/tvRo4ah90uWO/Zb2KD9ROVDu12ilgstI2KoMQnQzj/6y9U6N+PTTVqc7BIKQkQhAdBAATRhA5CXHw8QSG5MJvNGGWxGNVmWveG/Wa91/m494fYRAxdo6FB42Zci4ll19Z1zF/0HYu/+R4ddiZNGEWBAoXYsWcvTqdHKVEr47Pv1H+NlStWMn/xMin8Mnn8GIoWKsBL9RuQKyRYAgQPLdLuclC3Th22b9+OcD8L3Qu9osOkOMhns1DMrKFTxBl8enQmb968/D1hCvOC83JZr+eqSUeyzuhO1syqHXNmWfN8m4ye6nS89GJtNv20Ab1B5Hj8uxjUvz3pzTgI8iQqstwkGPKkhmY2Nt1rlhvEOsTT6MTydn+EGNQnvtMzr+ohVAuDudiycQ2bN2/liy/mINLWnIL8m10Qn6Xho8iyyy8+X4NP+veWRckyfk1ar0Vm5ZidThdPv/AKJoOeFUsXUrRgfgnksuvtsNodvNW4pZRrzjo8ztJL3pOL0pM4VYCQM6Anc4Bw7FJBGbqb2DsXLzzpn4VDWhq+jKJw9HxBuo3cJytyegHCXR0yaQBCWg6CKURF1AG2LLlqxcIqY0qSqa1Fl2SUsda0LXsAISdfWh2kYiNJNqunbT+TEFrJHvfA80SCoe4vKh3a7ZQyW2mSFEXeSZMwzJ5N7tEjWVf7ZU4WLcVf/kFEGAwkGgxq9m7KyVPNqJBiU/IkpgIEsUGPHTGUoEB/+vcfiNVmx+kS6XFahg3oQ5UqVWnUvAMal41yj5SlX59uFC1SGL1Ox6UrVyhRrBjXY2K5FHaFgQOGkWC1oDfo+GndSsZNmMrm7duF8nkagODOMJEpXOLvYmvVoHdpMLkc5LNbKGF20TH8PAU+H0vUwYPErNnMgtC8ROoEQNCTrBMhhnvXxAld5EhrMKDV2N153Le/uKUAhIQneUTjQ0u/XfLlCtv9GGCtiFOS5NUNNitxX6vOzmjdAeIMHivdWw+C2lMelsvt9Juc6SkfFB4JpyS9ajHqRbqaIPqJFMLbuXcWPqPRs/K7peTyUedUxq+RsXP3bTwAId1o0GjZfegYQ4YOZUCvrrz68kvqISjDoeNWI+hKVDQt2naWacFZ9Z5l4e0ewktuDhCE5zEoJIkShUMzee8bB5Dw6kivkMbO+TArlngPT0L10NlksSavkmIODyI3QEgjlHR+vA2R5pjkd41cH8WA3lNCVf1q6dRRg9gpzyLIWOJHIufY5PTFvrgs5nPp46/Zy2LI4ddMg4hl/nS2vRDq24pNQaRY+TvFCdtOCXOSrMPgP2s2AeNG4f/pBH6qW5e/C5fkz4AQ6UGI1RtxyDGs2ksSrJxOFI3IAVZ/JjbnJHMSB3ZsZtaCpaxe8S2DhwyUrs61P23i7OnTrF79LYcPn+LjjwdI8pSi0zByUH9y5c3DRx8P4tvFi1i4YCGbt+3AYXficNrZsmkNNoedum80kJXwNK6M23n6iSgEkgyKA5NLIb/dxmNJSbSIisJ/4Rec/fobNHuOsjh3Xgl8rhnVOgwi1e3OgwW3299pl3LPu9z+ku0BCKMFQND68IHvrzLvOpc9iJaGRyWQS7VY+jmQ8Q3Evcx6J19bDmHWesDo/QAQbtfWmX9OgIPUOZW+6mjOfhMYjUa++XoBeQN8pOdKhO7EfNR5ajlqhGqpe055Qoci3KMIiXNxpZbthw4ybORIZowdxeOPlU/JkvI8q+oFdfvYxLtl8hJJZhtvNnwfnQDIAhDl9Is+NPe7ESCoQkn5VJDtyaTRpN9jPPRlYVnVuqqQm/ybJFBK5pPbSh6AoKHa0zav1HLOjp2bAwQhouMqmYRiEJt/+g5Mn/4oOs8DBnRoXEZc54zolPRxznsLEO7cajcCBAePJsXSOD6K0B9+wNLiA/znzuG3V+pxpmQpjvqHEmk0SIDgFFkK0rUvMveF98AdO3MvZiKu9vordRj0cU9eb9iGciUKMG3KeJKsDqbPmMXGjRtlGt+kCZ+yb+8hBg8aKkGHLBNtFzQqLU5R9tagR3EqmHQG5s+bTrHiRXizYXNi42JVcs8tVjLhHREAwdelUMhq4/GkRBpfj0C/eiVXJk8h5sBRfgjNw2WTiWijQcqbepL57tzC9/4O6QCC9CDslnFZYWGHy4VJpMh5EILMx/ZAZk8QwW1g9x92UXsDvSxG7IbW9zSL4d5b+M6fwGAy8cXkSXy3dh0bN23F38dEy+aNeO/ddzDJAa56OaxWO6MnTGbH3r0SlHft0kWC5KlTv8ASd52dv2yWqYJpPQhifgoOy/yvFhN1NYr2bVpStHBBAUXSHYjEdcPHjue33Xvc6aJeiHAT+Cj7Im01RxUgqDoIYn6oKjkZjxhq+rnYV/SSjOjR1lBVScQcFGuV2rwA4c5n1U3vcHOAILmJKR2YdgKkVmqU+E64ySXrN/VspcZp07vwH3SAIIeiAnrF40Fw8GRiLI0TrhG6aiVn679J/mVLcQ0dxY/RMRwMCuGiyUicTgUIDhdUe6oqFSo9xuEDhzh6+Bg6nVroSEyS8aOGkSdvXhq37MTqZQsJDvTjnfebSVKfxOFOF9UEQevTT4iIjGL5qjX8uHEDVyMiJVlMlK0tUrgIDRs05N0362JzuejUrTcRkZEq2naXiv63wSTez6g48HMqFLLZqJiYSMvrl7Fs3EjCiFEcO3GKrSG5iDD6SjVA2/8DgKBCgFTVADV1MbWJEudidgjvixpkS+tlyLhxPHwehLu4ON181dJqcTqcMkVXGFw4+ls1a0a75o0loLMrDpq2/ZCrUdckGJeqgXo9AcHB1H7mGVo3bkCuXMHu+6shBtHDyVY7H7TuQGxCouxEm83GZ6OH88zTVdI9i5gnVpeLJavW8OvOPfxz/oyb2OgFCuk7LTMPwkEJEIQOQqcGNp5+NOgG3QyPFS9HBzJ0RhQmkeV6U9KkFyDcxTmYGUCwI9IcxYZvd1lx3eD+Eb8RJYxFGVR1cmUECJkRXB4mgBDkECEGB5UTY3k7LopiP63lxAt1UUaNpuTGDaw49w8HAkMIM6khBsF8qPfaqwzp14OY2HhCg4P4dMJUNm35mfjEBAS7eufW9Sxc/A2btm3np9XLGTFuKtu2bvEUPHefixTy5S9Ah3YtqfNiTfQaLdHXr0thIOF+zZUrF2aLhRVrNrDo62WSRCU1Ftx8i1slpHgAgr9DoZDdxpMJibSMj8Kxczvazl1YfSGcPUFq6CTOoHoQPDShuzhI/7Nb3xhiEBwELcFOA6+bC7gr/6lA2MPkF0RQh8bBFkME0QaryvFwywHfSGDzAoQ77cwbCXUqKyLs/HnOnjiCwAznI6/RpFV7fMU/JGhTcGpdzJg0iQplyqCIU6nbeyd7U/5dw8eDh/P7UVU4SYgpiZ/Gxkaxf8fPiAyjlDNrindbh82l8OwLdWQpdm/LaIGbAYRCcj177Xktj5QJvsF/oJpXQ9R1LV+vvopBZ0Mjy+Fm1rwA4S6OOzdAkEJJqdUcQ31CsWnjMTSLx2RSXXZpm4j6iQ6z78qNctZPMrtvxeZ90AGCyr1QKzkGOe3ksdt5MjGeN66FU/qb77jU5H2Od+xArX/Os/LQMfYEh3DZ6EO84CD8r0Tzru2b2LRzL316dOPzzyZQtEwZGjVvw7KvF2Ay6ShWpDAfdutLUKAfY0YOp0z5SpQoWSLTvhfKbiZfH16pU4dHypQkIMCfa9djOXXyD3bs2I7OIEii4ujrcblmbQgJt52PyyFJmEVsFp6OT6CBLQGffXvQtGrLknNhEiCI9M1Ygx7H/wiU95KkmLW3yvpVHoAwJv5JygkOgiQpKpRV8jMy4XEcON1FrVSCp2halyjApWG8/1GO6K4JumSaL/R6ELJu/du/0rOhFChSEL3BSEJcPNdjrssaGp7gj0NxMHPqZCqUKa3KrAvelJtPJXkUGqj3XiMsNlW6XG2KrE3w29aNmNLopXi8RMJ7ZBOZEbVfJFdQ7hxi/t++He6/T96Mg1BQFYbTaXG5C2Kl31/Uf+nEfHPZMk1pTb3em+Z4F/s9DUBII5QUYgrFoo2jSBt/RHG0jJxSQfrRuHQk/GIg4awnRvTvj/mwAASjokgNhDwOG5WSYqgYfZUaY6dg/rgPOzq0o3Z4GN/vOcTe4FAJEOIkQHCyefNajp7+g97dejHh0zEE58pN2849+Gz8GLR6LVcjIxk7ZhxDhvSnauWKfNCuC3a7SJS7saXQomR4wkOkci+TnrLbqeKTWR4/qsaDGyBYzVSPT+Ady3X8fz+Eo9kHfBMWxZ6AQCINvsQadLIozsNS6lndDjLUYvDd7S4Oo8NhMaOTmEDNYlA9a4K4Kir+KWj8pB/0Frb2ehCyPBhv60KVtKpqUAjOTSpAcCpOunduT83nnqVQSKhklohrBJ9KBQgKuw4dYcjQ4TJkJ8eDopA7Tx6+XzTvhpwJ0dOidsHlyKu069ARk0mIT92q/2/rpR7gD90MIORPeaf0IbnMXvVWNvUChLs4QDIHCFIHQVbaUkQkIf3k8Gw8knSX9RPqgw4Q5NYgPAguhWBRydFmp1piLH6KlTf7D0AzbCjbWrXm+fAwvttzkH1BoVw2+UgOgthXihUrwqL5s6TrUqfT0uvjoew7eNDt3RTG1GIzm/nt1238tHkb4ydOkvXOM29pYcOtJlDWh48HIAQ4nBSzmnkmPpE3zNcIPnES2zvvsjgqjv1+/pKDIACCSMHMuW/P+nPerStv9CDsdn+VWr5c3X7cIYYUNYm0P73Vk3kBwq0slPO/d2c1uIttCUD7Xv036dKxrVQNlGQ4D1lYo2fGrDnM+XoJdquZZ6tWZuasmW7yY+qcExLB56Oiad+uk8QEAkiouTwP02zIiZ74tywG9XdqSx8+uBWZOrMns+l0PF3N4s1iyIluS73HzTwIIVI0RyUbZnaGzf5TqAAhGt/wskQutkjFrpy5c/af5XY/IQCC0QMQrHaeSoyVWR5N+vTGNXw421u25sXwMFZkAAgySKNxERwcjH9oCNHR0cTHxGHQGdyhUJUpX+2pKkz6dAR1Xn9Lis5krFh2u8+d1c9lBAg14xOpFPYn5SKvYnurPguvJXLIVwAEHxlisGtFTsa90aPP6jtl57obAcKvaURjciKY4gUI2emPnL9WLd4hwgvfLJpLvty5VFUINwfBQ7ROToqXWSsBgUHyETKuU+J3r7zTGI1TVIxRN7ibKWzm/Ds8SHfMCBCK03HQPpnmqMqHqWmMGcufqYyQ1JaVY6gACN40x7swNmR6vqhQ2PAKfkWDOTfeQogxRJ00ObiDW7Vm8va5jk94KSIXWx9YgGByuWSIoZDVSo24GMwBepq1bIUy9TO2tWrHC5fCWLn3sIzVhxuMkoMgVCZlDXr3YiSjn7KefepUEMSoDq2bUbv2S7zTuLnUhL8dJH0nQ8TDQfB4EJ6LT6Bm7CUK/3EG+6svM9+q5YhfIJeNehL0ahbDw3ZmMmsNjEl4krIaH1r5/uZWRLqRh5PRzrIvb6EQJPpY3Cler2f71edYoTvDopAw9DmBPe6k4//ffFb6C2R4YdjHvald6znVJ5Sii+LZ7j15KzeObnHptetxNGzVEa1bxVStJeDtxMyGkbC4AwN5izlYP7oI7YYc4/Dlohm2//QbjVo2PH27VShTZIo9XyWZ6d3KU7fzMRKSVN2EB61pnnnx9fvquYWilSxh3DBcAoSz462EGoPRSP1f1X2aE82usUiAYLpSgsglQn3tRuSYE99zN++hE3Zy12EoZLVQIy4abUgAb79WF/tXc4gY+xm+s+ew7noShwKDuWI0Ea/Ty1i9SmrLLDSg/izZYuaHFV9z4PdjTJ0+G5x299k8Z+yfFbukAgSHDDE8Fx/PczGXKfLHGWyv1GGeXc9xv0DCTKLUswmbrEKZgygyKw95l69J1hoYnVCJchp/WrmFknLqK1VPEsTrfNgRVZPvdKdZFHrRCxByysC3vI8swSQzHcYNH8zTVSupojtyCGdNYVJcG5uQxLvN28k6KIKoqLbbU2a95SM/4Bd4AEK+Yk7WjS7Apl3XiLyemONvJfax0kX8qFmlOK91OUNCogFFqrQ8WO2+AwjCfILMo38vHL8iQZwfbyfEFJKj3gPxHTatmXx9ruMbXoIrSwVAyPGvuOsjIS1AKGy1UDcmmny1qlNUB8aNGwj8YQ3b6tTlRInynPL3k2x/cVqUMlP/so8KbluukEDWrl5O30Gj2Lf3NzV3+66/UfovSA8QkhEeBAkQ/jyDrU4d5jr0HPMP4rJRS4JOeBDuVNf/P37BLHxdslbPpwlVeAJ/BigH/oUHkoWb3eQSh0bP7OSqfKv/i3m5/iFFifn2b+n9ZBYt4EKHVqOwcdUKjDJzUXgQ5Coo18GM81Q9Irmvcf9SpLaOnjKLn7dskgRHL0C4ufHVILYO/yA7M/qVwCBLjXvqx2Sx07JwmeCAKIoeqz2InqMPYLGpBe8etHbfAQQ1N14AhEvoylmIPmyXsXF3TeAcsa+aTgQBTznw/7scV5eIqmGi3OeDdfpMDxDMNIiOokjb1lj27sJ4+BiPbNvCr8+9wE8lynHBZOS6XoQYRMlZcXLRycqUdr0Ord2RUlZVNbCGPr268nKdF6j+bG3JnL4X7aYA4fRZ7LVfYrZLz1G/YK4YtCQY9Ng0YrI/eJMwc9uq8dKk/4lXDU+oQn1LLhniST0h5lyPCGU+m0bDTMMplgdfQvsvZaRz7lu9dxIWEB6cpIRENq9cRZ7QABxCWEkSh3VScTFtk+uW2M4UF06nE4NWI+eww+miUae+REdc8noQsjSsxGlQiOqJTB816yCnm1hjhWCWXlRLEToXDyhx9D4FCBp8XkgkoIaIFgmJZA8jN+cWf7uoFOgy4Nqfi/BfEmTdhgcMH5AWIBSxmGlyNYo83doTv3UrSVeiqDFvAZFNmjApd35Zr+C6wUSiyPUVy4hex9Spn1Esfx5O/nWOwUM/kexnsQUJxbYFc2dw+fIlRo+bLKvk3Ysm1AB9XE5UDkISz8UnUuN6GEVPn8P+0ovMdho45h9MuFGEGPRYtQ8TQPCUwYZAu5E8Tr0EdnfHj6Pg0Oi4ok+QFTdTcyPuRa////pOARBEWExUQZ0wcTyTPpuMJTEZszWZLu3b0vDNtxBZCipbQcOliEi69BmAxWrDZrfSq1cPvl+zhovnzmNUtFIEzetBuMUYEgq00mXsRNA6lRwo9Z7xGz1gXhVvVuXsH8TMkvsOIKQYWp0RbtnLnAMGnvunlG5yiLzjjLzV+3+REuYRlQ6FkFCow0YRSzKNr0WTu0cnEjZtkroGud9vQPjA4cwMzi35B9EGI8k6razK+Plnn/FkxUeYMXM+bVq3YMfu35g05QuCAgLw8/Plq69m88mIMfy2Z/89O5UL7XNfwd52uihmSZAA4dnoixT76wLm559hvi6AY74hRBg0MnRil8VxHkRH3s3Gm3qC9LxRzs+CFAE/1W+kMoTv/8H/ED6hAH8Wmw0/o1HtCxRElfURgz/ixVo1JEAQZMR3WnyAr05Uf1UZ96LqqsFolAXXvC27FvivxrvHE/Tgza37FiBoFLVwibpg5bxhU70Fd+f+2R2q2b0+U4Bw9RolhvUj7LtVlKr6JJZ8+Tk4YxZbQ/Ny2Q0QzILI51TYs/0n5nz9Pd8uXUKnDm2pXuMZ6r/1LocO7MaoAbPDQYP3mpOQkJDdR8ux64VXx0cCBCfFLIk8F5/EYxf+oEL4NayvvMhsh54TvqKMtZYEvRpieLgAQo6Z0nuj+9wCnlUoNaigBhReqlOHAT26SO/moWPHGDpkRKrcudv7oL5azq+R97nJvI/3H1jgvgUI/x1l8MGcWDcChCQaX71K8WH9uPDDOvxeqU3hP8/x3c5fORIQRLjQCtAbsUiA4GL+jGkUK1WcubO+omWrJuz7/TBjxk2icNFi2BxaLEmxxMdG31Yp6uyO24z4Wg10qOW60wMEEWK4SNE/zpNUqwZz9f6c9Asm0qjzAoTsGt17/QNhAbviQmdS9Um0Vqcs/Sy8Dd7mtcB/YYH7GCD8F6//4H5HZgCh6dUoSowYwLnlq/Bp0ZTS//MkfH0ujKP+AVwxCIAgChqp4RRRpnbW1EmEBAdxOSKCnn37y21Z1LRPrYzuAU+3A6Kysoip9xVxWJnE6v4aEf4RkfCMAEEIJdWIvUiRPy6S+Gx15hgC+MM/kEipg+D1IDy4o9n75JlbwONBvVVVTq/9vBa4OxbwAoS7Y9f/5K6CpOjndJDbYaOo1UyzqKs8MWsqOz6bTK0JE/mraQu2+gRyNNCfSCGSpNPhTFM1Tic1ETRC4VVWlNO6SYqpLksPMEgv2yo38zRveGOQRmXgp22ez3hAgIpDbqyIJr0H7gqEepdDchACRbEmq5WnE+J5PvYCRU+cJ67aM8z1D+FEoB9X9QIgGGU9d2/zWuDhs0DG2fbwvaH3je5PC3gBwv3ZL1l6qowAoWlEFOUnfcovC76i3vjxbHmtLjsLFeeijy9RBhMJOhGjTx/lVP/llhmVu7aHvun5za1T6zJjcWSsq5hWjUxKwCgyU9j97ekhSeo3qyGGQIeLInYrVeMTeCbmHCVO/sO1KlVZGJKX44H+boBgkAJQ3ua1gNcCXgt4LZAzFvAChJyx4z25S1qAUMRqpklEFBUnj+Xb9Rto3Lwpf3fswsLcebnk60Os1oBFqwIElf+sttS0Oc+2nBpOUP8mKszd4vVkFkgq8FDBgKj8qOoaesIHwkOhXqmV3ooUgOC+f1ouggg7CElok9NFkNNJIZuFygmJVIo4R5nzYYQ/WoFvCxTmSGAA16QHwQsQ7skg9H6p1wJeCzy0FvAChAe4a28IMVyJ4vFp49hx8RI1fX04PXU63/iHEOFjIk6IImmEpoQQd03lPGszVi7zhAZSNm1FcgFSmvRApEcMAkBkqH+GRlHTrvTid4rKJxCllNQQg4AIKkAQd1M/q5GgwROccKhaJlJoxM/pIp/DwqPJSeQ+9xfVoq/zd9lHWF2gKMcCgrhmECRFL0B4gIey99G9FvBa4D4Au/lWAAAgAElEQVS0gBcg3IedktVHEpuvr+Qg2ClmtdDySgTl5k4nsWRxYqbP5NS2n9nnF0y0wSDDC1LWFTtCgEic7uUmLd3yIl9KkbnVaRXg1dO/gl5yEzwuh9QAQMrP3ADBk30g7qF3ORE6BkaXC6OiYHIJT4QLH0XB1ynEToXKmAoY/FwqMJAESVm1U8GmASFm5dDppYpmoNNFQauNmOgw6v99juNPVGZ9waIc9/cnRq9XJaS9HISsDh3vdV4LeC3gtcAtLeAFCLc00f15gWfjFqfrUIedohYLH0REUmbKGHxee43oZm3ZeeYcZ0xarhv0UtddlAvRCnElqVAoRIjExqyGAlSXvwAcCgbFKUGEr9zgU99fnvSlN0B4B1J/oYYSFLnZm1wCHKg53AZFQ7CvkwC9EaPdQXxSMg6DgXhfX5xaLcjrQOd0SA15l8Mpi9W4TCZ0GghwOAhITsZo0GHSGnC4nEwOCGDwquXsfvUd1uQpyHk/H+L0JpJkGQZROtebEX5/jljvU3kt4LXAg2YBL0B40HrMc5CXJ3uxoTtluediVisto6IoP3E0hvffwlyvGTvO/EmEQUd+m0Ipp4W8LoUIm5mEpEQcvn5QKL/UCxfxfq1Wh1ZkOej16ExGNAYj+qBgFJMRrdjIdTrV0SA4DELDXGzwaYojqcwG1RmRJyCYAk9WwlSsIEqewih5c6MR12oN6HCgE7t/QhIkWUEowIkQhkP8qYDRAH6+EOSPInTmXS75p9z2HUnY9AGYPp/KzhWrWRoSSpzeV6ZvmuXjqYyKW1EmHtAu9z621wJeC3gt8J9awAsQ/lNz5+SXiSIg4OtyEmq3U8Rmo1VkOMU/HUJQs8bYatbj+vnTsi583CPlydvyA4wVniA4MBQS4lGuRGJLTsahCPEVpHiS0+HEnJyI025DsVvRuNQTvdzE0zRxvU7Iu9ps6k89yECEKcS1LieG8HCSIyLRKy5MMTFozUm4hHfAJRwHGixmM1arGbtW1V7wRAcERvDV6vDXG/ExmTDodLicDhn+EKRF8c5/WyysD8nLqQATiVrhPTBiFw6Jh6zUc06OFu+9vBbwWsBrgexawAsQsmux++h6QVI0Kk5C7HYK22w0ioog8O3XqTxhGKcbtcG3fDn8Xn8F35gELJu3Yjt1gqsREZjNNpwaLXZxqHe7+VNfS4QKFPRaPS6tHqfiQp+hjLIkEoqKc/Jkr9IeXeIaiTTET7TE6rXE4sSi8cGqFZwCjdzERVEgEdSQJUwkY1EjQUjKR4VnRHgznAo+ihOD8HEIsqIiPq/FptUQYdITpTeSpDWQrNVh0WncGgheHYT7aHh6H8VrAa8FHnALeAHCA9qBauaABr3iIMjhIJ/NzrOxMVRLjufR479jPnYY14EDxH6ziqtXoznn788lvZEYgw5Rj0FU7RN+gbSVzFJ0EzPssxnTHDNz4XtyG+T9FDVFUVzn1IiTv2A6iO/TpHgKVLOLsEJqB8hSxmmIhoIHkXqBSpkU9RYESDC7wYJZgg5xj4zyTQ9ox3of22sBrwW8FrhPLPAfAIT7RQUsbZb9fWL9O3gMsWmrigKiHLKLYIeNygnxfBB9jdw7NpPwVhPOO+3sM/hw2eRLol4j6zBYZbqjyiVwSXKh7gbHfMbizlmVH3JTFeWeb5UlalWbC7AgkxxvyDLI+E3pN3mRGpm2vLHgSjg0Imiil9/h0CKzHdT2oAIE9QU8GSDqu3hZFHcwNbL40RvTdbP4wTSX3a9ryu2+2+1+LvuW837iwbDAXQcInoQ6g16PxuVAFB+RlbFvsgZq3WUWxWbgWSo9i2fqUpo144oyziJ2rdcbJBHP6ZDB9nSbjpqF75kYYsPSSNe63G5cnurq999CkCI+hCj5DP4OJwXtMfS+bMHX18E/Zisb8heQ8sqxevXELcIK4jQvbSHeUG64abfgrNn1364S2RKeJrrS40nI2gZ+ozxz2u8S40YkSKp4QJVZEnDhQd5Uhb1En2j0KlQTHA3Facu0SJZHOUK8s6oj4ek7YQlhF8+kEnNMZoeq5FMZEhJjPyMgS9+Tnk87tRp3Jsqdj4f75Q7CunadBpPGJD1OGpcZnP9uj1s9u0wbFuRd0V8eDVK9Hq3LJftPhOFEuM7TPBBW/MhTTdbjI9N6xrVbyTQtYHToRChRi8ulcoEUkSQsBUQUNRNI/EPjQkinq5yhLL6XCBGK+e+Uq4E6rdxqpGLd9ALVW42Ah//3dx8gKFCr5nO0bd2cpCQzw0d9yrXo6BRxnBuXKHVCpYACNUU/zSQTbmqV1e5K+ws5uFVAID8v/1Bo0qQRr9V9WRLwli1bxdaft2RYfN0bjvxGF2h0PFq2BA0bNWXE8E8wGAwobtEfz6Z0PwwLD0AQzyLi8yaXk0CnlSC7lTIOhQidUeofiOJMIk4vNAWEu98T9xfAyLMEpMVqdxLFl591AwSXxpmu9HKqpmL6LT/tv9KqMao/v3GhUwGIeA9Pv3mkoe+HXsn+M4j3iYi6wuqVK+SHHQ4HCxYu5uDBg2jdHI/UyhcKep2OR8uX48TJk/J6AcBE06YAM7U3hb5F5cqV6dypNUYfE4ePnGTc2An4+vqkeciMva3wyCPl6NShHb37fpS64aRAaOF18oyc7L/rPf2E1sjQgX0pUaggiqLh7/Bwxo8dL4mzt9tMRiPTp03hw649JMk3yWpl3swvGD9pMn179WTKjJmEnTvv3nxVfo7eYCBP7lAirl5TQZtbLExu1GkmogDDehlG09OiyfvYkpNYueoHVVBMC61afkDVKk/SoWMXjD6+Ytli2NDB2J0uRo4Yg0FUbZU6JyosSdVOTR1Ndeq8TKmSxZkzZ54ECuLSQkWK0bdXd7r36Ik81Lm9fulhzs3n8O3a0vu5+9MCdxUgCGBrNOjZunEN/QePpEqlipz5+xzbtv2MU1FISkqS4DfI3x+H3UGS1UxggD8OwaZPTCQoKIjY2DiCg4MwJ5vx8fPF5lSwOlwYDHpMOq0k0yUkJkvrBgUGSJQtgbVWQ/s2LXmmRnXmzJmPv58f/T/uxehxk/h1129YbHbsdrvM//f390ejuDCbk7A6ndR5/lm69uhFm+atcOr0JCQkotcb8Q/0Uzct6d6/9y3tM4h39nepBZeE/oBYxu1o3W54jTylKhqPyLJGPdmk1QxQtO5TjerzSW2p197sjW88I3lO9reyUkY3UvqiUJl9X+qZ2eOpuP0F/t73oOB1aggLv8i5U8do16EzJUuXon+/3rTq0IPjx46RK1eo7FORmir6q1+f3oT98zcrVq7F5OfL9fh46QTzN/lhMhjlgi7+V7pUaWZMn8Tkz6dzLeoq7777FkGhoXTv0VduGnFxcXIMBAYGujcBRc6jJ6tUYcrEMdSt/y4mvYHrcfEy0yVXSIjMapGBrQdQkEqj1VOpwmME+vlQolAhatV7hY6demCxWGU2j1Gvx+TrR0zMdUJDc8nNMtFslvPc38+fuLhYuYEHhwTLQ4j4vU6rY/PG1TRq1pqYa3FUqlyREYP78/o7jSlXpjgXIyKIi42T14mMHT9fP+Z8MY3Z8+dz4NBRuWm7HA78fXxItprR6rQYTT44nA6cThcGvQ6Xrx9DenQnIS6O2fMWSK+EQadlQL9evP7qy4yfOpPVa38kMSmJQ7u3cT78Gs2bt8OkcxEXHyfDfCGhoSqodjpJSk6SIE/0e5NGjXj00bL07j8Qu91BcFAwJr8QiuT25/yFMGITEwkICcZhsWLQ6THqdGi0GmJiY+W9hJ3c8NT954M9F++H9eB+e4a7BhA8p1MfXwMbfljJrNkL2LD+J+ITEjD5+siT/euvvUpiUiKffTZFiuD06NaFXn37kft/E3TE8CG0b9eJBV/N5/Tp09R6viZt2nag24edeeqpqpw4+SfDx4ylRtUn6d6lI06Hiy/nzGfv/kPSVRudlMD2TWsYOHgEf/zxh1zYSpcuzfXr0SQmJtG7R1eqVK5M1NUo+g0cisNuY+QnQylauiRRly6QO38hmjduTqfOHanzcm2uXYtm5OhxXIu+ft9Guz2yxh5Xpso1EEuD5/wgXJEZXDL324j8f/Y8AiBcDL/AP6eOU7feGzz2eAU+HfMJbzdqzdixo1mxfAW7du5g0dzZrFr3I106tpNZKNu3b+frxd8wYeyn+Pn7svfAfqZ9MROdziA3ka/mz2bF99+zaevPIr6A4lJ49IkKnDxxgrfeqk/TJo0wJyUzd84cDh78naZNG/NG/frEJSdRuEBeXqv3DtUqV6Znj67oDVq++HI2e/cfVKWyH8iiWCpYFaCofKli9BkygFbN28hTd6WKFbhwMYyPBw3jy+lTmDtnAcf+/IOePbpx4Z8LGAw63n+7PjabjUHDR/FP2GXpync6nYwdNUJuvv0HDmNQvz74BQQy7rMv+WLaGEZ/No0aT1XimapVKFq4EBs2baNl4wZExsYxf+EygoICKVyoIDM+n0a3Xl3ZvXs3Z86eo1fP7pQuXYpjR44wac4CPurcUQKEOfMWygOQSP0d0K8HlStW5mJkJF169mPU8MEE+hjIW7gETZq05o3XXqR9+zYS7E+YMIVDvx+iXdvWvFbvNeLiE+jT9yPqv1GfV+u8KCMSoo9bdvyQXHkKM3HEANq178yCBbM5cewktZ5/jg0bt0hPw5NPVqRv354ypPX14qX8vG17mhCtlzvzsC1fdx0goNVQvHgR+vfoQZmypfjiy7lcCLvEiE+G0LhxC2q/UIuWrZozcPgoJo3+hIbNW5I/bz5mzphK3Vfr88u2n9hz6ChfL/qaZ6o9zcsvv0T/QYP4sFsPln27lnmfj2T4qLHYHE4GftyXl+rUI1/uvCQ57ezcsoGmLVpx7do1dXHQ6KRLsVO71pR+pDT9Bg6kQ4sPqFytOocPH6ZalSfpM3Ao/Xt1pkSZR+jbpz9fz51N+04f8vrrr1Hlqcp06dUfjYgt3odEMpH2mPbMnjaEoMY8M5vA9x+/4mGbZP/2PhIgXBEA4QRnzp7BYPLFPyCQpi3b0eCdNylVvCjT5n3Fxm+/5tU3G9KzS0cuh4ez+JsVLPxqASeOn+DbxUv5fPpkxk6bzr69B1AcDr79ZiHde/TienyijDGL0IRDdX6xefNa3nm7MWVKFuOzcWMoV74y5/75g/Yde1C2fDl6dGnH2+83Z/2KpYwcNQGH08mw4QOo9eLLBAUFp8SpH6R+UrTCE6bG3EsVKcDwoQNp2q4zXbp2Ye3K1fTt3Z1L4VfYvmUrY8aNpfoLr3Jo91beePd96r3+Bvv3/kaj99+nbLmydO3e0536qyExIY7fd2+n5qv12LLhR95t1ApFMbB88Qx6Dp3A6zUr82yN6vTsM5DEpATmfj6F+YsXsu/AaZo0eYdSZUozZugnDBk5mK2bNvH7keO0+eAD1qxdx8xpU+gzchTvvlaX+Pg45sz1AAQt/T/qSWRkFPXefptGzdryw/eLmT93AW+800B6EJ5/tjJx8fEUKlyEXt27MnzkGAYP6EPr9h/S+cNO7N9/gIIFCtCkUUNat+lEn4/6YtEozJk1n4UzJvPaW++wZf0apkyfzb49e1j53RJeevVN1q75jgkTJnPxnwt8NX8W7zVtR1ycODQ9eOAgJymZ0qsmdGAepEmRhWe96wBBxOnEInfizF9Uerwyk8YO47Mp03j/vfdo16U7WpeDn7du4qMhnzC0ZzfebPEBpQoVYeqUibz6Wn22b91A6w4fERsbySfDBvHX6dMsWfE9Or0PLsXIrg1LiLwag9PlwuZ08tbb75MrKJirifFs3/gjo8ZM4ODh36Wbr/xjj3L2YhiDenbhrz9PsWLNWnz0OlatWcOpk6c4cuh3Fq1YxROlC9NvwGDWrdtI1w5tiLh2XR7Fr0ZH0eOjISh24Xq8lfs8C9a/Ly7xAoR72w0ixHCBs38cp1CxkhQrWoyVK1YwfvLnhP0TxrIlC+jdpz/Dhg/h3ffeZ1Dvbvz1zwWWLF3OySN75dh32R3yFZasXMXqH9ai2B0s/GoOWzZvYfHy79BpNAT4+BAYmotq1Z7hvebv07Rxc3LnCmHjd99QtPjjnP37JE9Vr8ljFSsxa/oEqtaozZnf98oQg9VmQ2/QU6FiVcqWK+eu33FvrZbdb8+bLy9BQSH8/fc/PF3lMbp+2Ik2Hbqzfv33JCYkEhTgz85dvzFlylRWrVrOz7/+jl5rZ+LU6SxdME+tKWIyEON00aBhI/y0JvkIeqMP876YiME3gKuxUfTo2gefwDys+nomPYZMoF6tyqDX8+WsBSiKg4WzpjF1xgxO/hFGsyYNKflIGUYOHcaokcPZ8NN6oTHGJ8OHERsXR4HQUFp26U7T9xpwPS6WuXMXosgQA3z8US/OnjmHT0CA5KSUKVeG0Z9Ookf3bjRq2oYlCz4nRIQAFCcF8+dj0qRpVKlcgeFjPkMjM4EUmjZuwmPlyjD0k/G89fZ7vPjqc4weN54lX0zhlbff5Zcf1/D08y/ibzCxeeNa+g4ZzcwvJhB9LUYCLSGN3nvAJ1wOOyfzqe41SHDTLaSNbmwZy8mlFLm/401dcEl0Jj8572TqdibcqbTPI0JUOp1Ohqo8nLnsjuf/6vq7ChDEICpSsCDLv5rLxyNG8vSTlahRsyZduvdm6eJ5dOram0YN3iV/vnwMGfMpG1cs4YP2nRkycCB58oTySt36bN+ykcYfdMFijqXaU1UZOLAv/QaOYvTIQQwaMoYZk0azbPkKLly4SLGSJVmy9Fsp/uPUaejSoQP13niFWfO+JigggDZtmtGpWz8qly/L+w3eps/AgQwZMICz/1zg7F9nade6BT0+GszYUYPkaatl6/Zs27CWT0aMo1TpkuzYuYsLFy+6XawPA1YUU9qjkigmeM41teSzmjGhtofBXjlnn9Q7abh0+aIECAsWLCQgIIAGDd+mabP2hF+7zrTPRvFkxSeo9uwL+AYG0a97JzR6AwsWLeGjHj0oWaYUQ0aMoGmTZowbOxaX2+CCU7Nl84+sXv8Tx44ep1e3D4mOTeD1+m9z9vA+ho0aT2BIIJ3ateSZWnU5fmQ348ZOpWjpEjR8ux5vvNuUdcsXsejbVYRHRFHhsUeYM3ceTlm/IydHyt2wacZ7anju2acZNXwIw0eMoVe3Lmza9Run/7lA73Zt6NqzJ9OnT+HA/oOMHz+B0SM+4bmaz/Dx0NFEx8Yze8Io2nfqwqCBg/DNm4cG7zfGT2uUXyLySRq8VZ/+vTswYfpsVn3/A6bA3BIg9BQA4fknsTlh5pz5Uq187hdT2PHrb6z+cSPly5RhyKC+9Oo3mNlfTGLM1M8pX7osTzxSnklTP2fh3C9p27WXBAhao4FPP50giY0CIAzo21vyufb9fpgFc2bStEVTihR/gq4ftufD3v3Z+N0CmrdoRacPO1H7hZq0aNmB+bOm03PAMAYN6Mv8OfMpULAQ5cuVZfgnE3n9jbd4uV5tRk+YwOJpn1H3rXf4ef1anq7xPAG+fmzauJambToza8YUjh47yeoffqDmCzVZMG+RGxjcW4Ag+CGVKvwfe98BL0ddfX92drbv21fTCyFAKNISpInSCUWKGCD0jjQbUgJSFFGa/FEQUJo0adIFRDoKKNI7gdACpL28unX6/n/nfmfe7nvpGCCPzPjBJO/tTrm7M/d87z33nG/ggAP2w8knT4Ou6zj88MPx4Ucf4PEn/yXj3GpTzzvbcbDxpIn417P/Fo7Jxf/vQlzxxyvx0UcfLeQLObAuy5eon5HIec45v8Q6a4zHR7Nn4/Sf/xLFYmHAPoJahYJQ5Jac++uzpUX41ttv+5wWtb8VDTB8YQAhiBAnDsatOhYH7r+f9PFv/evd6Ozpki/mUYceig8++AA333IrCoU8vvPtb2O33ffAw488hnXXWwe/Ofd8nPnzabjkT9chYhbBKcVtt94Su3x3Fzz5+JN44MGHMGRIG35w5BFIZdK46aa/4L333odGBi/RWUTDxhtNwpS99oRtWLjx5tvw/ocfSLLa4lubYY/dd8cLL7yAu++5D45tY8qee2CjiRPx1DNPY9Xx43H5FVdi4gYb4KAD9sWsOXNw3bXXo1giIXLwJztegWPZ2GKzzbDWhDXw/Cuv4rXXX0cioR58tdFPSJKvJ6ZFfPXFYGpEouHHXP7KR4ZrY6stt8Krr7+GRCKJYcOG44033pA2T21TSJ/lX3GSHPxhXeZsx9h2dXXjkot+q8ZObQePPvowXnvtTRjVKr657jo44/RTMGXqIcJ3TzdkcNIJJ+Ddt9/BHXfciYMPORDrb7AeHn74ETz62GO1ScaIDq6aDzt4fwxpG4J7H7gf/372P/LVXXXVcTjk0IPR29ODy/5wOQzbxnrrrYODDzgAL734MsaNXxXnnXehkH7JwWlpbcH119+EDz/40F/1DD4ymmXb2H67bbD7rrvi+ef/izvu/Rssu4ofHX80Wpsa8cwzT6OxqRn33XcfHMfGL886A2f/6teIJpKYvO022G6Hybjqymuxy2674Pe/+72oiPqsBnR1deHCC87DueedD03TEUtk8JPjD8NNf30AG665CkwPeOrJJ+W7MWLEcPzo+OOlhUBewDHHHIWGXA7d3d148onHMGdOO4477ljYli1thXvvvQ9jxozGvvvti6N/cLyQJDnGsPtu38W82XPx4suvoLmlGXPo5Lrmathm+51wxR+uxFZbbYLv77kn7rjzTmyzzTb4xS/OxsabbIJDDz4Ir772Om6+9VZstunGGDFiJO6+535ssMEkrDdpfdx93/344eEH4cILfoufn3YKzvrFr8Q75dSfT8O1f75e7u6jDjsEw4cPx9XXXoN3352hiKvL/M1fvm/g82PzTTfGhef9CtdcewNuvfVWnHLySXjjnbdx7wOPwa1G0NPdg1w2gWQijqHDR+GPvz8P39luN7S2NmLs6FGYPXceenp7FGk9EkG+Ny/tvmpVQw//nk4gk4wrTlekilQ8geuvuRJvTp+Oe++7D5tusgl22WUXHHHEsVJ5K5sWzHIJLY0Z+V6Qt9FV6EVTJoZ7brsZ5/+/P+D5V16DabsolAw0NzaI8N2KtH3xAEGkdCOo2JYwhWMax+tcmb83Kibi8QTiUU1GCZkfSMBKpVJCGuSkgu1UEdOVDQ8fkMxNlQpn/VPQhDEFlG1H3puJx1H13H7JjLdx3rCYv5BJxfwR4Ygcv2JUkI7HEfX7k0ShhmXKB88HdSzOnqWGsmEgpkXlfMhhUKNDg3fj4z2q6/jtOb/E2FVXwVtvTcc6666NV155Heeeez60qNKBCKYchJdWf83CwVCER5Lf5MX+SJ4wvLmyMg38/PTTcMNf/oK11pyAnSbvgFOmnY6IFpMbRQQXPVt9qhrNn5Wb5MLLg4M31ks68yDJVCxLvt/kCiR03g9VlG0bl/2/CzF71lxcfOml0vvng4nfUX6vY/TD8JSvRTadlNIx77UA3vEzMWxXyHW5NCdwyFd0xWSLbQMS9hJx9VlzvxXej4mUJEhORHB9bNqOrFrTHI/sGyEefACBiY1f1XKljFQyhniEkz2A7UXE6yPKiQHHQzymdFHIaeLqMAoPNt9nWDKF4Lq2eIWIYor/GODfTduW5xvvE60aRdkxEacuAe8V+prJ/cFnXwRlo4JkTJcyMwmCnFrgr/WIJj+r2KYImfE5o+TM1WecTqXUrcbj0dwsAiEs8gDic4KIjHPHozE5t1KljEw6CduyEI8l5Pfq+lPye9dz5P6N6fweefCqDmKaDsu1EdNjsPjMlu8BYFkO4jG1X5kks01kk6lA/WFJX/Mv4fcRbLrJJJw+7URZkOzxvSk48cQT8Mbbb+PBhx4Tcu+mm22CuXPm4vQzz8b55/0aE9dbG++88z4OOPY4XP37i3H9Lbfj6KMOx3HH/0QIqNdefRlOnnYmDtpvH2yx+eaYM3cOfvqzUxGN6ahGXHxrk01wzJGHYd9DjkAqmYFlWthw4vr46KOZaG3O4ufTTpEJkocffQw33PAXrD5+dfzijGkoWCbWGDMSp571G3z08Sc46cSfYMzoUXjhxZdw+RVXyf23omxfOEDof6GSOvrKMwv+TtaTA2Lzv1BJ6ks7KnEtTLNuwXT/9e7LU2Z5eNsQ3HTDn7DDLnvKJ8KH2Wknn4BTTzsTY8eNw9ZbbQnDcfDk0/+BWe7GzjvtiO75PRg5Yhie+c9/MXHiBjL2xCoOt5123gH5fAGtQ1rxj4ceRbmQxy477ohnX34Fm0xcD5MnT8a0U8/AmLFjsOnG3xQC1RNPPCUPwO232w7lioNYDPjHww/LQ1KS3CAHYp/3Jg/EnyqVCn7+82k4//yLEEskJTH0B6d132+Z51/8vcJqhRrR80FE37juwkqon/fsB+P7gutXKg9qC55DQelXgSIZI11iDXHJzw8B3YsIlRxZPqf6c1nUUdXYqZSm5U//PP19K+E5rngXVfesfYdUAXyAZkKdtszA57W/56/8A5d4RSLYbONJ2H/qFLzx+ptYY8IElEpFvPrGm3jwH4/ioAMOwoOPP4pfnPhTPPXPp/HezE9wzmmnYO+DjkaPVcD9N16Pk39xDo45/BC8+sZbojNy+qkn48orr8FxRx2Gn516Fg6c+n2kmlpx+lm/hB7xsPPk7bDtlt/Bqb/4Deg4J1wEAVDAXbf9Gdf95RY8+8x/cdWffocLLrhYyKIPP/oEHvvnP3HjNZfjtF9diC032QQjh7bi91fegD9f8Vsc+7OT8elHn/Z9+4LP86sK8pcMEOSTXOLt9VUFY2U5Llctxx5zDCZtsDYOOfxoEdIhkY3J2nAjePTem/HIk88il0pi1VXH4ugf/hRPPfw3TJ/+nqwq1llnHWnNjBozBi++9Aouu+xyPPLwg3jssSeQa2jAahMmYI+998Oj992FY08+HauPGYFtt98eP/7JiXjy4Qdw5z33YO2110vXjGsAACAASURBVEJXb1FK3A/f/Vc8/8Zb0lp69PEnBUGvrOBAlDwjgWKeul0CdUrF6/j8W40Povbxv+7v85/JV/3ORSfb5dc+5DFq/J4v7opruhQLSyZB227gZ//Fnc+Xv+cAym22yUbYb689ccJJ03DfPXdJVeemm2/GC8+/jKuuuAwdne0YMWyYjJs+8PgTuPjXv8C2O34felMSD918I6b96gKkoxqOP+YwZLONOOWMX2DXnXfGXnvsjM/mzhMQNr/HwGnTfgqnGsG3Nt0Exx51BPY77GjoVTUht946a2FuZx533Xwlvr3NZMRTDbjw3DPx/Auv4qhDDsCu398HLjTccM3lOOeiS/HTHxyJVYYPxZzuHsQ1D+f+7g94b/r7dYJ/X2217isACF/+Fyg8Yv8IsNS47157YvfddsTUqQchkUwJD6A7X0JDNoe/338Hdtllb1ilXjz/3D+x31HH4s5r/4itt98J2UwWN99yEzZYfwOsve76uPqaqzDl+3vjoYfuw6SNN8Uaa62Dh+66Hdt9byoeuPUGHHvymZgwegS2nrwdzjjjl3jy7/di5iezRQvDcC389Mcn476/3oTdDzoSXfPmhh+VSt0D4rASkjO+Ft+E/pUZGTse8NGyHTHw7lw2kBJUEL7aRPJVflwCxSIR0ZzYZ5+9cdKpZ0lb8+pLLsIFl1yCz2Z+JsJSP/zRibjsskvwzHP/wQMPPYxLLroABx54hEy83XTDdTj33Avw3vR38NA9d4qM9a7f2xvf3HgTnHXWafjhj07CZptujnvuukfaMWzl2U4F9955K3qKJfz617/BkYcejI033Qjb7vg93PTnq2QRddvtf8UN11+Nn5x4Kqb95CeYPX8+rrz6Stx047U45fRzsPGG66vpknPOx2mnnYxTTjldWoIryjZoAYJfUVtR4ji4ziMCNDY04IG7b8WRx/8YTz/zLHb77ncx7bRp2Po7O+Gll/6FnXfeE/FYBPffeyc222ZHvPbs49h6u51FCOamW27AxPUmYp1118PV/0fS2WvPKXjyqUexzTbbY+ioUbj9Lzdi1732x703X4djTzoDa4wajh132l5msF9+4T/YYbfvwWc5IJVI4m933oKdph4MM98zuOI4aM52US2EWnl52ZLSoLnwFehElffJAkZodd4l6mQJIxaW7OtaAf7HqVoRgcT8yggQVCBYHWGlZL2118KWW22BSy+/HOVKBbttvz1ee+0lzPzoY7S1tYpqpusYKBoGTNtCJp6Ea9uwXEv8ekhUp3x/XI8jomlwrIp4veSyzYjHU4gmdGmNVgwTyUQK0VgMDblGHHHEkfjWFt/Cm2+/jz9ddbW0NpKJBE4+6WcYO2Y0Lv79pXj3vRlIprP49dlnoGiasG0Lt912N957bzoO2G8qttn6O/jb3x7Egw/8fYWaZBiUACGZTssaq1Iu9/NfkK+LeJfUZHiVOApLfUrGN1yL+Y+hCLDlFpth2kk/g/5/0q2Unj77Nxfg5ZdfxwH7743v77k79KiO666/GQ898igeefBO7LD9LkinCRCuw8QNNsZ6G6yPK/54OfbZax88/dTDmDVnPppamkV174G//wOP3HsHfjztLAxtyuFXZ5+O1ddaH5df8ntsvdUWQmr8/WVX4pmn/4X7774Du+5zECqF3gF20CvQ832FO5X+SZ/9z+bmJnR19QjrvL4KQQcFmUTxv/zBoGJN2FoRgMPti4kAP5spU/bEu+/PxIx33kUmm4Hnka0eQb6QR+7/JlM4GicrU2hIplJI6DoMu4pUOoZioQDbMcXnpCHdgHg8gnmd3aIge/tf70a+t7fPyOmLuYIVYa8UuvL5IELRcOBaFViWAdsyRZPBsw04jtHHotBorcN/kaEe0Nx9Mrx4T8hlKeJo/XhhkCVqfA5N5RkfvAWeGQFFSsy3CNSiccUVikYRT6YpkoGoHpcKLdV9q9UoKpYhRHqaqOnRCDQ9JkRWTtmkkglRPV2RwPqgAwi82TjHPK9jPv56x90q6Qfs6oDYVocCgkdfMKUbQgR1s0vCgFLXa8imBfVymoOsZn5hOTZqei5s00QUUSQTSZilgrDsmdxdWjFrmghQ0Zb5b/fejo02+w7GjBkn6J33ciYag0XmvWvKrDE9LfgQbGhsFAStSmke4hENBnn54oK3IjyMBsM58HuvRkr56Prks1l4f8ZrGDlqAiasOaH2kIlUZVqBzoM16pxvncXPRozIluyBMRgisqKeY0OuGTdd/Qdst+veWH2t1XD5hefJxMmwthZsue2euOe+W3Dury/Af156CYbl4JpLL8S83iL+85+X8auf/wi/uuAS/P2RR2Sdc+ctN2DEiDbsMfVQrLnaqthx8vb41bkXyT329dw47uSKGqhpWrCtIjyzItMa4Eig54iNvLRv6BTsT1jx3+JiSnXZumeKgGV/0kqlCbI3uYis0UY5ZVcDCcovpQ9oiFoi770aGVTxpeQM+jh2BANV6NB0HXo8jkQijVgyIxMWmh60lerFm4KktWItYQcdQOBHms1loEFDd3cPVhk7FkOHDhE9hZJhyTzre9PfkxtwjTVWF/nUXGMjVh03FrPmzMWcWbNVIW+AE+TX8+Za9FUpcjO/9j6RSuOX1vdpkNjUSprB6lKTm8K/dfwqDe8NjlrdcN1V2G7yzhg2fESf3x8Fq3jz8rMI7tGAGMcjqMFWCPPXqTLVrYxl0s/3zdN1DePGrYKGdBrT35mO9z74EB+99yaGjloN41cbj3XWWQsN2SzemzED5VIFza1tIsxDIDHzk4/R1NSEb6y9Jj6aOQtz586Vzyjcln8E+JyZsMYEHHfc0fjZz04Rq+aOni6Ueubj/bdfwcRNtsWRPzgC+++9F/bYZyqGDR+Lv/7lCkz61nbY+3tTcMaJR+O9mbNx0FHHYVRTEx647zYB57vvdTDy+R7cfN3V2GO/w5GOf12QtX8drinlf5pccWFCXZVgsSfJObCp9wGuLGx8qeP+VtW1alrfz+Xxpr7vvmedjMAGzzwx0fIBgEz9BCMg4pAZ1OZ8h5vgtvE8uJ7r8xNYTuAiigsuB5TAJ0Snky4BSzyZQVPLEGQampBKpWWhpTb1DFyR7sRBBxD4RTjxhONQzJfw8mtv4vTTTxEVxVVWGYM99jwQD9x7Ow478iiUSyXcdedfccJJJ+O3F/wG706fjkmTNsReUw8SUZLaONPyfygMrj0uqj+99FdBRN7d1YW2tiF9yHrp311b1y79e8JX7r//VOz5vT1QLuahR2OYOGkiOufNwZCR43HxxRdjm22+jZ7uLuQam7DnlH3xn2efwNNPPIn1N5qIw446Gjddq3wc1l1vbWz+7W0xZOiwMKhfRASqwNprjMeU/Q7Hr885S8kcV6tonzsbr770HDbfYhsxzXrl1efws2lnorWxAVP22hs/OfEUbL/tdjh4/+9LT/z4n56CTSauLz/bcOI3MGX/wzDj3en41+P/wG5TDxf3xsG1DQQ0TKYeHCuPUqEAxyjJ4qU2abMgAArGQflnsViE43ryn6qKqTTLimXwpwAEJvuIBk3jWKKqOPClBF1q8x3uAm8FAgRWSimNLBXOoM0RAAxVyVM+DP7fFfTwR4oXrBKohZDS0ojF4hgybDiGDBslGiSRKMEE/1sxqnqDCCD4hJSqh5NPOB7FQgmX/+ka7D1lL4waPQI77LANTj31txi3SiN23XUXTH/vfXiuh0v+cBm+vcW3sPE3J2HzzTfHzbfcjr//4x9K4CfcwggMqgiw3Ap0ds7HK688h9VXXxtrTlgd+e4ezOtsx8wZ76J1xDiMX3U8Dj/8MKms7b77Ttho42/jheefhdFbwKlnnonH//VPPPfsM/AqBq645jo8/Nhjg9JfYTB8dFpEk1bAnlMPxLm/OUdWplwBd7TPxesvPYdNv7U1mpqa8Ztzf4l//etpHHLQQaL4+tDDT2DbbbfGAftPxUN/fwijWhux0847Y+KmW+D1V/6LvfY/HDPefQdPPf4Qdtv7MKSoP7bCb+oZHqRAdbpV2KYBo2e+tBwDGOCyvkh11cWoNBJocSO5kK68XJ2rx3pQ7q+JWfWFJiCFSgXBr2z6uEGJvilhv2Dj38gpoMAY29sDx6+DSnQfcFhsZbqOG0fhLv/6CRjoZVHVdLQMG4kxY1cRj4/+21eTrwYFQGDwbccTIZ5cYw6n/ew4dPT0YuIGkzB9xnu49647cOWfLsepp16MT2a9g/vvuQ2GZeHoH52K9ddbC7vuPBkX/vb/4fyzz8YNf70HD9z/N+lrhVsYgcEUATcSRVfHfPnuvvH6C9h44y3g2g42mjQJjz3xKGZ9NAMNraMw+7MPcNFFl+K55/6NB+6/FxM3/ja23OJbaMgkcOZZp+P4086AkS+gpaUFV1x4HkatshrGT1hrMIVi0Jwrn11rT5iAo445DD+bdjau+v0FOPfi3+Gjd9/FU4/9A2ut+02MHDMGo8eOxpWXXYyKYWGXXfcUstvkHXbA/vvvhzPOPAs3X3kB5rSXMGW/A/HMkw9LBaGrcz5uuv5q7HvQMUhS9XWF3mpquFJut0xU8j1wzJKU5oPJjSgTpVqS15Xz/ZTvE237ao5+S8FxHHTMny/ql36OXyjRT1Qu2Rrln/KHBp18Ks+VCkKVMvAieOQpKW2+iPwdqlSyMiHtWMUfGNii7hOrWqrPIBDkCgiJSi1TrlKrCoExnsiibfhwtA0fAz0SE6XTr4K8OCgAAmOeTadwxeWXYsre++GXZ5yCzt4CohEdW221ubixjRw1EtNOvwhvvP0K/nzlpaIjP2XqYdhss0ny+jfffBurjhiGv9z3KB64/z6IbVq4hREYNBGIYFhrMy677A/Y/XtTsNc+U3DUEYegs6MTH3zwIY448ijM/OBd/Om6m/DtLbaAZZZlZTpyxHDstsc+uO3m6/Hm669i4qSNcMSxP8SlF12AD95/HxtttBG22HYH5LK5QROJwXaisWQSt/z5j/j+1ENw6CH7Y989vwfDrODjWXNw4kk/l5K3YZZx603X4sUXXsVlf7papJYnb78d9tt/f0yZuj+OOfIAzJnfiYfvfxDPPvko9jnoCIwbNxrf3WkXnHPeb6XXveJsA9uG/r+rLqxyHmYpD8cyFWPfnw4ITOMo2Kaquwrw1LOhpDtQJxYWcA5cx0FPTw9KFWMAQKgxBqJRTQyc6ImgkrtqLYg6aVQXkOCI7LROZiN0PSrtCuZt1/XgupQcZ1WjNvEQqJIuHZ9tcQle8STYfiL8kLOLQCSd25pbEW9oRibXpvgK/VjcX3xVYdAABKK54cOGY/asz3D6KSfgs44eXH/tdVhzrbWE9EM9c6NYgm25iMdjYk9bLJYo7o8Rw0cglU6hvb1dok+W/VeBxlacGzg8k8EYgVg8IcZJc+bMgeN5GDt2rOhZvDv9Xa7JMHLkSJnnnjFjBjbaaBI+njlTiIqfzpoj98TE9TfASy+9pNqwANZfd12889bb/gpuMEZkcJwzV6S77bYb3pn+Lt57fwZGjR6FbLYBr7/2mjglCvs+oqG5qVHK7OVyWR5PyWwa2XQG89rbRWKb/5G9z9n6Tz79DEcccSgefPAh9VxbYbY6UqCcE80mrD5g4DmcXOrPJ+D3MWgXBCtx6hpISl0M95Kv4fs810U+n0exVIHb5xeiJg3onxOP00+C01lVVF2/MhHVEIvqyl+C/9MicGXcUPlPBMdl5YCfn+OqlgfPL9BLkM9NRhz7tx76A4YgiS+ORFpL9IHRIM83FotJlY8+Hm7VRSKeQbZ5CBKZHLSIXptb/gI/+8EDEBgETcOBB+yP/fbaAz888XR89MEMRUKRmdaAda++fvWDJ19g/MJdhxH40iLgrzMUGco/6sDHT+3xrF5QK9aqVQl/otT7vvjVx5cWmBX8QPXGTiJsVLcyDk5deUOqz7W27q2tJuXxt9CPrPbc++rDoNoI8h0kH8C1US51o1LMIyoVDpbr1VnWr4TrAUJfPJj8F5dT/UEEqSJ4HvKFAvKFUh/Q4M8JDhoaGlAuFyWJcySb5yX1CT0qhlTJeBwN2QYxZ6IWgUwvVKsCNLjotE1LERk1TbgI/Dtfw/YE36NAQlXM/QgwBBL5fwrHwR8Mq302i/+8FgAIzS3QouJsp+5nEiz1JBqbhyKRzUn1IzBR+yLu6UEDEIIA9/b0wjINtA4d3jcWt/Lq9n/1j4TwDFb0CCzsKRuCg6/yU6sHAF/leSzfYyvevUeNVNdCMd8uVsd9W9WGtoBqpA9iF2EkFazEpVKwkK9xAJiYqFlByBcJENQ+U3QfJfWPK36XBMNaS5kTCWw3UAiODpyZVFp4PdR8EYAQicLyPHFNtcXNVDkEE2CQ78BqA1f33Ad/zr9L5adU9o+l9FwEvPikyeDPenBUT3BUxlz1OjARaXNwHJnH6Q+qfDBJUmNLK1K5IWqc/AuYfBh0AMHHn+EKaPne3eHewgiEEQgjsAwRGLgSZm/ehZHvgFHsVRx9HxC4UPwIatdIjWEA039RTpP1AGFhrwmkO7hi7+3pQaFYRiSqIZ1OS7KmpX1fJdknPkqi91sLlEOOa1Fw1R6LRJBOJJDNZtGdL6C7XEKhXIJt24hQz4XJXhzumbhjsmpnhYHlCB4nEY9LG5vqvr35glQWAkKk8m6ojaEujOCoAIICIkGOI5Bpa21VFYTgp31jlkGthngmhsbmIUg2NPtur8tvATBIAcIyfI/Dl4YRCCMQRiCMwHKMgGol9Mnae44YuxnFHngeBY2UxDEVPLlRIKhvYRf06weMmdentKD/73fEBiT5usuI1DgA1LaxbUqvKZ4GOWtB06YvIZOUGNUUx6BaRSqREC+YZCqJpBZBU0NOyIj5Ugkl00TBqMC0bGkzKBGkqvAZWEGQEcyI1sdNYKUiFo8jLpyHBObPny+/kzFJ+jr47YiBH0LAX+gPENSZEyC0traBBMuBAEH9O9BKUK0pth5aWoYgkW2Et4Bt+ef7+EOA8PniFr4rjEAYgTACK2EEgrRLiXWW5csoF3rgWWUBDRwGDFoofSv8uvaAUiZctG15fSthIOdiwWkBdSTbc1CpVFAqGX1AhG0HJm0hMfqCSEzUTO4cI4xpmrQG4gQJySQa0ykkoxGk0hnhMnTme1HmKKZlw7GUiVOQzFlxSCQS0qKgNb20MFwPUT0qSZ2tCIKFzs4O4SbUcxeCL4zfeeirhNcDBP5dKhBaFG1tCiD0b0csnJyhzk9DPJNDrmUo9Fi9lsLn46qEAGElvMXDSw4jEEYgjMDnjYD0uh0LlUIXzHJBccHqJhFkNVtXEhg4iSC/qqsgBOmufmpBER1rZyi/8ysSNTVDKiFCyIVUUuQuyREgIODqXkiEfqWDBEJqGxAkkCDAv7OCkE6npIoQY5sBrhgr0Z+mp1gUgFAyTJlaYFVC4AgrBbouQIBjmuQIiE6PbcvJOq4iadq2iUwmi86uTnGOVEZc/S+oPy+hvsWgkjnPtY0VBD3ab1JiUZy7YHyTREZyQXLNQ9DQ2MLSgqr4fI4tBAifI2jhW8IIhBEII7AyRoBJ2zHKKHbPQxWOeCEqbUTJnpIIByb3BeLkI4KBarb1AGEgwAjSW19J3lc/pLBRT0+vtBQMIRmqqQbRL/CTOisJPDcmcWkR0B46QoCQFAfFdDqJuKaBdhaNjU1iBFg0LZiuI8JVlmUL54CJmhfKqgNHKzkiSaBALkMqnZYqAg/MMVW6dZqmidbWVnw2axZMyxKORuDxwJhU+0ibauVf4yDUAALfH5AUgzgujpTfr8rCSkQ0gSEjRiOaSIDOxksYDFnwo9ps650/H7RYGe+O8JrDCIQRCCOwUkaAtHwXhY5ZcJ2KkgYWoSGVPvj/4pJIvYYB8VESxoqXEGxBIutLPmwF1GWvfgChTg+hHnzYnguzbAgoMQxTpIttx5HyfFCmV4kXksgDsiDPWyYZIhFkWEGIxZBJJpBJJRCPJ1E2DXQXSyiWyygbllQiyF3gpAKBBUcjiTIymYyQE5UrrYaW1lbEo7r8W9xqTUsEsTKZND757DPRMlCqkepClaSzisDyAgj1oVegjYWOKlKNLWhuHeObsi19uyGsIKyUN3t40WEEwgiEEVhSBBTRUErmlQIq+U44niql9wkaDdzFwmY4aYZUV+LuV2Goy1X1q1+xoxdfhP7rV1YwhJrnVSWB8/cWVRkjOhyP4IAJUbkqskTP14lUMlsMbAvQIEmPSZsgzomHeExaDXGdQlVNMBxXphh6CgWULbpJMvn7SRwRUOkxaFEEo46cfIjGEwKAyGcgCbJcLKJSKSOZjKOru1ssn9vnzVOcCOos+FoJQVsgGF5Q1QEFIPj31tYW4UrUizEtaaw/AFfB5EcAFKLRGFqHrgI9kfalm5f0+QMhQFhyjMJXhBEIIxBGYCWLgEpUWtVBsbsdtlmQMjtX0NIK8DkBS+sAESglMogLE3wa2EIgQAiSYj1IEIBQraJcMTiSAJvgQKoXEdiu3We3rN4TkamEQI9AcjsUhyCTTCEdjyPHCkJcl0kGaBF09RZQKJVRKJdhOI5UJAJswypCTIsKQZGTCgQclGGmXoEWi0tlgcRFbulUEkalIpUEcg9IZKSYU2dnpwAX21dmFHEsfwRSYY96gABpUQQAIQANnwsgaL5iU0RHNteChpbh/vd58Q2EECCsZLd9eLlhBMIIhBFYfARI5KOhUhlmd4fM+1PKW4hzQXk8AAh13gALThn0P8qyOOgGAGHgeRIguOznkxrJzgVX5KjKSp9VAo9lfF/zgGOPStVQWUmLwFFURy6bRZr8g1gciaiGXDqJTDYtxMR8uYxixRQNhIqtKhKinuj/l+DkQzwBXY9L64BtBuEoAMJvIGhgvMyKIfwGciJJnBSZpmoVs+fMgWkYAhhoEBWoLvqFCf9ygwoCRAiJMulLM8UQxGpgBWGBGJKkmWxAy7AxMimxOAXGECCEz4owAmEEwgiEEegTqOcqmy2FUm87YtIekOy24IpzIe2ExYKEAb4Fi3ut6/uF1H8sUglgorYc6LE4TNtGKh5H2ajISp7TDOwiWFz5c/LAre/vqz2Rd8CVfjKWQC6TQUs2jVw6Ifvr6O1FwTBEkZEaCIbl+OONbE/oMjZZJR9Bi6KhIYd0OuP7PEDEmZjsyVdwPFc8NkrFosg9O64tUs38N1f/bDVUTNPnbSgtB1ngi5LigApCSytiXwBA8OCgigTaRo4X0mVNALz/jRAChPDBEEYgjEAYgZU8AooKEEG0WkWldx4so+i3GIRbLwz7pdnq2wL9/BZ8EiP3UUuBC9mjDyKqWk1oKXgV32dWTMQTcQEKTGws43MFzwECPR6DYVRQqlQk6bK9wBU9z0OIhpoGHRqSsRiymQxymSwycR0tmZRMCvQUS+g1KugpV1AslWB7VViOLfviPpi7k4mkWERLrGjLHI+jsalRfl6pGNIuIFCg2mJTYyMo4MRpB0bXNHleVbTPnw/DslAolfr2KzLLvjR0/dgnzZr4/oDDIWOan3MLIF5UpKsVmdSNuGhqG4N0QwulmXzb7VrbIQQInzPY4dvCCIQRCCPwdYkAU4Ie8ZCfP0c0DqQv3meCpyoI9d1qtfpf9gG4JVYYfN2CgXEVF0X6IFQhq3JujuP6HAOCg4SMEpbohyAjhhYSibgIFQXmSp5bpVME2CbIZlJobWxCSoNUELINOSEnFg1TZJYN20aJExJQhMKgxcAoZNIZtDQ1IZFMCgAhSHEcD8lkSs6NoZHKAfkLACrFEnKNORFVKpVK4hPx3vvvw2TrwSXw4vSH4nfISKa/8W8ECOQgiEakgJRlHVSsRbIeIPQRQCMe3EgUyYYWNA8ZAYiRm2rLyHmFY45fl1s8vI4wAmEEwggsewRkRe8YKHbPF6lkvwNecwKtwwH16UmR6+rXu0s+9pJ4Cn0yjEH7oq6NYZu29PXVhALHFhXHgKRB260in++F7dioyOSB2jjix0oCNyZgXYshm0ygKZdFKp5AQtPQlIlLi6C3WEahYgj3oGiZ0mooGRUZQQxcGSVtktdQrYpT5MhRo5BK0YPBlGQfvE7aDZ4rgkxVxxVmJv9OQEF9hI6ubnT3dEs7QlVdFACI+mOZPN/lDRDqgUc9bJARVWiIpXNoHTYaWiQqyhYS+hAgLPlLHb4ijEAYgTACX78IKE8FzyrB6O4QImI9ABBa4sAxw7ogyGtlFLFmRBT8elFAYIkAoX7/gTGRV5XEz+TJCQS2A1S/30Mmm4FtWSiWDUm8lm3Cdh0BEK6jOAGickiTpagGpj7yFnLZjEwyNKTTaEknpM/flS+gVLHQVS6hWCmjYjowHVut3ElCTMRliiGonpD0SJ4D2xXZbGOf1oJa5ROYuLAtnjcJFartwPfy/PnnjA9UFYGbgAQW+aWDEEC05VtBGPj9rY2RqlFWAoJoPIUhw8cioicFIoQA4et314dXFEYgjEAYgSVGgAnJMUswe7tEBGngVt9EkKQnlP76coL62cIbDcq7YGm24DiBuVNQNJAERh0Dnz/AhJtJp/v0DfRETPr2VC50vaqU9CtGRV7PKQGKHImyI0/TU+OEejSCbDItkwwNqRQyiQTaGjKiksgRx7LjoLdSQYViR44nWguqDQCpALDcT62DbLZBPBJYoaDMM7kBqVQaOlsLlqVGE6EJaCGAIYeDlQaV/ukoGUX7/HZ0dnWpqQsBIQok1LcRmn0OQp+B1TK0GJYkh1SvM1Er1ESg6Qm0jRgDLZYMAcLSfIHD14QRCCMQRuDrFgHLKMAsdIvpklJF7M8qYLqqVz/01Q/6wlCvbVAfm76ELzP+KvnxAAvrnteDg1odwlOGTlV1dFYKmIy58mZi5T6ZbPne3kJB/BAMwxCgwGoBOQe9vQWxYbZt6hioCoRYNdNoSY8hl06juSGLdEzH0KZmWS2XLBNl20FXsSTjjuVKCkCcVQAAIABJREFURekrOJyIIA/BlQpCQ64BepRjjhkBBby8ciWPYqGMXGMjLMMQnoJpu3Le5QrPy5JJBooy8XzYFiEg+uDDD1UVQUiDqtgfqD8yprmmJiSTnDIINBKW/lsYxLu+EbSkd/eBE01H24hxIUBYUsDC34cRCCMQRuDrFYEInEoelVIXomwPiHGSn078cnogNFTvu6jy/ILthAXAgV85qFMSVuXqARUFcgJUG0O1NkQF0U+SMstfjYi/AYWI+DsmShIG6X3AFgInFjK5Blnhk5RIiWNqDMiII6cxKhwlrEqZPyAq6hqEe5BNpdDSoKYYsvEk0tmMcBCKloHuQhGd+TyK5Yo0XXQ6NBKYcF8mqwMaGrLNyOVyoonAY7IyEY3pKJcrMCsVNDU1wrBclEpFaV8IN6JSkQoI98eKQ0JsodvR3dsr5yuzEf1QVNUHCPWujEsPFBYNEBZdWwiqCpFIVM1VhByEr9etH15NGIEwAmEEFhcBzyjAKPZwDsDvGLB2wKShkn9N6XDgQGJN9W9R++/XVBgACCTn+8RGJtu+VoIU1tX4XoRDlREeB+DUgeZVxYiJI4yu40jpXiyV/T4+pwXod6BFdBSKnCZwUC6XpMrASQRxYnS5ko8KuEjFokjG4mhuyKGlMYd0LIpsIoGoHpMxx5JjolAxpYJQIthwfA6Db9KUJjiJaiDvkQJGJCo2ZLIyncDjcOyRbQX+O5bQlYmUocYuWZHglAIrD9xYTWA75LO5c0XDAZ669qCCwOhnG3N9rYkg5v/LJIPaB2O9cKAX7FvVMkIOQvgkCSMQRiCMwEoRASnXG0VUCA6Ec6CSBFeL9QAh0mfFvIDt0gKjjUviGQhgWBhQqBucVLbOgS+kK6JB4lfgeCJsxD4/pZB5LHIKmITJMWC/n6Q+/r7qRVCxbKkeECRQlIhiRKpyUCMWxqMRpOMJAQjNuQZkk3Ek9ZiMTJZtE3nqIBRLsq+yZcnPiWS44icwIMkxmUyisbFZAAGTfkOqAYlkTLU3hPMQEZVE01D8BZ43RzCdqifnJnwFKjkmEqKfMGvuHOE6RAQ81TgIfF8DQUw63ff9/N/BAXfFz7vGOannItTvX1oTYQVhpXg2hBcZRiCMwEocAbFppnRyoQsRGi6xXRBR3WlNZt/9zSf0BYp+9bndr/rLCwUY+GVxMvT7bZLwa9WH/kqM5BYEbAZVbxC+gc+BVAlSk5W157jKYllGFCOyGqc4EV/LP5mEmWwjrA44iozY25uXFTwBBH0UxKiJ/AGlmYxETJfk3JhJo4ESy/EYsukUvKqGQqWMsumgi4qKlTIs14FjU+lQEIJINbM9EdPZctCRyWT9yQTG1pJzYUVDOAueUlwk/4CVjwCsiKOkV0U6mRQeQiqZQk++F11dXXWArdZnyOYapIIQJO5lAwg1Nkh9q2jgbbCofcpkRQgQVuKnRnjpYQTCCHytI8CHPBOXZ5ZgFHpoZFBLRFyqS7ZfnDqf+p0iGxJU1BwWZd/CvB+ADwZUDOptnANA4O+0rtGg9qEmF5hE1X+q9698Dpj0BSioF0oJnM6Mtq0IhK7tiPIhV+lczVOKmWCB4IDvowghZZYTsTjScR2ZVBINySTSyQRisTjy5QoqNqcfDPSWiqJ2qHQU1LikFo0iSw6BriMWS/RZShMUMIl3dMxHMpUSjoFhmqKAyD95HawQiNATBZ/YiqBhVCYjr+U2d+5cATwEMfUJWwBCMiXgZNnAgXxq/n8DW0X9P6/F7TcECF/rx0N4cWEEwgiszBFwoSHqGjB6OwCPjP6A016fNFSK9yJqrS+QQFb5St0v2HyOfQ0wCF9h8aRFtd/+zoxSQQiIjJIQA/6BKjzwd67jIhlPCPtfSRfT00ABBKl6RDUZN2Tv3rYcqSIQTJSNspx3x7z5iEQVB0B4COzve1XEYlFZvXOKIaYBzQ0NaG5sgGnaKFUMFCoV9JQ45mjC8jw4tivSymLTzKC4NH3S0NLcjKamZlgWdQw4Ykn1ScWroLJiY1OTkBJZZeGEBUmIUtGgKiMFlfxJDOUMGUd7eztMyxSgEygmcn8ZTlpwUiIECCvzbRxeexiBMAJhBJZnBHyxnaoHo3ceQMMgSWB+fZ8M9brkz6TbDyCIYuAAHQOu7qWfr0DBwArCovgI9RUEKVsHfgvUD1KFifoeQ5/DIVfZ7N0HWgsEDdG4jqrLSYZkX38/nUmL1DHJC93dXaiYBhpkzNBDvlCEbavEy9V6TKcXA22es2hMpdCYTSGR0GEaFizXg+m64ubYUyqixOqD6/VZXIu2gaPUGzmZwCkGthqY5NnKYCshOF9WC/g6cXdkRcOldbQCYJy2iPgKkKw8kNPAikdXdzcsy6hVUiiqFI+hublZqkDLvv1vFQQBKmGLYdnDHr4jjEAYgTACK24EOBXA1b0LI98JuKaflBc84xpBLeKXDuoq031zBvXvU6ChrwIg04i+yE9ddUIVCAKAUasyqB9zLV4FDZk4pSAERR84UDeACZX7lOoDuQiuJxbKwgOoQhI9zzueTMn7KGBk2Za0AEgq5Ptl5NG2lE+Cb8fMlX9C10RqmUZNOQoepZKIxXVpJ5RMiiO5MGwHhQodHTnFwPaF4kA0ZLOy2ldtAk9MokggTKeS0DTVehHiYrmslB59kCBCS/6IKPcnrpCiPRGRkU22GggyZn4ys08WOhhEjOga2lpbfFvmhSlJLPlbWON31F67tO2KECAsOb7hK770CAQ3wtIpsX3ppxceMIzACh2BCDjFTkKiZ3NFGowwLmIVKtlcU8v5YOv7q88g7Pt5TSFRSupiU6w21W4IWhe1sclFSTEHSYoYgSX8KDEKJwDEuyCi2ge2Jf+OkYNgW4jrMUnCJAgGLQS3yjYA30cyIqSlwDHDfCGv+vb0nQKdGBNIxKJoSqcR1zU0ZTNIJ2OIRXXxYKBIEtsANGkqmQYqliNERbo6stXCqkE2m4UejyMW5dilmlAgmZLVBY4oEsjwWOQ+8Dx5DQQqrIJw4oKfDFslZFBQ/VGPclQyK+OSs2fPRoUtkjoOBwdMWltb+wGEpU3uwUe2qCmFpfkKhwBhaaI0KF5TQ5ciSvKlnHMfzq0jw9SJriy125tfDlVdT6Um9rm84r6Uiw4PEkZgBY6AunOodeCVC/3z/SJketVEAqcElP7AEjcCA/+F9e2DiMcSej23IXgW1FUQFnIAf5ZBAAKrBZRLJtmvUChIkuV/rBooEh+QyWZF3Ekjx4CVBKoSMuE6niR4Sh+TWMiLcWwTVSbtiGotNKRTaE6nkIxHkU7EEI/piEQ12C6JhCbKhikeDCWLpk2uqByy9cAnEwmRrFJw5DLD1kBcTReUiyUYpoFqpIp0KqU8GNhWYBWDUss0ZCK3oG+kVD4hxfOoQkAH/zMNE/M75ikug688GdEj4ujIiYg+j4alkFuuCR6pZ2vweS0zuAhbDEu8HVb4FzCpuhFdYAHLihQbUdzfz2PIuiyX66fxqg5H80Cf8UjEgxPRZaZXbgj/z4XvVYm71p5JtB6NCzM6WrX6xFOW5YzC14YRWLkjEEHVqsApd0OrihVTH3hf1LKh34q1bkphUSvPYMRRElkwCSH3OjUDFEDot08BHgH3YUEDKL6eq3gh+kUiKBSLUnJne4Dl+kDkiCV7ggOxVBaAEBPgkCLhUNdgVUzRJeAzhRLL3B8VjTxWHqK6TBW05hqQi8dBwSMZqdQpxEQraU8cIS1WEAwbFctFheqH4uxoyaqf8WOlgAZRIuAUicixKd1MMaSKYUoOV66OERFmknYHiZZVtj7486hUSfhv5coQQSIeR1Njo0xCzJw5E65jKYUKTl/ENJ+DsCBA6BM1EjdIFfOBwKD/vbDsy66wgjConybEzRqSzsdYp2UWGnM6ZnXqeL/yDQAKVQfoXF3mwpYH9V+a+rpD/WsXGGTyo8aeoIcUOjE88xnmGyNgexmMSnyIHoxGp5ljql9kNYM3XDRioEpfdD0NzXOwavJjlLUk5lZGi75arTE6qD+o8OTDCHwpEYhUHVj5TlkocHUf8YLxuICwFpxGkMgJ6oPWg68XsIgzrX8KKF2BQEtBvUHdr3yVPxoZkBz96Yhgxbzgc0idI1fZJPOViiXZE3kEJO9REMk2TeixKFKpjLydgCKdzorXAZOsjCFGFB+BHIdKsQzPtRHlBIQGJHRdfBeof5CKx8B3kRxoOUz+jrQoTPIKHBeWVxU1xd5yRQiLZtWDXY3AsGxpU3C1T8DAioRMJXgesg1ZlEtlGLYlERAehc9JILQISIvKqpqujr46BH0Z4nGpSLBSwGmGYr4AVyoMHrS4huYmkhQVQKivAAiJMKCM+JWZxQOE2ge7tFAhBAhfym27/A8io0OIYOrqr+PoraNIxXV4EU+Q7aflLKY90IxPOnPSF1QwoSorCk8eBjXYEKkqjXGKpnDl7lDqU7CEQrfKX4y3k3qX3P5SFQgaGR5Gu6/guh+OwZ+ebcVTb3Xh9mMtPDJrPZx3dwdYN6R0K6sLAUTx/C/2qunPcM5eGg6+uAtoXRvVagU3H1rBp3YOx9w1BI1WHh7v97qyZJ8MLPcJwA4ux3969bGil3/Iwz2GEViBI0Cw7cIt9MC1K8odkP/5GgfBUqH+AuqTTf8JhPrRRR9I1CWi/rA9qFDUgEdtX36pPLBt5rnIc4DiQzw/VWJX8sJURFTthUK+IFUDVhLob8CVOMcLM5m0VAL4OiZ30SNIJOBaNvSIprQTXAsRt4qq6yId05BJ6OLYSEGkTCKGRJImSfRBIKeBq3ulV8CKA59LbCewJUCAwOpBT7EMw3FgUAuBFRmNIk0xgBMR8bhMF5Qo8exSBjoqoEzJO9tSjaBokl8MYH1XtUz8UcYgYpyEYEWjsbFRwjN3zhx/QsNdJEAIPrua6qUaJxWgthQtCD42g4bQ4r7UIUBYgW/5xZ2aE41gg9Q7uOxADS93jcMljxvw3BRyyV6cvWMZRjWL/f4SQ9zNocJMWnXhGhZSCcp2qrTPdF8RhTANTrmERCqBqCiLetI7iyXTiEovTMmgWr5XuWuZ8pMUPcMjNpJVB41NOoySh6g1F387Hrh/9to47+5ORKIxOFRGc1jyc0TFTO2ziq2aXsXZUxuxxfk2Ii1rgk2S5pwDpxpFKa9DJowjLBfa0puMJxPSOuF9IHIvkQhiVbXSoOJaNMJqRX9P+0H68YanHUZg2SLABGkUUDWKdaREQnu1ml+yWkHtcIpUGFQQ+wOE4FVBzSGY/e9/smpBIrjeF1hSSTJgNA7wF4zQ/hiwTAv5fB69vb3SYqCOQCwRl2RJsSCZWAD6XB11cg+8qmgacPxQFi62JfoGmXgczdk0GhIxNKRZNYgqeWkflJCvQA5DPBaVsUm2AaDR18GEXfVQNmyYFDgyLKkslCqmgAeHegYyVcFWqoZILIZYPAmDugm2qWLtefLMYpWAwk3KLrpWWeHv66soJEBypJPXTELiZ7NmwaLAEtvFsQhamslBUHyLvviz4jKA8bEsn3EIEJbt9hp0r9YjLs7d6VOst0oD9r4xi5KRps2J6KBsOLoXo9oa8fDb7K0VscuqM7HL2kA2HcF/Pk3ithdb0Os0Yuuxr2Lymho+7dax8TjgnfYc/vyUjWM378UaYzP475wsrnq2GU5Vx5bDX8aO62Uxs0vHJqs4KJgxXP9yG16b04TR5Tdw7G4ZPDh9NN77ZC7u/ZGHB2eti/Pu7kYSeeywZjd2/4YtSfyfM5tw18sZTBrWgyMmzcJaozP497su3jLWxe+erWDalnNgWTlc88IwZJz52GP9edhqdUCLJ/Dsh2lc+1IzshEP35/wCVYdkcLsud3Ycp005hlJXPhMG+YXUgIavmj2xaD7woQn/LWNAL/uMdeAWer1yW392QYqkSzLHL2SFx64EpW99ptUUCEdqH8QQIsFdBE42ud33gUsBCCErRDyBhwbPT096OrsFp6B7JujkJQwZok9Auia6uGTLEg+QEqPiV11SteRjGpoSsfRkEqhIZVEcyaLbCohJkg2SYSeI86Q4uEgCoY0XaLwEZ+T9FGoKt6A58Ek98Aw4UY0mUJg9YAjkAQIxTJ9GkhktCH1AS2KiuuIORQXK+LHoJH+4Ej1NrCKVte8EA4Gq6Fc7MRiGD58OLp7epDP9yrRpCik9aDrsT6SIvfB16t9BQ6YS1c5WNabIKwgLGvEVpDXZ6rzcd0+89GufwPH3mAgHtdB1TTh25KwWI0BkTx2GfMWztyjEY9+OgLFko0dRrdjRnkEDr0tiaMmvo6ffjuOj4tt+KAjgi3H9qBUdDDHWxXtXUVsPr6Aa18bjz/9O42DV/8XTtyuBe/nm/F2u471h8xGY9MQ7P7HKIYVPsBtJw/HeU+vgude/Rj3/NjBg7M2wLl392CzMV34zW4mXpzdhkqlFzus3oOL/tuKT9sbcewGn2LtcS4eeacRM8zVcfm/5+Oe/WejbA3Hj+7O4acbvog9N2nFwzOHQHOK2GGNEp6b04Zf3G3il9+aj602cPFOcRQ+7TSx7SodeLF7PE682QWi/e1RV5CPLDyNMAJfQATYRrDhERx4itirTH+C1abfThRDpkVv/QFBTQip9o7++6vnBi1MIEk4CgO2oO+uzi1oVCjhIbYzWWHs6OhET2+vJHK2F7gb/l1K6fRgoP2yODkCyWgUiQgwvLVJVQpSKbTlMmjO0cY5gRRX91HWUKpwLFMWKC5L/mwDOKxPKrzDXSvFyKooHgpIcKsolCqweZ5CACSxkEJKHGXURESJHAWOR+YrJjw9iqJpomgYAjAcj0JJ6trEN0ImIQga6NFAZUY1xRAABl4TCZesILBFQZDACQyWTBYPEPi8H8gRW35fsxAgLL9Yfol7iiDr9uL6g+bgU3dN/OgvNrQ4Jwc0IRGz1OZE4miy5+CO4x10V5txwJ8TMs+7/Wpzcc7kEibfvw72aHwFR23VhH3vXQsfzCng8p0/xqarZLHF1UNgm2Xcsc/HmIWROPr+0Th2lcdx3E6jMOWO8ehur2J88yzcuG8Xpv17It5/+hncfsowXPT0ODz98kw8+CMXD8xaF7++pwAdBlpzPShXeGMUcc2eCcyJjce0G0rYuuVNnHHgUGxzTh7OkPXQG3Vw5z4zUTTH4qD7U3j50Om4a9YauOQBDdlqGfut+SqO2LYNB96Qw1GTerDxuq3Y8XcG3OxIXPT9uZg0NILJ1w9DtLywjuuX+PGEhwoj8CVGIGJX4FUKfQz2/sY8gWufttjetMzz9+UZ9Rdp18nPpUcpMgnBnVWzhK5d6ECgEIAE+TPwUJCXKwKemnZQ5kVc0Zumhfb5HSjk88qYiSOIvjYDKwfi7hhjK7GKqBfB8NYWjGptRpKSyZkkhjY3oqWxAXrVQ64hi2wyKaOTjmnCqBjCEWALgddA/gErBkzWbAdQupkEA7Ui5/SB8l8ompys0KDrcZiWLa0aWkMTX9AOulCuoLOQxyfz5sPWNBSpwWBasBg3XydCyVAoV0h1vYofwrHNQHqCz+1oRENbS4uIMXV0dsI0KxzeRFtbqxy/Xvmyj4zoG1n5UV3u37oQICz3kH45O4yjgku/34WRrXFM/mMM6WiLEAzZVxsamwHXdBAxI/jbCQm82rMajruxF24shzWGvo/r9qrg8Je2xCbFB3DotmPx3dvXRNfcdpy/9bvYaJ3RmHzDOGjlObhh1/fQm56AI+4bjuNWeQRHbbcmtrtxFNKlIoZFP8JtRzv480ffwd/vegC3njyqP0CYvS7OubsL3x33Ps74rgY31gK4USSr7Zjesw6OvLod2434SADClr/sgjdsQ/TqLu7c52OUzXE49O8RvHTwyzjnuTXwj9eHIuXm8c3of/D7Y4dh6qVlHL5lFmtNGIu9Ly3AzI3E6dvMws5rVzH55lWgdVe+UFT95XzC4VHCCCxmxc9EJQnHQbXUuwiWgYwx+MtUAoQB+6v7AQl+9Z4JCiAorpAnnf/FA4QF2gx1FQSW5evrDwFPSJKlb+HMRF2pGOjs7JZpACZxthF4fWLYVNUQ03W4tgkdHkYMGYLGWBzDckmMGz4CTdkk2poakEtnQEtnjh+ypcCKAycglA20LSRISiRwo1ARDZzVKCitKtTIo+35EwgyVcHyQlRAAicJLMNEIpGEBh2Fchk2QYRhor2nF7O7etBZLAhIKPJYrqpIiEyyEBNVG0BxLn2rbQEkEJIjeQjZTBbNjY1SQaiUi7CrDoa0tSIaVQqOfeTEunFU5U+x/JuqcrxQB2FwPoZcJLD1mLdx/q4u7n5vCM57yEFEy6EFn+CyfatoHDIKe11j4OZDbCT0DHa9OgMnksSha7+JY7dKY+fbxmKPES/giK1HY9fb10R7ewfO3fotbLLOOOx0/QhopQ5cu8f76E6vjh/cNwTHjn0MP9txNA68rRkfdTRg3YZ3ceXBHo7757roeOE53HriUPz26dXw9Esf4u8/iuDhOWvjp/eXcP2OL6Nx6Ko49N6RSJQ+wp1Te9COCTjyqm7sMOQDnHloE771SxNu6+qoJGK4c59PYBgjcNT9ETx+4Id4OT8KJ90Rhx6p4hebTscOG+Wwz43D8MMNZmPChOGYcokBq2kkTt1mJnZbG5j8l/EhQBicX+nwrJcxApIWKj0yJszEJkkiSDzLoN0fiPKQ9Fu/KXpizdo5+J1wD4U34Fs3Cxjoe7VPUKy1GAR4eIEIE5Ocsl72xDzKV1Hk6rtYQmdnl5IqJt9AJw8hMHNi64QgxRXy4ZDGHEY25TCiIY0xw4ZiaHMO2XQSSXIMNB2aHpW2At/D06MiY7lsKkMk/+RJfCZIIQCRFblvD82xK1YXZJJTi8J2WEVRSo16VJeJiahOgSVdlBIN00ZPqYyOfEGAwtzuTrSXiii7QIXqjqJi7U9qCLdDqSkKCKP/k++RQZ4FiYotLc0y6lksFODAQVtrM6JRKjUGII8xJGhbFlri0n25gk9R6js8XggQli5wK9qrRHEwUsZJW/Xie98oo7vsIl9yMKwpiqrejHOeaMMT73rYdOhcXDLVwruzq+jtNbDB+AQenzMeZ9wHHLPeazhsmyHY+bZ1ML+jB+du+SI2W3cVTL5uNURLc/HnXd9CT+MaOOruUThu7CM4YfJQdBpxzOkwMW6Ih6I2AXtcYWFk5Q3cfupQXPT0ePzz5Zm477goXNg45elWbNLUg33XL+G5d20Ma0lheCswuzIOB11VwIZjC7hyajde+xj40Nocpz3SjnsPaIdhjMRP7m3CHqu9iR9P1jBjdhmW4WDd1Vpx/Rtjccs/e/HzLeZgwhojsNclDuymYZi29UzsvraHHW5eDVp3OawgrGhf2PB8lmsEpINvG6iaeX8+vj8JcWlG3foSvqzwOQLdn7nQDyDUnz2TupqFlgSseukBS5+JNWhrKHBBoqH8Sclj9vr9KQn26Kl9IO/WIujtLaC3Ny/TC6JNIByEoIdPKeaI2DSPbGvBiKYcRrc2YmRTA4Y350QAiT4LUbL9o5qsuFltoJqh0iqoijKjRw4Bkz+L90zSQftDrl3pCrisIPjjguQeuB5NqpRfBLkL1ELgdRCI0EWSu2Aromxa6OjukZbDPP7XU8D8Qgllz5VjSqBkikITXwleI1s1whurUqmRNtIxtLa0olIuKyXJqo2Wlia5HmXY5NM868bVB1ZvluWzH/ilDAHCcr1Nv9qd0Vkt4hrYeJyBzVZzkI1rmFdqwGNv25jRmYSuVaF7HlYf0oUd140iFQNenN+MJ151YGtxbDyiAxutkcYNL+ZQLpeww2o9WHX4EFz93xQ0s4Ap63XDTg7HX1+N4gerPoUjdx6JC/87DuvlelC0m3D3Ky7m5uPIWh/j4B2G4p8zcnjjswp2WruASWNtPPjxMLz3YR77TLQxpqWKdwvD0dWbx7CGDG75VxGxWAS7b2BhjeEW3usei5ue78Whm1lwrQbc95qGiFfBN8cZ2GI1G1okiudnN+GZ6Sx4eth21RKGDGvEjU8U4aYasOVaJWwwNI4rX0giUuYQZLiFEfj6RkBG4Cp5JeHrJzdJtIshrC3qdwsjGS4qcoEiYt/MfVBl4Bv6FrT9SY4y3RjIOfsAgYmfegAKNajf9/bkpYpQqpRFl4AmSn2aLdUIEnoUrblGjG5rxsiWHEY0pjCurRXN2ZT4KrBET55VVEja3K2LSrkivg7KRKkibotUNAx4EVHxcFCeChG2EnyeQFAdketkxUDEjVhZYEUDysFRvBR0aT3wiql7QGnmnmIJPYUCCqaNme3z8WlXD7pKZdFV4AilHCewwBYHacXsIPeA59PU2CSVoN7eHjiehaamJsRiAQchAAi1CsLyBggKsSmoEFYQBu0zRDGBVSFPg0PxDukZ8ptnq/5hUPmranD5BY94iHoKtcpYUTQKT9Ohu2VEvRhsyp1WXcSJoCNVWNEEopyGcMo4aM1ncOyOq2CPOyeha163rNBjvr64Q4avrkFzLdE48BCDw1IcbwbPlmNzwkLzLCEfyeiSmJrwtZRp1hFnr9R14LDcRzQtD4+qSC9z3pg3acwjUFBkH8o5c9NZpiTqj+gykhT3RCFh0H6q4YmHEVh8BFis9qCTmGixV6/cAQmgl2UL5gj6KfMtZAcDpxGCZBQ0I4KJ/vqfq7J+rcVQ/3fVxvCfTdRm8VsibMz3dOcxv7tLtANY/uf0gtJToBqihsZUEiNbh2B4Uw5t2SRWHdqEsUNb0OKDA/ItqJSgVaNSkVAiQlVUTEowl0XbhWChZFiSgKm6WKVNNB8o/LuU/1nG59SB4iGoykcViURK2gqcMOBKnn+KJwQTu65AAk2jyF/gTAYVIfNFA13FEj6Z340P5nfi045OdJcrcFQpRTlsSsVCxYGCTYlYHJl0Col4QvQgDNvwAQJbDLUW0MLAXt9nsBymGtT+Q4CwLPfUCvnaQOndeBlqAAAgAElEQVSQjw1NbkqqebFsV3eD+lJHvjuCL5LExKpkh6LsB4qGiZoNpuIiIg6U+rgGE1Hsu9Y/ccL247DznWujNK8bUY/HUUxkJaQUEJrUcUmgqvU01UNNbWqkSV4t50lAwBubY5kOIjIrTGoRj65z+KlvZEu9LxjhcgUUyMNIfOXpk8bfcv81tcgV8kMLTyqMwOeMgNzhLI1bJdHCI+FPbYufUuArFjYMt6Ry9JI0DgI5g/rX9RES1XK8T9BHKbb67QaS91hFEI8D1Yvv7OhEe3c3HLYeXP9pxURP4aNYHENzOTRl0lI9GN2Sw+oj2jCipRHZVEoqEWwtSKK2lLmSzC/6ks38iWEYMClg5EtL04VRJhh8UfoAIAiJkPbSPv+CHIVYLCHyzkrKuSrJ3DBMEW8TJ0eRV1bS0GIexR/oOto7e9FRKGNmdx4z5s7Fh/Pa0V0swxX+qHp2EYQxDjxOhr4SWlRAQW9PD8pmWZweeQzVYlBbCBA+5w0Uvm1pIxCsIeofHQvOLotxbDWKtkQ70skyZlbGQHfUqM7Ct/r99n+Fv3bwKx3BcRW0UNLNy7YNPIOgFVoDI8u2v/DVYQRW5AgoyXMPsMuIOErzP6gaqjbDolsMAiPqbpighL6oZBPEYVHth77Kgkgk1+7c+ntyYBXB78IrUO+R+OfCEx4ARAlxfkcX5nV1qkP7FQidZMWYjlQ0jlHNOWmBrjqsFaPbchjV2iiTC7IvLnKEdBhR4ILTAlxe2Go6gCv0cqkE07FFEZGowzINf/RQcQN4Hi5lmj3ftplVSxFsoohRXJYryURSKhqcZOAb6NrI66crJJ87AjjYgojpaiwyGsXcnjw+6ejFpz0FvP3xJ+giv8BSCov1AIHtilQ6JccZ2tqKnt68VBDSmbQQNusBQvC51Vw0lu83N6wgLN94fo33xjuHFQYlFkI5JlUDWBRA+BqHIry0MAJfYQSCah+svCTZYOXLFsPAu3FBFUR14vLK2hK/j0GwrJUElcOVdkK/6kEt1/p5vubHIJMB9F3w+/wsyTNxs9rI8cHO7h60d3bKijq4Jj0akbJ7SzKF1Ye0YN3xIzGmrQXD25owpDEtK3mKErE14Ni0hqbtM42bdJkOYBJnnKhqyOQt7QaLglLkJRAM2EosiSDHr3bwnIRX4HgirqRHY4gn4tKWoOkTz40AgeCB+y6blFk2REZeIQ4XiTgBA2A7noCBT9u7MbunhOmffYqPOjqQr9ioyBilsrNmDDnWSbvoWERDa1OzyDd393Yh10gOQn+p5eDzWn4Aob8RVPA1DzkIX+ENP3gOveiqwOC5hvBMwwgMvggEd55MLVBV0C7Cq5Jn4/eI/V52kPMX1qcOSuc+QlgA3AtFbsB++Nr6IqGUw/0WQb/2pb/S7wMJbOf7YZb+fd3f+T6u9CVt06lQyvKKMGiUDVFQ7Ojq8gGHmlqI6TEk43EMTSfwzdXGYMPVxmLUkBbkMnEkYlEh9kkFkoBAzpFmSQ4sy5F/0zo5Go1IpYKERYIC+blHkiQ9GJTEMvUWbY5A8rrp+cAxRo9dgpi0FaIxkhQdAQisqtLJkcqH/Dn5BrZtyhRCMp7wpzgoDEd9AzUi2VU08OGsuZgxZy4+mjMfs4tl5DkiSVtqN1Bc1JBOphCLRpFrbJRznt81v4+DsKhqz5LA3dJ+6+uFmEKAsLRRC18XRiCMQBiBrygC9QBB91xE7bwauQsIyUFVQDKxL8ozsJcQkJUHtCAEVAScgIUYqwctAVV58EcW6wR6gpAocOBDAdEqUL9ZGFGRHKE+E/pAG6EKdHV3o1Quo6u7S0AD1RK5cmfvPZdJY1QmgV022xDj2prQlEkiEVeeCslMg+IsUSeAaoiIygQEJxYqlTJ7Bso90nNglEzRMlCJ25FWg2XRVEldoZjCEbiwyCKkRSAZT0q7gkqLMoroA7OYHkWckwX0hhBnx5iyfU6zHaCJCmIVLlybXC5PbKM780XM7srj/TkdeHPmZ+g0TfSUSgIQmJzZQqDLJIEGLaVZHenq7UIqlerTalgYGAgBwld0c4aHDSMQRiCMwFcbAVUboMtK1C7Dk0ke5eRHKq8yWFWk374KwULY7v2mD/yWRKDhL79bTJGwvn2hyvb9CY+KjzAQICgyYvDz4PhSVajnLZCgZzvo7u5ExayIUBKdErk6Z/VAj2loyzVhtdYc9thyIwxJxRDXAD0eQzLdAD2RRiSelEZC2bCQL5SkxSDgQOSLgQS1ClwbjmHCMf0pJ05eibWzmiig9gLbEwydiCFF2TxQ2hBi7EQtB09FOQoFTpjIo3pcopFIpxRZsRpBriEN0HrbteBSqhmuuEFWDAvz8yXMKRh4+s13MGPeXFTY9qgQmFBuWkM8rkBRJplCMpVEd293n7X1wOqQqgwt/1ZvP0nnUCjpq739w6OHEQgjEEZg0RFQCYAKgnHXgFdVY8rMZExhAhZ8MSKFFfonjAX+XfeaRfKMB56Mnxh52IWZMNVXCyRp9XEWa+OO/QFCbZKBfX2bnga9PchXSijkCzJpwCScSMSRziQwtLEJq7fksOeWG6MxEYWmVRGhu2EsjU/ndsCNJdCbL6KjqxuWQx+GnPJroOGTFhHrZ1INExrVFQ1UHco1R+G5bEOQWOiIuqJwKjxXKgDUUqAoEu2mCaRIEiRXgOG1PaVZQIMnyyV3IEZUgebmVt/W3kIiFsGQlhY5HvVoTMNAhSChYqDXdfHwC6/jpQ8+gOF6KJtqv6xc8DisIpCLkEompYKQSJLvwDH22ra8gUHg7aC+Q3XTEiFACB9OYQTCCIQRWHEjQD5+1LVE8yNQO5T1rYwm+4WD+qpBHQhYVEla5H+DRb+/n4EGTCLmE7AdhMO34KSRaBL2qSmq1/RxIP3pBt/lWHgHfK0ACH9fHDU0zSK6uzjSZ6FQLApAYKef5kpcjY9oasa6w1uw2xbfRC6uwfRc6en3GB46SiZmzpkjVsxFlus5cu0x2VYliTOx0vo5G0+gIRlHLpOAZ1mIuORAqImFmC+WxH2wTcDSvogjc1KSgCGpCyAzLRfVaBTUfTFJLqwCpkXFxxjLDMgXOXqqJifYakgl4zKC2diQQjYWQcxxhFdhRaMCEJ568y2UXE/GJbmxKkFTKoIEAgQCBZujk64rYGlh4E8xUfpvy6oCE0zDyDzpgL2FJMUV97kQnlkYgTACK30EWCmwobsWNOoDaErvgA/1oL0gq74BcZLXLFJYhxokNWnhAAgQIPTjDfjZR3UVlKpPPQGRP1UyQ3XCSPUchHregq8WqCoMCkSIBLLrwqgUML+zE5btoVSpoFypCDGQibsxncIao0ZhtaaUVBAa0nHkDQOdJU4G9OLjue3id0D7ZdO10F0owrQ8lA3KNXPeKop0PIGWXAOGNefQmEkgGdWES5DQWVXQBThQI4FXR9EincZI/rQHz9cimdHzYNgu7AgBioeuQgkmlREdD6bjomyUlTFTlNosQDaVQSLBRM/jAaMbcxjf1owswUayAU+99jb+/uIL6DVdmVYQfkMspgBCNCoAQxEwFZGS4GFhn2cIEFb6B0QYgDACYQRW5gjoVQtRj+qoagvc+4I/ZQKhb9mu2g8BiJA3BGChjqzIsnmQXPqqEAsJ8gIthQAs+JjB+z8Ttfr2gRyuDlDw35RCUqvxmoMhl/ky3kcJ5EoBXV3dwujn9EGxXJL2ia4BDckExg0big1HD8Fum22IpoYkXGoLdObRU7bhRTR8OmceqloMH8/6BL2FEvIlA12FIgzLEullsWumxkAigcZsCg2JJDKxqACD5kwGrQ1ZASpc+TNuomngRUTR0fSAsmOht2Kh5DgoGhYM20ZvqST7Z7VDNJlcF3GdttCqCtDc2CyrflYReJxRuSzakjGsvspoeFocj736Nh54/r/oMVxYNr0fWPFQ7+XnEgAEGluJiJLoLNS2ACz8rwBB9iPYLzDF6g83wwrCyvzkCa89jEAYgRU6AqQfxjwDTA/Bqj9YxQdJQpK97+aoVFD/f3vvHixbflaHrd6vfvd53vedl0aj5yApgxwxshwBknFkSUZGqgghDDEORZy4CqdSdoo4xEmcOKn4L1filFMhkNhJsA1YYMAFsrDBEUgGZI0kJCFpNDO673PuefS7e+/dvXdY6/v9+vS9c2funVAXjWt237p17zmnu0/3133Ot37rW99aTFv04kbTJaw3F8MMa34IHnjcdqXVaMCBAZ+Z4JkEmxTY2GH9Xz/48IzESZqjAxMySnJhScslJpMBDvsDzejZ8PujocYfbLi9VhM7rSbe9S2vxXueeD02OgmKKMJolmM8mWMyn8oaeTafKx+Bp/n9wyMcD6c4Hk8wnM4xmMwwmjFMiWuMJZKQ1u41dOsxNppNnNvZQSMxzUGn1UbJtcVFKb+E4TzDAZMax2NM8wXmi1xgTGCC/ElRoFWvY4sxzd0ONnsdNOtNA0TUQaDE7kYP57Z72Gk30Wm3kC0D/NK/egq/8pnP4HieazxCgSJHFUkUqjatRgONZlMfk50g8PCv6er1Wy273voWfmkjBjdgqHHkIktaoDyx7a4Awsv610P14KoKVBV4JVeAdHyjTDVTN0txN05Q/oL/5V5bueytRg3ua5x5q787ALFey9tn2gIXz4cSq8+tmyJZzoEbMdzmhWAEwokh0vrtLPbZAAIdDxmxPBge4ajf14mcLZUAgS0qjAI04wS9OMGTr76Ij/7Jd2CrFaFWT0TvHx8PNfe3+OaaminjnEfjGUajKfqjKYbTGfp0LpzOMckWyIuaoqDpZ7DdbaOOQiwC5/00ZOIWwWgywSzNtIJ4OKLWYY5U2QwB4gaj55fSNLTrdbTIEiQJGvUEHYkJ6YUQa/2RLxYZEj6urXYDZ3a2BR5GyxAf++Sn8YmnPo+jKYWnpWycGadhmxBAo1GXJwIZhXmeaTXT1jidzsO9rv//GAQnfF0zuaKBlQCCLpVI8ZX8O6d67lUFqgq8zCugGT2V92WORHkkJxsK3gbXFvbXXBRrNYng1ET0Jd8I1v9d//+tEdEvVBKKC08C0E5mGWr0txsl+Y0Hfe1E02D3wU0BMyhiTgJdDLPZHPPZFDePDxWixK2B4+NjAR56FjSTBpplgTddPI2/+MH34OxGE5EAQq5k2IObR7hxeIxGp412PVHgW7YAhsMRhuMpBkyHnOcYzFKtGk4Z97yk4VGI7XYTr3nkopkuhXUxCPNZhnRZYDydY5ymYh4YuDTLU9TDyAGCEJ04RjOO1cjZ3IMkRMK1zIjiykjeCDWaJBUlus0mzp7a1r/0axgtQvzD3/hN/MaXviTwwroQYLCW1B0QozFSmixCENaQUVS5AgjrkMCn2jCszo92XviNvXrfOKMqe0/d6T3Az7lxULXF8DL/TVE9vKoCVQVecRUwuUCJZrnQifV5AjWNCE6EiCvh4m2MgW8KzwMLKwWClfaF1uZsfPB8gGDg4ITMPnFSdBGFa+Dh9i0HBSEVpcyEGDA3GY2wf3yE8WyGKEkwHo0kFqS1O0+17TDAqzeb+Cs/+GGc32wiaSSKqRqxcacL3Dga4bmr1+Qd0GuYJfJoNMJRf4T+dC72YOgbP62PJyM0ogDntzfxhocv4sGzu2rGtHueTFJkBSRIPObjOhrh2uEBJulMjo69egOdVh2dZoxGFIuJoNtijaxEHCKgmJDOi2UN2WyGTYojd3dxantTTMI8L3CQlviJX/5VfOHKFYxSy9SgGRJ9GWi+xE/QiKnT7sgFMktTxAkzcTy/40HaSwEIXqeyLlbRK3/bz5YHIBVAeMX90qmecFWBqgL/ZlSAOv8YCzTZCsk5s+m4HFaOC7TF4IWGtwEFQQs3UvDA4fkAg9e6LSL69l6xpklY327wNLc3SFpnCiye2bIFVuyCD3Nyn/PbC2k6RbAsMRyPcHTcx2ye6qQ8nk51ypc9VFmiFdTwQCPCX/sPPooHdzvobnQQRDEGw6nMh567foDf/MznMJrP8cgjD6IXxEinExyPJhhMUwMJWY7+zMYNiyzFbreDxx95EI/ubuHVD57D6Z1t5NkC/f4IizJAEQS4sX+Apy9fxdf29nA4nmizYrvdwQbp/zhAMwkFGsIgRrPVkIagxjXIhUXZn9/dxU63jZ3tTYEKvoyT+QKXhjP87Z/5GC71B0i5K4kSjQZ1CzVtMESx+Td0W22d5HmVILDcTnPQ9Jc7jYTu9P6272HvgbvFglcA4d+M3xDVo6wqUFXgFVsB/krnObkZWOwxxwn61U7BoX6HnxglGU3s8hQcWDAvpZMRhBcxOr7ANYtbI6JvxwcCArdYJjtewzkkCgB4f4Q1QKBwN/exd1Ncvy5V+cs8R55nmtH3+8caCczSuUDFnOFHC1ogB1odjGslzv6BV8GP/8j34bGzW9ja2UQUJdp4OO6PcHnvAF+9vIevXb6C4WyGnU4P7U4H4+kMR4MR+pMpjicTjKZTiTk3mw2c29zEGx66gIsbLbzq/DlcvHBeq47DwVgbEUFUx+WrV/HVS5fw1YNDfPHSFUyyHDudLk6329ioR+g0EtSTGM0GRwccK8QoCXBGQ7zmoQfxuocfwPZGD60kok2CbJ0PBjM8fTDE3/5HP4uD2VwrkxynJAkBBIWKZCRMDdBtdxDUKKusYenirOUjUQGEV+zvheqJVxWoKlBVQCY+rVqGiMo1s04UKOCFOgPvc0A6e318YIyBnQIJHMQ26Ga3Usy2xHCrRuHFyr5iA56XscCcAyc8NLRg2gO32mhMAgOZilWEM82RCBC4GkiHwdGwj/5wKLtjUghpOke2NHdDBivx6L1dA378z38Yjz94Cru7m2g0Whq8M+DpZn+I64cDfOnrl3BjMMLRcCK2IC+WUm8s8yUWixzLeYpWEog9eOzCOTx0ehtnN9p45OIF7GztYDQaazMiqTfRbHVwY38fX/z6M0pf/OKVq3h2/wjzYqnNh7ObW+g1m2jXY2xubOq1mc9mGA6GeM3DF3Gm28JbH3+DmAmudC6Wmfwd9o4m+PWvPIe//ysfx5jCx5qBATkzOu0BrZ1Zt16nu3qdF8VSegSfUHnra/Vii6r+mhaBvdqHJZJZ2WC98CtfbTFUv4yqClQVqCrwMqtAWJbohAvFDmvE4DYR+EuejYSnTq9BIPW9Ip1X4wYCh8CyBG77uhERa+DAHUlfUIfghIjrbMGq7TyPKShElVMHoMdM++LVyIFfYxry0mUiALPJGINBX1sMDGmigJErhGmRioVYFFBT3ChL/Mj73o13fevrcXq7i253U3bMaZbh+t4e9m8eYf94gEv7R5gsSnzj2nUkzYbWIEsq+AqIiegkIR44tYMHTm1jp9fC2a0ednd2EccNDAcjpGmOuNHGzu4p9Pt9XLp6BV+/fh2X+3089exlXD48RhFyg4T6gxBN6RBC5Nkcp7e2cHZ7A2986EE8/uqH8cCZMzJ74oriLJ2IJbl8MMH/88lP4Z999nOg+wEBES2bqV/gh9xyUJKk80KgvoGMiyVuMujqThc/Qohu0YWsX/POYsS7v+krgHD3GlXXqCpQVaCqwB9JBSx+qUSztkASkn4O9RnvZaAmTtbAMQJq/s7I3/bYnXCxFq7WIFeuis/TKthTusVU6QWe5crrwIMF557o2QMDA2xjZAxqMkUykGDNix9re0En+lyZBWyC4yH1BwcYjUfKRKD7IWf4eblETudC3oY6hLCGP/X46/FD7/8OnN3uYnNjA0lYV5TyZDJRM7++f4CD4wFuHg9kaMTvQVaC12OZuMrYadflVbDRTLDd6Skp8uy5C5jOJhiPpphNMyRxE7unTwug7O/v4crhHq6Nhnj60h6+fn0fh8MBEDeUkUDPhE4Sa5TQjSM8fO40zu1s4Y2PPoILZ8/QQQkptyEIhEYjPHMwxH//f/8snuv35WsgwBcEio/mJYkixEkiULDR6UjXsCjItpSohRwvnYCv218qvUdWr8+tXz0BCGtuWffwjq4Awj0UqbpKVYGqAlUF/igrsBEy0dC+o9gCt5LGGbo1Fo4aePq0lB/t3ftmr68HtteuEYSzVb7j2uMJSHieoN0/4VvWFV0eg2tEXmtg2QoGCmyL0YCBHzGY94F9TO0BxwzgOuFggP7wGEf9I7EL9DdgY89B9qAUm8BLMw5xrh7jv/rhj+CxczvY2txCPW5KrDifMQhpKhaCQGE4HCJNlyAtv8hz1U/yPAoAk0ghSPRA6DXbOrGzITNzYTyeYLms6X5PnT6jJs3xx+F4gP1+HzeOjrF/PMHN4UjxzYI7ZYGtjQ42u11st1t48MwpXDhzCg9cOCdfhflsLJAynEzlq/Cl6wf4L37y/0JKAWatsNcwDA0gEAi5YCYaP21vbGplclEs9Fj8WquFRt1JMfJi79AXHye9kNyxAgh/lD/11feqKlBVoKrAC1bAltlrZYHtxH5la1NBYwZzSzQ5QaBVOrEIwZpJkvQGBg7W/9V9rNYi/XjhxbIabnuAfoygT7tG77IZ/LYC4YBZKRsI4MqejRfs+bD5LQgeOI/PcywXC0Uhc7wwGQ/RHxxjQYCQZsjILoTMRSgUBU0BX0anxD8wjfoffvgjePND57DR7aLVaCFOWnpuBAlH/WNMp2MMBwMxGbx4AMMIaMr7OHqn+G+7t4FGHEnPQeCSi9VYIqglaLY30O1tYLlIMZ/PJJ4cTsc4Ho5lvDSapZhnuUYfy2WOVqOOXruDMzs7OHv2DHY2N92+SYHZdIRpaquWB8MxPv31S/ifP/ZLyGl6JIGibSzETIREibbLYJhMpnqONE5yAyYsS+oQQrcCaq/FvV/uAhBkufz8MK4KINx7hatrVhWoKlBV4L5XIA4K9GIDA6Ec+YgJAjEHbCZaeOTmwgoQOPDggIE/Md8uZPRAYfX5NbtlCye6w6n0Fo2BPXWND/xIwbMLikr2n3f/58eGHAQWeKLndSgYzBlQtFji4OAmJqOh3AsXZSHRIsWFYkSKJeZphnNnz+LG9T0ZJv3lD74H3/Gm16LTqKPb2UC7s6HHMh6PNeIgwBiNhoqQzglClja359iCgCPNl9je2pSrISOg84U9joKPac4GXEejs4GNrS2URYY8ZZriAvN0jsF0ivF4po8poOSIgQ07CujiGGFrcwPtZkuag3yRyyJ5sZhjWSwwzZe4cjjAL/72U/inv/NZNDotJVfydaTNckzdQVmg3e6gUW/Ix6HbbstNUTXnYy1yfT8+X3lJvIRLpUF4CcWqrlpVoKpAVYGXZwVqaIRLtBPzPSAFbdRyoFO1RgsMQ16NFvwc21gGgoATASNv6tmEW0HECiTcJRraz7RXowQPDDgucCzC+kojNxM8q8DP00mwJoBQiEGgv8Eiy5BlqSKX929cx3gyVopjXiyQpbRbLtXc+dx5m1OnTuPytWtoFCU+8s634SPf8SR6rQaajRZara7skdk0aSg0HI4xHg71f1Lx2YJhSGz+OcbzGcbpXCOMB86fw+mtDTQbsTZG0lkK5Jzz19HZ2MbGzi6y2Rgpb0Or5vGY3s/SScyyucKf6vUmOp02Wq2mGI7t7R3lQtD5cD6fYjIdyz55WeQYpCm+cXiMn/qlX8OXru+jwUyGPAOZDYGMKJT4tNVqCXhMJxMZPzXrDbFE5D84ahBQFDPzEhMX7uiYePefgIpBuHuNqmtUFagqUFXgj6ACbPYlOjHQiNjsTeHuRwbaaKAfQhAIBKyL3MQaaARBIGDaBC+A0+fdOp2uty5WdF/jk7vjXHsVxmTrjCK2nf6AJ3LvqLhadSTtLh3C0jQHvA0nDCBAWCi5sMgz0yFkOfZu3MBkYjQ8BYn0IiCPkS4W8osOo1AggzQ/Nzu+4w2vxn/83f8utpoN2RF3O12d2Hk7bkFwCyGdzZDObTwwnWcCC33mNsym2B/0lZ3wx554E7Z6bfTabXSbLUz7A4xGEyRJG93NXWzu7iKdEWwMcHB8iOe+cQVpsUCz09FzpoCQp32ChIjAja6PYaDVRI5Q5OMARkTP9fdwMsNXbtzE3/m5X8TxMqf8QmMJrj6SPVAY03KBbreLeqOJyXgscMDHSvMljVtK7T3Yuii1KC/hHVkxCC+hWNVVqwpUFagq8HKsAOWI240QQVgiDIwpCGqOHRAwMIZADV/iRGv4BhAMGPj/GxAwFmEFDPz116ya7xgb7YrjDY7MLtnP9d26ooCA1xqc+CHIKdFtLeigy+2GolDTXHBlr1hiNp6gXOQ42L+J8XiAeTZHviyQZ7kofDZ7YoswiXVf9BggcHjtqR38+A9+CKdadeUXREGCkCZFDDVKU8yU7TATUCArkWY5xqMx9g+OtH1wdHyId7ztbXjsoQfQaoQ6/TebHUwGAyxTJjXW0dvaQbe3icHxASaTIfLlUrf/rd/5XTR6HW1QMI652+6i3WnLTTEhCxDGEhWy6GRSmOaYL1PM8gw3hhP8q6efwd/7+L/AIuCYoMRmp6vRCo2R4ijRdkev11MqpdIpowiNuK7YaI5f5mRd3Ebr7eDgbmDBwN9LFTYCFYPwcvwtUT2mqgJVBV6RFeCu/hZpb4EBMgYcLZyMCkhH2/aC6RL8Xw8MeIo1MODBhX3MRQiCCx/uxOvZquSJeO3EbfEkAMoDAxsncI2OkgKODmyUwAupfK04luagqOboBIl2XQMIXPfjhYmLCzIGszkOD/YxHg0wW+RIM645LuQ4qE2I5dLsi2s1DCYTCQrbKPA//sUfwCM7G2hwJTCiuI+WzMB4Qlp/JpaCFsw8nXPkcHjc1+0Pj4+Rzib4D3/wz8kCOcQSDc752xsYHB9hdDyQv8HumXNotdqYDPsYa0zADIUSv/bJ/xfPXLmMna1NnNreElCgi2K72ZSPAU/8SmN0rAx1CIuSY44c18Yz/PJnPotf/d3PyjqZL+rO5pa2JJhamUSJxU13yErUNabg61Z3WxesYbrI3F9v73UAACAASURBVM/E8xu9c0K4o3DRgwO+Xi91+6ECCK/IX0PVk64qUFXg5VYB/pJv1GrYqNvqWxDQvped3cyOFALEk6ofEbhRgwEA+8uvG3Ngt2Wr53xbTII0DC7H4fZRg7Yknp/sZ43fnU8FDiyRUY3fbScIINBe2YkQ1zcYKKajUJAAgZsCbJqMeV4uMszGY+xdv4bpeITZcqGERs74ORLgA2aaIwHHxsYGbh4eGDtSFvjPv/cD+NZHLqAe1xAHMSjbJLiYkj3IcoGE8WQmUHA8GKI/4gbCEIvZHEkU4C/9+R/EVreNoLZEzBFB0hSDcLC3hzwvsbVzBttb25iMjtWo662m7Jd/54tfwC/86q9oA2J7YwOntnfQpQah0VTWQqvZlCMi60iNAjUVi0WGrCzw3GCK/+2XfwVf27uputFWeaPXxZzAJw6NQVguTYNQr9tWRVGg0YgFPIyRoTiSTf4Or5OlLbwAQHh+TPS9vvcrgHCvlaquV1WgqkBVgftUATY5NtlWWKIdESDQv5+jBgMLavxuhGD/5yiBIMJU8FLD8+tiEGiSxNu78QNv7wCE1x+sxhQrBmFdg2CjiVsCl9zsW4JEjRAszZHXUbYCtwUcq8BGZtdhU1tKiMfTMWEGZ+saiaDQqX3v2jWJ+ag5IEDg/UynUz1f3i+3EnZ3TmH/8KYeE1cd/713Pok/87Y3Iw7cGihI6dcECjhWGI7oWjh2GQxTHA0H8iLYbLXxyPlzeONrHsW509uoldwECNHtbclH4XB/H/NpilaLWQ4bqBW5bK7rjGmOG/jG/k38Hz/904jjEFu9Hk5tbmNnZwfdVlMriY1GwzYS4kSjBlpM58sc86LE56/v4+/83C9gVJQIHd7imCJPU+UvyBab7pnttvQIvFBc2ajHAiCqcbkw0aeyn+2NaMzB+sWzQmZ5zcvJcko1YrhPP77V3VYVqCpQVeD+VaCUrdESnRCoRxwpRGoyAgVK+IvV5D1Q4P/ZSG7RHjhwYEAhNoDB1UixEea4uBpFyFvBuodvG16nYFjgVkHiapthXXfg1hrJGBAcGFAgECjk/KfPkVVw7oi83/FkoseQzacY9o9wSA3CZKiTf+aABrcGoiAQqOC4gZ4E/UFfwCJEgSde9TB+9Hv+NOplhjhkY60hy5ZKg+SY4eh4gOPhCP3RBEejMQaTITrNJl778Ktx/vQ22hENkwLMp2PdZnf3jB7TweEhisLofmYkzKZTdLpNdNpdNBsdfP3KFXz2y1/GYf8I9TgSg7C1sYHtzS1sbxhAYEhUrSw1zilpphwEGM5y/LPP/x5+9pOfxpK6EmoMAbRbTSVLhjFzGHj9Eu1OSywEL1z5rNdjNBI6QTKHgUCL4xwfxHUngOBcN/11nC9FpUG4fz+71T1XFagqUFXgvlaAAIFy/15YIKHmgGAgiuSDwGZPpXvAxhabIM/GBqSy3SjCgYfVuEGiORs3eIAgUx6vUXBGS2w866ZKtwvZ2ORXjojeA8EJE9dZA4oPPWsg5oBAQSFFS+RZZjbLZWmBTGQSmN44GeHG9auYjKfyIciKBVL6B0xnWunkqiOpdtQi6RZUk1oNnRrw3/7w9+NMO0bE3cASmM9zDEdTmRgdD0Y4HA7172AyRlgr8MbXvg4XTu1im+ZDbN6i6sl+FAIJg/EE/SHXLVOBg0UNuHL5MnbaXbzqgQdwZncXo9kc148P8exzlzFbzLWFsLWxqVP/2VOnEEQB2nXbrghDqyvTGg/mGf7exz+B33vuChasdwFEYQ31ekOGUTJDciLQXsd8EFg/jjd4P/RWIDPERAZqNJR14d6NdxMn3v6mPdEj2JqkMRcuyOkOIsZqxHBff+yrO68qUFWgqsC9VMABhCC3Jq7GHmnNLwoT25OPDSiQOeBfNn5+PWQ8sRM16norTYIBAhtVuDHDatzgxhR+64GOgmbOfMuFNDkvK68DxyBIhOiYA4IAEyqWAgRcbTRGget83EzIVtsOXEfkX644DofHuHH1KqaTmbwCuC2Q5plYhlpkIwYCBLoMc1uAyY1saI2ywAff/q1475NPIEYuy2b6HRz3Jzgec6QwxNFwhIOjY21EPHj+HB5/7FHsbmygEVqcMh8nwRCfA/UN124eyOmQFs1lSIq/phXI05sbOLO5gXoUa5OATorPXb2KyzeuC8BxTEBhIXUJvV5HoCyJQp36+Vr0ZxmuZyn+p3/0jzGmx4NjbMjbJHWzVyZjYCuhhdYkabfMECo+dwGEVkvsUc4Rwyot86X5KPoX1esXCAo8QHixd2cFEO7lZ7e6TlWBqgJVBe5jBXgSjLBEu7ZQrC+ZA+kKIg8KYvt/QmDA8UNsQCGOtF5Hgx42JI0dVqMF0yEISLi/Jn50oGFNl+D9Fm5lEGSDuDr9e+tkv8KobQUHDuRU6P7vtQf8mjV4jiCMDeBcnWuICwKE4wMc7u0pRTFzAIHmQQQQDGC03IYci0WBZrutUCZuAMRlgVftbuHHPvo9aIUFavy+xRL9wVhRz0eDIW4cHWHQH2JraxOPPfoIHr14XnkJNG1is+VKJL/XZDzD9Rt7AhM87dPWmadsjgo22fTbHXTpZig2pMAkTXH94Ca+fvmKHiebe6vdRpEvcP7CWekF4jDSCibB3FFW4hOf/wL++b9+CkvaaBOClSXqSd0cMktY6BP1HMsC3U4HzWZTGx9iEIKa7iuJEzkp2lyIWxvmWnmvl/VNBruN3fpuo4cKINxrhavrVRWoKlBV4D5VQLbKZYYGHECghkDjBRsVGBCoCxjQG4D/JvybJNp2OGEVjHUwvYIBBOkXHHPgxw28vokezU/BvBIY+HQ7h+DYAadLsJwFpiyatkAAYcH1RPuXIIFzcm4r2KjBPk9jJLonKqkxz+WDMB0PxCDQoCjLSe2X2kDgdeYLNkNI4MhtBp7e2TjHs7kcJjtY4i9/6H14w0PnECwylMUSg/EUh/0hDgcD3Dg8xHyWS0T4wPmzePDCGWx12ghrEZZLhkBlOqUPBiPsXbuu5MgFG3ejrtptb29ia3Nbmwl8HDm3EdIMk3mq4KVvXL9hmxVhpM2DbquLbqeFZt0ABl8bhAn6ZYi/+7GP4eZk4rY+7A3EPAjaN/N7tZotsQf826HVcqMh8EKAwOdFrQJfQ4k/tZrq3BRfBCL4dUavHeHHL570aBka67fT6Onbvv09LwWI3Kcfj+puqwpUFagq8MqtANtyVKSizE1kaEyBGj2ZAtnxkraOENMgKI50CuVKXBTzhFl3wMAzCWQcDCgY22Afm2aBownnk+DAgVYoXSiUP2HaWNyZIa1ZLAsE+JVGbSjwlL/UfFxgYe2vX9fjdagjIEigcRHFhfs3rqk5U3NAgED6nAZBBBOTdK7HzPsl62BBULRisNTKerHEq09t4T/5vg+gUS4QlJbb0B9PcDgY4xK3I/IFptkCSRTjja95NR65eFHjiKi0enKUoWCnhZk8sSZs9mVQopnEOs1TJ1AUuQALI5tHsykWBbQ+ee3GDQEjahAIDNjoOXKQkDSMkAYhfvfZy/j4b30aGZu65T8KPHDsQkZI3g6tlkAaH0MjjmWMRBBD8yheyErwPgmgSDnodXmRqKb1NUg/Srj7T9YdvBXIcFQA4e6lq65RVaCqQFWB+1kBngyTxQxhOVdQEZu1GsgtAMGYgliGPInYgwZ37+O6/s+vJRTIBaE2INhgCQ7EOmj27kAHxw6RGfrcImpc7cNZIyuYSSjvA+eW6EOXGFbEzQSOGNwIYbHMZTFs4IB+BwtLbRSjsNAJnKOF0Xio8QJjnAfHN3Hj+r62BajYpxUzNQP8P4OO+BypLaDHwTql7sOoemWJ//Sj34MHtlqImPOQp4phPp7O8fQ3LuPSjZuYFEyInGHvaIILuzt444Xz2Gq10Ov2dFKfTeboD4Yyn9rs9jCZjNXGm3Ei9qDRTNDqtBE3ExxPx7h8cEMjjziIMBqO5OfQaNQF1prNupo9wQfCGP0ywv/6sV/AYD53wObWtp6EBtLIjFCEyJq2Gw3Tm9QCTHi7ohT44GvIeGgXuigtgxcX8vWR9bbbXDgBBS8U4uw3Hda5AWpg/PWVD85dlAog3M8f+uq+qwpUFagqcC8VIECoL2YIirlLaeRp3/QExh6wyQc2UnCAgE2j2WiIRUiShr7GEy9PoJyl67ruNjTiWY0cnE6BDoE2cjA7Z64WGkY4AQi2fGCeB35k4DUIq9hmBwo8MJAhEkV2BAZObMfURDIFg8GxZu2z6QyzCUcMe5hOJ7IRJoVOMCG75HyGKEqQk0HILInRT93VDMkiLAs8ttvDj3zo/diIaiiXqUSEB8MZnr1yDZeuXVd2Qrfdw97eAQ76x+h2O3j3u96NeX+AbDTWYxz0B2gldWkH6LuQLkurobZIapjmGaZ/YNDENcxL166g02rg7M62tATNOHS2y7aeKBAWx5jXQnzyy1/Bb3z297CQAZWNBbg5wX/5HCL5VRhAUOZEvhAoiaUlSTCazFAy/8GBBsehqHmfAARvmmT3y8vt44Vb33+eKbh9cGCPbzAYmhMm+Y5yWQGEe/nhra5TVaCqQFWB+1kBMQjZGLUiQ00rcsYi6IQf0mnPthakNUjM0pfAICaL0LBkQ35MwRsbDi2ACRrIJNiIIRHg4PV1nxwxuJEDaW4vXJRXglO48zEtZYhkdskeIJgg0RwSzasgQ0kGgauKzFLIU40JKLRjw82yOdJ0rkjmeTrDMl/IMGk8OMLNvUNMZ1O7fk4r5poAQ7pIBVooSiSDID8F7/zjXgi2ulZZ4gf+1Dvx5ofOIQJHAUscDydiEAb9kRwRz+ycQrgscfnKNVwZDvDYmx/H27/tSVz/xiU898wz2N3eRk6DpeO+3BizRYm8ZuJMZiPcvHmAa9f3BFZY53angbhRQ6fRwE6b2QxdWS1zdMBV1EUtwJXBDP/g134DM2506GTOE79thPDiPS0MILT0Oi3SzHIdklgjpnm6QJ7OlBchfQi9EFyiI8chxhwYw0OJK3By/3d+r5rA0S63XldGXcsCB8dHStA0sFExCPfzZ76676oCVQWqCtxTBSRSzCYGEORp5NcV7ZTpQYJOqBGd+kygyFW5OK6j0+kiTmJlCLSabbQ5F2+1tJNPqp4AgY1H/+eM3Psq8P4cQJCZkoyLlbAkQZzCGNdWG09WD02MSKDAjYA8nTsxIkWIMyn8/V+CAwryjg4PxVbMZ3PMphMc7t/AaDjUdgK/xyxLRanT1TBbMjjJ9AbzNDfNw20AgV9rBAHOdZr4ofd+J7YaNufvDya4tncTYS3U5sK5U2fRDGJMR1N8/ku/j36R4fG3vhVnz5/DcDTQdkA7aeDG1Rui9vNZjnq7gfFsLN3H1774+4izElv0QsgzHI6OMS9m8jzY7bRxamcH9cTMrJZBiHG+wMd/9/N4+sZN5Dzti5ThK3wS0Sz2gAJSrkUK5DU1WmnECerOKEnjlXQmhoK6Ar4HWEeOW/h/4g4bR3AkwFrdLQL6xQECX+zD/jEyul6q1mXFINzTT291paoCVQWqCty3CnD5rUCUTRCUub6LDI58GJMcEM1S2cYEkdbeIiX91aU7oPqe63b8P8FBu91Dp7OJFlMPGw0kDZ5SHahwIIEsghcyeqZiXarGR+Wjm409MAMk5iWsxgliDDKJDDlOYJPL0rlYAFomc6zAJsfGNhj0dft0lkoceLB3zW6TcruBIMAYCQkVlWjEQpQW5azsh1tp8dJG5WiixDsefy3e/ZbXIyptRDEcDpSE2G61sbuxg2bcQjdp4frV63j62WcwKRaYo8Dm6VOIem08/NDDSpbstDq4fvkKNrubuH7tCuoMvZovcO7UaRQBsD8d4OrRPg6GA9Vmo8lxww7q9QhB0sS0qOFrV67i1z//ZWSa19y5aXOcQ0ZHmpKQqZIt6TX4uiugylktZ9kM3VZb643UjTClkkJPbSUo88kSPjVC4phFOoQXe6O+0IjBVI9HBAgShereK4Bw337mqzuuKlBVoKrAPVWAv7SXSAgQSP26GbWPdOZdCCw4JoEx0PJCkC+CaQ2SRoI6kwWpvGd4ULuLbncL3W5bFHW7u2GjCM64mRVA7YEDCGxUPrdhPe3PjxbWRwx+TdH0BQQH1rDmcwMB0/FY7ADHCQYSyCZMMJvPtL3wzLNfx9d+/6s69fa6LZkKsRlxTGHUdqE8hcXSjTYALBa2HkkHwfULW69qwrXCcokP/vE/hscfuoiwzLGYT0X51wmKwgS99jbSYYYHzl7EwfXreO7ppzGeTbDkKl89web2Nvb39/HAhQfRPz4Wj0I2Y6fZxoXz5zHKUnzj8DrypIbD8TFuDAaYzjMkcYjtbluvQ15LcHUwxG8+9QWM1zQTd3oLkEEgo8PHyOUEvi4rYOgcMAmcOFLg2MHWWBPlVbC2bN8EDBxbmIcFbBVWoygTLL5UKyW+zsf9vtY/bSRSbTHc049vdaWqAlUFqgrc1wqUJcJsgMj5+Hsw4JuGyGEHEiCnRZ5AY/3V6CCJnf6ghVa7hWari1arg95GDxu9HtrdLXS63NXviGEguGBDMZGiOS767+Wfp6bQzgKYO/o84ZJJMFDggcFUscrTyVgbAP1+H/PpVJbKo9FIp/+9vev45Cc/ifF4JEaAfo1sjI2YhkJ1F8qUmjCuKJyJEZ0ZaygDxkmbj8KtBEKN6dMCUxTshWWJ3XqMD3/nn8D5zQ7q4RJhrZQQcJHm6LY3EBYJ0nGKnUYPN69eR8pciKULfCpKJEEksCUOJ6iht72NpNfG1YN97A+PsGwECBsRxukEw+lc4kUK+tqtDpZRghuDEX77i19Gn9oB+SG9MOUvBiGy589uz+0HMQhcS3UiUm59kIEwHwuuoca6zmA0wrIsxEDwxvx3FcLF0QMFnAz0eMHLnbcbCBCGw6FeMwGEikG4rz/y1Z1XFagqUFXgnipAh79aPpRLoP9lb3Nna9wnIUuB2fVqBMENBwoQbfzAzQWuQFJ70Gx1ZE/caW+g2+ui19tGt9dDt8u/XbQJIlw88SrMSafGNRpfNLbMEPR3tbJIo6MZxwhTjMcD+QmMRgOdbMejEdLZDDdu3MCnPvUpXLp8GbPpWGI67fqXBDclkpDq/4aeA0EBPRJotUwQxBEDNxcEJUICBPNasARJ49DV4giYCFr4MR0Ja8CpZh0feOe3CSR06hEacYj5ZIxaQCq/jclghsUoB9Icy3mOBr//PEUjqqORxLa+yTokERb1GMNFiv5shKy2QHujrnRFmjZN0wUG07kMo3IEOJqn+O0vfwUj6iWk4rDNjztd9NpxlMBRUb3ugptaYkm0kqpxUohpOrM2rY0HjhJi3d3YbX2wCnx9BPAILChuDMLVtoStujJV8mS74YXMkvzjFJOzYMolIUJYjRju6ae3ulJVgaoCVQXuYwVkAZwNFPrsaXMfosRmwubKRqGxg0SFPu7ZjJH4scKdItMZxPWm5tptjho6HDf00NvYQqdnjEKvt6FxBK/D1UiOLPT91HjdydyT1M49kY2DGgOKCAUOaBw0GsoPgOwA5/5PPfVZfP5zn8PVq9d0urYLQY89Lz4H9s04ADZ6XRNDCiBkEscRIKTpQk6COsE6lb42J6RDMABFFkK6P96DC4JiEw2LAjvtOt77jrfhDedPYbuZKAhK9s5FgNmsxOBwhOlogjxboswXiNmii1KbBMRDObUQATCtLTHPMzSadXR6DXRaiVYOGeR0PJljMMswzlJcPerjy5euYLa03QBJPN1q6J3eMlp6pFeFfCtiga+Nbk9aDGY4EFjwtdRJvlYTgOJrStElGZ0pxzkMr3KOivrXuRh410yvQ+DoQ3pG6jVWgO9kl+HFZY2VBuE+/shXd11VoKpAVYF7q0DAlbW0rzOhZwvEHCjB0KKaSXubFsHskeW46FYhDSRYeBPHBzUmQHLsQAOfRkPjhla3i97GJjY3NjRu6PU29W/b2fvWk6ZO9AII2oM3W2WK8bI0NdZgMsJ0MsRkStbAGANuJ3zmX38Gv/Wp35TOQNI8RT3bNoRocDk32qycTAA1EN1OW88DBAizuU7m1MbN5ymWarDmF8D7orESaXUvVFxZ+jg2hU1U+glmNdQKNIMAH/r2J/HEow+iFwfICGrmGWYpG+wSk8lM4U9MceS4RDCG9+H+lb4hDLXCuNProNWgKVVDMdGTZYmD0UQjhaevXsOlvSOQlC/4Orl45fWT+u2ndu2K1GrSgjSbiU7sjI2mlTM3GAh4CNi4/UHTLLIrZoAVOKEoEygNPNiUxbEqa3bKYiKiUGiPICSKnHpRbIIBLINuL36pnBTv7ee3ulZVgaoCVQXuWwXWAcK63sDoaGMNyhVAMD9+i2524Us+f4GqeDfD5r9sOPI/qDcQRDEaTa4+NrTf316NG3qyCyaTwJMqm5I1zBKLhaUKEhxQfDiZjjVKoMaALMLXnv4q/sk/+XmtLspMqTSdgj/BqnehlIiPjX4VHEVhYRKhHsama5CxUo4lashyOiqaWJPX91bLAh00G1rz/FO7cyBBegT3CoU1eiQs8b1/8p34tx99EDGWlhrJ7YhaiMl4YiCBAGFBp0YDIr6Z8wRvwKqJphf/JRFmeYaDWYqvXb2OLzx7Cf1ZipSroG4MRGGj5XKePBZvE+3fPFppDTgSiiUcpT11t92WMyUrT1Ms6kOmk4n0B1wj1bYD9RGZhV+RceFzJZgUBHON3wAYAYatQSZxw7YcEhtb+C0H74bgAcIL7TZUAOG+/chXd1xVoKpAVYF7q4AAwvzYds9dwxOT4Oh0dVwJ1Qws2JjBxIWKhtb/zWLZYqApdrNxgzUcW4v0ZksyTAo5t07QqJuxUhgmSoskZc0LzYmoklf4Up7bOiIFgwxryjL8zM/8DC5duuRinheWFeAubI9s5gxWij0FXqupIZI9YPMiMU5LYzIDbIK8Ne97PqNg0W0oMOZ4kWujgIwEH5P2/qWXoLviyYVgiGBCFzZHAO2ywA+977vw8KktCRmDIkcNEVJn9zyfppjlC5Iz7lLT6mBUT2RYFQUWasU2PF0ucHM0we985Wk8s7eH8QJIXXCVfA1cRoIPRqKIks+f2xkcjehhGdcvIGAAoa5AKjooapdlsdBqJj8gAOPrxY0RfszXSKZUZU0MAu+R92McDcEiRyULhU5pXTIyPQLfB/Jc4HuCIVJ3uNwOulbVqLIY7u0HuLpWVYGqAlUF7lcFqEEgQKjZkdvcDj0QUGMJzIKZIwfN5m3/XUyCFyxyzOCsmYOIDcJoZq1D+nhoOiq6JEgLgXKZDfy/y4CoxT7V0RobiWxS/MxJYOQxRXI/8VM/iflkapHMHAEsl3ailUjOWTW7k6wxIFTWM/iIg/pCQkmCD2YPkGKfTKd6fvM5tyMyY0vCUM1TWRAEHBQQFuYVoJatDQbTS/jmK2DhXiStPxYFtusxPvDtb8cjp3bRpOjTjU0IRPI5T+LGxhCEsK4CMUksYJJT91ADsrLE3nCIT3/h97A3nmKULzHLC2SMXeZGgeh+R/l7qOEAnkSWup6NTHgtPjY28GbTGAQmNmqdNF+KteDryi0QGmGleYY4CLWlotrAhJwct4hB0HvGwraWdLOUyZQP6eKYwVYgeTGQQOh0q6dEBRDu1092db9VBaoKVBX4w1agLBHN+6jx1M4mp+ZvjeSEUfCggY3MsQtOkyBv/yh0J8dIDcWYBEuElBNj7GKgXa4Dm7ntzZtgzpIejYq2eX6BJe2Bi4A9HdS27x0c4ud+4ed1uvUNj/+S8uYJn9/HN2j/uPkZPieuNuq5laX0BxwDNOsNzOifMJupqdFLgYwC74uPjdsMxovDIpk9QPCpRZ6xcHVaKfZFv/NEvUQdJbabdbz/HU/i4u4W7wghCgkXtS1RcozDb+MAGOvB7QYyGrUSKQLc6Pfx1Fe/isNZhintpZdLpAuyJAagjDUAIrd1wubNx8KaeuZD9VkDCIp6brcEgpToWKthkWUSjhKoECAQ2GXzqRo8t04E1PKlvj/ZFr0GXsRKIFcWAhQEjRwvUMsgsOlBJhhpzbXJF3VTWr2bqxHDH/YHu7p9VYGqAlUF/pAV0Fx6dvySAYI0Cm4DwZsdyWkxCLG1vY1HH3u1eSaI/qd1cqlxQaFgJBriODCCGnrtrqP+DYhkixzTdC6hW1EEeO7qFXzsl35R4wBekSdjNbyAugHGOWer0YdXzQskuJO5t4wm8Oh1OzIAYiOWniGdC1yISdCoYSGAwGZoWICPew0grJIHrfBaedR/tPuwGtWoaSupoEAvivAn3vI4Hj13DqD5UsbUyAxziRRtZVAW11pBNHp+vlyiP5vjmRt7GGYEBwVSRlfn1EOYT4Rtf7jRgVgei24m8yH7ZTIvtKX2FsnUKTinTK6iEiBQ76BxAgFCs6nnPhyN9Ln5bKqPO+2Oe+34GBZ6ffj8bORi2oP1zIo6Q73qDRtBkM2RlbZta0SxjarudqkAwt0qVH29qkBVgaoC97kCbE9kEEh/34lB4LcnhWwCRmvqfqPBTv1em0DtQYgkqOHhBx/Ee973fjzw8KvQ7m0qprjdbYtVUHwytxM004Zm1Ly/2Zh2z8Cof6zTMJ0dD46H+Oqzl/BjP/7XcHBwaPK7Na8d8zegJXKqE6zXSYjBcKDEthFMdEgfhK3NHhh3XI8TrUfOs0wAYTyd6q51Pxox2HYCAQPDkvi9NcrwPIUTLZJiX61puhwBP2wwLUeJpBYgKQs8dv48XvPgeRQKiMp0KmfD5QiDAME8DEqd0Mdphin/csVzyZO7AQQ6PRIgyNHQRS0r6CogQLFkRI5dKMQ0saeBG7EzAjLQa0a2gA+XugxqKAi+5HYZRQJOBCBcd+THFJJq5FIWmEkPYsZKFsdtYVrSahAMlpDVdNxoqC7Fwms3OG6gQNLWWu92qQDC3SpUfb2qQFWBqgL3uQIGcj2KqQAAEuxJREFUEAZUqb0gQLBGR+2BAQTTKThxmluJpC6BWgKu+b33Xe/Gk9/2JM5ePI+g3tDp00YKFKoVtgzPJrE0rUFQi/RxnjKaeSqxHIN/58sCf+E/+kv45//i10WXe3qaDIIapAMn6TxFtjQvA6010mrHqeztcG/Ns9VMNGKQ3TNqotJF57vgJ9tWtKAFAgRCAjZKbjdoI0AaBNYgWDEGfpyhNUVH7/sGaGFGFEyafqMR1NCKQ/SajMY20R7vuyTIKKGTueh7/mEDLkM1d247kNqnDoOjFx9mRVEj9zON6ue9Uc9gDTupR25F0x6XjRgM4PDxtxoN6Sj0uJpNjT146mfgVsYMCuozZmOZYDXqicAIAcd4PjO2QKArEABhNDVZHPo4kAFp1puKnjbxowEEiVpDrljaOMm/Lvz3ToChAgj3+Qe/uvuqAlUFqgrcrQJsHkk+Ri2fiyIwKZszt5EFgtccUB9gjYYNwfYJvU6BH5aIA57MI3zkz3w3vvWJJ7B99gwiWvoWkAsjG5KABRsbO7w2Chco2egDO7lqxZCit6LEbz/1OXzk+78fE24aSBtgGgWq69m+IwrkolBsBLMCeJGewYkTqS2QcNHR4Zu9HuoR46qZJVBiOCaVHmPKhrgkCHDiO/AUX0jERwGjvp8EkCZSNMrcAQ93GvZNz4SL5maoxq3xAQWdPPFTo8HHaACmVjijIXeg9mCjrBVyaWSjZ1gUY6AJgLROSWdJp62QUJCPWRoOE5Ty2/Nx0/KYPgvUcKju7jHLGbEsFfXMbQ96QdABM51PFcBF4MDaz6fUduQIwkSgKI7MSZPMB8EAgQs/9syChI5MuXQ5FFxZ1ef4+OS8aY8tZvpk5Jcd19+d9l6yxc3KKOluP7fV16sKVBWoKnDfK6CVtWyEMJ/Jh2AdIGh7Yc0PYR0gaOLuG5vobtsk6LZa+Pc//CE88aYn0NnZQhATIBSi6XWKjMw1ULaG9D3QpgCbWCAGgZsPBQI5Cf79n/4H+Ot/479RAydqkfd/YI3TaHnb3Sd4oJbAixfNHtiMnXTyJ+ioBdjZ2lKzazQSsRp0BgwIEBTS5LYU2PRoY8zNhcVipXPgoxQz4TYB/JNnk1ZLc7WS7kE6S7ZxqS8EK1gfAis+rpghVW5UcastsjeiMn3koqC7IkcENnbwZk2yVPAjFCcU9ABB33FJBiFRmBX9FyS89NsEfAxMouRKI8WF1B602wIIXE1tJonWI5cLNnduQUCjn3oSCxTIvIruky4Gm2yOz8oQe9BoWlZDzcYbgQK+OPKBeUnUSjRb9Tu8r08cEQSUqjXH+/6zX32DqgJVBaoKvGgFZLSzmCFMx6s1Pr/BcDeAQCJBOgLbhFwBhL/wfd+Lt3zLW9Da3EAtpgFSpDU4nvalWWTH4VFaqUwFsOQd1URzc0RQ1EKdTn/0r/xV/NzPf0wCQq78sQF58yY2TjY6DxoIItio2PSY1GiBQqTXbT7O5kfw0m1SqW+7/n4FkCmO2ijQTN8aKhkJkzuU+r/GFM5BkAyHNwoygGBugZ5t4XOqiXEwsMD7Edsh22eLW9amgw9WMtcl1VFOkjWuVtp2grEI3OSw56EVS5d4KMdJ1cBWT+1ia5N0MVwuc41K8qXN/z3YC8oCjVbDAMcSAggUJJLZaZPxIVOQLnT9WZoJ0ESRCU35l2CK9SYzsQ4QOI7otNrucXMMsZDHhfQPui3HNCVazYY5Wa5dbh8zVACh+sVVVaCqQFWBb3IF2GzCZYrarK/m5ZucN9bxngcGGk5GDN6Dnw3fgp3Mpnez28WP/LmP4i3f8m8hbjdRRokEeGplBBJsSg1LA3ThAUDG0zGQznMkcYRlLZR478l3fjv29vcwnk3tFKy1SDfb9mt2ih8OJbKzuGAK77hix31/E+qxybIptZsta4Bs+ilDmihAXMi8SOClFmhuzwbIr0msyBMzAYLNFNTstb5JdsI5LiqTwbEIYi54PTdiYEMUQKA40OVYKBSJYMSZOq18CjgaAUObeFI3+2aJ/3jSZwVdqqVBDmeE5MYq1GeYc6IJNzkuICjjfcypAdHs37ljlgHqjcS8JoqarmusTI5Os2W5FFzzBAHCTKwSNxDIEHHE4AEUGQW7nWVftBptiT8XBCYSRlrQk4EpG73wkVMfcSfjpHWQUAGEb/IvhurbVxWoKlBVQJHFywyYHiFwq3YrDwTX9Ej/s6Fxjm5hTT6kh43QnVtDigYjbHe7+OEf+Cje9IY3I+l2UGOTZsogT/y0ZebVE7IHBAwcNxAZsAEHsk2OaOtbAMeDAd769j+OfJFiPDN2QPQ8nRh5aueIwWkl2LzyfCGQwMZEIKG/SYKlO/0THJBBoCcCrz8aj3WfBAiZqHDmDdDoh4I7EyVyVZDhTWyIGjFwfOC3OjSKIGihnsEEjaqN0z/wlO5BFZ+zaRfMI8KDsJINX+OVdT2DO2nL79GNGnTQJ2Vv2gv5JvBzYhBsfEKQxsfMJk6wRWEhT/DFkl4RqbYH+P1NaOlAAX0f8lwiRa5EEoy0uckgXUamx8Zmz+dtLEWgcQdHMxpD8PYUVTofiladRkvUJdCBsabHxMdz0vhd/aJQj8+zCLdnRghsVSOG6pdTVYGqAlUFvrkVYJsN2cxmRzr5mrDuJGeATc9ins050Rvu2C99m7OL2Jb4LsTZ7W18+Ls/gDc98Vb0mJoYRkoaJO3u8xDKBel7o6zZ8rTgVwsxHIyQNFu6zf/50/8Q/+V/9zdQFjmmU2v85r1gDWeVXUDnPuoaagxbmpvWgUCEjVjrijQkKpFEMc5sb8vSmSfxNM3UFFPZOZsYkSd8iu5SbhY45T9vz8fJZujHDFyTtECoEy8ANTUnLFQmBScI9ELQY4YEibXA1i2lY6CIj/oAlyppjI3TYzh3BIKnojSzp5xpj0sGR9mIQY1Ya4YG0rzwk6uk/DxfF7olkhGhFoHCSLIv8kSga2NS1/op2ZJWs67bLPIc7YbZX0+5OuoYAr/eqfosCwzJ6Lh6SH+wXOq+mw2uTpL9MJaFj0XQRrV0oVmEi8yDqDMi2hs93equWAGEb+7vhOq7VxWoKlBVwNTiPCey8U8HqBXZyo7XjxjYacxcxxqzif+8GQFn7VZIfioOA5zfPYUPvu99eNXrXq94Zzb8hLbGbqZPu12FE3HFka2O64/lEoPx1GyMaS+8KPGd738f9g8NtNBiOc9tfKDG7xT5vkHzsVGEl6c0H8psFVNjD6r8rYmSQdjpbaDuxHsU2nFzwdiDUK6KnXYTKUOQCBi07kha35qotW5nRe02PbzlsH8rCSDIxdA0AQQHHKmwsfJUzhGNnoNYBpvLyyraGRS4UEhdh6yEEfOBTvIECimNjyTqJNiwrAiBOQcQyACQ9eDnSSO0FcTE7QcTahK4CNYwL4Igh69BwXFEYvclQSrNmiJ5LfB7kLWQ2ZFjRnjjwXS8srgWayFL5RhxlGiU5CCmuVvWfBaEjLpNxxHQNCmRb4apKJ5/qRiE6hdUVYGqAlUFvukVsDYUZRPU8qlR5K7j21qi32Rg8zYq25bUCjUhZ5SoE3McBDhzehfv/c7vwsVHHkGnuyF/fzYqrtyxOdCURwmKBAw+4OkPBInHw6H1MdQwHE/wXX/2u80fgHPwOQECXRiNhfDrgB4oUHPA0QNBCOl0naxdM5c+oEa3xja2uz1lHcznM40z5DTIplqvKzWy0YgdsyDppk7DNPphUybTIZMhvwrqWAyNOzzz4j6nRssURGk6CjVjsRih0fte4ChNgRsTeFbk5F/BBDNQ4nVqJ54IlCewUXPTgo3fv0ayWI4iPV4yNjRD4gnf6yFYL4k7HQjwWRJ+I0OixaJAp9VR2/Z+E6w9X2uOZijYZH05ZvBbFVwdVVaHxjTUHpA5YA246mgATGMRz0Q5gSJ1EGYp8XyQUAGEb/ovhuoBVBWoKlBVwCqgNcdsvAIIOuv63AWn0FfD1poc1XP2VyFPTqsQBTVcOHcG73r7v4PTFx8QVZ3U6zqhskmw4QkspA4gMOSJdHMc48b+gRkQIcRXn/06fvSv/mcu/6AUoPDRyx4cWGhUgITGSP4ETUEeMxWcWZCcG+kqGMWKNe5Qg8Do5CmzELwjoPkFcDefjUrrhBbpKKDE701aP2c2hDIPQtMiuB1PzxqsN2nWQ8ZQNG6iMNOxBpHbxPCsiwVBeQbBszKmR7AtB9t6sDVQAoQCszwVcKLAUOMHnuDdY7EMBq6Jmltlq9nSuiWflwkGA41QxPZEsbE6kQVk2bNlXESurQa+rgqR0iZDimJJb4WmRWMXhTZLOGbgndVdIBdvL60I2REHJr31tb1NCBKYy2HPkeumNE+6PcBJ16w0CNWvpqoCVQWqCnzzK8BTe5zPUaYD+8XuHpLRwWaKZO6JLjmwZkZAK+dAN39nA3zo4kW8+fFvwYULDyo5UWFNSaKIYeUDLFw+AMWECRXuAZY0OnJUPyn/T/zLf4m/+1M/qebOBsOmxZGAqfRP4pgllmRTpHgx5kw70IhBTde7GlITGcVoNxvodbj7D20w0J1Q7oxBIB8Ehhbxe+RLM/aheJEjATIIBAgKayJAiELR8l6nIdfFpRcknrAJird2ugbejur+oFgYwHD19VkFBgDss/407dcgxTbwYF8LZZaU0sDJrV9yhZHwwcR+BhYIioizqKvgRgjHCgQCBGoe1HFsQiZF+oy1kRGhH0cKjWZDYlKOFaj9mBPQOXtl+k6wvuPJRGuifI+QIeFtcgVQuemMdBYW1rUuQhS74lwfqQehs2IFEL75vwOqR1BVoKpAVYE7VkCrjkWO2vSIUUiyPjZXPjtBMgJZtLRO+OZ2twIIlMy7C+fXD108jze87nU4vXtWuoB2u4N6o75Ka+TMfWUO4E7ahSKdl5jOUo0Y/pf//Sfw+S9/SQ2M340nZzVv55YoxuO2UYPGDHGMeZbqunzcMjqSL0IkcNDrWOgQRwu0LiY44HX4l5HGGn3QYpkCQAEFHzBlYkKdtZ1QwDMZsmN264V+dMDHrIwJgiPWzSVA1iOzXObn18EBG6TEhyXra2JMh4TUpFmEBQJMs9RYAwu8lMiwFnjQZAyINiWiUACBq48NGhwtlmgxPEkNPdBmRj2pS/RovgqCJrota8etBg2aNBaAIp7prihRobNs5uophZ4h0x7r9voy1EpbC2sAkwBh/UJNAh+DzKMin83w/LdlxSBUv6yqClQVqCrwsqiAiRWL6TGCIkNUukAdUdzrsc/2q9/cDK0x2onX1u2Y5PjAuXN49JFXYXNrS82ENr6chXOMIEfDOFLDYhcxl0NzVaS0bTAaI4wS/Nh//ddNGOhGGMpLcHbKKxOntU0LPiYaETXqde38m22yNU6edvm1rY2uRgwECD7AiM0rnVuaI0/2BAoc6+sZiT0vRambkNBcFG2V0GUxOP2BJ8k91e9rpLVMBGgmkdYJm/IS8OFO5miocYjRERJv6rZuhOC3B2T3TCOpjOMFW1Ukw2FzfTvFe/8D2x4InQBxiU6zISaGqY2qB8cli1zGUWzwGhN57QD/LZYCWhEdEAUYOFIwMSXHFDKeYpCTwFSu50OwwYcg58RaJHDkdSwnglb/RrdVTFsHtW0GmjAJorhxlWpQjRheFr8ZqgdRVaCqwCu+AjyVFojmQ2UyBDUGCcnmUI1nNV5wYEEe+/LZtybsfQAoUjy9ewqPveYx9LpdfY1zcNr+ytnQbRRoe8GdjDWzpmKeKYJphslsjr/5t/4WgpjJjyaaExvA5EMZFjnNg3ss/B5+y4JjDJn4rI0j2Bz5vTe6beUM8GMJJkNrhqY/oBbCViIFENSobC2R33eWpSthH0GET0Y8OX3bG2gFENyWh8Vd19CIQsVLsw+eGDjZBgjZADIkarzufWjt3gSbrD0BxGhO9oDNnODNj0B4AzuR2+tlcdEefEmH0KhLS9DkvwpbNKfIVRqj6mu1EGND3YQbCy1yG9XIrllhWAaQ+J2oCWG4FMEVxyf+vcC8ifWLGAR+YyesJKAxlsGAEg2cqAux/IoTNqoCCK/4X0pVAaoKVBV4uVSAv5pDgoNspK4lG2V/SncjBgMLFhDEhsbZuwcIHHxzBMGwno3NTSRxgnqzge2tLTn1+YbAE+6YKYFkFNjelkvM5ilGkwnmmZ3uP/5rn1iFFWlTwlkmS6jogIlnNnxjZpIkNQ7szQQI3iOADZ0z8m67JYDAU69m9XEs6lxhR25NkrN6JiZqK0HUuJkTUbMgHwglLNrj8SJGH+LkH4f8CdxmgVYGeTtS/VGMiMmOKy8HPndjXggAbNvANUlT9om14EiBrEjuzIrM4cAcH+WrQEZCrITdVhsDCnAKxLrQ48B7L7Dxkw0gA6QsCzomzlMkjUQv9mQ6NvYgNAdKrTtS80D/Ba5L+i2NwISLBDa1MNT4gpHbXOekSNIuxjzxcdy+pWC19GuzNbEIfgXU/zz8fzEBBrVEHjhSAAAAAElFTkSuQmCC;imageBorder=default;" vertex="1" parent="1">
                    <mxGeometry x="-80" y="420" width="393.63" height="190" as="geometry"/>
                </mxCell>
                <mxCell id="3" value="" style="shape=image;imageAspect=0;aspect=fixed;verticalLabelPosition=bottom;verticalAlign=top;image=data:image/png,iVBORw0KGgoAAAANSUhEUgAAAggAAAGYCAYAAAAnchq9AAAAAXNSR0IArs4c6QAAIABJREFUeF7sXQd4FFXbPTNbs5uekIQmHUEsVEERK1joHUFRehdpioggHZEOIn7Su1IVUKqg9CIdBJQmPb1s32m/753ZTUKL8n36C8z4+ChkMztzbjv3vOd9L1ft+dcU6JeOgI6AjoCOgI6AjoCOQA4EOJ0g6P1BR0BHQEdAR0BHQEfgRgR0gqD3CR0BHQEdAR0BHQEdgZsQ0AmC3il0BHQEdAR0BHQEdAR0gqD3AR0BHQEdAR0BHQEdgbwR0BWEvDHSP6EjoCOgI6AjoCPwwCGgE4QHrsn1F9YR0BHQEdAR0BHIGwGdIOSNkf4JHQEdAR0BHQEdgQcOAZ0gPHBNrr+wjoCOgI6AjoCOQN4I6AQhb4z0T+gI6AjoCOgI6Ag8cAjoBOGBa3L9hXUEdAR0BHQEdATyRkAnCHljpH9CR0BHQEdAR0BH4IFDQCcID1yT6y+sI6AjoCOgI6AjkDcCOkHIGyP9EzoCOgI6AjoCOgIPHAI6QXjgmlx/YR0BHQEdAR0BHYG8EdAJQt4Y6Z/QEdAR0BHQEdAReOAQ0AnCA9fk+gvrCOgI6AjoCOgI5I2AThDyxkj/hI6AjoCOgI6AjsADh4BOEB64JtdfWEdAR0BHQEdARyBvBHSCkDdG+id0BHQEdAR0BHQEHjgEdILwwDW5/sI6AjoCOgI6AjoCeSOgE4S8MdI/oSOgI6AjoCOgI/DAIaAThAeuyfUX1hHQEdAR0BHQEcgbAZ0g5I2R/gkdAR0BHQEdAR2BBw4BnSA8cE2uv7COgI6AjoCOgI5A3gjoBCFvjPRP6AjoCOgI6AjoCDxwCOgE4YFrcv2FdQR0BHQEdAR0BPJGQCcIeWOkf0JHQEdAR0BHQEfggUNAJwgPXJPrL6wjoCOgI6AjoCOQNwI6QcgbI/0TOgI6AjoCOgI6Ag8cAjpBeOCaXH/h/wUCSvAmHDhk/+l/cW/9HvcjAtwdXkrvP/dji98P76QThPuhFfV3+McRkAPzvQLw//i35/7CvJaXOy1N/8+P/oB8PbVAXgQhr1Z8QKDSX/NfhYBOEP5VzaE/zL8fAXWiVzgw3YDUA+7/eW6nr6fnud3F/z8/37+/Tf/eJ+Q4HsqdGggyteDf+xD63XUE7gKBe5IgKCBZN3DlHFjZ2zr6P/UnN86c98lAVFcndsmSDL/gh+gXEBoWqi5cnL5vvIvxcIdfUfE0QIJBCZACBSLHQ+ICGkJ2r/vffved76YSBK296dlYt+cgE3kBB175e/t8jq54x30yI1bBV/n/weqfbJfsV+VzMThZkuDz+SBJImyhoeCp+/zNbfTfvfed5tAHqB3/OxDvyd++5wgCTXkKTXwcwBMzBweZ42Cg/5MldZwxtq6wSZL9L41A9gP17xWZGPudRb9/a2uqQ1UlSJGREYiPj0NEWDjsoTZYrDZs2roNfp+XUPm3vsK//rm0JVZb7NQ+Q/2LepDIKfB5XIAsg5NkGOzhsPI8JG3x+6doWWBapmcyQgGvyIA2HgT2X40eKBzoT3/HDjVIx2mo8eo4zCanJLEEpPUAVVfYOKTxx/McFHWw/uv7w3/9gExBAOJiY5CQLx/Cw8Ngt4WCM/H44afdkPweKAr1oH/npVAQjePYpoO1FrV34FEVGYoig2cEVW3LB6BF/50N9Tc81b1HEDiwqU+WJfDgYDSaAJMFdpMJfr8HgtfPlk/aUUmKDEmRYDAaYDAaYTKYYDKa4HK5INMk9TcA+nffUn1mDgaeR/36dfByzedht9thtVig8Ga07twHbmcGeMmnD9W7bAyaELNJggKjIsMLBelWK6SCJRBStCTMdjuMkgzvtUvw/noCdmcWQji1T/4T1DMnQfDLEnyyAp/JCsliB2+2ItbvALxuQDGC5wL05S4Buc2vsTelNZ91SQ58iJXRUsKAxpnZZIbBYATbMQt+eDweODMzYTQYYLeFsDH8QCwnPBEEBR3atMZTT1aEPcQGq8UKr6ygXecB8HpSobDx+u+5slUhDoIkQZRkxMbGIjYmls2jLqcbV65dgyQJMBoNIIrMaSpIIPz273kb/UnuFoF7kCCQK0xBrZdexHPP1ECkzQ6jyQjeaMK4afNw9tQxcJIAvyIjIiIcb7RohtKlS8BsNoM3GnEtKQWTJ01FanoGzAbD3eL2//J7gaWHCJDBwKNTx7Zo2rg+zEYjU1Tcfhl1W3SCiwiC6HkwJt+/oSVUvUC9aM9Eekxa4WIwP/cSjCUfhxQRA4PZAAN9yOmE+fJ5CJvXgj+xH3ZSq1jI4e/bRwVEMvIWCLIEV6lyEJ+oBkNcArjQMMTwZkSvW4rko3ugcBZNTfrfK0qMrNJw5A2IiAjFhwM/gMViYQTBYOAYESClQJYVtsB4fX5cvX4Ne38+iD279iAtLR02u40tnv+U8vI3dJc8b6nwPCNDwwcNwIvPVoeJ5h0FyPT60ej1HvC6U6BI3jzv809+gNQCSZJZu+TPF4dWLVug9MMlYbdbKWgFURSRmJyG1es24ceftsFM3T6g2qo67T/5uPp3/U0I3HMEgaNZkZPQuX17NGvcCFaTiXVi6spd+4/DsUO7wEleeEUBcfli8emwj/Fo2dJMApXA4dcLl9Cv3wdISk6B0WC8YWL6d3dqlSCo/9AE3KlDWzQjgmAmkRlwCwrqNu/AFAROpGXtn3qfnNP7P/Wdf9OICAYU1AmP9nWphUuCq9cClkfLQzJbWT8i+YkWSNoDhwoCIi6chWvpHJh+PQKzQRX1AxQj+0kDUnugZe4Oq4AwbwAHr+CD64U6kOq1AhcZA9HII14SkX/WJFzf/QMU6uMBXfh/DFmAIJA6FxsVgYXzZyDEYg2+9o29gogALSxOt5sR9a+WrcKG9RthNJnZAnq/+mYUCjH88X5DBw3AS0QQjDkIQovumoLw/08QcvZGo8JB5jmUKFoEA/v0QrHiRWC2mNlGJHBJsozU9CzMXbAEK7/5BkajmRED9s+/2lPxPx4I9/Ht7jmCwHPkPxDRpVNHNGvSWN09K4CkAN36j8eRQ7vZ7tkjiYiLi8H44UNRrkwp1rEpNe30eZUgJCanMCYfjKNqjazuZXIKuDdP89rG6bbd4k6WHnVXmvtSJVrte+6wZuQUr2l3phKEejCbjOyX3SKHus3awUMEQfLnYPGa9yIXYcgthatL1t0tWLcG4tY4/pWx9FeeJq8daM575fVZ1XSoPn96ZCyE15rCUuMlCGYziyXzCgeaCok8GDSfi0kSEXvqGPxLvgR37SILUmRHZLOpHREKmZNJBPtLIS4WB8510TiQ4fP74KjZCHKD1jCER0LigATJg/iZk3BtzzbIBjIp5vxF9d0C7f3f7PRyEYTICCxcOBM2qyW7GwW6FFmA1CiE+j+KwsZiaqYDy5evwdz5C8EbAi6PgLh9+1bK/ZPc/fav9Jkb+2Je/eLO984eT+p9VLcUuzhVQRg2WFUQaOzSlen2o3HLrnC7UgHZ/6eGxo3PcKdnzp7Lbj9Cs6ee7OdliEoSM1BO+nQ0Hi1dCpyRy54WtQmQhRIUBS6PDz37fYhfTp8BT52NhY70635A4J4jCAaOpkoBnTt3QpMmTWAxGhhBkBWga/8JOHx4N4yCF25ZQL580ZgwfAgeLVMKCpmiAJw5fwl9+g1AYlISzMTkg9O4GndW48/aCOCyZVn6jlw7Ii3N7VadIK/P3m3amToFqROigTegVauWePXVmlAkET6vFxluEQM+GgGv2wFelqFwqlEtMLJpYQpeSmARVP+Gv+tUK1W/CST9BRbW7OWPnvfu5O1bxTKZUeoWu5MbMb+xXXLeK6/P0tPSYubiLXBWfREhzd6CFBbOMA0TBYQmXoLz0jlYiz2MtPiH4DWoi3eEy4GQzd/CsWoBCzWomQWBBYyDxExeNNHKgMKzhZvk2myl5/Y4ZYvwqoKktpkAj+BBVs2mkBu2Bh8WSbdFvOhBwsyJuL5nO0QDhUIC92U5Ddoej0yN5CFQ76cShb+2vOYmCJEaQTCz29CdREmBINBLqoZhk5FnfmGCJTCWrlxPxqgxU3Dg4EGm8pG5Uu07t1/6clOl3P3rv4l/5zUug7UvbjXolexwZWAmYe3KQjA8JFlCv97voFqVShAFEW6PHymZWRg0ciLczjTwivin1pNc/VjzgNzuF3OGym78TO7tQYDQ0HyhUgajgUO9erXR751uKjXlAMEv4PKVa8y/VbBAfpitFtaHRQ44eyURjZu1RmhoCDhJ/AfVyz8Fm/6hu0TgHicIjWHRFIQAQThyeDd4wQOPLOYgCKXZxEnXb3ciCMT0tcmNZTowbVZLFeNyTuTatB+Y/9lCEPiDtjSSW1vLnCByolEO9il1Ys2ejNkEHfjzHbYEOQkCfVySAb8gwe33w+vzQZEVxMfnhwEyS8VTCYG2e6UQiyxBVmQ2Qat52ZzmPqZl425zscndrC5A9ExagghDjbJMCMObQx2qI1qm2LOmWQYc7QxFdT1RaYXmns7Zv+k91Su3LnDjzjLwZ8pDV42t1KYc2/XfKa2M2kOGiKTYQhDqvgFbjRchKkC4JKHIr4dw5vPREDLS4TCHIvbTGXDGxrNYgw0yYk4dgn/RdMjXL4PjSKHKXsDIwmhWFFhFgZEmmTNA4k0QiUywt7kdQeDYIk8plkaZMhbAyIbIK3BIAhw1m0Bp0BpceCRLHFAJwgRc37MDooFnfUG9qJ8RBDKMiggjZWIoZOg1QOQNEANZCH+SKNyJIJCS8e36zZg9dxFSU5OZ36fC44+ja6cOKF3ioWC7+wUR6zdtw+Cho2G126EEF8rcY4b1B1nNXsqmSNSMsmr50LqDwqlURyVR2UyEIUCkmXUp9afU/1ifoDHJqZ4JtW/lJkqqe1/rxdquOciCNBJIm+ZA+jUZiKnHBQiCSmplyKIPit8PlyjA61OgiD5ExRWCkXbnwbbPDj+x97yBEAfM12weYe+h0Tv2yLmfm3qMOoTIB0LZBuouh6lggd9nChj1dxkw8DDxPDhZgTMzA18tmY+HSxRh95AkBT9t34kpk6bicuJVDOj/Puq/+irMZhPrcxQgeb11V1y/ehmcLN634aK7XGfv2V+75wgChRgMENG5c0c00UIMbMJkIYYJIILACR54b0EQ7qQg0OTNQssGI8sQEP3+YCqWyWSCKEmQ6Us0IsCmGm1SoZiigaUyqQOQmLYk0g5eYbsiZtaiiZonr4ACr8cbLJwiEwkx0M5K+wwZuvz+W++SNQWBmbrINW6iDA4zjByZFDnQRtHp9YOX/Cz1jf6h1DM2mRjUzAdZFtm9iSCYzCEQRBGCKMDA5tI/v4PMpkPqYk5mNLq/n3DjaGKi+5vZ/SWJ4svZGoM6a/Eg3mTkCRee4UTv4PML7HdYiiqbxHi281Q/YwBHbSOJ7HvoPWRFNWySkkT3oouc8x6vD4JI3yszr4nRZGJOejJe0ZrAQlW3HbYc3FCQ+GglmN/uBmN0Aowyhxi/D+avpoHfuwWiV0IiZ0B6i86IfKUuew4TZESnXgdWLYJz+ybYtdBPYHnxcEYoVhscPgGKFt4yyxIieQUGejaNjmY/ltrfWNKiLEEwGeHgjBA5A0wchzBZBNxZyKrVCGJDIghROQhCQEEgpSJwH43EGXj4jAa4aZcPA3hBQpSRQ4joh0CsU8NRbePb94k7EQTaba9asw4z5yxEZkYmqHPKoh9PV62K4UMHw263BCnewcMn0H/gaDjcTtK2YaSFipzxTG5QFzi318fGIDNAUl8AYCJzMiOQ6lgUBAF+UdLIFqlsYNkUpLYFYuc+vx8i6xcczCYTw5WlXZLSwhvg9wvayNGINS37PKkfRvZcaso04KXnoQGnyLCF2FhmFPU/IqM0X/j9PpWkaPDRXGDmFVipbkaIDeBM4CQffB4RfhqTLG2b+i7P/qV+rxZYUuD103yh7ldCbCHwuFUDMj0zjSPydaj9RL00GsS+nzJIyDhKPhFKf2Y0QlFU/5U2XlnvMHKIjo3CoyVLoXSJUlixYgUWLVmIkBAzG9t+QcDSZaswe9ZsZLpdaN60Mbq2a4OYqGh2T1IRPp+9BPNmzoTVatVNivcsJcj94PcgQSD2K2kEoRFbGGhgEIMngnDoyG5wogdekTwI0Zg4fAjKlVEVhNsRBJosaIdoD7WjaLGiqP7UU6j4xOOwWWmgCzh85Bi279iJc79fRmZmFgwsh5tjE9hDhQugRImisIWEIDwsDNYQG37Y8iPOnjkPo8UEi9mIxx55BPliY2CzhSAqOhZfr16DrPRMKBIHe2gYihctgMgwO0JCrEhMycQvJ09CEP03RZ2zFQRVtixYqCAKFi6IMHsoQkPDkC8uHrMXr4THkQ4DAULzE8/DHhKCIoUK4JmnqqJChSdgt9tABqOjR3/B9h17cfLkGbi9WZqqe2eSkHNRZTsPWWbvXazoQ6hRvRqeePwxmC0W+H1+HCXcdu7C2d8vwuFwscld3Y0pLOQTGxGBR0qXRKg9BGHh4YiIjsHmH7bg/PkLjAzQRQa2Co8/yqTLUHsoYqKjkJSahe/Xb4HC+eEXZBQqmB8lixREVEQEmwwLP/QQftiyHUdPHEd0ZBiKPlQIVSpXRtlHymLX3gNY8916+Hye26oI5EHIsIbCWaMmIpq+CclgBS8riHVkwP3lWFh+PQJOMcBh5nC1THXk7/EeXDwHiwLYfG6YN62BsHoxzBRX5hSI4JFltiM9fxGYi5ZERIUnwYdGwayI4FOS4Dn6M5RzxxGakgSjQL9DCgH9qrq4e3keKZFxkMo8iojKz8AcHg2D2wXh6D5I+zdDqlgdQv3WQMStCIIaYqAF288Z4LZFwVeoOEIeKw9z8RLgrSEw+AQIZ36B+9hehF76HWanEzxPaWtqPOB2JOFOBIHabuXadZg5ewGy0jPUNEhaJI08Fsybg/wJ+dTFigOOnPgVA4dPRGrydSiiF8WLPoQihQuxfhoREYnofHGYMWs2BEFiZJMW0vDQMJQrVwZhdhtCQ22IyxeHnXt/xi+nTrPdrtsno1yZoihcIA6R4ZEICQmBxWrBzt17cOHCBeSPj0fFCuVRvfpTSEiIR3p6BtasWYfde/fB6fECnOqJIJ9SQr4YlCpZnKVmhkeEwxJixzffrIbL40Z8vhhUeOJxvPrqq6wfp6SkYu1367Hv5wNwud0qgSGFSJZRqlgRFIyLQ1hUFEJsoYiKjcLshSvh8ziZidEWYkXxIoWQEB/H3j06OpoZOtd+9x1b4BPyxeHZZ5/F009VZeTmt7PnsWrNd9o7izBpczvz0BABlyVEhIXh0UfKonyFJ/A4G5tmRpKvXL6Cffv249jx4/B6vXimxjNo0awxCsblgyvLhbc7dUHnbt1gtphgMqnEacOGTdi0cRMkowE1n30Wfbp1ZqEGakPSYdb+sB39e/dDVEy0Zji5T1bJB/g17kGCoArAnTt3QJMmDRlBYE4CGej2/gQcPLIbkL3wCQIS8kVjnEYQaLW9mSCQuU/djdOArFevDpo1b4KYiHBNglN7BrH3TIcLK1d/j6+WLofT6YSi8Exea1S/Nrp368AmLfoCh8OJEZ+Mw5atO2ANsaJUiaIYO3o4YmOi2L0yMhwYOGo8ft63F36/jCpVnsRH/XqgcIF4tsuZsXAFvlq2Em5XFnvPnLv6AEGgzxmNRnTq2B6NG9aD0WRgz+jxCqj/Rhe4MlPAywLb+VDecr3XXkHjerURGx2p7qSIOLDogwKPV8TGTduwYMliXLp6hRGPO0Q5gj8LCLFETho3qIvXmzVGZIRaxTGg7FL6fbrDga+/WY3l334HV3oWIwkU+jBYTHimckWMGjZYxY4DnG4vBgwcgr3797NdGMcbWS79yuVLEGqn9Dl1F7Vh624MHzUJgAfpGQ60efsNtH+rBaIiw9hMRfPj4KFjcObsGTRr0gCvvFwTNqvqrl+09FvMmrcYXq9LA+Hm0S/xPNIi4+Ct3QwRz7/CqiVSjnfC9YtInvYpbFcvsInfY+FxObIoynz8CTIMJqbCWAUBtm2bIK5cAAhOUDAhzWKD69FqsNdpBstDReADSdBqf6SQg8XnAvfrUUgbvoX1zEnwksiUH6PMQ+B5XA4Nh7l5O9gqPw3RZFFldkWB3euEsGcz0gXAWO1FGMIjGBHI6UEQSDlSKBwBpEbFQ6r+MsJr1AIio+BnVSDV5wiBjJCsdAibvgO/ZS0snizwpHjcwZvwpwjCnIVwZGRpipgMm9WIObNmokBCnKoqaQThwxETkJGSCIh+9OzWCU2bNGB40rO5vAIaNG7BdrG0W6Y+VKH8Exg1YjBblAP9dfT4qdiw+UdIgoyr1zMxeeJw1KlVPVgK++q1a5i/aCkEwY/GDeqhbJlSLIc/QIk9fgEzZs7D/MXLYDCrCkdoiBUN676CLp3aM0WCnvna9WQMGz4a8QXyo3Wr19mizjYNWldKTcvAwq+WYenylexvVHVPwZCPBuCFGk8zNYLeO83lQf0WnSD5nJBFAUUKFUSv7h3w1FNVggHLQ0eOYfoXX6JSpQpo0bQpoiLD1XuS7C8r+PX8RXwxax527d4NM5stKDimKhCPlSmN9m+3ZpsCszl3uSz2+5LMyLgjy4HSpUvCbrMx5ZPmunpNmmoqn4ouCwXSRkoU4ZNkvPD00+jTozMKFSzA+hxdm3btR4/2nZAvISG7sucDvLjeD69+zxEEJq1rCkLTJg2ZFMn2mjLQ5b3xOHJsL6AQQRCRPzYanw4djHJlSwc9czk9CEzGZIulgqaNG6FL53awmk1s9JHBiiRNk4FXpUUFTL6c/9UKzJi5AAaDgcUOHytTChMnfsI+R4s0SeQTp07H2nWb4HG70eaN19G+zZtsB0yLssfnw6KvVmPy1CmwhtlR86UXMaBPT4SFWiEIMj4aPg479+2HTBIlk4azHcG5CYIBnTu2R5OG9dkkR8/n9Amo+0YXeLJSwUteWENC0Kp5U7Ru0QwhVtU8xkRjLe88MOhpgG/ftR8jPxkHh8ORZ79mNjJNPXjz9Rbo2OYNWExqLJJkV5JwKaxipJWaB3yShLmLV2DOnPkwceSQkBhBqMEIwqDgBO/2etH/w4+xd//PjCDwGkH4ZsVXsNvN6uIPIgi7MGzUREryQ3qGC+3atUaHt5ohkspMa/6FmbPm47EnHkOViuWZRKr5xbB46beYmQdBIJE5Ja4w0LYX7KUfYS1AS2X8yYNInz0NxtQktZSxiUd6iA3FGrcEBXUoAkXKjfm3U/Ad2AVJ8MMBHmnlKiKsWVsohR4CkQ+zJMIiCiCNyGcyM7xtkgD7ycMQv/0K/IUzbKo3yzKSeRPSXm6ImKZvwAvCRH0WEylElKdOWQweDzh7OAxUqOgmDwI1uQFOWwSynnsNtlfrAaHhDCezJMDg80KwmCGazOAlHhFeJ5RvFkHY/D2szINDSZ23VpVuzmKYBVuwn6kKwqy5i+DMcKjhLllE0cL5Mf3zqQi129hiS5j9fOg4Bn08Ei63h+20e3XviKaN6wWJo8PjR8MmraCGBwTWBypXrIiRIwbDbqU6D+qK+cmEaVi/aQskQcKVa+n4bMpo1K35tNr2RPKzsnDh94soXLggYqKicvkgmX+Go8+40fT1NnD51KwCe4gFjeq9ii4d2zLCwkh+phOnTv+GMmVKsT4XILiBgUPvdPzkaUycMg2//HKS9WWaY0YOHYxnq1dl4Uh63hSXB/WadYIiOCGJAooWKoDePTrhqWqVg2Pw8uWrLERTqnRJmI1EmnNbDQRZxoYfd+LzL2YgJSmZqRU+wYdqlSrigz7vokjhAmqVS1lh6icVNwoPD0eBhHgtRKHCQF4Qqk9x9XoyUtPTsWjRYvUZ2HhSvRwBH4PD7cWbzZuic9s3ER2l+l7onVeu24IhHw5EZKSqZOnXvY/APUcQyGBGFQ26dO6IAEEITFSjJi3E3n3bocg+0MApFJ8P7/XsgdKliql9ncudxUDyIZn2ihQujKmTxiM2NoINiHSHE/sOHMav586geJEieLpyJUSHh7NBkuHyoFefwWzgG0xAgYR8+PKLKYiJCGOTEE0E/5k9H8u/WYvUlGR8OnIYnqfcZ5OaUklVybb+uAf9BgxEdGwkmtSviy4d27O6BukZWej9wWCc/u03tSKfTBNJdrW5bIKg+hq6dlIVBFZ4BUCWT0CdN7rA50gDL7hRskRxTBwzCrHRUWyhJunwxIlfcOnKZcRER6NixUoIiwhlv+uVJMyaswhz5sxjMv2dLnoiepuHChfEtMkTEKPdI9XhwJ6fD+LMufMoWbwYqlaqgKiIcDaxZji96NL3fZw59Sss5AmwmFG9coU7EgTybFjMZqxa/hXstgDB0QjC6EngFC/SM51o1+4tdGzdFBEaQaBnT0pKQVxcbHAnxlQTBVi0bDVmz1usyrpBd3/Ot+XgU0Sk5y8OY/eB4AsUYvJpCCkIe3+Ae8UCiGmpqsfRwDM1RLbaWUU5hgu59UUZBsEHiTMgMSIWxlYdwT9RheIlCBNFxF86g8wjB5FpsUIpVxHIXwSiQUGY3w3L1u8hbFoNOEhtUXDZEoGoAZ/AW6iQmhqpKIh0ZMF66ghcacnwxxeCVKoMRHs4Ux1UguBFwszxzKQoGTi4eTPSS5ZHyFsdoSQUZKbFKI8bhmP74L5wFlLBokClp+G32Nh3xl45B/eXk8FdPgcjs/b/CYLA6iBoBEGDc826jZgzbxEy0zLYIlW4cCE0qFcb9eq8wgg2XR5BxOYt2zBy5BgYzCGMvPbq1h5NG9UHRZnom4kgNMpJEBSgciWVIISGZHsZxkz4DBs2b4Xol3D1WgamThkVJAj0XeQ/pLaURBEuUgEBhIWFsjRh9pZsE6Bg9Ngp+H79JlaB1UYEof5rjCAwL6GWMSUx/4uMTAqfKApi88UwFYF9D8CUrS9mzMbXS5chLJzmFQUjhnyEZ6tXCxKEVLcXdZt1hOJ3QhRESmyUAAAgAElEQVR8KFq4IPr26IxqOQgCM01q3pz09HRYLFbEaCoCm9MU4NS53zHxs8+xd89+WGx2mAwcPh3+MapWrsA2N/SZjMxMLFj0FX755TTi4+LQoEEdlC//WNCb4fL60W/QUBw6eASujCyEh9s1AqW9NMNOYZ6G8MhI9H6nG2o9X4OlmdO86peAEROmYv3qtWoap04Q7n12QLy72vOv/Xln2v/zK1Ofo8WGJskunTugadOGbPcc6Iunf7uI8xfOBfRzhIfaUe6RsoiICFOfnAN+vXARfft+gOTEJFaB0elyYtCAD5hMHnDO7z98FOMmfYaz588joUBBvN/rHdSoUlGtCscBP27bhz79+sNio/hnCKaO/wTlHi4ZZNzLV63BvMVfIyszA1MmjsWjj5TRzFSqE/vI0dPo0e99REWHoU2LpmjcuBGboE6cOo3BQ0bi2vUkNoGq5vPs5gnYpojR08Dv2qldLoJA5rdX3+wCwZEOKy/h1ZdeYLsI9uo8h31792PegsU4c/48QkLt6NCxPZ57pjqb0K5dS8SGjVuwYMFCRhBuV+hEXS4UuF1ODBn0IRrUeU1VYRRg3+GjGDthKs7/fgGFCxfFe+/2QLXKT8D0h+RPuK3bthP93x+EMJudhWeernJngmDkDSpBWEYKAj2TCjGFGIaNngwoHqRnutCeFITWTREZas/dQ0nRkSSkpKXj+vUkXLl6Ddt378eevfshCt6gByHQf9Tbc/BDhLPwwzD2+AhivjhmagxVZBTcvgHubxfBk5me43uys1tUK2B2i7lkGZnVXoCp6VuQKdNBAQp43LDOnADH4f1w0o6/ak1Ym7SGw2omDQIxF8/Dv3g6+HOn4TUYca3E4yjY8yO4QqyscqNJ8CPm2CGkL50JgyMD3ph4KLWbMB+CbDbnIAgTkbhbJQip9jBkvdoC0a/Vg0SYSiLif9kP94pFcP7+OxzR+WHt0R++osWZTB3pykLEpm+QtHIRQoyBdM2bB39OBSE6KgpLqFASKQja9duZcyCJ3OfxMkNhyZIl2ViwUq0EjbBTwaRpX3yJdRs2wxJCJFtBnwBBINmeuwVBAIfKlSpg1PDBbIcfwJwUhA2bt0DwiriWmJlNELTnoWqOF68kYseu3Th18iSo2HrDBnVQ8fFybLyx+xCJ/PobjJswGfbQUNhspCDURueO7WDUdu/k37lw6Qpz9Z88dRqKKODt1m/g8UfLBhdGl9uHOfMXY/bcebDZ7ezGw4kgPF2NmSzpy4gg1GneCZzfAcHvDRKEp6pWCWJIquWREyexa/de5p0wGM14r1d3xMdGB12/V5KSMX7yZ9i0eSvMFiueqvYkPujdEwULxLF3InP1gUNH0L1nL5iMVqYING5cH926dIDFohaaIw/W0LGTsXXLNsh+UmkYHdB6s2p0Jv8HeQ4a1K+L115+KRg2JaEpxelB41ZvQ3BSeW9N6vt/Xi/0r//vEbhnCUJXIghNGrL4e+AKyMu5YMlJfwIEod/7SL6eBCO57AUBq1ctRzx5BIgJixLWrt+MsRMmM6NcpsuH3j27oVXjOrBaTGphELcXjZq9CY9fhDnEhHc7tUejuq8FV4c9+w9h/JTPmClrzKhhzHClSnXqeDtz9iLeee9DhEWEoH/P7qhQvjwTC5at+AbzFixBZibJ/DmXmiC/YX9L7mZyTHfp1A5NGteDSTP0EUF4hQhCVirsJqD922/hjWaN1SOJOQ779h/A1Glf4PS5c+CMRpQsXRqVKpRHYmISrly6Ctqh0L9s8s6RhpkTTzImksxJBxZt+O5bxEREsB+TRLlm/SZMmDQNnIGDw+lD3x7d0aJJbYQQblQYxuNBnUataQsHMvg/VaU8Rg0bcssQA8mpNGmrBGEJK/F6M0EIKAitmYKQkyB4JAn7fz6En3bsxJWr15GV4YDL5UaW08XOBODY4Thq5wiotgGCIHAivMUehbHHQHgjotn32mQJcT+she/7r+BzZOYiCDm3S4HuRgtbOqXgUmihxiuQzBbwooLCWalIHNAVsaIHfklGZqHiMPb8EK58+VlIKcbrAb9oCkz7tyFTUZBSqxmiGr8FgUIupB5kpsP+/Uokfr8cUWYTHKIC5ysNodRvroYOggoCVVLcxghCsj0afJ9BQLHSMFK6ptcNy5rFMPywGgavD4mSCc6OfWB69nm2JIRKIgoc34+Mz8fAJAoQggjlnnDyIgi0kFKcm3wt5MxnRCzHeHR7vFj9/XrMnDMXHq8fEmdiC+mfJQijhw9mC3jgPIgxFGL4YQv8HgHXkxyYOnmkqiBoV3JqOhYvXYVv13yHjIwMuAUR7du0Rrs3miMqPFz1RMhg6t+wUWMQFhGuKgj1aqNLxw6qB4GpA5mYNOVz7NizH2kZmSylsU6tFzFsyKBgKNPt8WHhkmWYNWceK/NO4+lGgpDiUQkC7yOC4NEIQhfkJAhnzv+OTydNxfETv7BaJ6LCY2C/d9G8Yb3ge11LScY4IggUXlE4tGvTGu1bt2ThD3pgSZSwbOVqfPLpWISFR8Hj8aLmi89hQP8+iAhXFUTq43OWrcaMGXPASXToHdNa1Aaj7AmLGeUrlEed2q+iUoXHER4WGpyhyAsxb8lKTJr+BcJMVIqZyMU9s+/871fR+/gO9z5BoPh7Djkr0C1vnIxYGzKC8Dv69uvPCILJYkF0TDSWL1nICoPQ7zjdHixetgrTv5jBmH9apg+tWzdH57dbMLmchRH+kD379v8Yu/f9DIvNjNovPIcB/XoF1/Tfzl3AgMFD8dij5dC9S0dWhtbvl4JhhsSkVIwYNwWZmSn4ZOggJMQnsJBIYBfgozS4W8jfqoKQN0HwZ6Qi1Ay88XpztG/dKljoxOl04+jxE9i6fQd27tmLq9cTERUVyYyVtMugA2QCqoVaKuDmQc7qGxg4xERHYOVXC2HU0hEdbjcWfrUCX86YjdCwMKSlO9Cu9Zvo2KYFImkSItx4oHPvQTh+7ChLXXyaEYSP/xaCsOjbtfh62SokJ6ewiZVMWyR9Ut6/2oLZNQdyEwSAggX+Eo+xEIM7IopJ0zZJQtzm1fCtWwo/EQRma6B7BZLL1PvSnelvyBSYFBkL8xtdwD1WBZKBR4goo/Dlczg5qCcSLDyLlTvyPwSpw7vgipdl97PLIiI2rgC/fhlSr1+B2G0w8OwroHK9lMBXKOkSLPM/R9qJYyBuTMa6rJoNIDd6I0cdBAoxTMTVvTvg+0NpSixQFLHvDYMzLIplWkQ6HHAsnA7/7o2sIqRLscDX4G1EN2oKP6+my+X//Rdw00ZDTEu7a4IQiEPnGotal6K0xWUrVmHFylVITUsHZzAGCULvP6kg/FWCcPHKNUyZNgPbduxkJt90l5uFPHp1aouE2Fg2RVBbr/j2O0YQ7GGhsNusGkEgk6I6R5DC16vv+/j9ynW2iaDwYLH88VgwbxZrfNUwTF6jZZg1ex5MVCvgD3/KXyYICrD/0BEM/HgoywKikIdsMKP2i8/io/591GVJAa6lpDCCsHHjD6wPvf32m2j/Zks27pjqKclY8/0GDBo8FBFRMeyo6VovvYD+7/VGeCilXKojYuaSVZg7ZwFkgay1zDXCxonNYmZKI53HUKRIYfYcgSnX7xfxzdp1mDF3EbIcDphY5otOEO4XznDvEQQtL1xVEBqA12L7rIcTW9ZahukKN1Q/vJEgUG58xUqVMHHcKHXhpV1ulgOz5i/G3HkLEB4WgTSngAb1X0avzm0Qny82SBBmzf8a0774D2yhNlR54jGMGT4EIZp0mpaegZ59+rHUp8aN6iPEbMbJ02dRtkwJlYQ43fhq5WqcPnUSwz76kEmuGQ4nPhoyHD8fOMxqMdwq7ps3QfCrIYasNIQYZbzw7LMY9H5f1VylFSIghSQ9MxOXr13DoaPH8P336/Dbb2cQFhqplVwJVFO7fRcn4vB0tSoYO3oYk70J+jRHFmbOXYj58xchIioaGZlutGjcEN06vol8WgYH3XHarIWYO28eQuyhqF6lEkYN++h/ThBoMh42djKbFM0MS5nFi9UlPVClL0eVzBsCOQJE+Is/CkP3gfBERLNpkhSEmC2r4f9uGUSmIKjWPU181cBSa+jRN3g5IKlgMYS06gxD6XIQOCBEllD8xDEcHNYb+SPsbOLOKlQcvmbtYS1Xnjm/bYqEmKN74F78BTJPHIZ92OdwVKrO7ipxCgpf+Q3maSPhTkxm+zSP4EdWzYaskmKgUFKC6EX8zAm4sncH3CFWJJUqj4LdP4CDamYAsHp9cB/dD9/VCzDwFEs3gC9cFhGPPArBbILAy4hN+R0hcz+D88SJYF2EG3tEXgqCT5SZWdhs4Fi6b6ACJN3nwKGj6N33PbVuIiuaRZYbC/Pw9O6ueRDyCDHcDUH4bPosRhCIMKa53ahb5xX07dwe+fOpaZd/iiAkJqF33/44f/EKOySOQu4qQZh9C4IwXyMIf11BoH584OBhDBoyDJkOJ6ujIhlNeOmZqhj+8YfqwMtBEDZt/AGWEBsqlH8cA9/ri4cKxqvVKf8wYR//5TQ6d+vOCA3VhqA6Bh07tAn6l0RFwYBhn2D37n0QgyEGNaRaukhhDBn4AYoXLxI88pnIX2JyKubOW4htO3aD1BkaayzgxopV6QrC/UAS7mGCQCZFIgjaAbsKcOLXc0hKS2GDhhauMFsISpQoxuSwmxSExCRWGKV+vXro07cni6PThJeRkYUv5y7EwgWLEB4ehUy/iJdfegZ9u3ZAwfwJwUlk7cat6Pv+AERERqL4Q4UwZewnSIhXdyF0at2nY8fhpZovoWrVKsyUNHHaLHTv3BYWIw9SCGgXf+L4cfR+pwdj+b+ePY+Ph43Cb+fOswJDt7r+DEF47c1OEB3pUPweFC5UANMnTWQmxUChGLZ31gxHHp8XScmp2LZtB6Z/OQtGowVc4AjeQFngGx6EWUQlCa83b4Te3TsHFEgkZ2Vixuz5WLzoa0SQKuH0oe4rr+Ldrm8HcSEm8M3ajRg0ZAgiY+NQo0oljLxNFsNdhxg0ovjxyHHYuOVHVj2P7e2DkxarxnBb4x0t+RInIatQaRi7DYQ/TvUO0OIeuWs9vN9+BS49nd1D4mSYZcAiUz6CBJmKGFEdS45DJm9AUunyCGvRFoaHigcJQoljh/HzsH4oEBUGRRaRmr8wvA3bILzKU4x8WmUZ0eeOInXORHiPHoBt5Axkla8Ko6J6HQr9fhLmTz+A4Pax3b5b8COzZiMoNxAEMile3bsLGXYb0h5/BgXavwO3VpyKvkgU/ayyZsDmQoVzKK1RNqpVJ8OzkmBfNg+ubT/AykqS33zdiSDQfTdt3YlFX61EieIF0eHtViigjR+609VryXjz7TYsVY+RN5mHwlPhIqB393ZoQibFv50geFCv9svo26U9Eu5AEBrWrc0MwUEFITEJvfr0Zz4ECtWR+lg0QSUIVCMst4KwQCMI8l0pCD8fPIRBHw9FlsMFo8EMn5FHzWeqYsTggVq+ckBBmIrNGzfDHhrO2nXUsKF4rvqTwQwnyhDavmM3ftq+A8WLF8NrL9dCgfzxwUb9/co1dOr6DjNos5CQokDijDBaraj7/DN4v887qneCnSUC7D1wCDNnz8eZs2fh8fhY9gSrUHqHkXU/LJgP2jvcwwRB8yAw55BKpvt88Ak2/fiDWjhJllnBlTHDB6Js6ZKaNp8jxJCYxH6pfbt2aNv2TfZzlSBkYsachVi0cAlCw6PgVoDnnq6Ift06oXChgkGCsHXnXnTq3A2RsbFIiM+Hj/v1xZNVKqg/l2Vs2fojSpd5GIUKFUSWy4fajVph7bIFiA6j423Bag6cPXsez9d4hsX0v1u3ETPnLML15OTbOoDzIghOHykInSA7MgDJD6vFjKYNG6Bjm9ZMUs1VEVpTWwg3qty4//gpvNvnPZiNZhgkVSK81R6Adl5+nw/du3RAmzdb5CIIX86ej68WfY3wqEhWSrbmc8+iV7c22RMRB2zesgNd3+mJhMKFUKNKZYwcNvgvKQj0TGodhMlExbQshhweBI0gDBkxFpu2/KiV0lUYQVBJYoAg3G6oq3UakuOKwNR1IORChdnzWSn+f/AnOOjExpRUNhnSjp52wOQDEDMyIJuNgM2OCAMHiQeSyz6JsGZtYChchNVDYArC0YM4MOx9FIwOAxQRyfGF4G3wNiKrVmek1ijJiLp4EldnjoXh3CmYBk1G+mNVYJXVhbvohVOwffIevH4Rbo6yAEhBaHSTgpB/5jhc2bML6WFhyKr8IhLe6gQXFfeiGhqyDLsiw6IF75lRPlClk4zAioTQjDR41y5H4pbvEKqdFnojYnciCITLqrUbMGveUvg9WRg5ZACqVKygppxyajrwJ59OxOrvv4PNSrUMyAxpZrvdXt3bM+WNFS28g0nxv1cQvGhQpxZ6d86LILzG6iBQGWK6rgUIwuUrLDSiEoQ4VgDq1gSBPAjSXRGEAwcOMUKdleWG0WCB18ShZo0nMWIQEQQ1/VoNMUzF5k0/IJQIgiIjLjoGk8aORrFihYO7fqph4PX7WRVFMgkzokx9yOtnKc7bdu4Gy86QFVZcS4ABBqsVw/v3Ra1nnwo2/9FfTmPClM9x6tdfWQXY+/kkzgeNENz4vvcwQVAVBKNGECgP952+43H42D7Iih8+UUT++HwYN3QAHilTSlscchMEkjZff70lunXtEDxAhnKOv8xBELJECbWee4opCFSxjxEABfhh+2506doD+RLyIyzUjjcbN8Dbb7UKkpXU1DTYQu0s7HD64jVUrv4Sdm78Fk/QwVEyFSjysUkyMpwyLBR8OXMulq1azWLKqhx+8/VnCYLkyAAv+thzhttC0bhhXTRr1oh5KAKxw8ChLwESQKRmw9ad6NWvP/JFkkNaq+16w2Owg2cECe3eaomO7VqrYQlyMWcRbvOxhCkIUfB4Zbz84gt4t8tbyJ8/Loj/+k0/sfhtvoIJqFGZFIRbEYQDLH1KNSlasGrZ4j9vUtQIwtARn2LTlp/YDpXSYgM1+tVE8sAZCbce/qLkR2L+khDe6gN7mdKsb5gkGfnPHsf1LycgJCWJ1b2g8xBSTTZ4y1fDQy+/Bk+WE57kS7D/sh/cyaO4XqoybM3aqgSBQgySiGJHDuIgEYSY8FwEIaJadTbZmyUFkedOIWXWWMi/HYV16DRkPvYkTJp34qELp2Ae8x78PpGFMUhBIIIQUBBod5df9CL/zPG4smcn0kJDkVnxeSS83QUeTUEId2ZC/PF7+E4fAReo0a+yJ7WIFRRY/BxMqUlQMlNznEyZG6+8FISVa9dj1ryvcfH8WZbf37J5E9jsIewmVGfk2ImT6NytB/O+kDdE1kyKAYIQKKTkdPvRsGnOOgg5shhuNClu1kyKyTebFMmDkCvE4PGiYZ2X0btTO8TfQUFoUOdVVnOEirIFCELvPv1x/vIVFg408hyK5CeCQAqCOh6yPQikIPxDBIEpCGFq1Uq2yEv44ovP8fDDpYJ1CXLWJ6Bp5npiMv4zYzYLu1AKNp1PQReFogSZh8FqwcQRQ1Ct0mNqGqggYvp/ZrEKjlSMjvWagDz5oK+m9+H734MEgXizgq6sDgIRBHXQqgRhMg4f2w1ZplLLAvInxGL80EEqQdBWxtPnf0e/fv1ZURGeN+HFl2ri48H9WLEl+giFGGbOW4h5cxcjLCIK6R4vGtSuiV5d2jGlIPBdK1evx8fDRyE8PII9w6svPocP3+ulHn6kmX7U+CqwasNO9Hi3H6ZPHI76r9ZUBW4tfkgfz3R7MHrMeGzZ8hMzTv7PCAKtFuRIlgUUKJgfzZs0wTPPPI3o6ChYLOZc1d9oM5mYnIZO7/ZFcmIKK/2a0/wZ6PtqfXgZNGm+36dn0KKXSgRh9nwsXLgEkVExyHL7WQrkO51aIz4uRuUbHPD1N+swavRYhEeHs0JJVDwmML84PR4M+Ggo9u47yKrNkfnLyuogLGFmsYBncuOW3RjyyeRgHYT2bVuj41tNEZEjzXHQiLHY/MOPmrakkh31MJ0cjtbb0DCFV5AeXRCu2q0QWuN5dogRmftiky4jZcpI2K/+rp7ZochIMRiR1qo7omrWAidRLQMfwravg/ObRUgqWAqmFu3BFyvJvDGhkozCRw/i8LB+TEEwcBKuxRWAt1E7hFZ5ii2SdllB3OnDSJkzAe7jB2D/ZBaSKlRjZ0GYFAX5L/0KeeKH4LNcjAB6BQHpRBAavQk+PJIpGqwOwqyxuLJ3F7IsNqQ++iQSuvSBjzexTIlIZybci7+E/PN2hDBDGcDTsQKKDIml8pLEzMNIByEFAt23wCovBWHl2g2YOWcJnI4MFCkQh+FDBqFokcJMGaAjH9LS09Hvg4E4c+a8euAjFRb5ow7Juz06oknDekHFK4sKJTVtyUJzVFCI2rCKlubI6iCQD4YDRlOa4w9bIASzGEahTs3sne+tCEKDOi+jT8d2iI/TSj+Dshi+w/DRY9hiS/2ufp1X2NHqrIiaAlxlCsL7GkEwMbJYlDwIc2fdpCDMZCZFquFxOw9CR/A+J0S/F0UKF2TVCZ/W0hxVDwKFGIYgy6EqCD7jzQrC1YCCsHEzbBpBoGyVd7p0Qv0GdVi55ItXruPQ4WPM50KZW9evXcfRo8dx4sQJVnadUpvZQXXa5oSUQoHCZzYrJo4ZiQrlHmY9ID0jAyNGfYrtO/eySrG3y3a6D9fKB/KV7j2CQMc9K7JGEBrlIgg9+k7GkWO7ICkeeASBFTGacFuCkMoMRkWKFcfcWZ/BxMrXAg6Xi5Vj/XLGXCbXpblcaNm8Ebq3b42Y6MigQjB28pdYumJV0FD4VJVKGDbwfURoBUbY+q8FeN/7eAK279mPWtWfwLBB/dVCKeyH6mL16+XLGPnJeBw9dJQddHIrg6K6v7tzFkMgxCBlpYOT6DAjTj2o5w95k/wWPp8fofYwvPJKLdSs+RxKlSgGuz1EPRRHAbKyXBj3+QysX7dBLbByiyADLbK0cJcoWgRzZkzTTqYEMp1OzF20GDNnzUV4RDQyXF60fp2yP15HdJRaHpau4eM+x5q138NkMeK5JythxFC1kiKRBJfXiw8+Gord+w7BTKWLDQozt327gghCCJNuCLWNW/ZqBMHDqtoRQehABCEsuw7CwOHjsHnLVu3w7mxSkH1W3q3HOwu5cBy8VjtcT70Me4u34TGaYJHV45yFLz+B7eRh+KnU9h/1OK47HRCGT4dc9hG2gIf6BVbsyPHNQjij4mFr1Rn8I4+DjtOxSTIK/nYCx0e8h/xWAzviNzGhEIQ3e8Jc9nEYZA5hEFFwz1Y4ls1E0pnjkAdNgbPaCzDTuQxUzTHxEvgZn0I8d57t8ryiH85XmkKs3xKKluaYT/QgfvZYXN2zC36zDSnFyiK670fwGEPY74T5nFC+ngnux80wyiIk3gifyQqnAYilUsaiAFGRmHysXrc2nP0pgjBvKbIyUuBzZWH0yBGskqDVYtR2owK+/8N5//HQEQgNjVDLfCsK3u3RGU0aqnVJqMdnen2agiBAEkj45li4gkotUx2E3ARhKwRvdppjnZduTxBSifzXfRl9OrRTPQjasFzx7fcYNnoMQkPVLIb6dV9Fp/ZtWUEluq5SFkOf93GBQgxGlSAUz5+ABXNn5jAperHo62WYOWseq6TI+v6QQbnqIKR43KjTnAiCC6LfpxGETni66pMq6pTFQAQhR4hBuIEgUMsQQRivhRhs9jBYrFb069ULtZ6tDrPFyKpCtm7TGb+eOQOf1wOTycwytOi/ZGKkL1IzTbLbmR2Jp8js7IZ+vd9FWarzosgsK4jG+IkTJ1n65u36xgO5mt6HL32fEASF5f/26DcJR45qBIFCDEQQhgxCuVsqCKms3jrtBNetWQ6bxcgIAsXolq9ai8lTpsNstiLd5ULXTm3RplUTdjAMMWaSrVu374ZLVxPV0xAFPx4pVQLDBg1A8aKF1cFNhRAVMLb+Zqd3cSUxFYVjw7B43gw2weU81HXr7r2YMn0Grly8pFYhu831lwgCO4vBiFCLBfYQM+z2UKSkpLNaAH7Bx/6ufbu3WayXkRIFcLk8+M+Cr7FwwWK15sOtCAI7dIdOt+Owcc0qddIkSdXvw/JvVmPylGmwhoQi0+1Ft04d8Fbzhgi1WRmzoRLMLdp0ZTswWnueI5Pi0EHsbWkx8Pj9GP7JOGzdtpdJpKR8xMfHYvH8WWoBngBB2LoXQ0ZPAae4b00Q/sB94Ihx2PzDVlaLIucVDLHcYTCTGiVyCjIeqwpr254QIqKZPyBUEhCyci74H7+H6PXDZzThoj0GUUPHsnoJZDCMogyHdcvg2LAWvtAwmFp2ACrXgGw0sncqmHQBFwf3QbzkZlXpkguWBLp9CLngQ2zxjhJ8CF+xAMpPa5Hky0Jq826w1mrITqikcxNi01Jg+upLuPZuR4jRiEw6PbTe6+BebgzZGsIMZHGiF3GzP0Xi7l3wc2Y48heE5f2hcEfGMUJnF70I/WYh+E1rIPpccPEWpBQpi0L1GuD6z7uhXDyHsIwU2N1UKDqgrd1MEv4MQSAPAiMIbicrK/5Bv56I1AqX0fj47fzv+HDQUFy9ep0RZxoXKkEgBUFV46i+R7NWb7NUP+mPPkKfq/H0UxgyqD/rp/9OguDDoq+XagRBXUhvSRBadADvdecgCLkVBCIIHxFB0BQEOlujVg4Pwo0EgY4Yb9S4ETq3a4O4GMpMAlw+AT1798e1a9chSSKri0CqQeAkVxrnKvbqYWr0rFREilQv+nNURJhqUFToyGiZ1VGgw9j06/5H4N4jCMyaI7NKis2a3KAg9JuoEQQvPH+GIJgscDidWDx/NsqVLs4mI4rB/bhjL8aNm8yKqSgmE97v1xN1a73Azn2gSY0Oa2nc4g0YjFb1THmqspcQjx6d2uGlF55Re41GECjG90aHLvD4JZh5DmuWL80Qkt8AACAASURBVEa4LfuAGTIFzf96OeYuXAK/13fbEwa1W2q77dsVSlJNimJmGjhZQNlyj7Iy0c9We5KRgMVLlmLDxk3w+bywmAyoUqUiPvpoACKo2BEpCA4XxkydiY0bNqpV43IlsGt7SXYWhgKHIwPLFi/CwyWLsd8lY9SP23fi03ET1MnMZke/Xj1R58UaDDciTJcuX0fjlm/BZAmBwcgHz2IIEATCYtHSFfh2zXp4XR52EE+9erWZgsPK2GoEYcPWPRg6ajJ4zaSYU0EIbII+GjkOmzffDUGgJUqEKAMZBYoDLTrA9FgFdpytmeT/syeRtmQGuGu/w220I6PKi4h9oy070MmsyIi9+Cuk5XPgOXYIAh2pXK8F+JebgLOFgY72LuhJh2vkhzBfOgM3xyH9saoI6fw+BHs4zAqQkJEO7+zJMB7bgRSLFelPPIeoNj0g2tTFP8zthnXrt8haNgthBisSo+KgNH0TlsrPQjYYNYLgQ8LsMUjatQsiZ0KK3QKu4/swPlEFAguXyIg+sBO+5XOAxItINdnZe9pq1GImwrCrl2H4fgkcu7bCYjCrp1/dgiz+KYIwfyky05NZlUgiSP+ZPhWlSxcPGucovXfBoqWYM3cBbPZQcIqMd3t0QVOmIKh0zv/HuRSjxkzAnj372Z8LFSjIDlt6pdZzqnM+V4jh36Ig/D0EQTTkDjGoBCEZ4yd9xvo7Me1Bgz5E3ZdfhNWoFiijcZWYmIrjx0/i8tXLLLxK515kOR2sBLPT5YLL6UJmZiZLaVXHkHpIeUxMFKuZQGOYjT9FwaHDR/Drb2fZvKeHGO5vknDPEQQ1HVEttdyMDmvSdty06+vRbzyOHN0DSfmTBMFoZlX1Xm/WFL3e6ayeigjg0pXrWLVqNY4fO4aSpUqiebPGKKYpA6KsYO785Zj2+XQ2obFdNp0GabOgReMGaN/2DdWHoJXi2bb3IPp98AGMvIXVH1i38msUK5Q/GAmnuPtnM2Zj+cpvWX5yTpnvxq6Xl4KQ5fPjldZd4E9PgUER0K5dW7Rt2QxmdrCSwqqxEUG4dOkSK5BSt14dVP7DKMgkUMqsSExBz/4f49rly+BkEsVvJS2rOwyf34vXmzdFzy6dYNVc7r9fuowVK7/ByVO/omTJ0kydKFmUYs4ck9hnzlmI6f+ZDbMtBCazEdUrlsfo4R+z3UnAkJacloEff9rBDroqX748Hn64JEsNVUPhaliGlVoeNVk9rOmGEMN/TxBUAkoLqcMSCv+zL8NavyUEm50pTKGCAImqDJ46BokLga1mXSBW9ViE+TyI3L8VrhXzYHRkwqtwSC/9BMyvd4LyUFH27JGCF4afNuL6zzvgN1thrv4CrFWeg2AwwE61Fo4ehPvrOeCvn4XLZEZieALiBn0CZ0wMO5bDIskIuXAazrVLIKZlwlfqcZhrvQYuvgDDiAo0xYs+5kG4vnsHFIMJWRYenqo1EdmiA9xEzijM4EiHY90aeM+chD8uAeENX4cvJo4t4kXSk8HNHgfH8YPgTVQW+dZpoX+WIGSlp4CX/HA5stDrne54vWVzVXlih6LJ7AjuocNHwe0lf4GC7l07oDn5i6h0odYLKR137drv2bHmVLukaJFC7MyBgEBEPYMd1vTDnQnC1Omz2NHtrA4ChRjIpNixHRLIg6CVDP/fhBj+SYJAIYbPsHnTVhjNFvTu1QON6rwCW+BMFap8rE0egcgmVbikIkc+vw+JScn4+cBBbNu+Ayd/OwtRJP1AbfYyDz+MyRM/ZWEhhvUfXpzPvpiDlau/gyR6mZfkTj6V+3v5vP/f7p4kCNQhAwTBnIsgjMWRo3shKX54mEnxFiGGC7+jX18yKabCYDCxssV0FPCI4YNRufLjbKKnEEJmeiZSU1PYoUbR0ZHgybWuAKfP/o533n0fPo9HY89qvXgqL1rntVro07NbUPakHd+kL+dixcoVUPwKkrOy8J8p4/GCdpwrda/L165j4mfTsfXHHXkekhQkCOQD+CPPvltntdQynVlAFx3WFCAIRk5EiWJFMXbYEBQkc6WmjrDsCa+XlTAOCbGq/gPmKpexat1WDB8zDjaqz84Iws2XavKTwdEpmjyP8aNGoHLFx9nfkmyZnpmFtNQ0xERGISIyguFGPzx15jx6vPseKB9bYmWOgXKlS2HcqOGsKiNbgrRz5RkZ0IyebreHndhHE3qAr6zfuosd90ynJtxIENiC8sdCefcKgpruStY9LwxwUnnipm8BZR5jhy/Rc9KJjbwoQuGM8Gqlvs2kWF29AOGbRfAe3AcTM/spyCRjYO3XwdesC8kWynwLJskHX9I1SDIPLqEA/BTHhoKYtERIq5dC3LcNZsHNnuEaLDC07QU8+xwUMiqScYyMeimJcKemwBSfHxKlttGCazSxMEQ+SUD+WWOQvIvOYjBBgAxngSIwvN4RctknIHE8TJQx4ciCOyUZfGwsxPBwCDyHOJ8XsXu3Imne57CRP4FMqf+FB2HW/KUgggDJy6pu5o+Lx7SpUxBDB6NpC/KV64ksu2DjDz8y1eDNlk3R9u2W7CwV+lCg3wfalqqO0tHPZBpkJ4ZqJGLMeJUg+H2aB2HSyJtMilM/n4ltO3axvksEIVcWg9bnVnyT7UGwkQehNmUxtGOqG9uxX0tC7379cf7S5Tt4EHIShNt7EOq26AB41dDJrUyKN4YYcisI6i5f9SBMw8aNW2CyWFH+iXJo1aQRKlcsj4jwMNUAeouxHKT/7KRG4LezZzB20uc48cspVlyN7v4wIwhj1TlBOxVzyhdzsWLNd5AED1NUdYJw/xKFe5ggqFkMRBDY4sQUhBsIQnwsJg4dfJsshlQYSIJjFm4OjzxSBv369mTmu4C6nnNQ0UC4dOUaPp8xC5u3/AQrqzmuKQWcAp/Pg+eeeQofvNcbcTHR6qIrK+g5YDCOHjkMRVTg8Avo9FYrdO/wtvqbHPDzwSOYMv1L0ME2tx7G2Z0vN0Hg2WErTRrVDRIEp1clCGJmKiD5wBsNaN6gPlq/3owdrBLYXbP1V/sDOwpWkrFj30GMn/wlLl+5DJOZdma3NqbRM5K7XeE5eEQ/qlWuhD7vdGO43XgxeRNgBWU+/2Imtu/Yw07bIuMkyZPRkRHo0ak9ar9ai9Xq1zYowf1qUnIavvl2Ddq0bgULc5CrmQjrt+zCiFGTwHN+pGU41cOabmVSvEsPggKqCEdFhHi4rHZ4y1eF9ZUGkAsVgd9ogKCdCkgTJilaoYKIfCmJwOY1cOz6kR2hTGyGCAwVrXHGPQRT/VZAhWoQQ2xwGyjRUm1t6rekCkRnpcO0cwtcW74HMpJg1g7LccGM1MJlENW1FzxxBRkBoP5JhyxSSCPKkYHMI4fhL/wQ5KLFWQZCvCgiYdYYXNu9HdCqcnotFjgfeRLWui0gFC4Cn6baMOLIEj+BMFFAwpnjSF70BbjLl2Ggunhc4MCemyfBv6Ig0AmrFA5wZWZh6uSJePppMuKp1Tb8goxVa9ZjwuRprA+UK1MCPbt3whOPPaoaFwMaBuEuyzhz7iIOHzmKenVeZd6UgIoQVBB8Iq4lZWHqpFGo/VK14OLISi1/PgPbd+5iKbRpbo0gBLIYggRhHYaN/oSZFG0hlMXwKiuUxI50v9GkaNJMigkJWDBvZnAIszTHr5dhRi6TYo7DmgAke1yo17IzFLcDsnAzQaAv26eZFDOZB8EM0cCjZo2qGDHoQzUMoHC4lpKKcVNUghBiowqdPrz0zDPo1KENihYrAjrz4siRI7BabQi129l7Ufq1PcQKq8WSnabIkQF4OwYNHq4pPArKlFYJAp2nEiQI/5mL5Wu/g+TXCcL9Sw3UN7unCAI9sFZnBe3atkH9uq8x6cz/x1GldIbCyHGzcPr0ESiKAB+dWBefD8M/eB8lSxZj58h7PV4moU2aOAUZdAQtHVXKKoPR/l9CpQoVUL/2a3iyUgVEhttZqIDWSYfLjYOHjmH9+o3YtW8fREkCzyqiqCBSjr3g9+ORRx5G104dULIkxViBTIcL/T76GFcvXwYvU/EcHhXKlWUFUwL7si1bt2HmnPlwutzBeN7tdmw5CQLJr2QyrPPay+wZvF4vUtIy0f3DYZBcDkAW2E49IjQUL9R4Bi++8BweefhhlofOitVQbJcm0sTr2LrlR3y/5SecP3dFmxhurR4EBgMrr0wZlCyjBCzlrF7t11C5cgVWE0Itnasgy+nGwSPHsHrNd/j5wCG22yCvQuD0AhIvyhQvgdatW+LJKhVZ2hSFQpxOFw4cOIwtW39iC8G8OTOZ3Oz3C3C5XczEOGvOYvCcwM58eKt1S7zZshGbzClTg35/8ucz8POBn2/aOf0Zk6IcJAjUxDy8tlCIZcvDWvUZGEuUgmy3qQdm0cLq8/0fe98BJ1dVtv/cO31me89md9MT0iENSAiIgHSko0hVFPj4VIpg+UsvgvpZQBBREcUCiCAdKVLT6KRD6ia7m2yv02/5/95z7529Mzt9d5OdyRl+Idmdc8895znlfc7bDqy7GqGsfAvhj9cAPq8WDqPnsafTFeVZDIxrgHDosShauAhqRSkki43NAWswCHtzC0IfrULwo5WwdHSwZ+k7LQDRigERCCw4HKXHnAKxvgGCTUtmZevrhvj+u2h/+01Ylh4F12FHMqJV1N8H61MPY8+GT03zVEbQWYTQrEVwHn4E7JOnQCWzCZ3AFRXOgT6Im9bD/+5/ENi2EQ66PUzXFiWLqqE5QY61paWl+MOD97M7NighD9m4X3r1DTz97MsszJEcTulDUQiHL1mMn//sLvT19WNnYyM7sX74yVqWfpk0WRZBwbLDFuNrX/sKpk+byu4wodwh3d19WLFiNV59/Q1W140//j7sNhtTk3t9PpZobCXd1BmS0drWg5/dcyuOPmoJcwYlU+L2HY149O//xKfr1jINHF0edtKXjsHlF1+AivIybe54fXjxpVfx8F8ehdvtZnPq5BO+hIsu/Boje4GAH7t2NeHn//drNLe16omSRDRUVeGh393PnADprgO60Onfz72Afz/zPKzMF0DFj394Aw5bvEDPg+JHU2cnrvnR7VD95KQYQkPdeKYVXLRgPnNuJu3ZBx98jAcfeggD3gBLtUwahC8sW4IfXn8dwmF6Vwg7W1rwyKN/x5o1H7DIgiMOW4TTTjgOCw+ZD6e7APc+8CDzGyCnayJpNF5EECaMr8WJJ3yJ5Ukw/D06ewdwxllfZfgSGZsxYzp+8pM7YKdbPRVy0Fbwh0f+jhf+8wrksJZrhXZPHs2Qn1Qh5wiCoZecPGkSiouLWEKSkET2tBDaO3sR9A8wb1sSUA6nA9OmT2UqMArvoRzjZHdr3dumZdjTLxrS5LyWFY/ioWtqqlFXOw4Om5Ut1Na2DuzZ24q9e1vZc4anr9lBh/5NdypUVVbATSF5lC0uLKGxqZltiiIlgqGMfHY7Jk6gnObk8ANmymjr6IwocQevWI0/4TSSoHkbT5w4AQUFbkYOaFMmuyKdkmhDNG6OpHY5nHZUVFZgfE0NKisqGAkgfOjeid1NTWhra0dPXx9sFkroQrAkdz7S8gnoHwqREgRUV9eguqYa42trWA4DGg+qt2XvXuzZs0cvTCOhh1TppgByfhpXU836UlpSzCIdWtva0LJnL9pa21nu+CWLF6OnpxshSWKq5YGBAXR3abdO0s8TJzSgvLwcwVAIYWZXDaG3pwsDA3QrZuYfrX/arND6qSJkd0AuLoFQUwfF7YG1oABiSKLQD8h7mmHvbIcQIs2BVt7IRMluv9TNL+Gicqhl5XBUl0OyUR4FC0RfAEJ7K9DVAdU/wHLZG3Vof2v2f79VhFBZA2tdA2SbExayE1M4a8suqL09QPU4oLQSYW8fnGoI1p5OBPx+bbZQuKvWLIRtDsglpbBUVgFFxcwsYZFkWHq6gbZWKF1tsOhzc7D3Q3VbuhUoMq6UV+Pg+QvQ39fH1gz96esfYH9kSdKvYKe5IrL5cdSRy9He0QFKKNbX38echUn4sGZSymmHHXX14zFpwgR43G4EgkG2BpubW9DZ2Qm6Xnry5ImMMFLCHpoHnd098Pv8LBcwlZ87dzYzo5E/C3ns0989fb3sRE0fIvo11VXsCuNwMMjWUJDuqfD50dbRwTRzND+rq6pQXlGBAb+XHTRIKNPcpvIMX7pDw+nAvPnz0EOXW+n9p/XV09sXccicOXMGSwBGbQuFQyzpEEUWGIKX+jlxYgMjPf6AH+FQGAGfn4UWavuOyMxW5RVlmDhhEsNakiX4g0F24RU5HE6dNBHXfecKLDpkPiMCPl8QJ3/5bEZ0KUU65ZEgEkPJnUoKPbjqf67ASSeeoKW1pnti/CGcctpZUEULwpKMwsJCzJk7G4Ew4aIRmfb2TkbuGDtgH04QMt9lcuOJHCQI+rZJp1RZQVgmQattqnRrGtnOIoKbaQBUtjmwdKB04mO3r1niZv9i5z5Sn5Mgd5GQp4tOFIQDAe0SHhbqo2f8MV0XbAw1C4GUSDU9KAQp1tisEaATMi08g+jQic9CaZCjBEP8TIqxU4o2Jtrk2Aast485dulOkpqY09orkd1cFFnWOrYZkLAgwhQMwqbHd0f6oQuT9E8FmuczIyOEG2WTUxRILCqDNrbki4GepWRT5CxJ+BDhIThoQ2R/ILBTouGYwDBjDmyacZW+p5MnESM2hizxi3bP/Uh8CEUmYAlrqw1hiw2qzQIrZWkMhyGEJTanhupdBsUoKW0sNJcUCYrDxq5htqg2iGGJpcVm8egR3cqQkYYoyKx/sDsQpoyINN6SzLz+mU8IhaqpIlQ61ZEnutXGHBYJEFZabwrlEIEis4gH6gslhbKRYA6GNFW+qNnZB8lJeihqpFnT8pDAoxcSJvTH/DFOqpTulwQlTRxWJioclcg0OdZqCXwoTTjNJx8jPGDCTVuHWhgxaaWY6YuSa4ma86OxntjaJ086FrKnsnnGLjDSO0naLiImJPjZ/RqKwgS0SG0y8gPo949QGfaYRYSN3V2h2yR0iOg7KUz91w4fJKBZPRE4BbZWKWMhDQz5TxBhILMREUnWRhpNCkNkVy5r7aU6GG5sKWuRBKoiMg0CqfDoP8LTG/Dh/HPPxOWXXsT8phghlBR2x8t/Xn8DPq+XtY3qIvPCoYsOwbcu+wYOnjc34sTY2tGNL595HqwOFzOR0n+0b9A+Q4SIniectZtRVX1e8cuZRmKfGYt15CxBGNzCzC5MmuU3akMymdLNaUbjDUYkXb/uIGDYxOOr/BOz5tgtdag1f3DTMLQX2RCEVBNKO3vqYl63XZvPgkYip1T1pPqexKfR/kiuwghRM9TtyWsxp2sd1MxEYi3Zw2TOMD6Dly8NnvTNHu2Gk2Oqtqf63tAgmEQ9MwBo00zfQFkTNL8NckwdnJtDazd0KHqIP4srj8zLhBOUHGE1x06BvAVUOrUSGSJBqiUX0qzjuuZDFRA27DjM38R8QRWVJRKs3bqnrRhto2fCKXJLpSGuotdXKry074fO+FhUhl4nbn6GWqh9oueFVrfhFGdcuhW93oyOmzUxxkow2paofWYNF2Eb7d0XNf90p9p4I5yKWLORogvl9L8ZQTBVpGmRjJ0h+g2GZoue1pBgKTDZ4PX29+Kyiy9iV7wbuSZoSu3t6MSOHbtZtALdJOt02pmmc0LtONTUVDGtJvNFUVU8/8JruPPun8LmdLMr6OPPZX3OEHkgv5CY9qc3R3ipXEAgJwhC3OUcWf/m9LmM70bhnlpYxy7A6J8Tb3Up1GrmFw+pJHEyJG1jSE+DEH9zin/io1rNyCTbwofWG6EZCeZ0zClRL6WJrMzelGzRJBvLWE/q4b11UCiaMy9q23bs5q2hqmkZNO1Toncb22rECVbfXGmDZaexhE9qopvVzbz2ydHTmH+aCUEjRJruyojCYE/poBkaBEYuDGojEDHQ1o9ZnKa7AuLPk2y3vcHR1ehO/HlMtWv0YRDloQQh8bOphLe59bHjaJBEEorGXSbD6a1BaM2kUptLg5/YNgzOETN11Y4wRCEnNtTjphuuw5yZ07V6jLTvisI0MnQHBuUUIQ0caRLZ3NHNOntbu3DVt69mkUiUiZblxNY/0YgO7lHaXNNQTYZ6tjjx5/YvArlBEGIYanTYTvQpc9/BORy722gRhGT1DgeZVKRltN6bDGPajpJRnlSkJhkeqcbH2LYHQ+y0jTv1FmkuFf1EKoxjRbj551RrIBGOBhFK1G4Dw3TpVur+J5+Fxqk5M4IQXWcqLIazDsbas9HjQ+a4cDiIeTNn43vXfhszpkzSwozNUt4YSn2oSElApGHT5i24886forOrh5nzDAIUNaL6DxoR1f1F9FVoLpft8WasocvbkyNRDNrJSTc5k9MX06gZjmSxgmJfDWu2vNk4yyfaTEer3uHgYgiveG1O3h+2WWQtN1JhYQi4eH2Lfjb9JqQYH7OsNJ3O2a/TeIl+w/KQstoZULOlZ/aJnGuTPJYIx1TPmgVQpu3KrBfmM7OmS4nWBJprG9QgxLYpVX+ybdNYfW5wfNh+qPtHkTOvFA7hsMWL8OXTTmEOwMVFRexmVJGuIpfJnyOAnv4+FkHy4ouvYMP6jbBTUizKlEo+LEkdD/WECDosEROsYVbU3bTGKmq8XekjkFMaBLJHUk56MMcfY3GkOgWlD0ZmJVMJr0S1jSZBSEaWtKiJrD6kio6odIduymwzT1R3pHh8cpG8ScnOIsnIgabyN5/q0+96qvHJCsE0HjJrEFLfOWkWqBqpSIRHMiFvCNRkz0a8AdLow0gU0cwkiUwMg+Oa4F3sJJGCzKTymh2JbuyTOuJrnShsm813RYa3X4s2KK+ogmile1MURhDozpmB/j7m2E33tFAiMjI3kOWKOVtTJFMCjkYmFsOwxl7DbgTV5hLdSyOGZC0FdhLD1T6Bh79k2AjkBkFgNjKVeTRPnz4NDQ11jAlrH+OCkWFjkWEF6YucoRUn28BGq94MuxdVPFWbkm/I6Z6uh7Yw+/fGJnqKtfMmR2NfnZbNrYgRiQmy3yVu93DmVKJnU+E/nDmV/FmGRoJmJU7iZdS5P8Zv9LBIXHP0+AyuMz3Kg5xXmR+BFuHBojdYpBZpAOiSVxmKStfBa86gzHtFr5KEfiqeZbRrkIKq2L1rNz74YC2c7BCn1WH4OewPhPg7h4dAThAE6iKF9EyZMhk/+v61zAHH7FGc7kQeHlT8aY4AR4AjkEcIxDGXZdo7cxX07+aWVnz9qmuZdgIq5b/QzMH8k5sI5AxBoLjgyspKnHbqyZg6aVIk/ClrtXlujhdvNUeAI8ARGFMIRMS/qmBvezt+96dHWcZJUaXcMyMZxzSmun1ANCZnCII2GgKsNgesThfo3nPN0jzoMLP/FKIHxFzhneQIcAQ4AlEIME8DfeOlnB7+QADhMN0bQYnAqKjh8MiBy0UEcoogsLzxdLucyQGGhdxoafxyEX/eZo4AR4AjkPMIGFoEbRuWo5wYM8k9kfNA5FkHcowgxPFQZjf8GW4yeTY6vDscAY4ARyDnEOA+Bzk3ZAkanPsEwdAg5MuI8H5wBDgCHAGOAEdgDCCQgwQhGrWRuk9gDIwFbwJHgCPAEeAIcATGDAI5RRDGDGq8IRwBjgBHgCPAEchzBDhByPMB5t3jCHAEOAIcAY5ANghwgpANavwZjgBHgCPAEeAI5DkCnCDk+QDz7nEEOAIcAY4ARyAbBDhByAY1/gxHgCPAEeAIcATyHAFOEPJ8gHn3OAIcAY4AR4AjkA0CnCBkgxp/hiPAEeAIcAQ4AnmOACcIeT7AvHscAY4AR4AjwBHIBgFOELJBjT/DEeAIcAQ4AhyBPEeAE4Q8H2DePY4AR4AjwBHgCGSDACcI2aDGn+EIcAQ4AhwBjkCeI8AJQp4PMO8eR4AjwBHgCHAEskGAE4RsUOPPcAQ4AhwBjgBHIM8R4AQhzweYd48jwBHgCHAEOALZIMAJQjao8Wc4AhwBjgBHgCOQ5whwgpDnA8y7xxHgCHAEOAIcgWwQ4AQhG9T4MxwBjgBHgCPAEchzBDhByPMB5t3jCHAEOAIcAY5ANghwgpANavwZjgBHgCPAEeAI5DkCnCDk+QDz7nEEOAIcAY4ARyAbBDhByAY1/gxHgCPAEeAIcATyHAFOEPJ8gHn3OAIcAY4AR4AjkA0CnCBkgxp/hiPAEeAIcAQ4AnmOACcIeT7AvHscAY4AR4AjwBHIBgFOELJBjT/DEeAIcAQ4AhyBPEeAE4Q8H2DePY4AR4AjwBHgCGSDACcI2aDGn+EIcAQ4AhwBjkCeI8AJQp4PMO8eR4AjwBHgCHAEskGAE4RsUOPPcAQ4AhwBjgBHIM8R4AQhzweYd48jwBHgCHAEOALZIMAJQjao8Wc4AhwBjgBHgCOQ5whwgpDnA8y7xxHgCHAEOAIcgWwQ4AQhG9T4MxwBjgBHgCPAEchzBDhByPMB5t3jCHAEOAIcAY5ANghwgpANavwZjgBHgCPAEeAI5DkCnCDk+QDz7nEEOAIcAY4ARyAbBDhByAY1/gxHgCPAEeAIcATyHAFOEPJ8gHn3OAIcAY4AR4AjkA0CnCBkgxp/hiPAEeAIcAQ4AnmOACcIeT7AvHscAY4AR4AjwBHIBgFOELJBjT/DEeAIcAQ4AhyBPEeAE4Q8H2DePY4AR4AjwBHgCGSDACcI2aDGn+EIcAQ4AhwBjkCeI8AJQp4PMO8eR4AjwBHgCHAEskGAE4RsUOPPcAQ4AhwBjgBHIM8R4AQhzweYd48jwBHgCHAEOALZIMAJQjao8Wc4AhwBjgBHgCOQ5whwgpDnA8y7xxHgCHAEOAIcgWwQ4AQhG9T4MxwBjgBHgCPAEchzBDhByPMB5t3jCHAEOAIcAY5ANghwgpAWaoJeSk2r9GChZM8Z32VYJS/OEeAIcAT2OwLmvTB2L8t0n9zvneENSIAAJwhJ9FoYdAAAIABJREFUpoYxzYeKcuM35m9iF0Xsz8nK8vnJEeAIcAQ4AhyBsYUAJwjJCALJdBUQoUKFQP+EJubp/5bIT6wQFFNNxs/GE1ReNH1PZc3lx9ak4K3hCHAEOAKJEaD9LPbAYz4Q0V6nb54cxpxGgBOEFBoEERZYBCub72pkTRgC32xCoAViWiRqHBVcZM1wFVxOrxreeI7AAY+AWb9Khx0VxpanqHL0XnjAY5W7AHCCkGTsSJ7bBBdcziKIVqupJLEF0iCYP9oi0Zgz6RxiyYOhMYjVPuTu5OEt5whwBA5EBBRAMHSq1H9VVxiokGUF3kAHZCV8IAKTd33mBCEpQRBgtbjgdhTDZnUAqggIJOhFCLBAZSoFBQLxhYjGQGC/VwxjhEDmCbN2wVBFcCfFvFtNvEMcgTxCgPa1IR9ts4OqamZSgRWStIORoEJRwhjwd0CSQ3mExIHbFU4Qko69yAiCx1kEm8Wp2RiEQdWaoqgIBgPw+72QZBlOhwuiSCQCUFixQa+F6NdwE8OBu+R4zzkCuYkAaQf8fj9sVhsKCwphtzsgxhAEWfGh398NSeYahNwc5ehWc4KQBUEg9hyW/HC5HJgyZRIWLDwYNTVVcDpdsAhEELiDTj4sDt4HjgBHQEdApUOPAu+AFy0trVi7bgO2btmJcFiGIIgQBQs7PMmKH/3+Tk4Q8mTicIKQJkGwkgaBIhkUGYqiYP78qTj9zJMxffokeNxOkOKAmeIEgRkXUhkQxpoOgfkdiwBpDpn2I1UH8mQB8G4cYAikWnjJ5n2yZ/N9vTArqQYA/b+334sNG7bg2WdfxqZN2wHVCtEiQlYCOkHgJoZ8WFmcICQYRbbeVcPEoPkgKDItjRAWLTkEl1x8FurqqxkhkMikkIHfbky8w9iYR4afkdGafN/wxgbqvBX7GoFRIgiDEU6Zd2isLzVjvxJVwCqosJEXliogLKvY+PkOPP6Pp/DxRxthFV1QEEK/v537IGQ+DcbkE5wgJCEIQgxB8HoHMP/gGbjqqm9g0oQqhEWgFwLaAXQpKvyqGiEKyfahsUgQkqV1GpMzlzeKI5AFAtnyg1TPpfo+WVM1gpBNDeQwmAUIGT5Cr1AEFXYVKBUE1IoiygG4VEBSgc+2NOIXP/8tmps6YLNb0Odr5QQhQ4zHanFOENIiCEWwiBYoSgjXXnsllh+1GBariL0APlBUfBSU0SSp8CkKFIEiGLS4hRH/qMZ+MCq1j3hz92eFzNAz1o9m+xOgA/HdKdePoLkPxfuwZxOvOxbWHJU7yJQnIMU81Pyes1zTw1FdpDkH2IFGUOFQVZRBwHSrgMMdNsy2iPCoQEBS8K9/vYqHHnoUBYUu9PnaICsU2ZBln9JsFy82+ghwgpAmQSDj/Ny5M3D1Nd9CdU0ZBgC8p6h40ithXUiB18h9oG8GUXmSRnIcU2xUI/mqXK6LE4RcHr1RbHuS9ZNyzlB4X8KmDSWk6boqm3OsjmLPs6taJ1XEQyyqCquqolIJ4Si7gDMKXJhiEVmO2MZd3bjuupsw4O2HL9zNCUJ2aI+5pzhBSIcguIoBRcGZZ56Er5x/CnNKJO3BPwMK/t0bQK/NwTQMkXwhKYZ5OLx6OIeNMTf7RrNBXIEwmujmbN1J10+KOZOM9DMhn6XGKsvH9skYGH1mfsu697UoBTHV78UlJQVY5rbBKQrw+xTcfffvsHLNSgSkPsgqD3PcJwM0yi/hBCFNgkCpkS666Fyc+uWj4HTYsRPAH/qCeMMrQ3G6MxqmseiDkFEHeGGOQA4jkEjQJzQvGH2NmCiGdl7MZ0JqspZoPEhGdV83vlbowvHFThQKIhRZwCN/fh6PPfkEfKFuaOmW+SfXEeAEIR2CQKmWBRGXXvpVnHzKcjgcNuxQgQd6A3jXr0JwujKytnGCkOvLhrc/lxHIliAk1SDsJ4KQyIxh/N6c8N3870Tjl45ZRBBklPV14zyPA6eUelBK5lUFePyJ/+LhvzzCCUIuL46YtnOCkCVB2KUCv+kJ4B2/CtHlYiHCZn8hppJLUPe+Jgjp5GXgd0uOzKpOhnUqjM3PppojmbwnWdnY92TShkwQM9aCWUiZTW3J3puqTebv08E4UbvjRfIkEqrJymaCS7yy8fpDv2Oh1CyZq8qSvRtJXbV9J/rGWfpOEbQ7ZEVVhcwIDJ39By9ajN2fqB7qF4UzRvlbxuxlgqCgtK8H53jsOLXEjXJxkCD88ZE/wR/u4RqE4U6CMfI8JwhZEoSdpEHo0TQIoq5BMBaYsekm2phTbf4jOTfSIQcmDWrkktbh+EmY25/J+0ey3/ujrmSkUNvCk/t1x27KyU55yezW8YR+ukIx1mEuVZvTxTl2HmRCTMyXB0cEpf7iVPVmMhdj25TMeTATXOK1MbZdidoZ2UvIQVLQoqREVQG5BjKawIS5Vor+L9NPqsCIAV0dY9Gvqw8TWVD1kvrkYT9FJu3gjKJnKAaBCAmZXWLbzwhCby/O9thwWqkH5RYBZFH4xxOv4uE/P4JAuA+Kwk0M6a6NsVyOE4QxRhBiF2OqE1GqyZWtgDZvgMOpI5kgS9X2fPw+lWbJ6HMqApDq+9jTebpYxjutJyKLIz1X0yVE5jWxvwiCQfhSze9UpNE40Jv7Hos3aQIsigq7LMGlyvDIAciiiF6rG4pghVMOo1AOwiIDsmqFJAqQVQEhm4iACMiClWkQSPAXhiV4lDDL4dJnFRAUALsIeCQB7rAKGRb0WEV4rSIgEtlInyA89sRr+CMjCL2cIKS74MZ4OU4QsiQIjSpw/yhoEDLZ8NKZW9kK93Q3wHTawMukh0C2Qj229kxOwtoJNP6H6iHhlIggZKJtGC0ykcl6SbUWMsEtvRGNXyodzA3iwLQCAmCVFRSEw7BuXg/H5rWQ7HaE5y2EtWY8rHv2wLp5Axz9/eyFkkWE4HLCUtsAeXw9OkpLELDb4ZElVO3Zi8CnH6E3HMTApEmwTpuEMtEGz7YdkLbtRKesomPieNhnHwzB4YxoD4w5QoRBZCaGoRoEThCGMyvG5rOcIGRJEMgHgQgC80EwTAwxG2o2JoZMNrx0plSqTTGdOoZTJpVgiHdiTXiSZHddaN9mouIdTvvjCd9k9aU6USZ7dqQIQqzWKZmqPJWwIuFk+NZELjLVOxGvXuPEnMyEMJLjl8l6SbUWRkJrls5cix3nSLt0jT9hbv6wHASygopgGC2P/QWbf343PCUFmP7/bkXVsuVoe/cdbHrwtwju2AZYRCgW8gmQ4CqqQd3yI1Fz5skIz5vLMh+WrHoPH9x9Dxo721F6+pk4+MKvotbvwyf3P4htq9bAV1qCiddfj4qjjoVktZESIUISjHaL4AQhnXHOhzKcIAyDIJAPwlu6k6JhzmOLm/7EUc1FLfrBYlEntEw2vHQmYKpNMZ06hlMmVmDGnkZTfR+9U+o2Uf06beZVnkAiD0dQm98Zr32JTtTGqW84eGXzrNEefdoNOfFnQhBYXSYSxshG5PgY3bpUCX6yNQVkgkEm6yXVWjAThFR9y6SNyUim0aaIw2Gs1kbHXpQV1ATD2PPEX7DlrjvgLnZj6q0/QfGy5ehc8Q42//YBDGz9HMUNDXDW1mKgow2hxjaEgyFUHnsUpl37XbjHN6D03ZVYe/Nt2NbXhcqzz8ahXz4N3tUr8P5f/4FeXwCV552D+m9cAam0HCq7gU5zdDSTOougorS3Z4gPAtcgDGdWjM1nOUHIkiDs1p0UDYLAohh0dWA6BMH82mQbqbEwjT06U5+E2E0xwV4/RM4mE4LpTGVDWI2UoI7sULEdSPCCVO03P5ZK4JtPzoYjajoYpCqTCTbJ2mjmSWayEDt34rWHPNbNn9j+JcIpHdt6tvN6uEI/UdtStXlfEYTIXNaBZxjr2jHWBhPolOJYoF8oCqpDRBAexZa774KnyImpt9yNkqXL0LlyBTY+8BsEdjXi4K9dgOoTT4G/rwvb/vQwmlasRMDjwZTLv4k5X7kABavfx8e33Ipdfd2YcvpJmDx5Gj7997PYtXMnCpYtxfxrv4/wlKkI67SA2mMmCIwwJHBS5AQh1YrPve85QciSIDTpYY6MIDhd2poXyItYO3ElU93GvjLVRhq1gZt+SCUEjaLGAo8VdOZ6zYJiuELQpERhr4hVTe+LZZKsD7Gnw2Ski/XFBPRwsTH3PdUcidIMpHkvTyohGEtKYsfGrEGI910mqf+N9puFTKKxT6ZZijVXRGGYfQLDIU0x3pNK0zDc+ctwNXU4NkET+X0Yn8h4MoIg6QThDniKXJh6y09QsuwIdK1cqRGEpt2Y+80rUXTOV1DotiP04pN46bbbIEsiqo8/AYf96Mco+mQdPrnlNjT1dKJ2wSy4JAW7125CePw41F/zXZQcdQIkpztyQ62+nUVxGk4QhjsDcud5ThCyJAikQaA8CG/5FYguN1vwZuGRyekwVkCZn01WT7oEwejiEOGQO/M0Y6KRTJDHMxskgyJdbUM6cJrHbIh2x0xETDKEBEimY52oLbGEJ502m4WVmSCY4/BTEZNM3xNLitNdT4nKxWpWkhGVdN+VSZ8SkfF4dcQnCKpOEP6MLXcTQdBNDEuPQNeqldj0wG/gb2rG7MuvhPOc81BSWIDi1a/jsW9/B3IgjLJly3H4bXegfMNmrL3lNjTubYHkccAhhaB4fag49kuYcP0PEJg8E4rFwhwjze2gdhpjTD4IJdxJMdvhz6nnOEEYBkG4TycIFpebhQOR5iCbjTLZCTb2tDtSwipWUMRuBqlOt+nO8th6030uH8tFDo66/SXZ2BobsnljHilMjDlkmIHM74oyOcQhJmaiYpQdSa3KSPXRqIfaONbaF2vWie1zcoLwSAxBWI5OnSD4djdj9hVXwnPWWSgp8KBsxev463eugSqIKD5iOZbecivK127Eultuw46WJvQ7LLDZBFh9fjjrJ2PGdTfAdvSxCLg9LN9CPJJG+wJpEIo5QRjpqTom6+MEIUuCYGRSJA3CviQII2kKiN0AzORmtE9R5lNpuisj3sk/0cl6XzmZpdt2JoRjBG4sCUum2ciGeCZqWyxByNb2btRjtG04Wo6RIr6xfTa3MZOxGs2y2RKEmpCElidIg3C7rkG4G8VLiSCsYBqEwO4mLPjW5ag+40x41BB6n3oCL/76t1A8LpSdcx4WX3Elyj78GOtvuR072vbCMX82KiZPRNv7H8C3pxV1J52Aad++Bt31EyFZbNGmNd2UwwnCaM6MsVc3JwhZEgQyMewLDYKhho5s6qZdOFmMeqqpNpzNPFXd5u9TmTWS2ZfjbfaxgiRRP9K1I8eqnlMJ4kzaGw+neCp6KjeSOCUbn1hcUtn347XNqD/KFDbMk7q5XcPFOC7u+i/3FfFNNQZRayRmEg/RujFAVIxjBEHTILiL3Jh8KxGEI9G96l18dv9vEGrcgQWnnYZxS5ehe9d2bHnmObQ0NiFYV4sZP7oRExctRMXK1czEsL2nC+VnfBmzTjwejS+9il0vPQ/VacWC634Ix4mnos/hhqprEWKJIDcxZLID5nZZThDGOEGg5mn51I087IMNpo0k06iGfT1dR1rwZXIijCcMDAJgqNdjY/zp+5FKsZsK62TCKhNtSeQ9qQzwxinQ1LB0hHEispUqAiJe/5k/RQJWl8nYpsI2l76PxdFMEOjErgUxEEEIoumfj2Dr3XehqLAAU269B0VLl6JrJRGE++Hb8hmKKivgLC3DQF8f+tvaoJRXYNz5X8PEr3wVHpcD1e+uwqe334mtfd0oPOsszLngq5A3bcPae+9FX9MOFC86Agt/dBNLohS06HlH9PEyho07KebS7BpeWzlBGA5B6NacFC3u0fNBMGsQ2L9jNAgGQRgLJ6NYKFOdxql8us5jUUJQDyk1P5tu/2PbxPLNx4T6p6orUb8y6QsjImZBGWt+iAHTEOSp2pbpdhBLEOKd5BMRhHgkJtP38/Ix80DPg2DgouWhUGGRJdSFvWh8/FFsuuceFHuKMO3Wn6PgiKXY+8EqbPrTH+HftQuw2AGrA4LLBVdtNSZ88QuoXHoEwjU1cEoSXB98iA9+9Uu0d/ei7ORTMeP881AmKVj/+4exe+UKyIINDd/4Fhq+fBrCNjHKLMYJwoE3WzlBGAMEwSxYEkU00GbMLq0xZROksmPCCVAX2MlUu1Eq1f28zkbL+z7jbpnSHDNBHSNxzfyBjX2W7MBcTwwnGXKaj5c+mcmojDvHH0gXgWQaBBovhyyj0O9F/UA7Pvzdg9jwt4fhqajGtJ88ADcJ/+4OhHZtB0IBKKINquiAxeOGtbgYltIiCE47gqIFVsUKW28XvDs+RyisQK0YB3dtLTwWEeGmJvS17wVkBVJlDQqmToVMdzGYCLRBpkmDUBLnsiaeByHdEc+dcpwgjAGCEGmCYUbQBb9BBiIEggSKWaikOHXGO9GPxtRMR01tvDdu3H2yRhm2gDhlkqmrWfEEzzJhp6u6E576k7w3Ub2xWo643UpSb+x14WZhbmEJarIbvdhsiKwa/TpgI0GPMS6x2oLR0lxk15P8fCqZJsamqnDs7UDvqy/Bs2MzPn31eQR6umA5aDbm/OSXsEybSTc0wa4ooFsWFeZFaGVRCLIgQAJ9p0JVVUj0e0WBqIZ0e6UVojB4I6QMCVZ6TqV0zRbtNkeTc6IxPzlByM95GK9XnCCMAEEQ3W5N9a/7BGS5j7PTHLu5TVVhhQK7qsImKbAoAiyqAEGhC14Tex2ksp2P1rSOEkAxL0ma65/6S9fYJojyp/vr2Y1ySvw+C4J221y8LAH0HbsIVx36rEYQxLjfsa/0ozptqrEf1ib23sRtYi1K9GyK/mgpu6PfS+0x/iQ+yieedbFCnkpq2icBkgUYsAKSaGEZ+2JNH2YfjbEWLjha83ks1Uv3J1i378TKG38A/yfvATYBtuo6TLj4MtSddQYCTg+UOJPC7M/B9gW6wllUNY2jfh003e7IfBwMsijq/iGqqs23RHsjz6Q4lqbIqLaFE4QxRBA0uaDAJckoC4ZR6AvC1tEFf1snFJ8fokJpVxMThGTCOJEdeSRmV8pMhEleMtadLEcCn5GqwyAumdYXz3QhCyqsdgfkkmL4airgLSuCz+liVwWbBQMnCJmiPbLl6ZCA9nbseOUVKK1NgN2B0jlzUXrIQkhFxVD0+xLirW+zf5JZcWU2G7DW6ppLQ6vGSLJu0ornUEqailJuYhjZgR6jtXGCMJYIAgC3LKGSiMGWRvg/Xo+eTZvh7+qEEg5DIGbPCMLQky1b1Emu7jUiIUZjHmarQdDoEDdwpzcmpEVIr2RsKbMGwaiCqY8tFoQLS+CcMhWu+bMhHjwTvaUFLA8/mTMMvwgmLIYZxphdy/lTNOYWWYZNCsNCuiVBRMBiRUhgXilsTiQi/8a4m1OtRzQLw8jOyQnCgTMvOUEYQwSBTAuVXj+KN25F68tvQGrcBTXghWgRYLfbSWEOqKRQjE8Qok6K7JgwKFFGKjNiPLgMm3ZcKFNsRKwnWQq+A2eZaiBlSxD0QyKDKyLsAYRlGQFJBYmecEU5yo47GsKyhegtpBh4S8SDnROE/TfTBsnd4Jo3jgik6zGTg3i+DIa2IFUPYneUIVk+TQSRhzmmQjN/vucEYT8TBGMDoNNBQVhB9c5m9D31EoIbN8Mq++HyODB56iTU14/XTwvMeqy3Onp7MAhCxCxv8gg0NvnRmLqGjTNe3cns1hHnRk4QUg6L5vuQsljaBcivo6enDzu270Jbaye8igVdJeWouvhsyPMOQtCqObpF1NFJNAgpnUXTbhUvmEj7M+T3ejST+abFRAQhG1STXhHOTQzZQJqTz3CCsJ8JAr2exL1dVVDlDcHyxkr0vPAaLP3dGDe+Emee8SUcMn8WiosLdNOC7lUUaffgtqCdxsmBzjgPDJ4LjFIjKGMGkUti2kimIdAIwqi0KCcXY6pGD0eDEK/uYDCIxh0teO7ZV/HJR1vQKgkIfOEwVH31NAwUejQnT314DhQTQ5T/RaoB2Qffp4oQSuWYzMYvvsIxaes5QdgHg5sDr+AEYQwQBGqCU1FQ0+lFzxNPQ/3oU6j+Xlxw4bk4+8wvwmW3RquXzQs+Jm4w0V6Q1AywvyYqMz9wgpAO/MNDKd6s0LQDqqzi/fc24f5f/xl7+sNoaqhF7ZVfg6++RjNIRIzWemhoOo3N0TKxtvyx4kCbrnyPN0eSPWtoh4wy5ufjaSOM32mplntwtseO00o9KLcIUGWA50HI0YmfpNmcIOwDgmC2AxonMeO1huB2KQpqW3vR+bcnoG7cABtCuOnGq7Fo4UFR2RPzbwryHu0XBIyTpQq0tfbj9lvvw2c729FcUYKaqy6Ad8YkhEUR1iTaoWzaPdbNEftSg5AVFllqBOKZLpjCMYtspgIUlHKCkM30z7lnOEHYxwQh9vrZCEGQFdTu7UHX3x6HtHEtnFYVd91+A+bMnpyVijDnZiJv8H5DoKfLj9tuuQ8btrSgpbQYNf97IfpnTs6YIOxL4brfwMrhF4/U+HCCkMOTIMOmc4IwBglCeMOncFoV3H3nDzF71iSthenqGTOcALz4AY6ACjCCcOu92LBlD/aWFGHc/14UIQiZXJs9WleRZzNCWZ3Os3lRDj0TOz5Mg5BF+ConCDk06MNsKicI+4AgmF8RT0NIi5RMDONJg/DXxxDasA4Om4R77vwRZs+cxMnBMCf5mH48XhyaKZvikORIacatkZ9quk6NPd0B3H7zvVi/pQV7iwtRQwRh1hTIopaGN103kWR3CozFMYiN7Mn3TJFDbt80TAxxnBeSnUc4QRiLs3l02sQJwj4mCImG0SOrGL+3G52PPobQxvWw20K4587/hzmcIIzOzB8DtVJK5b7efuxqbIR3wIuqqirUN9SDogt27NgBr9cLgXLlC2B5MCorK1FRUQmH085aT+Wadjeho72D/WyQCUVVMG5cLSZMbEirl73dAdx2y71Y/3kL9hQVoOrbF2Fg9lTIguaDwDLspVFTzhEEurbA0M5RmvQ0+5kGFGOySDKCMOSOlCRY8ERJY3J4R6VRnCCMEYLgllXU7e1C16OPw79xPRy2IH565485QRiVaT82KpUlGevWrcM99/yU/X3uOefgiiuvQGdHJ+756T1YvXo1FFkBCXwS/jU1NTj11NNw0UUXobqmCnv37MX999+Pp556ipEF4w4Hq2jFNy67DNdf/z2IlhRGAgFgBOHm+3SC4EGlThAUE0EwLu5Jhlw8z/exgXT8VsQmD8sVDUK65pMhioEYbVCyKIakGgSeB2EsT+sRbRsnCGOAINBiJA2CQRACTIPACcKIzvQxWJksy1j7yVrcdtvtWLNmNS6++BJc+71r0d3ZhR//+MdYsXIlCjwezDjoIKZRaG9vh8fjxte//g1ce+016O7uxq9++Sv861//giRJKC4pgdPhwIB3AN+87Ju4+pqrIaS6AtIgCLfch/WfNTMNAhEEbxYahDEIcdIm5RqhyRTfIRqDBFqBDKxIuqZKu+75HI+NhzlmOig5Vp4ThGETBBmi26PpYPUFmGnMemKCcCPmzJyYnn43xyYeby5AGoS1H6/FHXfcgVWrV+OSSy7GNd+7Bt2d3bjxphvxzjvv4OgvHI1bb70Vu3btwve+9z20trZi0eJFeOihh0AE49e/+jUee/xxZp744Q9/iJkzZ7Ir+UpLS1E9ria1HwIjCFoUwyBBuBDe2dMgixbQjX/ZfqLSdWRbCX8uawTSJQiZvoDyIBT39eJsjw1fLvGg3MrzIGSKYa6U5wRhOAShJ4i3/GFYXAXatcOcIOTKvB8T7WQmho/X4Y7b72TmhIsuuRDXXH8Nuru6cdONNzGCcNxxx+Guu+5CZ1cXrrrqKmzdugXLli3DAw88gHA4zAjC448/jsqqKlx99dWYPn06RFHA5MmTUVpWmrqfEYJw7yBB+M6F8M4igmDlBCE1gmO2xGgRBKuqoKC/F2cX2HBGsQdlnCCM2Tkw3IZxgsAJwnDnEH8+SwQMgnDn7Xdh1epVUQTh5ptvwYp338X0GdOZ38G2rVvx/PPPo6S0BBdffDG++c1voqenhxGEJ/75T4SCQVRVV8FmszN/hV/84hdYdsTS1C2LIgjkpOhB5Xcu0gnC8DQI9HJzIsbUjeElRhKB0TKhWFQFhZwgjORQjdm6OEHgBGHMTs58b1hSgnDTzYw0UPSCy+VGZ0cH+/f555+PK664ArV147F3zx5Ng/DEE5AlCRMnTURRUTFsNhtuvPFGLFh4SCSyISGWo0gQzKmLU90pkO9jva/6N1LJkJK1lxOEfTWa+/89nCBwgrD/Z+EB2oJkBIFMDO+99x4mTpyIQw89FM8+9yyLVLj8W5fjm9/6FoqLi7BHJwiPPfYYKqsqmYlh5kEzGZrTpk9DUVFR6hwGo0wQjKEdhitD3s+OEcqeHHX1M/lExYZtGuRhuCSCE4S8n5KRDnKCwAnCgTPbx1hPowjCGs0H4drvXYOuzi7cfPPNWL1mNY44Yjl+/OP/x3wOnnn2WUyZNBnXXnctjjvuS+joaI/4IFRVV+OHP/gBZs+ZzXpZXl7O/qRMcjSKBGGMwT1mm2NOv55pREFsp2KFf6yjqDk5FBGIbD6cIGSDWm4+wwkCJwjpzdxEm4n5Kjh+TEwPS71ULEG45NKLcPV1V6OzsxM33XQT3n//fRx11FH4xS9/ic0bN+H6G65Hc3MzjjrqC7jxxh/D6XTi3nvvwxNPPA6LaMEhCw5BWVkZAoEATjn5FJx9ztlphjn6cTslSvqsBS0j7IOQESAHaOGRJAipIOQEIRVC/HszApwgjABBEF0FuRvmGKPfZPfHGznadTUl/SqSbifOEYeeifCHKJIQp/BI6VPzYB0zgvDJOtx+2x1Y894aXPr1S/Hda7+LzvYO3HnXnfj440+wbOlS3H3PPbBZrXj44Yfx+9//npnsNLI9AAAgAElEQVQOLrroQiw/8kg89vd/4Kmnn4Y/4Gc+ClarDaFQEF+/9Ov4XtqJknSCwDIpelBBeRBYFMPwnRTzYJhSdmEkTv0jxa2NeujvRCmy0nUcjdcvepY0CDyKIeW0yIsCnCCMEEEwX3qSqeZuv+VBMBqqAKq+m8g6ObDQPyRADQMIAQL9LSuApGh/s6MI5QC2AnYBcACgDMAWbWdSWYzV4DZl3FoZdb9sXiyh7DqhKAoLU1y9cjULc9y2bSu+ftk38O1v/y9LerR69Rp0dHSw7IlHHXUkHE4Hmnc14e2334aqqBg/fjyLcGhsbMTWrVshKbKellmAqqqYPWsWy5eQXqIkP+6gPAh0m2MhEQQjzNGipVrmd4VFMIgnNJMJ4+xmR3ZPxTqCZnLRVuwbjbrMfguG9sECIgg9OKvAzsMcsxuqnHmKE4QRJAgk/NJJSRtvMcbPpDi6iZIiqWXpYh/6IwNqEIAfENpDUBp7ENzZhtDeXki9fsi+EORQCIoka2l9rRbY3S7Yit2wVhfCOaEMtgllQLUbKLJAdQICEQbKD0FahpE6JuXM8orfUCIHG9ZtwIcffYg1q9fg1VdfhcvtZuSAQhhtdhtzSKRyFosFDoeDRSNQ2mUyHxD0lELZarNCkWVIbDzMHxU2qw12urMhFea6DwIjCFtb0FIw9gnCcJ3ssp0+tLYTfYYjjFO1xyAlqTQVo0EQmDbR/EelM4CmQTiL50FINXQ5/z0nCAciQdB3WNrw2K1/JHC6ATSFoW7qRv8H29Dx6WaEWvug9ARgCamwW+ywCRaQYsCwEsgiQKIpLIURFCVYSlxQyp0oOmgCKg+bAcecGggNLqBYgExkgZQL3MTAMiD+7a9/wx2336HdoaCqOOHEE/Gd73ybORkOucFxNLeZHCAIsXcPRF1bTHM4U5VdlnjuD4KQidDPpGwqCMx1cYKQCq38/Z4ThAOQIERO82Q28ALYGULw5c/R/J/30bdhN4rCFhQJLk1QWei8oDIhRmyCaQHYdcREDrQPlaP/rKIFsiqjV/Gh2x6Go64C1cfORMWJ82CdVQaUCZph1Ky3THXCzcO1R5qB1159HX/4/e9RUFCAJYceimO++EWWx4C0BxqoulvLaOOTDkGg8d5HQjjRcMeeomObY7arZwtZvOfSrXe0NAiZCP3YsoZgJ0xTaR/iaTUNPDhByMNNKM0ucYJwABGEyCYvAwIRg11hBF7eiZ3/eA3Czg4UwwG36oKsCJAEFapuExDo36qikQT2MaS8sX0Obo8CkQgiFIxciOgWvegpB6acvRzlp86CcFARlELN3qDRigPQwK2SG4cCn9fHOu9wOGGzWaP9BWLSdpNJh9m6R1pSp0EQaBpkGxKX5j6UtFgqIRkrCEeKIGRSz/4kCGbylKzNmbSRaxBGYubmfh2cIIwSQUj3SlZDPu4LHwS2kYQAtV2GsnIvuh57D53vbEKJ7IRVb7Cs0DYixqi5je0i0fYzuEUbmxXjFoIACwSEoWCP3AthRjmmXHE03MdOhjjODtUmaJcJZbIT5/6ai2gIIv2Oh4Hu9appe/xQ+1ZDVUogFM+FIFhHDoUUBIEua9rfQ5ToZGw+4Y4cIIM1pSImZm47WgqWVG2I/T4ZDpkQBLPWIbKmDQdm7oMwGtNtTNbJCcIoEARdQ5z2gNMCHG2CwDZTrwp1ixeBV7ah9fEVcO/ywxa2Mk2BoAqQRNIcAFb9lEq/GxQPZimuRzGwHpL+WdMoDG7Yov5v0hBITJtA//nFENoK/Kg9bREqzzsY1rmVQKEIgR4/EElCkhki66GjbATkvfC+dCr8cjnKvvQwBFftyDl8pkEQRkIQxgrQTIY7mRA0aw/SXnBpFox3io59NHIQSKLDN1vU6Plkvgyx9e9PgjCkr1EEYWgUwz+eeA0P//kRBMK9UBTDAJkm2LzYmESAE4RRIgiZkITRJAjMCZHWar8C6dNe9D75CQZe3QBHhwS7ZIGsqBDJ60sUoQiakB8U9QY4ehhCBCv9WKlLDm3D07bBKEpBVgaV7BlkoqDvFIREFb3OMBxLJ6Dqq4fDvbwWQrlNIwn8E0GAVPpaWJkKhLYg8Mzx8Dqnw3PEA3CUTdaMM5lI2UTY6gTh9lvuwwZTmOPArKlQBGvEmJRE/qU1aixKxlQyEkGTxtOpTsmJSEKqNsc+Fyu4jfcOl4QYjr1G/4n8JRs6s2Yktk3mZZIKFzO0w+1DZCeIE8VA1z2TQ9JjT7yGPz7yCPwSJwhpTOucKMIJwigQhEzVjSNGEKJ2YN2xTAKEbgWhVR3o/fvHGFj5ORwDKhyKlfkVMMdD2rD0ncdQJ2v+BvSdtrWoMbZvs/PWUAgHtz+tnObVSHUqTFKo6LEEIM0qR+1ly1B03FRYquxaDoWUuYFzYl2NYCMVwP8JOp4+H45Z34Vn9iUQ7K6R892IEIR7sZ4lSipgeRCIIMiClQ2JMScyndexIMRMz7QxSkcQJpqPqXhnsjYlM2FkohExyJHxDBP6pgpiyUI60RLpYGIGOBUO6Q4Gi3gS9DBHjw1nlnhQbhFYzpTH/6kRBB8nCOnCOebLcYKQpwSBnZ5op+lREH63A51/Wo3gyu1whilUkf5oUQnGhzkk6pvWoDOiFqHARHwUQYjd0qK3S5W9mKozbduRRzRzBhGFPnsIwdllqDx/CSpOngGxysZJwpD5qAD9q9H87P+g/Oj74axdNrJOAfuQIGS7G2ZiYkilkk/VBvPMNjQQ8YiRpt0ZrC2ZRiS2rLkNrL0xL0hGELI1V4wkQbAICjyUByGGIDz2z9fwMCcIqaZYTn3PCUI+EYSIHhAg5YDgVSGv6UbPH1bD9/Ym2P0CLIKN7Uiaf4Eer8g2Kc1LPr42IJ6CMvH5ShGUCLGI7H2suApFVRlBIeIhCzK67SGE5pai/rLlKP7SJIglVi1DI//oCMhA1zvY/cJ3Ufmlh+CsPnRkkeEEYZAkx3GFSaaaz0QjkmhGx1tz6fgoGAI/XU0CJwgju2wOlNo4QdjHBMFQ18aeIkbSSZHs12JIhbRhAD33rYL0ymcQ/GGICsUU6FuF6USviW7t9yS4NcWCbnqIlNO2OM0pS/tldFktxa9OA1hBQ84bygn6VmGKCk23QJREFhT0ukKQD6vEuCuOQvHSCRDc4qAG9oDnCjLQ/jZ2vvhtjD/pT7BWLR45B0U2iEBvt/kuhtEzMWS7qcYKwag1pGfoNJsYzEI3E8EYT9gmIwjm96QyOWQyjUeLIGRCaBKNFa1lrkHIdibn3nOcIOxjgmC+uc149cj5IFBKI8r3LAB7Jfge3YzWB15FYa8AVRS1dMrMnyDeuUXbCgdNCrFkwGit8fygfwIl/hFF0VQvqS8GDQxmgytzVtT9GoiJiJARFMLoKgzAeeocjL/8KDgOKomkaD7gXRLIybPtTex46Vo0nPYIxPJDDniCoPOayMpNJpwzEcwauY3/yZQAmMmGmWQYZotkomIkCMKQ7JMsh8bgWzNxEjW3lROE3BPyw2kxJwj5RBCMfGleQH65E213vwzr1k6IgoUJbzWtACvzVqid1aI1/vrZn5GMQYuopk0wdiDjGW1rjCYk5lSKlFBJZtENYSGIriorKi5fjqrz50OosB/YkQ0GtBQu1vomdr78fTSc/icIpXMPOIIQK7hplmWiGRjOBhn77niEw6y9ML8rnj9DOm2PfS5e+80mhkTvNP+eZTeJYT+pkl8ZKzxqpXMNwnCnU049zwnCKBGEeKYEetWoahDoBXQD47Yw2m98HcprW+GWRYQtWiZEFhkXV3uQfM6yDdDEEobWkWzbjK07uqzm0Mj0HugVAwgcWolJPzgensXjAGem57+cWntpgE42GRnY8zoa/3MrGs78A1Ayc58ThKgTpP5DovltTJUsplkUHlqiLe1Xg7RzaIwLhYEa142z7J2mjJOGE6H5UjKjbMKLw+KoCigskerVkkYNFjALTq1M/PVt9IH1I8Ykov8q0vd4jo+x2gjjmQg91xtilNMthFqYrF6I/VsH0mhHIm1JVHtNocvsvYkIgh7myJ0U82gPovE+7AsnJpsn+dXbDHqjLSgRVosLHmcRREHEpZd+FSefshwOhw27VeC+niDeItu+q0BbfKbbHGN/Nl49mgSBbX4DgPRYEz6/8e+o8DsoJ2Jcp79MiEJkS4zSEqQLplnBOvQZzTlSS7ssCyqaCwZQfOECTLx8OWzjPfv2qJhul/ZFOQN0WQJaXsXuV/8P9Wc9CKV46pCT4LCak4YPgllIG6NpzO+4xipGRDNrVawQjM2dZQhjMzEhcmCjGy91DxpF1OZQmKY887fRQKSTsnHLqqG+J2Ef+w6jb2ZCQuuVhL9VlmGTQlBEK8IWK1S6dUxvFD1H76T6LIr2vlgVPpVJdNOrIbxj+2jUYfgTxxK1KIKgf0l1sPewcMT4QcPpmBdix8P8rrg+CJwgZDbhc6Q0JwgJBirnCIKxA21V0HbDy/C+sQ5FojvGpqotc8MJMdrimvi0HkmcFCEImq+C2aSQeL5HtpYYC69+2jNHTwhAn8WPjklWzPnJV+BZWgvxQNUixBKE14gg/A5K0ZQxQRDiEV1jDmSSZtx4xiyQBo/TlNUTsOpClyWP0u+FICFoVVS4+r0QOjsQDoWg2ixwuJywFXgQ9BTAZ7NC1iuO9fqPN9uNMky4MkGrP6wCtv4BeLduBUpKYJvQANWi3WxqaATCIpECIXLb6SCp0qKDWDZRqtesdjAtmkj/IwxIey5yX4ku9I2QSHbfCXteW51EeBwymetkBEULJLp51ZTDIlnehXhrlxOEHJHgo9xMThDyhCCQf4HgE6E+vhebfvQwqqRiqBKFGw52cGguA/MxL7FVV9uCmHchIwWCYKTPMUwWmpkg0SeaTJhKscyNpvBK9rOCZvSh8vqTMe5bc2Erp7DMUV4FY7H6KILwCna/9ktGENSiyfvFxGAMgXHKTkYQsoHTLJA0W7nmMWNXAHsgCDht8ImiNgd1IWoLK/Cu34hdb70J0WmD6LYj2NuP0oJiTDzmaEj1NQhDgB1W2CgnmC6oiSCzbIbshK3NP5kJd4X9TBdiETERoTCNBH3E1g7sffMd2CfUoWDxQoiiFTbjngoV8FkBuv6cnrcoInsfJRynd4VFlaUwJ20e6TWobtJ+UOZS6grlJCHRLokaKaEcIdQGu2LkDKHvtPTlDjIVRlEDrW4HJSxtbwdCfqiV1fA6PXqK86HajHTGhxOEdFDK/zKcIIwWQdCXceyBYURNDEbKVpZOWQX2CGi+6imE/rsBhdZiCMLgnQjMNhslaM1bfjQIg/csatuEsYkaEQ6RkyLTRmgiXrtUSBMfum5AK8Z+0MiFIejNoZLMbqxv+LRpEk3phR97Dy3F/HvOgmdeueY7oZ8e839J6j00TpJKGGh+GU3//Q3qzvot1MJ9TxBi57Am1LITPMnGz3gP/U1C06bKsHn7sevjT1A3eyYCFVWQSMzqgtkhSRjYsAE9Wz7HpAUHw11dA6W3D1teeQVSMIDp550DuaCIaRl8Pb1QwzI8HjcsRR74g0GE6SrzggJmPrT4ffB7ffAUF8AVCsPb2QNZkmEv9EAsKYba1YWWN9+GfUIDKhYtgCMkwd/dC38gAI/VCrGqFAMeN+yBEGxdnSyc2BsIwi5aYCkrRsjtgeD3web1Q1JVDHj9KLGIKCopRo8vgFDAB5vLCbWsFLLdAY8/CLm3H15/AHa7DZZSrQ6rtw+OgT5IqoiA38/MnWJZESyyiq5V70HqG4Blzhyo9RMgeFyMJKRjUogdl4QEgbQViJMoiZsY8nJr4gRhFAiCIRe1c1C0HXA0CAI7bIYArAlg7cX3orbLoZ1OBNpMBy2rQ/0ODJIQ7RMd7YhlZhWaMyEjEOy2Qc17QOun8ZSmStU0DrrLmKHG0NM6G5AzcmGYcnW1LtWp2FRsKurF9NtPR83Z8yA49DsiDiRNQoQghICml9D0xoOoO+v+fU4QImp3E29hJ+pRIAhm4kk2f0/IB2d3Bz5+7iXMOuZoDIxvQMju0kJqBcAuS+jfuB5dO7ahdtEi2Gvr4ZIleHbtwKqHH8GCCy6GpbYWu999C03NTSh0eeAIhVE35yB0dXWhXxBQvXgxipxu9K9dh5aWPVh0xGHYumolWlpaYS8shCqrmLjgYJQVFaDx7XfgbGhA7Zw5aP7kU2zbtRuy3Q5bZzfGTWpAzZFfgNTehc3PPQWxrAQhmwNybx+qp0xC3cKFCDXuwuevvwG5phqKzQlrUyOqKivQandB9ftgkcKoPexQVE2agt5Nn2HH5s1QrFRHL+qnTkHd4YejZeNaNP73v7BOqEdIUiB6faiefRDKaqqx89kXIPkCCMyZhfKFh6GkphqC1cIJQl6K7n3TKU4QcpggaMKV1JCA4BMg/3kHNv7oUdSIxczBMtbDb9D3gDZ43ZNMV6GqjExoJzcm3kXNAqvpc7VT/iDVoMBE3dxAjpykvhUo6ZEMVZccmppYs6CKTFlLqlPt4ibDVGFUH6Ep7NiiMgew3a4+WM6chnm3nAmxnK43TuwjsW+Wyj5+i1mD0PQCmt58CHVnEkGYtE9NDPuDIJA9Hf0D8DfugLOjHbvfWoG6xYvQMX483PUT4CkrZnPTrkjo27gB7Tu2YtziRbCOGw9BUVHX04kNv/0jJnzxaNiqKvD+M09h/pFHorCoCLs+XoteJYSKceOwd08rxh+2COXFZfjk6X9j/PSpqC+vxKt/exRLzjgNhSWl2Ll2A3q8fsxasgiN738AT0M9CqorsfbNt1B76KEonToVrpa9eOcvf8WCCy9hHoIfPfk4Jh9zBMbNmYueTVuxa9MmTDl0MazdXfjo6adx0IUXoGriVHS+/hrWvfs2Dvnu1XA67di+ZhUkmx3TZ83FtndXorCkCJMOmoWenbvx4YrVOPqyS9G5Yxs+efl5zLn4QnjKKtH+0adobmvDrCMOg2/TJlglBY7FizFQWgHBatWSpWZxr1eUBsGkvaNpyTUI+3gv2I+v4wRhlAiCfoCOhGAZrxlRDYLuoc1kbrOC/lveRu8/34PDaoOg2LSkSIb+3ggAM6SxQjZeGYpI1k92JmSOh4Juh1VYQy2wKFpqZhL8FJLI/lBdkgBRsLFrXQVVZs+KRgIkI6RKEKCIElQK1WNe3yosFhvbRI12mWOxycSg6SEE9Nv9aJwmY/nD/wvLtAIIhtf4flws+/TV8QjCWQ9ALZg4JghCsiiG4eJEU0/q60Pfti2wtLVizzur0EAEoaYGRZOnoaSyjEUK2GUZ/Rs3oG37FtQsWQhrbR1skoqGzg58+OBDOOikE+FXQvj4macx/YjlCFttGOjohN9uweTZs9G6/jOU19WhwOPBJ2+/hcNOOh6hnc1Y868nMfXUE6BYLPDvbUdQFTB94SFo+ngtCurGQ3HZ0LR1KyZ88RioVVWo9/rwwQMPoOaoY+GsqMK61/6DqSceC1d9Pay72vD5G2+iZvYMWJQwtn3yEaafcy4chWUQ31+DDatXYOaVVyIICa0fvI+w148p4ydi2zvvwlZUiIJxtVC8fuz8bCsOP/889O7eiR2ffoyZF16IsNWBgbXr0LxjB6YvXQLvli0QJAmeJUvgKy4DkX6RkffM3XjMBEHbHbQPJwjDnd259TwnCKNEEMwx2Oazb8RJ2fReWoxZp1qmCiUAnwTQdO3jcG8YgKxKmtBnWgRN4GqeAoMOTiTmvS4VPlcYikWF2w8oIRlht50Jc3KQsnlFuIJ21tIBt4ygmzyvZEC1QuyRILhdCNskyDYJTskCt1eBwweIkgUhUUCgQESwIATZIsOqqnD5JMAnwiMXsFZJgubfECFP+nGHaR2swAZPFxY/ciWcR1ZplzjtbxNDrL1oX6x18kHY/Tx2v/EQ6s95EGrBhH1KEAbdUYeay0ar+8zHQVHgkkJATzfWv/waDv7CUfCNq0GYCCa7x0Pz2vdt2IjObVswfskCeGpqURAKQ964AaufexaHXXQperr24PMXX8H8445FsNCNIJHWQg+KC4vQ9dFGOPq8CEhBeB12zD1yGXo/WY9Pn3sW888+A1KBizkPWj0FcIs27Fq5BkV1NVBdTjR/9hmmfuEYoKoK43wD+OD3f0T58qPgKi/FpldfxrTjj0NB/QQou/dg07srUD1nFgRFws716zHp9DPgchfB9tEabPpgNWZc9i0EFQVtH3yAkM+PCfUT0PjuOyiqrkLhpClQRAsUixVl9fXo2LQOTZu2YNq557JIioF169GyfQemH04E4XOIUhjuJUvgLyESRaEVg+OWyfLhBGG0Zndu1csJwigSBNroWGhWijkxbIIQAtRXOrHrh0/A00xHBtrWDP8A46pmXcWvU4ZuxQdlYS2cyyZA9Fjh2NiL3Ru3oOLIeRDKHLD3BOFf1Qhhcwfo8qXAvEq4Dp0IS5Edtl4rml9ag+K5k2GdWQ7VocDpBdRPdkNZtRsFPgf2OmWoS+rgWVgNwWOFVVZg39KNpqc/RJ1axUwcMh1vmLFCP53o90AY3t7b0Ylp930NRedOBWyju7BURYWsyLBa6LKowXeRoxohSXZv74AXVpsVTqczkpJ6JFqlyAp7t4VC58hT3/hQO+QwsEsnCOf9DqqnIe8JgnFStZHHvs+HxrXr0TDzICglRSzjgayvK6ckw79uIzrXforqGdPgKi+H2N2Lpg1rEfLYcdBJp0Bpa8Wm517ClEPmw1VXCx/dTOxxw11YAHXbbnS+tgLtgX5Un3gsKg+aBnV3Cz7611OYtfQwuOvr4BUAi8MJZ1jBrhWrUDK+GkW1Ndi8YjUqJ0xGaUMDhPY2fPj6K5h77jkQwiGs+9cTmLBoCaqnTkfX9p1oat2DiYcdBqmrGzvXr8NkIgieYuCj9/DZ+2sw67JvIqyoaP7wY/gDPkyZdRCaV62C02rHuBkzEXI54bOIKK+sQfvaj7Fn83bMOPtswCqib+16NG3biulHLEVwx074W/bANW8u0DABqsul5WvIwmeEOymOxMrO/To4QchlgmAIMh8Q/MdO7PnJcyjsEkDCbjB4cNBzgPkA6ARht9SJwq8txqTvHAtbmRPyc+348NFnMf+6L8OxuAJqhx97H1mBnifeQwBhFFxwOOovPgKOEjeETUE8c8PPcNhVZ6DqpFlQnIClV0b3c+vRce8bKGhX0Vgpo+ry5Zhw5gJGKhBSIb/ejJX/8yBmiOMhUtQFO+Bo55pIkIORaU4FdkitqLvpVNRctQRwp6JZabCwJFX09fZh69atmDNnDuwOTWsiSRKadjdDksIYN24cPv3kU1RUVmDylMmwkn13BD7kqNne1o729nY0TGhAYWFhcoLgbkhJODNqVhqJkgzY4kUzDMlWmNHL4xfWtF/anBBkBaFAAFang52YjY/mgyAjtH0n9n7wIUDfuVyMPDkL3CiZNQO26gq4fQG0fvAxOve2wuZwQHU4UDx5Asoa6uD0+rH7P2+gTwpi/PHHwlJZAXsoiJb3PsRAWwcEux2yy4GyCQ0oLy1D+6bPUFBRior68Wj9fBs6m1uYs6akSLCWujFp8SIozXux9umnUV4/EWJhMXwBH1x14zBu9jz49rSgdcdONCxbCpu7AKHNm7D78y2YfOKJ7Dr1ts+3wRv2YcJBU+DduQtd2xtZqHLYZoGlshJTDz4Evdu3oqepDROXHwFYRPRu24bW5iZMmD8f1r4+RjJ8dgdKFy2Ae9w4CBaNcGbqVMoJwghM5DyoghOEUSQI6e7kWWsQDHtFP9B/38fo+N0bKBqws+y8YCmMjY+WM87wH6DfNkodKLp0CaZc/yXYKh1Q/tGDtb/4J2ouWYLqS+ax+xF6nlyH1gf/izZfL+qvOwF15yyCVbYh8Ow2/Pm2u3HST/8HdaceAtWuQvQDgRXN6LjndQQ+2oXgomrU3nAMSo6YBMEpsigL+YU9ePcb92K2WAchrDCzwaD+QE/5oksjIg7bpVaUXL4U0390AlBCV0Rnv+KksAS/3w+bzcY0ALFjs3NHIx79y1/w3Wu+i6KiIhNBaEI4HEZ1dTVe+c8rqG+ox8EHHwyb3ab5bOi+EZEIERbcoWkc6EOaAbZB02VZOgtiZXUfUVVR0NnZqRGEhgYUFhWyqFDSKtCubqHz8q4XsPvNP6LunN9CctTCQjH1oiW1aioduIZBEGJz+2dj647XRKNeIymQOcsGs4HrunJyqBV9foS6OhEOkanMAsHlhKOwEKLLCcUiQFSojA+Bzm6EfX5Y7XY4y0phKXQzh9xQZxckVYG1rByqzc70E5aAH/72HgS8A4DLCWdZGewOF2SvD4LNCpvTAYTD8HZ1ITgwAIvLCU9lKRx2O9TGJmx68y1MPmQRwh43FKcNzvIyiO4CKD4/gl4vXGUlgNUGsa8fAQpjrKxg0UYhrw9hVYKjwA2rJEPq7Ye/p4c5+NpKS+Epr4Dk64cUkGAvK2W+BYrXi2AwAFdRERyKAn9rG3zBEKzVVbDSPNYXDScI6SwGXiYWAU4QRosgZDDXhk0QeoGu299Cz9/fQ3HACdLMUlSB9hnUIBj5CmjD3SV3ouTSRZhyw3Gwljuh/K0bm+5+ElhSgem3nwBrjQuhd5uw5Rcvos3fhTk/Oh1VR8wAWmW0/+JlvPjvp3D0z65Aw5eXgL2Q3tnoRdev3kXzv9ag+NT5GHfD0bDWFUBwamlvpRdbsOLr92KuWAeFVPck6fRoB6Olhk8lOUk2htvg+MpszL3zTKDCoV3elIkh1TQGvT292LFjJyorKjC+bny0cBWAbVu24b5778Ott92KouIiJsxJg7CneQ/CUhgVlZV47dXX4HG72feBYBDja8djytTJ7C2te1oRCofQ090D0WLB5MmT0N3VjebmZgRDQdSOq8XESRMZDtu3b4fb40FLSwscDgeqqqowMDCA2vG1cDjsaG5qQVNTEyRFxkFTJ6LKv0zE/YgAACAASURBVAa73/krlEXfw842FVYLUFtXxwiF1TZ4qs5gyg0WHYMEwayxoIbG2sOZX4Q+D7Ssh3rkDdFaASCjEAlGI2shIxJkdKPEQ8yj19BbDZpzqAYW2aP7xbCUXez+EgqpJDOdVlYLtNETMegoGvc7OGUZoZ1N2LhiFaZ/8RjYx1VA1lX8kfwgCjn66tE9etgvhSSzHhh9YpFJ+nXp7F3UbrotVVvX2j1pAhSDaLIfdZdklkhJz14SyYPCNQhZrQ3+EL+LIdEcYGJ1GHcxZDK3hk0QuoE9P3gZ/n+vQ1HYqTsmmQmC1hrmpijQH2CX1Imyry/E5BuOh7XMCfXvXdh68+PorAxjxv+djZKltVC29mHdL19Av+rHvGtORvGUaiirerDl9n9gw/aNWHDXBZh4+hLI/T6EQxKcohsdj3yIrX99E+POX4L6yw6HP+iH1eOEvdAF9aU9eOfr92KeOB6yTBEUFDWhiYPBa6a1HAvUzma5E+FTG7Do5+cDlS7QoTlTgkCbeSgUQmdHJzZu3MhMBVOmTGEaAItxCmcEYTt++9vf4qabbmSneGpPMBDE6lWrmeZhyaGH4plnnkF3VxcOPuQQZmJYsWIFTj75JEyfMR3PPfMc1m/YgGXLlqGhoR61tbVo2t2Enp4ehMJhbFi/HscffzzG1Y7DQ797iPV53rx5qKuvhyxJ2LlzJxYuWggiMp9+ug4VFeUY8HnRumsbLjjMiT2fPo8V/qWYdsixEAUZhcXFmDx1CkuiM6zPMAhCrEInS+6WsvnJCELsw+xUHUONoy9mMrcyugfRuUT1FMna5Bwy72K1JVQrOeJKnb1o3r4D46ZPg6W4AAplVzTxiciq1H9n5rzm7yL9ivFhMkf9RF2oagQCR0hGdPQC1yCknGa8QBwEuAYhwbRIlyC86Q/DEueypkxmWyKC8LM7b8TsmRMTC0UjlUEX0HzdfxB6fj0KZFKT0unCuBrGsEPocQwiS8qM3VIHSokgfJ8Iggvq37rQcuPj6CtU4Lr2cNR/9WCIXhmf/3MV/IKEqecsgaegAKE/bcXWXz2NHeFWzL3rPEw4fRGCHX3o2NOOcVMmof2VzVj/5FuYfO7hmPTFWWjbthNF9dVwVhZDfXEv3rn010yDIMkS0yBoJyVto9bSOGubMWkQ9io96Dm2HEt/fTHEmgKY/ffSwZfq6+rswvvvv89O7Xv37GWnfzp5L1q0CBMmTYiQhAhBuPkmFBYQQQACgQDeefsdRhCWLT8CTz/1NAoLCnDMscfA5XLhv/99A52dHTjzrDPx76f+jd27d+OKK69gfgREIILBIAKBIFMBv/D8C8y/YdbsWbj7J3dj3vz5OPHEE5gGgXwfNm3ajCWLF2PturWQJRULFh4CWVHw/JN/xwkT+2D3bsK/dkzG6Rd+F9VV5bBYrbA77cN3lhwGQUhnDEaiTCqCEE9YG+9NRmIi35kVAqaY/+gQ3GilUyJzCpmGpGCI+bEYCZ1iiZNhMjGuYI7XxigaYypgNhwy7mIC2ExE2Hoy8RpOEEZiJh54dXCCkCVBaFSB33QH8TYRBLd2m2PU6cXk0RXr3DXk1JMgzPFnd92I2QclJwjsRN0FtNzwHwSeXYdCycFUpZoq0qys1cIc6URDBGGX1KFpECIEoRMtP34cA2IQnV8sw+LbzoW1womOTxsRUBVUzq+Ho8uK5hueRPjdbdhsbcWsu76KCacvhnd3J7a9twHTv7AYwc5e7Fi1CdULp/x/9s4DzK6yzv+fU26be6fPZNJ7JYRQQ2jSRDoKAooNxVV3FVfdXevK3xXdVXcVxbKrrq7YlS0UEUIJvQkBEggkIQmppEyvt59z/s97zj0zd25mbpm5d+bezHt5dCZzz9u+73ve9/v+Ko0Ndex6fjOz1iwjNLsR895DPP2hWzhGm4chbBDs0PrOFcnR4Q+pQ4QNxYFkN/Er53HSv16bkiAU7tAtpABCx3/40GFe376d5uZmFi5cSFNTE8FQ1WD7giD8+D/+g5u+chM11Y4NgiAITz7xJJFoxJYMPPjgg7Za4ZQ1p+Dz+9j8yqs8+MADfOCD1/Pk40/YfxNSAjGmrq4uNmzYYBsgqprKiy+8yGWXXcYJJ57Ad7/7Xd5x5ZU2YRBsaMtrW9myZQurjzuOJ558kva2dlvSIUTR+7a/yrtXK/giW9lZdyUbd3bTVF/DGWedxZx589BSRmhj3rrKlCCkvzPpEgH3UEw/GAuRXGSWcy4CQwetOLRFbgNXUjWUHGlIrWEfvhmn82AfhQQjFRXUtZVI75/43c72mCnlSP07kwyNtFek/80dj/vmpH+XKSsZDaeRkmul9yO9btsGRIZaHvPrVmkFJUEYI0HYLQhCd4wnwwn0QCiVCGYopWt6umdbv5llZYwkQfDoUW755ldYsWxebrF6D3Tc/Bi9f9hAdcSbpmIYnsNuOEFoo+GGk1n4hYvQ6/1Yv+3g4Jf/B8NK0HqMl2Nuegf+NU3EuvsxLRV/XRD1pQFe+dR/UXsgzKu+g6z85/cw96pT6d/eypY7HmfxJadTNa+egbY+AvUhYm90sO3xl1hx5VpqFjaTvPcgz37oO6xQF2AlbPWuQ2QGt8uUnldIEiyD/UYX2vtWcuzXL8dq9KONI1hSW2s7mzdvZvbsWSxesniQGLixsIUNwo//48fc9P9uGjRSdAlCWEgQzjid++69j5mzZnH66afh8/t5ccMLrF+/no989CM2kRBSBSFdELYLwqBR2B+cc845NDQ08Oc//5nFixdz3OrjuPXWW7n66qtZvny5LekRBGHr1q0cv3o1zz3/PA0NjZxwwmrboFKzEgTb13Pguf9m+tu/y+FeD88+/QSdnV1cedVVNE+bNr49J0+CkHZmjq+9PEqPdkhme4fyqNahn2mnZPoN2z1oxU3blRy4pH+QumZhIm5dghS45CFl7uCkm05jJpnjyxxXLpKQOdaRyEE+eGR7RhKE8SJ4dJSXBKFUBCFVb7o4cbQlM26CMAD933+Jtp88SnVvKryqvU25Gk5nZ8tOENo58I//gxJJsLtpgBmffAsLPrgWRLplsbsNQPSOHbz+jdupHzDZHBAE4XrmXrmG/m2HeOk/72TWW05kwSWn2LkT6Ld48+4X2PvaDlZefy41i6ZhrDvIMx/8Niu0hVgJ4QHg5mJwtiPnJpNKJW2a7Em24f+bU1nxjxei1OqpSI0Fvnip3T0Sjti3+WAoSGOTkwAq/Rq38/WdfOeWW/jbT37StkEQ8RCEncLGlzYSDoc57YzT+PWvfk08FufKK6/EHwjwu9/+lmXLl3HBBRfwyCOP2uqCt15wvm3zIGwSenp6OPe88+zyv/3Nb2zpwkmnnMz3bvku11x7DcuFb79psvW1rbZ9xNq1a3n1tVfZs3svp512Go3TmtCSYRq7n+DAxjvwnnETWs18du3cziuvbOaiiy52DC7H85nCBME+WA0Dj5kczMyYEAaDmkpCUUmqQhLnGBAK4pApws+EXdjNBBMG/liSiK4S9TieLrbUII0FZBKA9AN+LORA9GMc9ruDudQypQ+ZUg5XaCIlCON54SqrrCQIYyQIQsXwg5QEQdggiI8rOhy8qaQMpkoqQRCNRSD52x3s/8Y9hDqF76Bz8DqBBlI7m+3m6MRSFP10bBBSEoQ6R4Jw4Mv/TXXY4lAoSuKSBSz74oXocwKORGJvgvZbHqHvzufwG7DJ18rKf7mBuVceT3h7By9993b0+dM44eNXoNV6UA/G2XjrvYQjfay+8UJCi5ox7zvA0zd8h+W6kCAIguDGQXC3Iuenm056b6KdaTdfxqyPnwS+8Xn12YmhUjYOmVkpBUQH3zzAr379K2bNmm0TEXF7Fzd+8REGlYIIvPbaFlpbWxno72cgHLbd2i6/4nICgSo2bdpkGwwef8Lxdjt79uzl6aeeJhweYFrzNNvDYfmy5SxcvJC77riLM888k9lz59gsRRgzCvuFFcessInJE088xf59+1B1jeZqHxcu7KN16zqeSZxFVG/BpyssWryE1auPH4zZMOZtZwoTBBG8K97egdneSlU8hh5LEPdCr8cLTY0EZ8yywxUPGcYOiQEyVQzOO25Q39lDz8tbCNfXEly1nLidNE2UG+4xkUUYkfdUZor+nUtAcT5SglAcHCu9FkkQxkgQ9gqCkGaDkIoS7EqsHVHmRBAE0X8RavmhTvZ+9r+p3meSVJN2HASRJkm4djm3c0EOhOuWRlIz2WV10PDhNSz77AXo1X6sX3dw8Kb/pjpi0s4A4VWNLP77i/CtELdthcSmDl7/wT1Uv96JH43Nahur/vF6mt66kNiuLl79/u2Eazyc+olr8c6sxtjZzYbv/x/egIcVH7sI/4ImzMcO8uKnfsZC/yyMpHAhs2nV4Aw4l/pUQGhNYZvRyqqffoiGqxaBiEtUrN0vY85t8mBats2B3SPTtDd1N7Kh+7swGlRVhfBA2E4FHAqF0HQRn0FxvDIs0yYW9sfC9nEX9gtCsuD1OgaFwnBNtOP1+tD0VKwEw7DrE4aN4nvDMO2ojYJUBH0qgbaH2PPUr2m48FvE9Rn4vTr+qoDdv3F/JoggZE5dpmHeaLfX9L+n69vHMu5MFYOaMOh8Yxd927ehd3ZycPMr1C9djNHQQGDxIuYfcyy6iN2YFC8YGJqHuPAxFXEoxFybJiQMh4x7dQxUGg+3se++B4hOn86Mt51NXJQXQcFQies6ydScZXpauOMpRIKQSRDG+npIG4SxrKapUUYShHEQBGGD8FjKi8G1sRumr5wogiB2m81xDv7dHfhe7CJpxe0gRHasJHvXcMT3wj88puuEG1X21Q8w54bTWHztGnTVi/Hv+zj0r3cTMlQGzBjJGh9VJ83BM73aCW/7Zjfdr+wi0Gfgt1TetHpoOnM1npkhrL4o3S9uIaKYNB+3zA4Eo3aGad20Dd2nE1o1F03YMOzppfPR7dT4QvaB6mz4Q9uamzFCbLgx3eS16m7O+tUnCJzeMq4YCHm/ytl22FwnWrbvM04/Jwh2hv/aSCeoqNNMwu472fP4r5hzzY+gak5We5a8x+o+WCEEwYU3lzQu2/iPsEEQromGQSgaJdDewaN338nxF16ENmcuSV0lmIgTb22lr63NlgoF6urxzpxuJ2vyRyJE9h4g2jeAZZn4p7egzZhJbVcnB+67n0hLC7PPOp2+tg76u3scSUJTM76Z01F0z2Bsh5HsKlySYI855ak00rhKYXswElGRRooFv1VHTQFJEMZIEPalVAxlQRDEjnLYouvrj9P5+2ept/wolojBl0rZnCIISRV6G334LlqOuraRhlNnUTW9DuWwSdeXHiNy/+v4hC83IgOjSdiKYBgx+/Yj/vN5AvgVYTinEdOShI0oYWMATdGp0apsdUY4Gbc3TI+i41HFbdoiYkZs40c/Xvx6FarudcT9gwmh07YlS8RAUOjyxdi13OL8//wYnsXCqyDfE/ioeTdTkghBEO5i12O3Md8mCHPHFVHyCHQmiCAUMiu5dPRjXQkjEQTRryojSaCjg6fvuJMVF70Nfe58RNAj7+43eP3FF4loKrqi4o1Emb5yBc2L5tL96jZ2bt8B1UEChkWst5+F551Dg9fD3nUPkGxqomHpEva9upWYqhIJeNFmzKBx+TK8fvGuONQ4l+FlNomCJAiFrCr57FgQkAShCARBFTYIKdHBhEoQ0q9VYUj8fhcvfOEnLDWbUZIayZQLoT1ExcJQoWuGn+kffyv1b1vk5DfoShB/ZBd7v30fVd06mm2rkByMTqdbmr2JiYDBIoOeHbXO0u0ETk7cItMOKCV0tSJdsxN9QXghpK7E4u+2P2PKzdKWYwwljz1igxSx7TWD3f4efNcdy+ovXYbaIDwzxnosjOW1KJMyts5FEIQ/sevRnzkEISiiMRbxM0EEIbPP2VQO4rvMQOHFGnF6eGj38K0yDJsgPHPH/7LsogvwzJ1HXTRB5+NPsO/QARZfdhF+RaX9LxuIJpO2rcjL6x9FXzSXppNWUW/A7rsfwGhuZOXxq9n54HqshgaCc2Zx4LVtTFswH/+iBURqqokHq7DQhxKU5TGwsQq28qh61EfysUG4OujhyrogjSIiqgF/vP0hfnbbbUSSPXYaePmpfAQkQSgSQRjRJWqiVAxiDEmwNgyw4frvMafVg255nDwHKZLgiu/7a3SqzlhGaNUMEskksV3tJF58A/b2o1tOkiKRh0Ec6+k3/KFNyhGQi/Pa3mxtSYCgDc4RYIqt3Q5X696QXAMtx0jQVSlkGgra0XFTdUT1OFube1j+1SuZecUqO1Szc+Uq6tFY/m+vSxD23ceuh77H/Gt/ihVc5NArF+DxjqKMCII9uyk3w9F09OMdbmZ5sSKDSZNAZwdP3fm/rHzbW/HOmUNtX5h9966j36cy+4pL0C1IbN5Gx/4DLJw5mzc2vEjDGSfCigVUxxIof3mVTdt3csaFF7Dj4fVYzU00n7Sa/Vu2EenqwROsoXrBQrzz5xD3+QdtlcbD9kYiDsV6Q0YjCAI/3TIJ9fVwdcjDlbVBGnSHIPz+9of4+S9vI5qQBKHY63Sy6pMEoYgEwTVKHBRlTiRBEG/0IYsDn7+HyF2bqVVDqZj0Qzd6EUApqVgkRa6ioBfFNEn2RrCSFn49kMoC6cR0t926MvTk6QIL+6x2hQSDAY6cgEciKZRTi5AkDIVRzrrI7boc4nHY6qb//Bms+to7CC5PuSQObamT9a5MfLsuQXjzfnY99E0WXP1zrOBS50xJn4zx9GyCCEKuLqYfbOkShFwi+Fz1jkQI3IPVrbvKsPB1tPO0IAgXXog+ayZ1A1H2PfggA0acpW8XBEGha+MrtLW2smDBYnY+/iQz155I8NhlhJJJ2p95idf3H+Ksc89h58PrMaY1Mfu8MzEiEZKHOzn8+m46IzFmnvcWzGlNCAucwTGP41TPdpAXik3687kIQnVfD+9MIwiWAX+QBGE8kJdlWUkQjhaCIMYRheTdB9j+xdtp7BDW9RYix4wt7rcT1jg+jqag+6qwYxR/UeycCLZUYPBK4hzs9jmUJYXiUEAZJ/mM8xnaWtwMh24do4mZ7aZSWRDjusWeQB9zP/tWZnzgJLQ6z3guWWX50uXdqUGC8AC7Hvoq86+6DapXHJUEYbTDqZQEwV2PAdPC09bKs3f9HysvuRRtxnSC8Tj9r77Gm69tYd7KFXg1hf3bX0dramTeiuPY9eyzhGNhFq1YiSce4bUNG2k88RQWz5rFzoceRGtuZPrJJxDt7iFoQOue/ew51Mq8Cy9AmT4NQ8T7SAUvcIMsuf3JfE+y8YfMTJfj4BrDlqUkCHm/pUf1g5IgHE0EQewWuw0O3XwfPXdupEmvtYmBTQicVHAoOG55qePfvrELAmH/NxhX1k4HOYhMeq4EhzSIzHJOxjy7Kod/pH3S/jHIGyw7NbIdCMl90tbLDDpaYJKk3RehbWUVx33taurWzEIV4sup+hFDF14MBx9g9wNfZu7bf4lSv6q4hKlMJAiZU+yuoGLPfnq97iEoDHP1vn62PvcX5p14Anp9Papp4O3tpv31nXTs3w/JBKHGOppWLCPQOA2zu4u9W7cx0NaJYiQJtbTQfOKJeFWFjpdfQQ9VU9VQz4FtO4h39WDpOtXz5lG7Yhn401QMo4ReHnxFspjn2mnBMwAqFl6SIEzVTWf4uCVBOFoIgvtGxyG+bh9b//53TO8NOtkSraSTK8JSU8mQ3ODG2cyfjpQguBIB1/baVUEM/d0tM0QY7LTTw3YtJzaDIAtOjDlHWiFUGgktyY66Huo/chqLP3gW3paqqf2WuhKEww+yf90XmHHZbWiNJxQXkzIlCMUd5Oi1CYhFeGRNeO2EI3gCfhSPhiGkCkYCNZHEiMbs71WvhhnwIbKGeQwwYnES8YRNrvWAn6Tf66zoSBRd1VCFiCAax0yaGCJzaJUPw+uxA3G5EjpbnTJCboaJGv9o7UiCMNkzUB7tS4JwtBAEMY5UAkfrYIJDX1tH5L+3UoPjYWF7GFhOAKAhY8HcBMGRGDgnfCZBGH0Jp6kZUpuf265t0CgIgcirkCIHlmKQxOCwMkDi7Jks/vxF1J0wE8VTrPtQebxsY+tFEtrXs//ezzP9kv9CbzpxbNWMVmoKEwSxulz+anvqOLZ26Uoym9sKApHKEmK/Yk54KsW2I0gzv3EQtiVijjePEK9pdl4RUa/zrE2GM+YinSA4NU/+RxKEyZ+DcuiBJAhHE0EQb7XYXeKQfK6LNz9/D97XOvErXuK2t4Ht15Da3tKTJGVfiiMRBDct81CiJbcOd2txyIcby36oBSd0reNc4WyeIqZCr56gc6aXRZ86l5arVqKE9PLYKSf9LU1A56McuPezNF3wU7zT1rgTWJyelSlBSFdZZTGDGRcGLjlwtWmZeVPslZw61MV7M+gimTI+znTFHKwvRTLEwT+oYXPJQaZALdVGflR9XMMtqPBoBEGMx/VikEaKBUFakQ9LgnA0EYS0M9rqMen743Z2fusuWnr9eCzd1qsOHt8p/f8RBlEpCcOQpMGRIKTnMjjy5E6vZYgguIlqBEmwb0Zpu46rOxUBmOJagt3V/XjfeQzL/+ZcqufX544gU5Gv2xg6LczDe5/i8D2fpvbcH+CfcUZxiVOZEoQxIJWzSGZI4cHDO1UyH9fK9IMzvcH0NyCz3kEjxJT0IPOdKzdyYBP7jMjmtrQlNWDNMhFeDOlujtKLIefyq8gHJEE4GgmCAknDQt0bo/3Hz9P+m+dpCGv4LNWOrejejIbdgEbwWnANEYcsCUdb40cITR1xasptMb2UczN0GhPyjKSm0ukfIHnuDOZ/+jxqjpvu5DeoyNepBJ22TAhvoPVPHyd01neomn12cXNSTCGCkGt2Rjv8RyqXfmAOregjn3QUacOnrNieGbnGNZbvJUEYC2pHXxlJEI5GguCOKW4R39jDof94ktjjO6jqUfCY4s7uBDhK13264tMj1AmufHe4m8Igao50IZWiefAZh3rY32Wc9OIbEXRGSBOiiklbMEZiTSPz/upMms5ahBKUqoVhS1JgGttE210fJXDaNwnNO08ShBLtw4UShEJSLJcqMmSJoJAShFIBW2H1SoJwFBMEO1BRBGIvdHDo588QfWQPwTB4hXRBuEilJ0qyL/Upt8V0g8QMeWm66mGQBIxCEByWkG515fgtCIIQUyza/Ul6V3qY/5GzmH7BCpRqj53NUIoPMhZlfAttd3wQ7yk3U7PoQgeeYsmlpQRhEOxCCUIhe71rHiR+SglCIcjJZycTAUkQjmKCMBiOd8Ai/PwhDv/2eWKPvUGo0yKAx46X7qocRM4Fx2xw+DZ5pIHicMAcwuD+zckamS5ssEmKY5eYSk0HCdXiYFUE48QWpl13PHMuWIlWK9IhZxKKyXw1yqDtFJZKcgcdd7wbz6p/pHrFlSn30DTfuPF0VRKEMRGEQiBP58guUSik/GQ8K1UMk4F6+bUpCcLRTBBSFtK210DYIra5ncO3v0hk/U78h6J448JKQORRsNBNx3krM1dCZoyDI+FKvxMN5WAYogyWcBu32xBuZP1aku46ME5tYd51a2k+fQFqtaNWKJW1evm9dgX2yNxF1x3Xoi75DDWr3yMlCAXCl+/jhUgQRqozm91MpdnUSIKQ76o5up+TBOFoJgjpAVjEGx+HxK4+uh/cRvudL5J4tZOmZBDNSqLaBgkiRVPqM+y0dl0iR5NrOyGb7aBMTkzGlLxASCRMVMUgrpu0GgP0LgxRf+ExzH3H8VSvaAG/6oScHU3uWixResW9x+7Axbzsoe+u60jM/RgNJ15f3JGUUIKQ6dtS3I4Xv7bxEIRKUBsUgpgkCIWgdfQ+KwlCCQiCqNI5MocCr2TbQMTLGDQsZh/qpPPXfyT62mY8epRbvvkVViybN3Z9s2tCnT5GEXW5M07PM3voXL+T+BO7UPa3EzL9+CwPiqmlwiGntoiUoaF97Kd2/MFYCnaIZvFx/iKSQdmlTCcgkxAJxLU4vUqY3mYVz3Gzabj0OFrOXoxvehDFk9I9uGBlzsWUJQeuJMdFej8Dd19HpOUDNJ36V8UNpVMigmCL1dPmz3X1K+etVBKEodmRBKGcV+rE9U0ShBIRBLFBinNPWC+L/00KQci2jsIWiQMD9D2xl/aHN9P65BYCXQmmeabhM3RbqmD33JYkpJI6pXsl2AFfhpI6OTkfBDFwws3ENYs2I0x3dRLPyunMuOAYms9aStXyZrQqDexIiimNRqXJXyfu/Uy1dIiBP7+bcN3VNJ/x8eKauUmCMDibkiDkJgjiVXXjIMhASRO+EUx4g5IglIAgDN2wh+Kslx1BEOMW0oR+g9jePvo27Kf3hT1ENx8kvqsdf8TAj4bf8iAMGDVLx1JU247ASQVt2WFpnSyRJoZiEFUShJU4/d4kzKkjcMwcQifOpubEWVQvbkKr86HK8MmFv+TWIQYeeC+9/kuZcfan7XlIv50XXmFaiQyCcKAmRPMn30//MYsxFN0OK+wa2RUi0DmC82VY5xVS17jGV0Dh8RKESlOpZINmNAmCWHc6JiGZ7rmAlVW5j0qCUGKCIESrZSlBSI3b3reTYIVNjPYosV1d9L68n+5Nb9C2bQ9qRxyzK4YZM/Gqup1oxiNiy1sWcRXiloGhJvE1hIiGVKoXtDDtlKXUHTeb4KImPNOrUEO6k1chFxCV+x6VtufWQQYeup4ez0XMPCdFEFzpy3hbzpQgVIdo+uT76Vu5GHMcBCGzW5k5u8pR5ZCLIGQGR3LHaJvpZoRQLsfxFbJURlUx2ATBorqvGylBKATRynxWEoQpThCG5KtOpicRMtUKG5j9CYyuCObhPmIHB0h2RrEGoiiGAabjkWBpCmrAh1XnwTetFr2lGm9TFVqNF7VKQ/E4CWuke8J4N4dDDDz8V/SZZzD9rZ8bTBc0zYCeEwAAIABJREFU3lrt8hkE4XB1iIa/fT+9xzgEQR+jBGEqEQQx1sE8DS7xLpIXalHmeAyVSIIwBtCOwiKSIEiC4CBgb2juf0JzoNhGh6oI9SvMEexUdyK6kiMctv9fXKl01UlvpwsnCJEOyjEvGFSplKMsueJe5IOEH/8MAwNLaLrwyyiKr3jBpDIIQmsoRN3fvp+eYxej4BAEd6rHM5WVIEFw1/VIJjHZjPYkQXAuFn+4/SF+/svbiCZ67Bgr8lP5CEiCIAnC0Ang3n7cQ8HdFQV5cNM251jzI+qeK/89meQRtBF5+h/p7W6g5cKbQAsWrz8ZBKE9RRC6JpkgZAbcKt6Ax15TOknIVDdkrvvxkKmx97B4JbMRIpHNUSRrkiqG4uFdrjVJglBkgpC+MdgJE/NQvZfMzbGQVZdrh8vlaZBuhJb5eyH9kM+mIZBaQFYXsQ3/TPdhk5aL/gk8NcVDqUwJQvEGWPyaMuwti99AGdQ4qpGiTPdcBrMzcV2QBKGYBEHUlRGcqGIIQqrvNhyjXX9GIwnu8+73lX59mrj3L3tLYi2ZIjplL4kXv0PH/namX/J18DQUr4clIAgj3f4rRcVQPGCHairWazHRUpVMnm87O1tCoyi9GEqxTsqxTkkQikAQtEBo0O3MZt5uQKFKkiCU4+qcyn1yVTp2Yot+khu/T/uuLbRc+h3wtZTMzbEYKoYRCULGXE4lDumSI/eykEsYV67L3g1+5RAE4cXg5craIA26tEEo1zkbb78kQZAEYbxrSJYvBQLp105rAGPzj2h7/WFaLv8p+OaWNUEoBRyVXGexCILgipOZr8RekikJgrRBqOQVmX/fJUEYI0HYa8EPu2M8FkkgJQj5Lzj5ZAEIuCTBCGNs+y9aN/+W6Vf8BvyLJEEoAMZyeNQObFXhro+DBEExqe6VRorlsK5K3QdJEMZIEPZY8IPuGE+EE+gpFYNr6T+SikE0ky3QSklyMZR69cj6JwYBM4L5xh85/MJPmX75r7GCi47wux9zR0pggzBSX9zDxf3OfUfG3O8yLzjMWLnM+1po9xwvBqliKBS3SnxeEoQxEoTdKQnCkymCYBv2pTwWRiMIoqmRQi6XhRdDJa7eqdJnK4a1+w4OPvsDZlxxG1ZoibOOiqHIH4Eg1P7t++meZDfHip/atMiKRxsZEjYI1b3dXC1tECp+meYagCQIkiDkWiPy+8lGwEpg7fszB5/6N2Zc+jOs2hWSIEz2nORoPz2yYqWHXc4cqkMQerg65JFGimW+DsfbPUkQikgQcqkYCpMgxLnlmzeNL93zeFeHLF8eCFhJrDfXceDxbzDzkp9C/cqi2yB89Z++z5bXD9AWClEvJAipXAxFC7U8it7BdtIowmeiXQBzdTlXWJFc5cv5e0kQynl2its3SRCKQRD8IVvcaxOE1P9EtemBktxm8lcxJLnlm/8oCUJx13uF1mZgHXyAA498nRkX/xi1flXxxpFSMfzTV7/Ptm0OQRC5GARBGE82x+J1ML+aypkgFIkD5QfEBDwlCcIEgFwmTUiCUGSCIHIRuIYG4yMIBt/55pc4Ztm84uiay2TByW6MBQEDq/UhDqy/mZa3/Tt64+qxVDJymZEIwidTBEEde7rn4nVQ1lRuCEiCUG4zUrr+SIJQTgThYCedv/kjsdc249WTfPubX2LFsvmSIJRu/VdIzQZW23oOPPhVmi/4Ed7m44vXb0EQOiN85ebv8/q2A7SHgjTYBGEJSUkQxozz0ezFIAnCmJdFxRWUBGGSCIIbxlT8FAZNQdNixqEOOn59O4ZNEOL82z9/meUr5g/P3He0ySsr7pWZjA4bWO3rOfDQV2k69/v4Wk5y1sR41kJaIKbezjBfuflWXt1+gMPVNUy78QP0H7OYpKrZwrDRQgVXakTAyZjBSmsz3SXbjg6bFndZEoRKm82x91cShEkgCJmJUARBqDIsprd10fW7/0F59VVUs4+v3fRZTjh5xfAe5joUJmPXLlWfxlPvZJUd+7s4ckl7Z7awutbz5gNfofEt3yUwY80IpLHAiXcfN6HjcB833/w9tuxtY39tLbNvvJ7+ZQtJqKokCMWezwqpTxKECpmoEndTEoRSEITU2zWaDcJImdK8psW07j56/+8erOdfROk5zA3vvYqrrr0Ur9ebV4jVyfK3znY05Tqns63vXEdetrrH06fxlC32+6rY1q8WVvcj7HvwqzSd/m2qZgqCkOZon1ejqVENgibqhWTS5KUNW/nBrbdxIJzkzTkzmPPX76N/xjQMTbeJSK55yKt5+dBRg4CUIBw1U5lzIJIgFJEgmG4o1QIIgnhUSBBUBepiUdTHn6P3ngcJdB6iMaTzgevfw8pVy6mqqkJRFPs592Pv9cP+bdmiwInc0G0VSZZl5pKhQvs0VO8oJ5Q4NEdpN2tZ+1wcnVrkUzZN2przBcv3gZF6JP6m2VNsofc/Tvuz/0bVqq+iN6dUDGmntxOjfySUU+41R3xnEYvG2bv/EHf875/Z+OobHMRD9NxTmX71pUSrgvbMWhmTm97CeMhfvrjI5yYPgdHsKCRBmLw5meiWJUEYI0EQoZZ/2BXjyVQuBnEwD2ZrS+2irpo4XWKQqTp2RXnip88wqN1/kL57H8bYsJFANEJNdYAFSxbQPG0aHlV1Djc7sLujgh6+STu3won+lOrG7dRbOEEYOiqLXDYHuSgG7plYWpaJrnuYZbzAcXUvsi15CTt6W0jaa8EZnyIomqKijEIQRv47dHV1c2D3Pg61ttGm6/TNmEbtdVfiWerYH5iKMqLkyg0CdLQFACrG/FVCHfm4hGbuWenrUhKESpjl4vRREoQxEgQ7WVOKIKiBkHNYp0Itu4e+e1YfeZAf2agrSahLxPHt3Ev7fY9i7dyD1tdHd3eHvVFrKBiYDgcY4exTzUlgB8VZh6PWIqQmI33skWaNsjPy4TZULLuCYrSseU6TJcJ5BOmPYVl4fH6W6Fu56V0z+MMLjfzpxW4Mj9chi4OLYRSalhJ3DPvW/puCaZoEqkIo9bV0zWig8YIzqDrlZOK6B1PRMEbhV+nZCUuERIlX1dSuXhKEqT3/hYxeEoQiEQRRjVAxiDgIYyEI9plvgdcyCcUSKHsPEN68hciu3cS7uyGRcG6Irsw3JYpI3/jVYoWlK2QFlfBZe7yj5rd11CmjHdYOsRhNtiHKjn605SrrEpMJOxwVjaX6q3z21Aj/u3cl63YqWLqQGrjDt+nlkVClOmimJE6uZEX8U6xVxeMhGapCmdWCd8VifMcuw6iqwrSEUiNV/wjzKwlCCRd9mVQtJQhlMhGT3A1JEMZJEJ5wVQxFkCC4F1PdsvAaBp5IhFhbG7HOTojEURUVVRCENEODI/WEhWr7J3kFZml+dL16qlAWO4TSlXWJycThJg7rlcYLXG/9mfv0q3kysQTLYwmtgvNxD/RRuiTWiEsShh3uuo4RCqJNa0SrrSHu89nEwdZiZbFkkXYIEzf3k9WSJAiThXx5tSsJwhgJwj6R7rkrxuORBELFYH/SJAhutfmoFwZvdqkLodAUCGNEW8tsWaiCLCQtR8XgSpXTb8CDO3a2bb28Fl5evclhQZ9V2j+OsqMKLVLzY6Q6b8soJsAoVNgCHBd+nnds+xfWz/44L9afQ0IXEoMUPcxqGyGkAYp98Ke0DU5YcHvRKSQ1FUNVUWybhlSo8FS16UTg6KGdea28Kf+QJAhTfgk4R9racy6eMElpJUHubP4quhYg6K+xb+8f+tB1XHrZWfh8HgRBEDYIjwmCUOXkYnAJgnOrG5KO50MS0tUS6RMi7BrERVEzHW8HocLIZoV/VFGEcRzyudzzRiUXaQamI63XzLlMk96XbHmLw/34gee5ZvPNrJ/7CZ5tPp+45hkkCLk0S/aaUWyHyWFygcF1lnb6j7RWsylrSjZoWfGkIiAJwqTCXzaNS4IwDglCOkHIjHmQKYbNxcJGIwiuZGIiVszoGvuJaP3INmxMstjeZTsYRbls4ym0rDt/tgX/0MV98NZdSoTEAb9q4Dne9/LNPDLnRh5vcQhCugdithu+KG+rDkb4ZP5ZEoRSzmTl1C0JQuXMVSl7KgnCGAmC7cXQPaRisAmCK6J1D7aMgyTbRA6qkzPM7jKJQylvc3aiqSx4uF9NqLg5W2MjsK7BW3KuTmaWzbxej1L+CILgxr5Iwy1X04W+0KJry8Iv8MFNN/Ho7Bt5dPpbSejeYQQoGyEtNIBWOhQuTOMZk20yM54KCgVMPl8UBNx1kPlqOG6O3Vwd8nJlbZAGXcEy4A+3P8TPf3kb0UQPpukq4orSFVnJJCEgCcI4CMIPuh0Vgx4IuaEJnHTPGXXmUjGkH/rZni0lORBdHq1t+zbufjnCRp853kKM2Ao5/0e67R5BWlK7WT6uXINlM+wIsvn3Z9oc2KRKzHkKBLuPRTwM7fYUWDywkRte/gKPzvg4j8y4kLjXN2oztjdNnpNQ6jU1SfuabLaECGiWSXVfD1eHPJIglBDncqhaEoRiE4SUFCG92sxbWOZNvewJwkhnnuh0lrhMqa/zXuPZDv/MSvKpu5AzOvPQzxoAaDRdUfokF9J42uBGu7GJvy8Ob+Kjmz7PY9M/xsMzLyHm8w2R0gxS4tip5PeZCIJQCFnLr9djfypP3jT2Bia55ERgLQnCJE/yBDYvCcIEEITMlzbzpl5pBKGQ/mc7gAqRrIhpykasMr/LFv75CMJRgAQhs6wbVdD9+3iiC6bjka5yEtKAheGNfHzjF3ly2kd5aNYlRP1pBCFDapUL1/QxFEoQRiMxE7hnjbkpe6xpzGk8c1VIJzIxzqbKK6TeyXpWEoTJQn7i25UEYQIIwkhNuPuUu+G6N5tSqhhy6ZNH27gyN7h8D6CJuM2M9spkEoTRxj6oXx3B62QkqUbm30YSFuR7e8/ndRd1iYiGsyKv8JmNX+CZ5uu5f/blRH2BUdMw5zs/6YKHfIQe2YhhPmOZ7GcmiyC4OLsYl5IgTIS9hyQIk72SJ659SRAmiSAM3jhTv+RDEAq5FY9GSsZyeI2VIEzcMj6ypUyssm3KI5GJ0XAq5MY9FqxHwiyhQGN4M196+Qs823Ad98+9koivKruXRoHg57O2RiIe+ZQrsCslfTxd4jNREoSSDmgSKpcEYRJAn6QmJUEoEUFIPxzyMcSbCIKQPtRCbpnpN03xe7EOvlKu+UJtGjKxyda3fG7bbvl87CVGa0vgLA7guAo1/a/wlVe+xHN172bdvCsJ+0tDELLhdjQQhELWRSnXZyXXLQlCJc9eYX2XBGGcBEFEUtTSvRjSQi67VedKh5x+AI+0CbubWiEHU65lUChByFWf/P5IBEaSvBSCkx0ky3IIQnBgMze//CVeqLmGexe8k4ESEYRsN+zxEIRKP5hzqZIqfXyFrEtJEApBq7KflQQh6/ypeEQkRV8NWiqS4mWpSIp2umc7DkISLRAcHjwnFXI5X4KQaVmdKX0oJjFw+yQJQulf3JHmzZUoiJ/5xp1IqBAIv8bNmz7Hy9VXc8+Cq+kTWRhHEeUUIuHJJJ+ZazGX1ClflUtBniKln5qCW8hlv5BprDpaYKqCGx6hQC5bomK1Mdq+IwlCMRCujDokQchBEOxQy74adEXlhrRQy4Ig/CiNILh+8PbBm2FVnkvFkI0glErHO5EEIduhU6rXpBxudLkOz1wEwSUTgiBUhV/jnzb9A68E38k9i66hr6qmKLqeXH3MRRDE9/ms0UonCNnW6aCha9pDhZC0Ur0D46nXVW+NVIckCONBtrLKSoJQIoKQ7zLI3FwyD+58Nt9828pnsx9LXdnKTJaBYyFGisUes1vfaGNPtzcZrW23rFgPDkHYwj9t+jteDl7NPYuupb+quuwIgrt2R1KJHQ0EIf3dzGcOS7Gu0td1qUn+aHuPJAilmNnyrFMShDIjCKI7+Ro4jmdJlXpzyXVI5tt3IY0ZUQKT44pWiGdCvn0p9LlMglCIe1t6WWGDEIhs4esb/4HNVVdx5+Jr6ZsEgpC5NtNF3Zkqk8yxjyTRGenmXSjGWZ93RTBFqDR9uY209HKpAccqUcisdzQcizDEI6pIJ6np7UqCUAq0y7NOSRDKgCCILuTaYIqxfCaKFKT3dTwSBHtTzQJMtkyKE0UQ0sdXTHzdesXPqE0QXuMbG7/Idt8V/HHpu+gOjm6DkLlWsvWxEBVDZr3Zxpur3mJiNdJ6c1V9R7jcjFHflatYLkPk8RCEbHtDqXDM9g5LglCM3bgy6pAEYQIIwkis3212IgyO3LbSb7Djud0WsrRzEYRcB0khbaVjOtKmmu+NNXMzH22Dzrbp50P4RosMmd5PlyD4I1v51sb/x3bfhfxhBIIwGo65DqZ8+pltDrLp34t1sBWyRvI6MN2O5QKngMUnCYJM1lTAcqmYRyVByIsg1KIrCjd86N1cetlb8Pk8CCPFH3THeTKaQPcF7WQ9rnFiZva8bOF4MwlCKQ/ubAShkNtgLlH5aKJJV0SdKZoebQoy9dbpzw3eEEvwqqW3m6udfMnESN3Mt2xMBV94O/+28Wa2+c/hD0uvpSdYPejFkOsAzbedXFAWc23mdZCnOlSoHY5LWsQ8Cm+CzPWWzg9yreXRbtKZ/Z9qBCHU38PVQS9X1VbZ2Rwx4Pd2NsdfEE30ymyOuV6mCvleEoQsE6Wg4Hgx1KOpKtdffy1XXP4WfF4Pe4D/6ImzPhJHDQiCIJ52LLqP2JBHiPU/qgQh89kcYvZC1lm2gyLnbTjtgVzpg4eJ/jOukYUcVtlUCGLcYnMf7w14JLH5SBKfYrfjtuuOMZNcutkzbQmCJuIgvME3Nv8ru/S1/Gb5VXQHa4YIQsaaybkmcsnLM0/F1L8z58OeyyzAFOuCfsQ6yCWaSOtWNo+iQvuXmcdhFJiOgL/QdvKt1yXcOee7CA+4kAvCpVom9d0dvCvk5Yr6EHW6hsju/Ls/PsgvfvlL4sk+DDNZISHVigDOUVyFJAijTK5zW7LQ1SBV/kZ7H7zqyou47rqLCVb5aVfg7pjBrzu66Q6EQPOhmEMuX+7G5N5GR9vTxN/TN5D0m4lbJn1jSvevHvw+zwWa7VzItecWctPKszvjeszGbDw777haH39he32lHexivRgpF9lB0iAIpwkxXRCEfXznlVvZo6/iv1ZcSUeoxg6iZH9S9ZSKxIxltLkkL5lStbG0IctMHAKD+5RioSdiLIv0cUNDNadVefGhEo6afPu7t7F+/cMk6cOykliu7/fEdVO2VGQEJEEYlSBYNilwCYKRTHLiCcv59Kc/TMu0Bju63RbD5PbOHjYkLAZ8QUwhP0jt0uIgd2+47oafvoE78gb3jBsSgjq/pZ50f6QOAGfTHX4qjlR3MdfI4BmUS45dzEbzqStLqul8ipfLM8PJoTPh7pyKNaQJgiAiKUZ28+3NP+QN7Rh+tfxq2oPVqKkNWElJr0Yfk0s7s9HU0UqPjYU5a3V0ypJNfZR7bnKNJ3cN8ol8EXAUNq7axmeaTIsNcIFf5/LaEDNU1Zaa7j/Qy99+5it09/QSS7ZjWol8G5DPlTECkiCMShCcY1pXq6jy16MqGobRx+c/dyNnnrkGXdfoU2BbIsmG3jB74iax1A0wvUpbkpB6uwYP2/SoShnXekEc3M1TPJ+pQ1VxiIv4CAKSqQst9lpzeYEq+lXsysdZn1XBIgR33jLoXjo9tH8XN+2ootAQe4P3b/kJe5RlPLny3fR6g7ao1/mINZNtdvIJyTTSZIx9dTklR2eVhdoVDO9ducmzxrmQy7y4WFqmULcK1QIqS/weTgn5mKdp6CJXiGHyp7sf49++82PqGhroDx/EtOJlPirZvXwQkAQhG0GwFHQ1QJW/Dq/HR39/D2vWHMdHPvp+5s6bYesThKat34QuwyRumpgjiHtH1IMO3q4sh0AMyg1SB7F7Qx4hKqMgEK7+d2z3u3yWxvBn7ONnohrLo3ulJiulHmq+9YtxCtVDtXGYhr/cQltyJpz5MSKqfxhhKzcBTx5TKB+pBAQUazAkuCB1QVWhVtMIClUDColEkp1vHOLWW3/G9p178Pv99AwcxDQlQaiE6c3VR0kQshIEFV3zU+Wrwav7MQwLw4xy/lvP5KqrL2PW7Gl4NOdAt29MGbu+4ACuaC7XRJT79/keaBM5jlKRhHIcq5ZoJ/rM9+iN1NJ8/o2YeiAjoFa2XudCajxlR55xV4E2WsvjkwHkGs9ErsKjua30dTEk2RTom1jE4ybbd+zhzjsf4qlnnkPTdAzToC/cimlKFcPRsDIkQchJEAIpguCzPRVMy0BREpyy5kTOv+BsFi+eS011EI+motpSAfelGm5HcEQzWffk0b6UG+PR8NKNPobRF4WSbCfxl1vp7g/QdN6nsDyhIYJgS63Gc8iPp2x2gjDaWMdHwuR7UPr3IG2G7G3Nue0IYpdMJOnu6mfrtjd4cP3jvLJ5C0nDRFFVLMugb6ANQxKE0k/RBLQgCUIWkBVLZHP0EwzUoqteQLOlBWLxJwyD2XNmsXz5QhbOn0tdQyNen8+2VXAkCUMxgjO3M/vr8e2QE7A0yr8JJYsR3Lh6b5WJdUOaesljHGJB22/pi1fTPvs9xNXqYaRAEIShdTa2A3SkUY/P8qRUi3xs4xvXmihR4fKVMDqrYejKo9ixDSLRCO1t7ezZvY9tW16ntbUdVdNQVLGlCbmCRW//YUkQSrReJrpaSRCyIq446Z79giD4hpnpiVchkUige3T8/gCofpIJc8g4wLbtHYspVq5N9ejZHIuy2EsBR64pKErHh1ficMpUw2mnhjj2LUWlSmvj0ye9jumbzg+fnM6AGUSxrRNctpkutBfrLh2YbCDlGqxrCluCQcsqbQRKsYTHC+2Rq8KxhlE0bClqPB7FSibxqR57AKbw8cbAtEx6Bw5LFcN4J6BMykuCkIMg6FoVwUA9HsUz7IYmCIIt2LWEXYIgCxbJZBLFdW60rcrL8dUvk5UnuzEMgXRD1vRVI1aZqSgE6OCLZ+7DWzufb6zz05cMoFqCILhP21YwqTrdv41h/aUEX0NSrvR65aSVAoExzFIpujF8PQ77l/CdcpaaritoHg1VU9AUJRWLQ8gNhJ7LwrAS9A60SYJQ8hmamAYkQRgVZyG0VdGEkaK/Go+tYhj6ZG7H6jCnQ/HKu9KDXDe0iZlo2Ur5IzDktJhOLRVMRUU3D/Hpk94kUD+P7z7mZSBZlZIguGstkyjkd7CP7h0p9Bvp67j88avEHpbrNWL4rpXeS2ddueooe9XZdyXHfStpJukPd2LakRTlp9IRkAQhywwKgqCgoqoa2C4JQ5tuehAYh0q4H/dlKsd7QaUv16O7/+mb8mCkQVt8q+AxWvnMqd1UT1/EV+5PEo978Vjpm7C77vIjBi6S2Z52VvBw64ajewYmdnSDcp5yvEPk3L4cOuvIUZ2HbWmXoA4yzPLELqQStiYJQh7gDnKDDMcyYSTnhBMtX1OjPIYnHylTBNINxHSzg0+e0kvDnKX8/bokWlzHb8bHbetajmdTmU5HybpVjlKEXOtC7nglWw5lVbEkCDmnQxkSHhxBENzYB7lep5yNyAckAlkQUPBZXfzN8Z00LVzO391XRIKQEYhLTsPEIzC+sNMT31/Z4tRBQBKEqTPXcqQVi4BCldnFDcceYuYxJ/B39yZRokpxJAiSIEz6qpCJqyZ9CmQHRkFAEgS5NCQCZY+AQshq4z3L2ph//Mn8w70GVtjCb8akiqHs5y53B3Oq+3NXIZ+QCJQEAUkQSgKrrFQiUEwEFGo4xFXzu1h26sl8bp1Jst/Ab4yfIBSzl7IuiYBE4OhCQBKEo2s+5WiOSgQU6mjlsjltrDpjDZ+73yLRa+AzouOWIByVcMlBSQQkAkVBQBKEosAoK5EIlA4BEU2xXmnjwpZDnHjOWj5/v0ncJghSglA61GXNEgGJgCQIcg1IBMoQgeFuZAoNtHNu0yFOfasgCEmivULFMH43xzIcuuySREAiUCYISIJQJhMhuyERSEcgnSCIQDT1tHN2w2FOv/BUPv9Akki3JAhyxUgEJAKlRUAShNLiK2uXCIwJgSMIgtLO2XWHOP3iU/nCegi3x6UEYUzIykISAYlAvghIgpAvUvI5icAEIpCpYmhUOzi95iBnX7yGLz+i0NMaw28mpJHiBM6JbEoiMNUQkARhqs24HG/FIWAbKapdrKk5yCUXncQ/P2Zx4GAcL4YkCBU3m7LDEoHKQUAShMqZK9nTKYuAQkjp4+SaPbzzopO45UmF7fuj6CJGr/xIBCQCEoESISAJQomAldVKBIqHgEJQGeCk6t1cd/Hx/PszOhv3hNHsEHzpaZ6L16KsSSIgEZAISIIg14BEoOwRUKhSohxXvY8bLlnJz/8Cz+zoR9W8KYJQWIrnsh+u7KBEQCJQFghIglAW0yA7IRHIhoBCFTGWhw7w15ct41fPJ3h0Wxhdr0oVMiV8EgGJgESg6AhIglB0SGWFEoFiI6Dgt+IsCR7gk5ct5PYX4f7XBlB8IRQsVMvEkuaKxQZd1icRmPIISIIw5ZeABKASEPBYJouDB/m7y2dzzys+7to0gOHzoytJNMvCsBSsQZtFabxYCXMq+ygRKHcEJEEo9xmS/ZuiCLhqA822MzDUJLMCbXz90pk88IrJgy+30lBrMa3WxOerYlNHgEMDPrymiLsoCIJUO0zRhSOHLREoGgKSIBQNSlmRRKDYCIiDXrX/N6BBk+cwP3x7I2/s7WZXay9LFzbSUuPBGwjwm1c9PLzFgqiJYpMDSRCKPRuyPonAVENAEoSpNuNyvGWPgOOT4MRSVBUhQTBQkwOsaOzkpkuCmIbO3kQ92zssEm0HWT23iid653DPxjiJcDQlQZBqhrKfaNlBiUCZIyAJQplPkOze1ETAUEwsBUJWH43BAdZO01k9P8hxMxK83hXk96/A1jaDeZ6DvP8xDamjAAAgAElEQVS0Zh5qbWb9FhMtFk/RCxEfQZKEqbl65KglAsVBQBKE4uAoa5EIFBWBhKJgWDHOndPHpUtjLKlv4tUOWFgT5qVWH997JIbpq+H8BV1cfHw9v91g8NI+D9pgdEWhmpAEoaiTIiuTCEwxBCRBmGITLodbGQgYiopixTmuuY/3nuxhVUstD7xygCW1CfbFm/jXh+LUBXWuXR2npmU2v/lLlDc7DEzVQiglVCF+kAShMiZb9lIiUKYISIJQphMjuyUREP4Impag3tfFX6/1sazRRBno4bXoXL7+QC/HTDP40Bofz7TVcfdmiMcsTDWBZgmCICUIcgVJBCQC40NAEoTx4SdLSwRKgoAQAFjCg0FRMcwki0N7+fYVtdQQ5emOGdy6vp1z5lusWTWdX2+I8/IeE031CIfIVHYGSRBKMjGyUonAFEJAEoQpNNlyqJWIgFAVKJhGG184Pcxbjwnx2ME6bn+2nXcdp/Om0sxvXrCIDZiodqQkmbypEmdZ9lkiUI4ISIJQjrMi+yQRGIaAgq4mWF69j5uvaOb5zgB/2mbxrhMaWP9yPw++FkfXhPRAGiXKhSMRkAgUDwFJEIqHpaxJIlAiBBTi+PCwm29fpNLtncb3nlWpsUx6uw0G4tqQ4KBEPZDVSgQkAlMPAUkQpt6cyxFXIAJJPNRqvbxjST8zli7llicixHotNDOBSMIgpAeucqEChye7LBGQCJQhApIglOGkyC5JBIYjoGAqJlWWSUtVlKaZLWzY04+V1LEsEVpZmDNK9YJcNRIBiUBxEZAEobh4ytokAiVBwFCcrAyWaZE0waPrtuRA2CWqtuhA5l4oCfCyUonAFEZAEoQpPPly6JWEQCpHowiglOq2CJro/C6zN1bSTMq+SgQqBQFJECplpmQ/pzQCblxEYWkgqILzM/0jVQxTeoHIwUsESoCAJAglAFVWKRGQCEgEJAISgUpHQBKESp9B2X+JgERAIiARkAiUAAFJEEoAqqxSIjBZCLgqiKH2ZWTFyZoL2a5EoNIRkASh0mdQ9l8ikELAyd/gZnJ0YRmyXpBASQQkAhKBQhCQBKEQtOSzEoEyRGCYsaKlYAlPB0W4QArXR5n2uQynTHZJIlARCEiCUBHTJDtZWQgMHdlDAv5MUf94vQ6G2lDtHE0miiViJHgwPR6bHGgkUa2EkxXSiaKQBmM6rRhvXyprdmRvJQISgfwQkAQhP5zkUxKBnAg4wY4VVJzohiK4UULRMRUN1YyhouKxLDukkYKWCm6U3+GcGUY5vZSIomh/r1r4E4eZHowTTersjdag+kJgOL0SBCGdprjukjkHJh+QCEgEpiQCkiBMyWmXgy4VAiJCgakoGPjASuCxuqkyDjO7wULztrC1zQ9KAMVSsRRBFfKLgCiO93QBgCVUCKk/CHUClkJN8hA3nBXg2CUz8Koqd74c4bcv9KMrQfTUgEX0BEFfTAU0O0yzSxvyIyqlwk3WKxGQCJQfApIglN+cyB5VKAJ2PEPFQCNG0OpjVrCftfM1TlsUYlpDI6/0zeSr/7MDRa0BK2kf1Pl+0gmCaEcQBKe4c9iTHOAdC3q5cu0c1m0PMy+YZN685Xz6v98kktDQzbjdlJAh6MTwKFGilm4TGRVdporOdyLkcxKBKYSAJAhTaLLlUEuFgBMG2UOc6fohFtVFOXVxNYtn19ISjKGpCi91tPCrp/rZ0SEUAiJcshMNMbsR4ZBCwCEIoqxNDzAVC0VIAVQVxUpSbeznE+c3EvHO5acP7iKoRFl9zGLu29KLZXpRkkkURcFLhOX1PRw3v4Fn92H3R7GEukNKEEq1OmS9EoFKRUAShEqdOdnvskDAEdcr+JQwa5vaOXexRtPMmXREvQy0HmRxs0mHfw4/eizMwU4dTOeAd0T7KSmA8E8cDKHsfm87LNrHthtUWbVEW4JeJKnXu1lUG6WqOsSuLg9zva1cd+ZMbnu1mr/sUbASUbTYHlbNVvB769jaqmKZJkure7jw2CBa7Tx+92yYna3CQEF6OpTFYpKdkAiUGQKSIJTZhMjuVBgCikXSUgn6+vnIaVX4/FVs2G+wYXcvK32tvHvtNO7ZFeDRHTpG3LAtAJyPcygLcmGh2STA0RoY2FaFNn3QMFPif1FOsxQMxaRG7+XShd2cduxM3jQbuevlPrutC5bX8s1H4mzrn46ebOfs6Xv40LmziRseXtofob+3j+XTQ1iBRu7alODl/QqGrZ9wSIn8SAQkAhKBdAQkQZDrQSIwZgSEL4KJOPZVNc6CJoWOmMahHhXLivOulQO8ZWktP3l0gB1d1fZN3TUsdOQCQhYg3BPj+FQDTVGICTdF4eGgWBjCH8I0MYWxIz40RVgPmMwMdfIPpyu0JYL84VXY2hXn+lUGp8+r5jvrOjgQrWWZdw83vm0a3YafLfsHmNFSg8er0d7v5S9vJNh2wCBhiHYcjwtJEMa8CGRBicBRi4AkCEft1MqBTQQCKhqGLRWwsEwDVB1dUQlYnVx3ssWs5iZ+9lgvb/b7QRW6/iGrA5U4jZ5OVk5XmFPvw9ACPHPIy/Y2FVX4SBJhZWMvs2t1tnXVsqsDelUPc+u6uPnsGp7cnuD3r0APJjeeZnDStADf/vNefEqSD63x0rRgGd9/eIA3DkRorlZsgtAZUemPetBttYZlGzs6sgMpQZiI9SLbkAhUEgKSIFTSbMm+liECjuGgY04o1AQKHiVJjdXGe04N4KudxS+f7uVwv/haGCeatnRAyA7m+g9y2bFe5s5qIZbw0BXz8MBOk5f2WfhMg3rrTT55jofZTSF2DAT57fM9vNThY1FDP187u4EHX+7jjs0qvZrKh08xuGSRh2e3HKAp5GHJ4nn84iWTR7eIYEkeW9LhEAInHrOI1eB+JDUow2UluyQRKAMEJEEog0mQXThaEHBUCMJ5sNbq5H2nBvBUt/CbZ/o5NGBhquJ7FVU1mKUc4L1rq2huaWH9NoOtByIkkipdUR8DCfApCVo4yGeuWcZLb7Rz/LwAh8NJfvJUkmpvjC+c1cC6jT386TWLhK+aFU29XHlckJYanTgeHt5h8Ni2OElDeCnYFg4pkCUdOFpWmxyHRKDUCEiCUGqEZf1TDAFHmqApvbzvZJjfVMdPHu1jT8SPpghpgxev2cENx4dZtWQ+f9iY5C+7E0SSGhoWASvC0mkWfQkf7b0xFswNsbs1ytJQDx85r4GN+xU27TjAdWtnc9+mMOu2JLECdehakmp/jIBHGB5Ce9iHmRCxG8083CknYopkaOeJQFm2IREoJgKSIBQTTVnXlEdAHIOmohIx+rhqRT+XHdvED59KsqnVi9fS8VpxFnp28ukrF/Pw/lr+9+k2O1iRCMcsjvJ5+j4+cEoN+xNz+d+X+hgQporJJAHF4Ow57VxzWhOH23upDtXxf5vg4W1RFH+trTpIYJIUXgmWhV8FTWgzUhkeh4wjJ3KK3DgPKZdOW73ixHNw6IKUZkzkbMi2JAKFIiAJQqGIyeclAlkQsKMpCtdEJcnSmsPccHotzx+u4r7NBuG4F8vs4oYl+1i79gQ+ty5KZ5eJ1xCqB4Wk0cdlCzu4/uR6nm6bz23PttOdEC6PCqqiUevr5/oTErxteYBDfQFue07jyZ1RVK9/8LgVCZuGjl3n9/zjNRZzakWrQ/kfnAwUgiAIGqTZag/5kQhIBMobAUkQynt+ZO8qCgFhgiiE+kK0b+E1u/nIWp1ls0J886E+Xu+vpy9+mJ+/rZ9Q7Tw+e3c/UULoprBbiDPXt58PnWJwyqIZ3LdnFr94op0uI4GhKHgskfhJYUGoi89dOA1dreKnT5u8uC+Gqml2XgXLKid3RYcgOARFpJ82UcyknXES1ckH4YaLqqgplp2VCEwhBCRBmEKTLYdaWgTEkegxB/Cp/cTVoO2ZcGpzBx88u4nfv6bywE4vhwa6+P0VBl6tns/8KUbY04xX6afZ2s87V5qsXTWbKg22HlL4wSM9dCdqBoMmiaPWo8ZYMT3JMcvm8cDGPjp7E6h20iUrRRDyHWOpjRad+lVFIYkutAp2P1VTSDVEXoiRUlDn23f5nERAIjARCEiCMBEoyzaOegQc1YLB/Kp23rHaz67+Wu59LYGS6OZTZ4dorK3lK+t6aI+afP7UGGsXVfH9hw+wr8uk0ZvkLcuqWLVsCXe9GqNJ7+e8pRoPvN7PXVvriEUD9l1cFZEWFYuoESeeiBLwBdFEbAUre0bIIZWD680g7u4iiqNjBlAKYb8jyxCJqwyqaWearwfdG2J/uJZwsgpV9ZC0OybtEI76l0MOsGIRkAShYqdOdrycEBDHXEJJckx9Kx89xcOzbbXcvslDMh7l8oU9XHf6DP7lCYXX3zRZoO/loxfPYVqVBaaBqQToNQM8utPg0S1hPIlO3r46wKyF8/jRkz20Hk7itwxhezgosndE98PDNo+Gh1D3O8ewE87ZSRUljCktW+RfCoLgJJo0aVA7uWKlxfHLGqnyV7Fxv8Z/PtpLQglgpTJMltM8yr5IBCQCQwhIgiBXg0SgCAiIAzdJkmW1HXz4ZJXnemq5/WWRZjlBrdrKFy+ezq7uOn72UDsej4+GwACrFtUS9GuE4wo7DyV4o80Ey4NqGShmP8GQj56oONy9IvjyMBVCIU6DwwmCha6KTJAmhqmCJZwri2+7oCoqXrOPc+f3c/4Js9mwN0KT2cmJxy7kxvsTtLdbBK24lB8UYe3JKiQCpUJAEoRSISvrnVIIiCNWhFye5e/lvccniAdq+dWGBK0DXrqTvXz1fJ1ldQ18/o+HiPumk8RgwEgSj4FPMwl4vbangsjYKG71wjBRqBM0K2lb/Y90iLvC+VwSAOc5FQOLBk8/xzf3463ysqnVT1t/wHYuGAoAPdw2YbgXxMhZH4VbpxOMSVTkOjCazPYe5v1rfPQF5nP7swdYae7gQ1edwCce9XH4kEUoEZEEYUq9JXKwlYaAJAiVNmOyv2WLgBDWe5UwZ88Lc9GqGl7YNcATu006k1E+cpLC0jmL+MzvDhLRalCE14HiEWaHKEJiYKd8clI8C12CyJHgZHh0Mj46n+H6+nwJglNSIWIlOKGlm0+s0WioD3LfdpW7XzLpi4qkTYKEiOPdllXYFhXC9NFJ5iQSSjlGhaJPznOCuIj00yoJywDDQtc9aKK/qbZOm97JB9fU8H9vBHhoWx/vnXuAy09fxo13W3T0+/CbUUkQynY1y45JBEASBLkKJAJFQ8AOk0RzIMwlyxKsmheivR/6o2GWTK9mc08jP3ngIKbmRR80DnSCCTlxAYbbFIjgR8JmQEgPxh02QGSKtKK8ZUGY9632oMX7iXkbuPWpJNvbA+jC08BWYwgXTRF7wbQPf0FchHGkcMREFZICkUrC+V4QBM2KsnJaPx6Pl42HQxiGCDRt0UWCixf1857javiv5yJs2tvBF8+roq5hLl+9o5WIWmu7PcqPREAiUL4ISIJQvnMje1ZxCIj7tQgClKA+NMDy2R5m1vjto7c3rvDSPo39HQnUVLAgd3j2vdxSsJTRvRHGY+sv8j+Ie79uRXjr0gRvXRFiz843WTy/jl/sqOK5XTo10X583iQ9cS+KFnCkBzYrSdjhGIU3QkCJEzc1Eug2eTAsg9XVb/Kxs+ps6cEfN1fz6PYEluqhjxhXrIxxybIGfvnwXur0Xt573hLu2F7N/Zu6EVkwHbXEeEZWcQtEdlgiUFEISIJQUdMlO1veCLjRAyGpmKiaSZWKiKtIxEySTKh2Rkdx2Aq7AvsQttM3OVIEJ9pg8T9JIYkQeR6MCBctTXLWinoefWEvJy4JsjXexLoXumkxO7jsrAW8fKiKxza326mnRYAjYXqpWhGObYpw5mIPHfEq7ttq0BrTINrK588yOWnBNN482EG8ej63PNhBVzQERHnHaoPT54V45C87WLOsGrV+Ad99pJ+OsIZqON4TQwRBEoXiz7ysUSIwPgQkQRgffrK0RCADgbQsA7aI3vnYmnk70qFzWE9kFEE7jJIQCJgJzl8U4dJjQ/z+2YOctCDAzMYmfrruIAnL4pJTptORqOfe5w+g2gRBw9BMmrQurl0V5+QlfiJqDb983uJl4ZUQ28VXr5vPU61NbHpxCx972yzu2prkzlc8VCkW166K8pZ5SWIDYczaufziBYtNew27L6ZQZVhOwCRLEb/LhSQRkAiUGwKSIJTbjMj+SASKjYCl284F/Vac0+Z0cv0ptfzqhT6WNMFpsxu4dV0Pe5O1BPWYTWL6k147oRJoRDBZ1dzDX6/xsrW9j8aGICZN/Gr9NlYH2/jA24/js+sD9B/o4BMnR/A3tfDdx6PE+3u55pgwlx9fT4/RyG9eMm2DzURCQTcNDHOAlc0mHVE/hwY0FEXmZyj2tMv6JALjRUAShPEiKMtLBMocAeEFISQWhpVgdf0h3rcmxCNvBqhV+zh3cQO33t/N1l4v6FVYlk/klsQQtgepfBLnLBng4mPn8YcN7cwK9nHu8fP41kMdXLEwymnL5vKxP4SJG3DStDY+fHYLj77eRUdbB+88qY7amgZ++gI8vMuLkVRQTQWPkWCmdxd/c8Wx3Lurlgef24fPIxJOSTFCmS8l2b0phoAkCFNswuVwJxcBN3mRo3ZwQh6X+pPKo4huJZnlEQe3D1MPYoU7WLPAxyMvtxHzNvFGu8GGgz7Qq0WYRUJKhDPn9vOuM2s5NFDH757pxt+/i/dcMI/fvhrnoiV+avVmvvT7XQwE62gI9PKh4yOcPE+jPe6nWlPx6h5+/LyQHuh2nYriwRPr5gMr9nPyaSfx+fsMujsNNMOw7TMkSSj1apD1SwTyR0AShPyxkk9KBMaJgGuR4P4cCixUyoPREC6KimHHXjCNGJcfm+CyJRrmQAdzmv0kq2cTTnoIaREe3Knxw/Vd6Go1jUo3Fy7s4L1nNfPwwSZue94g0rGPv7+wAcw4sxt8PHVgNj9/cAdWoBaPGufYug7+5pwGXjxksu6Vdt6zOkBVdSM/eqKf/WE/upZkdmwb33rPQp7tms0t9x7G76myEzk52SjlRyIgESgXBCRBKJeZkP2YMgg4kgMn8qAdbGjQj8GRKxT3Yzs42gaBScUibCQ4b14HnzrFZFaNhx6lgW8/HmPH4TjnzI3y9lOX8K31YTbtSxJUY5y/oIsPn9PIH3fX8IsXvAy07+NTa+JcdUwIw1fLVx4P8sKOfnSS+ACvFufYGV7UumYe3tbKeTP7eP/JNWzcP8Djmw8TiXTwwXPnUj/rGL52dzcd3U5eRztSpCQIxZ16WZtEYJwISIIwTgBlcYlAPgjYXgsWJFQLTTHRhRukIgIQingCHjvmgJ2DoWgEYSgAs2rpKEoChTBVSi9XrTJ413EqVZrFQWMaX7ovytaeGozYXm67Zjr7un38y7pOLF8NJ03v44YzG/nzLpU7N1tosT7OmHaQvz6rAcM/kxvv6KMvWoXXjKJZwnbBRGgL4sRQvV4CRh8XL/Vw7spaavSIHS+y19PAHzckeGbLAF5dd6JKFpQyKr/g0vnMi3xGIiARGB0BSRDk6pAIlBAB++CzjQQNqrU+mvUeZtR78HtNNE3HMDQ6wh7e6PHRG/fangMitfN4JQkiU6P4mHjsoMiqksRvxpim9PKeExUuXqXaf9sbnc7X/tzHtv5qeuPdfH1NhCWL5nPjnyKE43479fSqmQFaB+CNtrgt96hSOrnolBbiVpC7njlk2ywoioiuKKIsmqDoTqBmy0RRhNdClIVNFgtmB/F5q3h5zwA7DsXRVd1BXuBTbMFJCedUVi0RmCoISIIwVWZajnPCEXCCJwsBukmT3sFZC6OcvrSZgLeKfsMkaSkEVTsSAM/tjXO/CEAU9osYgyn1w9i67EZbEHGRvURpqQ0Tw0trbwC/keQti5Jcc4LJ7OoEu/qa+Nafutgfb8BDP5c0vcGFl5zGp+9P0tVm4jHimGbSjgapqZoTQVEc/kocy9LRRG+FcGTwhB9+u3eojmqnlu5LJFGTJiGvF03AMigtKYQduCGpRyvjBqsqpM6x4SxLSQSOdgQkQTjaZ1iOb9IQEMe8oWhEk31cs7ibd6ydxVN7DV4/aNHZFyVpWNR4YfUMg1Vzqlm3R2fda2AlReCg5BjUDSl3RvvWrmEpUU5t2Mc1a+roNYL8zyaF1w5DjWeAM2b18c4TgsSUWr5+dydtyWaqrAFWVu3hw9eewL89CZt3RdEtEexJ9EeoAdycEMIbQdz6Hf8IJxyUk29y5I9I6iTUKZowl3SkDCJqZC5NwYiVSYIwaQtaNjzlEJAEYcpNuRzwxCDgBBKOKxrdyXb+9W1eplfX8KU73qTHqMereXCSMRnM8bbxruN1wnVz+c1zFj29CXHntg/l0VUNDhlwTllHvC+eFemhbTsARXgGtPHlswyOnVlDa3eY7bEm/uu5JH1Rg6X6bm58S5CmlmncdF+UXb01+BIRFvkP85mrF/OHFz088GoXuuZDtYMm2Vma0qAThMH5OJkeshEEZxSiFicltJCZDE8dnf99P5MgDIW3dpJdjYl1TMySkK1IBCoMAUkQKmzCZHcrCwEhQegxevnny+tREv+/vTMPsquq8/jnLu++pd97ve/pbDTZ9wRDFiAwGSHIIjAiOANSJYxbaem4TI01OjWj/mFZTJWjjoOWOgoWIIthcQQSNkNCEhKyB0IWsnSn9369vP1uU+fefkknkJCFDunuc62yWn3v3XM+5+L53t/5/b6/CD9+6gBuqMLbdF3V771QRjc3TrGomTiOBzdaNHeYKF67Z3/Tf7+rELoXkX3v/N/LgbQYZ7Qz+5JK/nzAod45wr/d1sgr+zUS7YdYPr+ex7c6vLw3zfJxGT67IEhlcYTfbAvy9A6RXOhSrvXw6cV1rNkL25uSXp6Ed4ZwbCyD/j7WkfJs1+REcXB23z5ZIIg21YZnZe0qti89ZELD2SGVn5YETkFACgT5aEgCQ0RAbFZCAqSdPFdPCaJYQTa83YsbCOKqomWTTQCXcjfBTVPzlI1v5ME3bFo6s97b9ukuFZPqqI2iG7T0abiOQtbq5jPTEly7oJGvPZdieewQ1y+dzvdWmWiZBPfONygKBfnrW51MHRshFo1QQgY7VMYPVvXRmY0RsLKUFyn0ZlXPHVH0STjV5bV+HiJ2p/7ZEwWC4zW90r3+DiI64bXAkgLhgq+KvOHIJCAFwshcVzmri4BAYfMUIf+gIcL/Gvm865Uc5pSAl6RoOBkmRdu587Ii3nUbePhNh3wqjzbQ2MmPIBSKH48fKsTVXpZd4qBXjOO5nS6pZJZi5SD/cg2MH1vHfStNvjyjl/LSOr61shtVDzGrIsnNc2NUx4IknRB/2ZEk39/GXUuqeH6fw1NvWrhqmJzroiui36Q4NhD//v5v/KeLcAwd/uMCwS8dFVEDE1cJeBUbBX+Jobu//GVJYPQQkAJh9Ky1nOkFJ1DIEfAT8jTyBM1Wpo2rZFdXlGTGpUzvYMWEPhbMnMQjO3TW7c96UQWRmyC+YSm+T4BoZqQ7Fra3cdvUae18cqZKT9mlPPImJHs6WTHmKF9YFEKPV/CdZ/v44lXFvNUa5ucvtKOEilG0PDWxPLVRnbQZ4EhCIZtPct+iGHVV9dz/9AGShHFcsc0WogOnixGcfzmmWBJfAp355R/M+DkPVeEcixqLaOk32HzExnJAd/0+EvKSBCSB8yMgBcL58ZPflgROQ+DEd2zN7eHKqiP83ccX8+8va3S1HmFZVRu3LxnP2qNRHt+UJW36m6XrWqiqguvkqNC7UbUQzdk4qmYQdPJMCDRxx2ydztgYfrfVxeo5xD9dEWByTYyyqMHaXV1MntLAf71RxKadSXRVlBqKoSpeiaG3tTvCrcChKpimNBLkcLeDqQg/xMK2fWEWVxwPiHbPZ7ql256vhItjO1xSbnP9vEp2HrJ5bb9I0BSRmtw5VIBcmLnKu0gCw4mAFAjDabXkWIcVAV8e+McDoqNi2uzhOwuTzJrcwD2PtzKnNM3nrxjDgWScB1/voaNPRAsGjIcVCChZpoeO8IUbJ9Cn1/G951IkE3k0J82UWAdfWmBSW13J45s7CCkml8+bynNvJbllikolnfQUXcI9j5lkUprndOibNh1/ufYPEBTv/F5UKChCQZzgaXBhcBcqHM5UltiKEDtC5bietXMkYJPNh8jaGppIVPSqP+QlCUgC50tACoTzJSi/LwmcgsBxdwDhA6CSMFP8cEkfMxqi/PaVA9y+YiHv9hTxu1e6aOu10VXN272FpBBbnOH2cc+lzaxY3MDPdlaw+i0Xsha2k2NebR9fXRrDiAQIBIMobjGr3w3ywOqtfHcZ/O0Ek419E/naI80EQuWejXPhDV0ZOELwhIH3t/iXECbiM2f6Hn+2y+6/9fuHF4OlgC9Q1JMSCz1zpYHCSPGXX8LoX5ZiYVtZ357aCON4XSKDqFgIGyfVn9jZDlB+XhKQBE4iIAWCfCQkgSEk4G+4fq1+1urk25f3c83UKroTPSS1OD9+2WF/bwVBz53QGqjkF4LC9hIYP9PYwSeWjuWeR9tIWGNQbZsyvYdbG7OeJfIftiZIZ0x0JUJTl0Pasbmmrodblk/nxZ0Of37jEK4e9dwMC5vzCSJAcQc21OOJkEOBQ9xT9WoMHI+GiKgowonRtbzohZAOok+D5oq5i0hGjrCbxHFtcnoUxw2hOiIvw6ZM6+CaRhu0OGv2OrSZRV6po19vIb0QhmL95G+OTgJSIIzOdZezvmAEjqffBZxO7mxs58arJrFmfy/T6mNsfdfiya0Wnbmo17ipEHVwRTKi4jJeb+IbN9SRsjX++Oo7JPMK40scrl/YyOqmKCu3ZXCdIKpjedsvrkPAtSiOGfT0iS3XxlSEUbK/fZ78Xj1YNJxNouDZ4vPf6kVFhBAICnnV9ebrFSmKYxXF9nIkVFcDN0+N0czl9RYNNWkCwyQAABGWSURBVOXs6XbYeChAT76YKEkWVTfzletK6c0ZrHonwKNbLTJ2EfoAPT/WIKMIZ7tG8vOSwMkEpECQz4QkcEEIKN4b8YzwUb5yxzR+/tdeKsN5lk+O0tXv8OyuLNs6wpimgWh1JC6xvVt2PwvrLe74WCnlYQfLzGFrRWztDPHk1iTtCSEk/H4P4kxe/O06OppmYFspVEW4Knp1EQMC4ez6Jp4/msJGLVwKFMQhCk6eWCgN5DAJkjNLEHUHnsmRohC0urj7Mph7aSVdaZuqIpW9rQ6/Wp/DNTPcNbmTeTOq2NvWS7y4nEc22GxtC6EQ8I4q5OHC+a+a/AVJwJPZly9bIf95ks+CJHABCAhr5YDVxk/uqGB7a5ifvXSYy8eFuHFGlHBY5bV9aTa+q9KVDmF6YXdx+i4qGSxqi/qY3lBEPBQgkdV4q8mis1+0jRYmQeK9/PgZvWigJMRCwb9AhOz90/9CFoAI73tH+AMxhQ/6v4APKnU8NTxfHvh5BuIumpNjbEQ0rnKoLwuRSGtsOxpkU2fQi34UGyalSjd3L4rTZJWzclMLC6odbrmshrVHVZ7ZsJevXa6SClTz/I6j3LBwHM3dAR7bnKEnHUAXkZJj87oAiypvIQmMYAJSIIzgxZVTu7gI5JUAGbOT712RZfyYBv752TT5rMPYeJplkw1m1QU41Gnzwh6XPV0BbO+MXoTlwVYd8mbe2/jFW3ZI88/c/Y3++FvzcQlwvDbgxHfq99vsT9dm6biTot+s6bgQEcmOp7oKPgoi99BRxeGCEC0OUaeV+64IMHFMOXubk0RCOtGIwaM7bY52prlmIlRo3UwdV8kLzTU8uz2Dmk7wiSkuNy2oYNPuvUytgbeS9fz21Q7mTK6ksa6GV3Z0caTT9vwiTuwZcXE9A3I0ksBwIiAFwnBaLTnWYU3AL3fMM6esmS9d28hjb8Lq3RlcXSOup1g4zuGqKVFyeZfnd+fZ2gy2XeSlF3qlfV4QXoTixV+D7YLES/O5v+Wf7v1fFTJkQD84iuMlTxYuv4nTe8/6CyPxCjZF8yhFyAMNVTGp05r4wafreXUfPP5GL2VRh1vmh7ACJaza1sP0Wp1F4xwaSjWe2hvjsU0W+bxGkdvO38+Gj08zSFsaTx0o4eG1rUSjUaLhIOmsi2mJvIaztV0a1o+UHLwkMKQEpEAYUrzyxyWBAgGxbdreRh9y2vjX5SFMQ/RASGHbETTXRNctplZmuX6aQSxi8NKePGv2Q86JeP4IXjNFL1Tvl0KemHI4FEl5yrEKB3FjWxENkUQXRz8+4NVFeBvyiWPxqxQgoiYZE7Npz0e9owRdtQm5zfz09no2N2n89NU0GCEW1Ca4a2EFT2/Psv5AhvkNcMccF1Mv5vcbHLY0aWiqQjWdfHJBiOraCTy8Kc2Opj6vdsFLwFSElCn0lPygIxP5VEoCksCZEJAC4Uwoyc9IAh8CAe+oQNEIuhmubujkpsVj+eV6ly3vWhial76HSo7x8TTXzQpTUlHLAy+109IfQHf8dsni8re/927Kx3wOBvVuOJ9sfq84s1B2KLoluiYuNiHVImo4JHOQV6K4XvWFn+cgOiOIS3FSzKjs5doZFaw+oLH1iGgK6ZK3u/j+lQ4V9Q1864kEfW6csZFWvr7YYHtPCQ9utonY/XxhQZ7rpgTY0RPl/ldMEpkImmkRj2SJRsI092nkhP+BLVpji3v7/Hwu0ijpQ3hc5U9IAjJJUT4DksCFIiA2UEf4DqAQNfr46vIathyEZ7cl0IwIiiM8AXwL5KqoSXV5mP0tOa9vwnuPEI6/JQ82ZPI254F0RH+79P/TuV6aK1wLRdfJfsaXa3TlLEpCJtfOrqYtE+OJNU2gRbx4givEhJPx7IrKAklumWpz6cTx/H5jjj2twjpaJFPaXFFxiC/fMIUH1qo8/3aahkg3n51rkQg38sv1Cm66j6uqu/niEp3ykiC/3l3Gk6/3gBLxLZPsPJpeqMwQ1Rt+PEMKhHNdZfk9SeD9CcgIgnwyJIELRKCQzY+roah5xsXzpHM6HWkFRbgoDoTrC54Ffi+GwtvwB7kU+FUPKKKccGDDFL+neHUQZ5C3N/j3fUHhSQtXQydHg9HGjZdVsKG/iLcP97OkPkxWK+XFLUchEPTKCwNqmoW1WfSAQl9PghUzS9njVrFyi42Z8o9HLE1Dyx7gJzeVk9ZL+dELCUJOilun5rCrZvGLjS5mKkkxHdw8VeWqmbVsaInx0KqDuFrUD4iIqoxTah4ZQbhAj7O8zSggIAXCKFhkOcWLg4AvEMT2XQjDiy6PXhrggMWxf2zgn/D76Yj+qbrvxPj+9sF+8aIpvA4UDcPNoNkZNNfBVkNYqog+iMT+M4kiiDv59xT3E1JDvPMHHIs5JS3cvqiYlUcreHmvRqmZ9UoXs7aC7dk1mwQCKT4zL8LSCQZqpgvNCPC/e8K8sEvDsFSvI5MoubScFFeXd/Lla+tY/Y7FS1sO84nZBtmKaV4EwUplCDh5QmqK0pBD1jRImUU4ohzCc4c+XUxECoSL42mXoxgJBKRAGAmrKOcwLAj4kQH/rd7rIzDoKGDwBPx3eVEtUNgI3ysQxEYrOiD6n3Rx7T5KaGd6hcuM2ii65tCcDLKhOUBHTrx56+8rMApxg0Jeg2+55FdL+AJB9DZwmVfayp2L4zzZVMrqPQbhXA6DNDl0NEX4ISpYuBTrSeY3WNw6J8jEuMqv1ud5dk8Ixw0OyBy/04ThJLhrVo5lM8rZuLuZaCRAc/RSfrvOxM0IN0gXS8QwRImkEDeDSipPL3VOTt4cFo+GHKQkcFESkALholwWOaiRTeDEbfnEuZ7qKOG926Lfi9Gk2D7C1eNyfHxBDSXl5eQcw9uEbTXKqn0GDz2/ByMUO6VAKJgm+bEN1atWsBQHzTXwGju5GS4ra+POy0t4tDnGy/tCxJI9TCrJcDhrkM0b2AgBIjwbVLJOP3MqW/jm4jA5o4b/XptmV4uB6kU5RLKjgauYlKot3Le0hMWNxfTaRazc7fCnTZ3gGl4EZMDxaADPmURARvZTI2cnCVxoAlIgXGji8n6SwHkSKBwZKOQYE27nttlBpl9az96eCKu2d7H7aD+mbRIJBEhbESwndJJfwWCBonqVCq5iDWT/GzhKliISxDSHhBnBdnTmlnVx6+IKnmopY907CjXpJr5920RePajxzPp2lEBgwO7ZLzscF+/jc/OyLJ4QYFtXlP9ck2Vfr0pAUdGdMAh/BM0h4iaYXV+Mq2nsbc3RnzdwTuGvcJ7Y5NclAUngLAlIgXCWwOTHJYGPnoA4nrC4JNbB7XMDVNTW8/Qui5d2pzHtIAFdNGcS5RDKsQ6IYsz+sUEhBF+wXw54+QlCIIgiRfGJiJrnyoYkKy6r5ZltSdbscag3uvjUFWWsTdazbkc/jWYT37yljmf2RfjTll50gp5AEJEBcZwRJsnNUzP8wxyLSDDC/+yM8sT2PGY+7OHzsgkc3y/BcR0U1fWaLXkZFeJE4ZQ5Fx89fTkCSWC0EJACYbSstJzniCEgcgNKtS5ummYxZcoEHtqc5c2DDoobRHctL2dAEU2bvFN/Yc7k+H4GA/0OhRAQiX55IKiKBk8OpiM+byPKGkOKy4RIJ9dfVkJxPMpTbyZJtLRx+5IyNuRqeHl7hjFmK9+9tc47wvjjxj4UTUQQTM/rwC95NBkbT3Hn3ACz6uNs6i7j1y82ex0YRcNGz3xZCBNXJC6K/8IrAhUFCu+fizliVk9ORBIYPgSkQBg+ayVHKgn4b9+uxcRQK5+ep3FEr+V3bwaw0iq6mx9ILPSPEAoHCcJ7wY8diM+ITVm4IlpUhRNMrchTHFFp7Q+ztTOIZUZRXSEostTF+rhrUQkBxWH7tkPMnFLGq2Y9q3ZCNHmEH90cpyMV5/srW7FDpV5iZKGbouhE6WIypthhel057f0We1sz5EQ1g1eJMJCvecKavrfUUi65JCAJfHQEpED46NjLO0sC50RAvGlXBnr45EyL8qpyHt7scrBjIAfghJ4MKq6ioqkWuttPSTBHRA/QbxrYuW5unKExb3I12UyWeDTOn7f18pc9IgchjOpAgBRzK5J8an6cIrsXNWbwh5ZyVu3SMfrb+Pz8PFdOKuUXq49wOF/PkR5xVOE7GvodJDVs18GxbAxVRdf0Qf4FIgnx5MRDGT44pwdCfkkSGCICUiAMEVj5s5LAUBLQyDG7OsVtC2Ic6NZ5YkueRFof6GYoIgQaimsSdlNMrkjRWOEwpiKIEYzQlzRJdbfzsUm1bOkrZt3bXVzb6DJ3Qhm/WJNgQ3MIlTiqmyGq5JhZm+Pa6WGqyov41TaT9ftVgqbJhGiCzy2Jo0WirDtSxMrXm1D0yMDGLyIFfjMncZzhdaE8Ma5xhq2mh5Ki/G1JQBI4HQEpEOTzIQkMQwLCzCikZVjeaHHVlFKe2Zll3X4V2wkiXuJdJ02l0cKyiQYzx8Ywioo51AW92RQzKmwuiVg4Rik/ft1l/WGNsYEW7l0SprIkzi/XtbP3qIJuGCTtKAHFpKHEobw0yoFOk0SfcGZUcdw84yoVymJBulIBDremfEfIASHgxwMKjZ9PLlv0DhqGIXk5ZElg9BCQAmH0rLWc6Qgh4DV9GjBZqgn18dkFGkXRKL9Zm+Vob5Co28qM2iyLJ0Woqx3DzhaXzYdznkDIpntZMS7N3fPD5COV/McLKba1RcHNMCXew5euLMdVc7xzNMsRq5Knd9u4ljBlcrxqg4DoJaGIPAbdi1JYroNlWwRF+aIqvBAK18mGRX4ehBQFI+QhlNMYFQSkQBgVyywnOZIIFAyZHUW0gM6wtLaP2xfEWHPYYv3uNv6m0WDa5BpSdogXtiU50KnTlRLVDKKk0WJypIN/XKgxpr6aHz6fZkdHDFMF3TaZW9nH8plRguEiXjus8OLbeXBUzwLJb4okIgFCnmhesqM4PRDjEMZMXkvqYzkQBctjGSUYSc+enMvoIiAFwuhabznbEULAL2BUPTPkiNvN3Qt0Zo7VyKU7qSmr4smDMV7ZlSSbVrg00k8kHGXTURtTK0Jxurh3vsXVk4q5/8UcWztKcVQHxdHQdZOokUHTNPrzAbKmODLwDZiFX4IvAI43cyqYQZue9bP4XwebMMm2yyPkcZPTGKUEpEAYpQsvpz3cCfgbsdiqdWGaVJTg3qU6c2syJIxL+PrLMbbvSVAbaOEbS6FfqeOBV3rJqEX02SlumGxy86xqHnotwY4241hRpKvouI7oqiCaJorukIPaSnsRhMFX4digMJLhzlSOXxKQBAYTkAJBPg+SwDAnIMyJdCfF4rokn18aJaUE+PqTPeTzQeaUHOFzN8zk8R0GfxGOh4EwaWwqQhYNMYPmboukqXtdJf3ruNPiydv+BzWcHuYY5fAlAUngJAJSIMhHQhIY5gRsxS9rNKx+PjU9zx3zwhzutnhnXxMfm1HCPqZz//+1kjNFDoLt9ToQHgVedMA7Njj5KEAaFg3zR0IOXxL4UAhIgfChYJQ/Igl8dASEz4AQCOIyrB6WTXC4bl41pfEIB/td/rCmn/3tFrrfnsFLJvRSCJVCXsFHN3Z5Z0lAErh4CUiBcPGujRyZJHDGBLzUQWGjrBpkHYug00s8YtCV1dCVEPpALoH4TCHJcHAGwRnfSH5QEpAERg0BKRBGzVLLiY4WAhY6qqKiisiCKw4TRKdGv0viiT4E0pdgtDwTcp6SwLkQkALhXKjJ70gCFz0B38OwYHB80Q9XDlASkAQuOgJSIFx0SyIHJAmcH4FCYWIhPiCrD86Pp/y2JDBaCUiBMFpXXs57hBOQlQgjfIHl9CSBIScgBcKQI5Y3kAQkAUlAEpAEhh8BKRCG35rJEUsCkoAkIAlIAkNOQAqEIUcsbyAJSAKSgCQgCQw/AlIgDL81kyOWBCQBSUASkASGnIAUCEOOWN5AEpAEJAFJQBIYfgSkQBh+ayZHLAlIApKAJCAJDDkBKRCGHLG8gSQgCUgCkoAkMPwI/D+vBepVEOnIDAAAAABJRU5ErkJggg==;imageBorder=default;" vertex="1" parent="1">
                    <mxGeometry x="-40" y="170" width="270" height="211.84" as="geometry"/>
                </mxCell>
            </root>
        </mxGraphModel>
    </diagram>
</mxfile>